G04 #@! TF.GenerationSoftware,KiCad,Pcbnew,5.0.2+dfsg1-1*
G04 #@! TF.CreationDate,2019-02-01T15:12:52+03:00*
G04 #@! TF.ProjectId,stm32_48pin,73746d33-325f-4343-9870-696e2e6b6963,rev?*
G04 #@! TF.SameCoordinates,PX14fb180PY2625a00*
G04 #@! TF.FileFunction,Soldermask,Bot*
G04 #@! TF.FilePolarity,Negative*
%FSLAX46Y46*%
G04 Gerber Fmt 4.6, Leading zero omitted, Abs format (unit mm)*
G04 Created by KiCad (PCBNEW 5.0.2+dfsg1-1) date Пт 01 фев 2019 15:12:52*
%MOMM*%
%LPD*%
G01*
G04 APERTURE LIST*
%ADD10C,0.100000*%
G04 APERTURE END LIST*
D10*
G36*
X13650000Y-39050000D02*
X11750000Y-39050000D01*
X11750000Y-37150000D01*
X13650000Y-37150000D01*
X13650000Y-39050000D01*
X13650000Y-39050000D01*
G37*
G36*
X20482971Y-37161455D02*
X20506232Y-37163746D01*
X20685308Y-37218068D01*
X20850345Y-37306282D01*
X20995001Y-37424999D01*
X21113718Y-37569655D01*
X21201932Y-37734692D01*
X21201932Y-37734693D01*
X21256254Y-37913769D01*
X21274597Y-38100000D01*
X21257899Y-38269534D01*
X21256254Y-38286232D01*
X21201932Y-38465308D01*
X21113718Y-38630345D01*
X20995001Y-38775001D01*
X20850345Y-38893718D01*
X20685308Y-38981932D01*
X20506232Y-39036254D01*
X20482971Y-39038545D01*
X20366670Y-39050000D01*
X20273330Y-39050000D01*
X20157029Y-39038545D01*
X20133768Y-39036254D01*
X19954692Y-38981932D01*
X19789655Y-38893718D01*
X19644999Y-38775001D01*
X19526282Y-38630345D01*
X19438068Y-38465308D01*
X19383746Y-38286232D01*
X19382101Y-38269534D01*
X19365403Y-38100000D01*
X19383746Y-37913769D01*
X19438068Y-37734693D01*
X19438068Y-37734692D01*
X19526282Y-37569655D01*
X19644999Y-37424999D01*
X19789655Y-37306282D01*
X19954692Y-37218068D01*
X20133768Y-37163746D01*
X20157029Y-37161455D01*
X20273330Y-37150000D01*
X20366670Y-37150000D01*
X20482971Y-37161455D01*
X20482971Y-37161455D01*
G37*
G36*
X2702971Y-37161455D02*
X2726232Y-37163746D01*
X2905308Y-37218068D01*
X3070345Y-37306282D01*
X3215001Y-37424999D01*
X3333718Y-37569655D01*
X3421932Y-37734692D01*
X3421932Y-37734693D01*
X3476254Y-37913769D01*
X3494597Y-38100000D01*
X3477899Y-38269534D01*
X3476254Y-38286232D01*
X3421932Y-38465308D01*
X3333718Y-38630345D01*
X3215001Y-38775001D01*
X3070345Y-38893718D01*
X2905308Y-38981932D01*
X2726232Y-39036254D01*
X2702971Y-39038545D01*
X2586670Y-39050000D01*
X2493330Y-39050000D01*
X2377029Y-39038545D01*
X2353768Y-39036254D01*
X2174692Y-38981932D01*
X2009655Y-38893718D01*
X1864999Y-38775001D01*
X1746282Y-38630345D01*
X1658068Y-38465308D01*
X1603746Y-38286232D01*
X1602101Y-38269534D01*
X1585403Y-38100000D01*
X1603746Y-37913769D01*
X1658068Y-37734693D01*
X1658068Y-37734692D01*
X1746282Y-37569655D01*
X1864999Y-37424999D01*
X2009655Y-37306282D01*
X2174692Y-37218068D01*
X2353768Y-37163746D01*
X2377029Y-37161455D01*
X2493330Y-37150000D01*
X2586670Y-37150000D01*
X2702971Y-37161455D01*
X2702971Y-37161455D01*
G37*
G36*
X6030000Y-39050000D02*
X4130000Y-39050000D01*
X4130000Y-37150000D01*
X6030000Y-37150000D01*
X6030000Y-39050000D01*
X6030000Y-39050000D01*
G37*
G36*
X17942971Y-37161455D02*
X17966232Y-37163746D01*
X18145308Y-37218068D01*
X18310345Y-37306282D01*
X18455001Y-37424999D01*
X18573718Y-37569655D01*
X18661932Y-37734692D01*
X18661932Y-37734693D01*
X18716254Y-37913769D01*
X18734597Y-38100000D01*
X18717899Y-38269534D01*
X18716254Y-38286232D01*
X18661932Y-38465308D01*
X18573718Y-38630345D01*
X18455001Y-38775001D01*
X18310345Y-38893718D01*
X18145308Y-38981932D01*
X17966232Y-39036254D01*
X17942971Y-39038545D01*
X17826670Y-39050000D01*
X17733330Y-39050000D01*
X17617029Y-39038545D01*
X17593768Y-39036254D01*
X17414692Y-38981932D01*
X17249655Y-38893718D01*
X17104999Y-38775001D01*
X16986282Y-38630345D01*
X16898068Y-38465308D01*
X16843746Y-38286232D01*
X16842101Y-38269534D01*
X16825403Y-38100000D01*
X16843746Y-37913769D01*
X16898068Y-37734693D01*
X16898068Y-37734692D01*
X16986282Y-37569655D01*
X17104999Y-37424999D01*
X17249655Y-37306282D01*
X17414692Y-37218068D01*
X17593768Y-37163746D01*
X17617029Y-37161455D01*
X17733330Y-37150000D01*
X17826670Y-37150000D01*
X17942971Y-37161455D01*
X17942971Y-37161455D01*
G37*
G36*
X15402971Y-37161455D02*
X15426232Y-37163746D01*
X15605308Y-37218068D01*
X15770345Y-37306282D01*
X15915001Y-37424999D01*
X16033718Y-37569655D01*
X16121932Y-37734692D01*
X16121932Y-37734693D01*
X16176254Y-37913769D01*
X16194597Y-38100000D01*
X16177899Y-38269534D01*
X16176254Y-38286232D01*
X16121932Y-38465308D01*
X16033718Y-38630345D01*
X15915001Y-38775001D01*
X15770345Y-38893718D01*
X15605308Y-38981932D01*
X15426232Y-39036254D01*
X15402971Y-39038545D01*
X15286670Y-39050000D01*
X15193330Y-39050000D01*
X15077029Y-39038545D01*
X15053768Y-39036254D01*
X14874692Y-38981932D01*
X14709655Y-38893718D01*
X14564999Y-38775001D01*
X14446282Y-38630345D01*
X14358068Y-38465308D01*
X14303746Y-38286232D01*
X14302101Y-38269534D01*
X14285403Y-38100000D01*
X14303746Y-37913769D01*
X14358068Y-37734693D01*
X14358068Y-37734692D01*
X14446282Y-37569655D01*
X14564999Y-37424999D01*
X14709655Y-37306282D01*
X14874692Y-37218068D01*
X15053768Y-37163746D01*
X15077029Y-37161455D01*
X15193330Y-37150000D01*
X15286670Y-37150000D01*
X15402971Y-37161455D01*
X15402971Y-37161455D01*
G37*
G36*
X23022971Y-37161455D02*
X23046232Y-37163746D01*
X23225308Y-37218068D01*
X23390345Y-37306282D01*
X23535001Y-37424999D01*
X23653718Y-37569655D01*
X23741932Y-37734692D01*
X23741932Y-37734693D01*
X23796254Y-37913769D01*
X23814597Y-38100000D01*
X23797899Y-38269534D01*
X23796254Y-38286232D01*
X23741932Y-38465308D01*
X23653718Y-38630345D01*
X23535001Y-38775001D01*
X23390345Y-38893718D01*
X23225308Y-38981932D01*
X23046232Y-39036254D01*
X23022971Y-39038545D01*
X22906670Y-39050000D01*
X22813330Y-39050000D01*
X22697029Y-39038545D01*
X22673768Y-39036254D01*
X22494692Y-38981932D01*
X22329655Y-38893718D01*
X22184999Y-38775001D01*
X22066282Y-38630345D01*
X21978068Y-38465308D01*
X21923746Y-38286232D01*
X21922101Y-38269534D01*
X21905403Y-38100000D01*
X21923746Y-37913769D01*
X21978068Y-37734693D01*
X21978068Y-37734692D01*
X22066282Y-37569655D01*
X22184999Y-37424999D01*
X22329655Y-37306282D01*
X22494692Y-37218068D01*
X22673768Y-37163746D01*
X22697029Y-37161455D01*
X22813330Y-37150000D01*
X22906670Y-37150000D01*
X23022971Y-37161455D01*
X23022971Y-37161455D01*
G37*
G36*
X23148830Y-34254677D02*
X23189776Y-34267098D01*
X23227510Y-34287267D01*
X23260587Y-34314413D01*
X23287733Y-34347490D01*
X23307902Y-34385224D01*
X23320323Y-34426170D01*
X23325000Y-34473658D01*
X23325000Y-35101342D01*
X23320323Y-35148830D01*
X23307902Y-35189776D01*
X23287733Y-35227510D01*
X23260587Y-35260587D01*
X23227510Y-35287733D01*
X23189776Y-35307902D01*
X23148830Y-35320323D01*
X23101342Y-35325000D01*
X22398658Y-35325000D01*
X22351170Y-35320323D01*
X22310224Y-35307902D01*
X22272490Y-35287733D01*
X22239413Y-35260587D01*
X22212267Y-35227510D01*
X22192098Y-35189776D01*
X22179677Y-35148830D01*
X22175000Y-35101342D01*
X22175000Y-34473658D01*
X22179677Y-34426170D01*
X22192098Y-34385224D01*
X22212267Y-34347490D01*
X22239413Y-34314413D01*
X22272490Y-34287267D01*
X22310224Y-34267098D01*
X22351170Y-34254677D01*
X22398658Y-34250000D01*
X23101342Y-34250000D01*
X23148830Y-34254677D01*
X23148830Y-34254677D01*
G37*
G36*
X20648830Y-34254677D02*
X20689776Y-34267098D01*
X20727510Y-34287267D01*
X20760587Y-34314413D01*
X20787733Y-34347490D01*
X20807902Y-34385224D01*
X20820323Y-34426170D01*
X20825000Y-34473658D01*
X20825000Y-35101342D01*
X20820323Y-35148830D01*
X20807902Y-35189776D01*
X20787733Y-35227510D01*
X20760587Y-35260587D01*
X20727510Y-35287733D01*
X20689776Y-35307902D01*
X20648830Y-35320323D01*
X20601342Y-35325000D01*
X19898658Y-35325000D01*
X19851170Y-35320323D01*
X19810224Y-35307902D01*
X19772490Y-35287733D01*
X19739413Y-35260587D01*
X19712267Y-35227510D01*
X19692098Y-35189776D01*
X19679677Y-35148830D01*
X19675000Y-35101342D01*
X19675000Y-34473658D01*
X19679677Y-34426170D01*
X19692098Y-34385224D01*
X19712267Y-34347490D01*
X19739413Y-34314413D01*
X19772490Y-34287267D01*
X19810224Y-34267098D01*
X19851170Y-34254677D01*
X19898658Y-34250000D01*
X20601342Y-34250000D01*
X20648830Y-34254677D01*
X20648830Y-34254677D01*
G37*
G36*
X16573830Y-33719677D02*
X16614776Y-33732098D01*
X16652510Y-33752267D01*
X16685587Y-33779413D01*
X16712733Y-33812490D01*
X16732902Y-33850224D01*
X16745323Y-33891170D01*
X16750000Y-33938658D01*
X16750000Y-34641342D01*
X16745323Y-34688830D01*
X16732902Y-34729776D01*
X16712733Y-34767510D01*
X16685587Y-34800587D01*
X16652510Y-34827733D01*
X16614776Y-34847902D01*
X16573830Y-34860323D01*
X16526342Y-34865000D01*
X15898658Y-34865000D01*
X15851170Y-34860323D01*
X15810224Y-34847902D01*
X15772490Y-34827733D01*
X15739413Y-34800587D01*
X15712267Y-34767510D01*
X15692098Y-34729776D01*
X15679677Y-34688830D01*
X15675000Y-34641342D01*
X15675000Y-33938658D01*
X15679677Y-33891170D01*
X15692098Y-33850224D01*
X15712267Y-33812490D01*
X15739413Y-33779413D01*
X15772490Y-33752267D01*
X15810224Y-33732098D01*
X15851170Y-33719677D01*
X15898658Y-33715000D01*
X16526342Y-33715000D01*
X16573830Y-33719677D01*
X16573830Y-33719677D01*
G37*
G36*
X18148830Y-33719677D02*
X18189776Y-33732098D01*
X18227510Y-33752267D01*
X18260587Y-33779413D01*
X18287733Y-33812490D01*
X18307902Y-33850224D01*
X18320323Y-33891170D01*
X18325000Y-33938658D01*
X18325000Y-34641342D01*
X18320323Y-34688830D01*
X18307902Y-34729776D01*
X18287733Y-34767510D01*
X18260587Y-34800587D01*
X18227510Y-34827733D01*
X18189776Y-34847902D01*
X18148830Y-34860323D01*
X18101342Y-34865000D01*
X17473658Y-34865000D01*
X17426170Y-34860323D01*
X17385224Y-34847902D01*
X17347490Y-34827733D01*
X17314413Y-34800587D01*
X17287267Y-34767510D01*
X17267098Y-34729776D01*
X17254677Y-34688830D01*
X17250000Y-34641342D01*
X17250000Y-33938658D01*
X17254677Y-33891170D01*
X17267098Y-33850224D01*
X17287267Y-33812490D01*
X17314413Y-33779413D01*
X17347490Y-33752267D01*
X17385224Y-33732098D01*
X17426170Y-33719677D01*
X17473658Y-33715000D01*
X18101342Y-33715000D01*
X18148830Y-33719677D01*
X18148830Y-33719677D01*
G37*
G36*
X30642971Y-32081455D02*
X30666232Y-32083746D01*
X30845308Y-32138068D01*
X31010345Y-32226282D01*
X31155001Y-32344999D01*
X31273718Y-32489655D01*
X31361932Y-32654692D01*
X31404324Y-32794440D01*
X31416254Y-32833769D01*
X31434597Y-33020000D01*
X31417899Y-33189534D01*
X31416254Y-33206232D01*
X31361932Y-33385308D01*
X31273718Y-33550345D01*
X31155001Y-33695001D01*
X31010345Y-33813718D01*
X30845308Y-33901932D01*
X30666232Y-33956254D01*
X30642971Y-33958545D01*
X30526670Y-33970000D01*
X30433330Y-33970000D01*
X30317029Y-33958545D01*
X30293768Y-33956254D01*
X30114692Y-33901932D01*
X29949655Y-33813718D01*
X29804999Y-33695001D01*
X29686282Y-33550345D01*
X29598068Y-33385308D01*
X29543746Y-33206232D01*
X29542101Y-33189534D01*
X29525403Y-33020000D01*
X29543746Y-32833769D01*
X29555676Y-32794440D01*
X29598068Y-32654692D01*
X29686282Y-32489655D01*
X29804999Y-32344999D01*
X29949655Y-32226282D01*
X30114692Y-32138068D01*
X30293768Y-32083746D01*
X30317029Y-32081455D01*
X30433330Y-32070000D01*
X30526670Y-32070000D01*
X30642971Y-32081455D01*
X30642971Y-32081455D01*
G37*
G36*
X28102971Y-32081455D02*
X28126232Y-32083746D01*
X28305308Y-32138068D01*
X28470345Y-32226282D01*
X28615001Y-32344999D01*
X28733718Y-32489655D01*
X28821932Y-32654692D01*
X28864324Y-32794440D01*
X28876254Y-32833769D01*
X28894597Y-33020000D01*
X28877899Y-33189534D01*
X28876254Y-33206232D01*
X28821932Y-33385308D01*
X28733718Y-33550345D01*
X28615001Y-33695001D01*
X28470345Y-33813718D01*
X28305308Y-33901932D01*
X28126232Y-33956254D01*
X28102971Y-33958545D01*
X27986670Y-33970000D01*
X27893330Y-33970000D01*
X27777029Y-33958545D01*
X27753768Y-33956254D01*
X27574692Y-33901932D01*
X27409655Y-33813718D01*
X27264999Y-33695001D01*
X27146282Y-33550345D01*
X27058068Y-33385308D01*
X27003746Y-33206232D01*
X27002101Y-33189534D01*
X26985403Y-33020000D01*
X27003746Y-32833769D01*
X27015676Y-32794440D01*
X27058068Y-32654692D01*
X27146282Y-32489655D01*
X27264999Y-32344999D01*
X27409655Y-32226282D01*
X27574692Y-32138068D01*
X27753768Y-32083746D01*
X27777029Y-32081455D01*
X27893330Y-32070000D01*
X27986670Y-32070000D01*
X28102971Y-32081455D01*
X28102971Y-32081455D01*
G37*
G36*
X2702971Y-32081455D02*
X2726232Y-32083746D01*
X2905308Y-32138068D01*
X3070345Y-32226282D01*
X3215001Y-32344999D01*
X3333718Y-32489655D01*
X3421932Y-32654692D01*
X3464324Y-32794440D01*
X3476254Y-32833769D01*
X3494597Y-33020000D01*
X3477899Y-33189534D01*
X3476254Y-33206232D01*
X3421932Y-33385308D01*
X3333718Y-33550345D01*
X3215001Y-33695001D01*
X3070345Y-33813718D01*
X2905308Y-33901932D01*
X2726232Y-33956254D01*
X2702971Y-33958545D01*
X2586670Y-33970000D01*
X2493330Y-33970000D01*
X2377029Y-33958545D01*
X2353768Y-33956254D01*
X2174692Y-33901932D01*
X2009655Y-33813718D01*
X1864999Y-33695001D01*
X1746282Y-33550345D01*
X1658068Y-33385308D01*
X1603746Y-33206232D01*
X1602101Y-33189534D01*
X1585403Y-33020000D01*
X1603746Y-32833769D01*
X1615676Y-32794440D01*
X1658068Y-32654692D01*
X1746282Y-32489655D01*
X1864999Y-32344999D01*
X2009655Y-32226282D01*
X2174692Y-32138068D01*
X2353768Y-32083746D01*
X2377029Y-32081455D01*
X2493330Y-32070000D01*
X2586670Y-32070000D01*
X2702971Y-32081455D01*
X2702971Y-32081455D01*
G37*
G36*
X5242971Y-32081455D02*
X5266232Y-32083746D01*
X5445308Y-32138068D01*
X5610345Y-32226282D01*
X5755001Y-32344999D01*
X5873718Y-32489655D01*
X5961932Y-32654692D01*
X6004324Y-32794440D01*
X6016254Y-32833769D01*
X6034597Y-33020000D01*
X6017899Y-33189534D01*
X6016254Y-33206232D01*
X5961932Y-33385308D01*
X5873718Y-33550345D01*
X5755001Y-33695001D01*
X5610345Y-33813718D01*
X5445308Y-33901932D01*
X5266232Y-33956254D01*
X5242971Y-33958545D01*
X5126670Y-33970000D01*
X5033330Y-33970000D01*
X4917029Y-33958545D01*
X4893768Y-33956254D01*
X4714692Y-33901932D01*
X4549655Y-33813718D01*
X4404999Y-33695001D01*
X4286282Y-33550345D01*
X4198068Y-33385308D01*
X4143746Y-33206232D01*
X4142101Y-33189534D01*
X4125403Y-33020000D01*
X4143746Y-32833769D01*
X4155676Y-32794440D01*
X4198068Y-32654692D01*
X4286282Y-32489655D01*
X4404999Y-32344999D01*
X4549655Y-32226282D01*
X4714692Y-32138068D01*
X4893768Y-32083746D01*
X4917029Y-32081455D01*
X5033330Y-32070000D01*
X5126670Y-32070000D01*
X5242971Y-32081455D01*
X5242971Y-32081455D01*
G37*
G36*
X20648830Y-32679677D02*
X20689776Y-32692098D01*
X20727510Y-32712267D01*
X20760587Y-32739413D01*
X20787733Y-32772490D01*
X20807902Y-32810224D01*
X20820323Y-32851170D01*
X20825000Y-32898658D01*
X20825000Y-33526342D01*
X20820323Y-33573830D01*
X20807902Y-33614776D01*
X20787733Y-33652510D01*
X20760587Y-33685587D01*
X20727510Y-33712733D01*
X20689776Y-33732902D01*
X20648830Y-33745323D01*
X20601342Y-33750000D01*
X19898658Y-33750000D01*
X19851170Y-33745323D01*
X19810224Y-33732902D01*
X19772490Y-33712733D01*
X19739413Y-33685587D01*
X19712267Y-33652510D01*
X19692098Y-33614776D01*
X19679677Y-33573830D01*
X19675000Y-33526342D01*
X19675000Y-32898658D01*
X19679677Y-32851170D01*
X19692098Y-32810224D01*
X19712267Y-32772490D01*
X19739413Y-32739413D01*
X19772490Y-32712267D01*
X19810224Y-32692098D01*
X19851170Y-32679677D01*
X19898658Y-32675000D01*
X20601342Y-32675000D01*
X20648830Y-32679677D01*
X20648830Y-32679677D01*
G37*
G36*
X23148830Y-32679677D02*
X23189776Y-32692098D01*
X23227510Y-32712267D01*
X23260587Y-32739413D01*
X23287733Y-32772490D01*
X23307902Y-32810224D01*
X23320323Y-32851170D01*
X23325000Y-32898658D01*
X23325000Y-33526342D01*
X23320323Y-33573830D01*
X23307902Y-33614776D01*
X23287733Y-33652510D01*
X23260587Y-33685587D01*
X23227510Y-33712733D01*
X23189776Y-33732902D01*
X23148830Y-33745323D01*
X23101342Y-33750000D01*
X22398658Y-33750000D01*
X22351170Y-33745323D01*
X22310224Y-33732902D01*
X22272490Y-33712733D01*
X22239413Y-33685587D01*
X22212267Y-33652510D01*
X22192098Y-33614776D01*
X22179677Y-33573830D01*
X22175000Y-33526342D01*
X22175000Y-32898658D01*
X22179677Y-32851170D01*
X22192098Y-32810224D01*
X22212267Y-32772490D01*
X22239413Y-32739413D01*
X22272490Y-32712267D01*
X22310224Y-32692098D01*
X22351170Y-32679677D01*
X22398658Y-32675000D01*
X23101342Y-32675000D01*
X23148830Y-32679677D01*
X23148830Y-32679677D01*
G37*
G36*
X28102971Y-29541455D02*
X28126232Y-29543746D01*
X28305308Y-29598068D01*
X28470345Y-29686282D01*
X28615001Y-29804999D01*
X28733718Y-29949655D01*
X28821932Y-30114692D01*
X28821932Y-30114693D01*
X28876254Y-30293769D01*
X28894597Y-30480000D01*
X28877899Y-30649534D01*
X28876254Y-30666232D01*
X28821932Y-30845308D01*
X28733718Y-31010345D01*
X28615001Y-31155001D01*
X28470345Y-31273718D01*
X28305308Y-31361932D01*
X28126232Y-31416254D01*
X28102971Y-31418545D01*
X27986670Y-31430000D01*
X27893330Y-31430000D01*
X27777029Y-31418545D01*
X27753768Y-31416254D01*
X27574692Y-31361932D01*
X27409655Y-31273718D01*
X27264999Y-31155001D01*
X27146282Y-31010345D01*
X27058068Y-30845308D01*
X27003746Y-30666232D01*
X27002101Y-30649534D01*
X26985403Y-30480000D01*
X27003746Y-30293769D01*
X27058068Y-30114693D01*
X27058068Y-30114692D01*
X27146282Y-29949655D01*
X27264999Y-29804999D01*
X27409655Y-29686282D01*
X27574692Y-29598068D01*
X27753768Y-29543746D01*
X27777029Y-29541455D01*
X27893330Y-29530000D01*
X27986670Y-29530000D01*
X28102971Y-29541455D01*
X28102971Y-29541455D01*
G37*
G36*
X2702971Y-29541455D02*
X2726232Y-29543746D01*
X2905308Y-29598068D01*
X3070345Y-29686282D01*
X3215001Y-29804999D01*
X3333718Y-29949655D01*
X3421932Y-30114692D01*
X3421932Y-30114693D01*
X3476254Y-30293769D01*
X3494597Y-30480000D01*
X3477899Y-30649534D01*
X3476254Y-30666232D01*
X3421932Y-30845308D01*
X3333718Y-31010345D01*
X3215001Y-31155001D01*
X3070345Y-31273718D01*
X2905308Y-31361932D01*
X2726232Y-31416254D01*
X2702971Y-31418545D01*
X2586670Y-31430000D01*
X2493330Y-31430000D01*
X2377029Y-31418545D01*
X2353768Y-31416254D01*
X2174692Y-31361932D01*
X2009655Y-31273718D01*
X1864999Y-31155001D01*
X1746282Y-31010345D01*
X1658068Y-30845308D01*
X1603746Y-30666232D01*
X1602101Y-30649534D01*
X1585403Y-30480000D01*
X1603746Y-30293769D01*
X1658068Y-30114693D01*
X1658068Y-30114692D01*
X1746282Y-29949655D01*
X1864999Y-29804999D01*
X2009655Y-29686282D01*
X2174692Y-29598068D01*
X2353768Y-29543746D01*
X2377029Y-29541455D01*
X2493330Y-29530000D01*
X2586670Y-29530000D01*
X2702971Y-29541455D01*
X2702971Y-29541455D01*
G37*
G36*
X5242971Y-29541455D02*
X5266232Y-29543746D01*
X5445308Y-29598068D01*
X5610345Y-29686282D01*
X5755001Y-29804999D01*
X5873718Y-29949655D01*
X5961932Y-30114692D01*
X5961932Y-30114693D01*
X6016254Y-30293769D01*
X6034597Y-30480000D01*
X6017899Y-30649534D01*
X6016254Y-30666232D01*
X5961932Y-30845308D01*
X5873718Y-31010345D01*
X5755001Y-31155001D01*
X5610345Y-31273718D01*
X5445308Y-31361932D01*
X5266232Y-31416254D01*
X5242971Y-31418545D01*
X5126670Y-31430000D01*
X5033330Y-31430000D01*
X4917029Y-31418545D01*
X4893768Y-31416254D01*
X4714692Y-31361932D01*
X4549655Y-31273718D01*
X4404999Y-31155001D01*
X4286282Y-31010345D01*
X4198068Y-30845308D01*
X4143746Y-30666232D01*
X4142101Y-30649534D01*
X4125403Y-30480000D01*
X4143746Y-30293769D01*
X4198068Y-30114693D01*
X4198068Y-30114692D01*
X4286282Y-29949655D01*
X4404999Y-29804999D01*
X4549655Y-29686282D01*
X4714692Y-29598068D01*
X4893768Y-29543746D01*
X4917029Y-29541455D01*
X5033330Y-29530000D01*
X5126670Y-29530000D01*
X5242971Y-29541455D01*
X5242971Y-29541455D01*
G37*
G36*
X30642971Y-29541455D02*
X30666232Y-29543746D01*
X30845308Y-29598068D01*
X31010345Y-29686282D01*
X31155001Y-29804999D01*
X31273718Y-29949655D01*
X31361932Y-30114692D01*
X31361932Y-30114693D01*
X31416254Y-30293769D01*
X31434597Y-30480000D01*
X31417899Y-30649534D01*
X31416254Y-30666232D01*
X31361932Y-30845308D01*
X31273718Y-31010345D01*
X31155001Y-31155001D01*
X31010345Y-31273718D01*
X30845308Y-31361932D01*
X30666232Y-31416254D01*
X30642971Y-31418545D01*
X30526670Y-31430000D01*
X30433330Y-31430000D01*
X30317029Y-31418545D01*
X30293768Y-31416254D01*
X30114692Y-31361932D01*
X29949655Y-31273718D01*
X29804999Y-31155001D01*
X29686282Y-31010345D01*
X29598068Y-30845308D01*
X29543746Y-30666232D01*
X29542101Y-30649534D01*
X29525403Y-30480000D01*
X29543746Y-30293769D01*
X29598068Y-30114693D01*
X29598068Y-30114692D01*
X29686282Y-29949655D01*
X29804999Y-29804999D01*
X29949655Y-29686282D01*
X30114692Y-29598068D01*
X30293768Y-29543746D01*
X30317029Y-29541455D01*
X30433330Y-29530000D01*
X30526670Y-29530000D01*
X30642971Y-29541455D01*
X30642971Y-29541455D01*
G37*
G36*
X28102971Y-27001455D02*
X28126232Y-27003746D01*
X28305308Y-27058068D01*
X28470345Y-27146282D01*
X28615001Y-27264999D01*
X28733718Y-27409655D01*
X28821932Y-27574692D01*
X28821932Y-27574693D01*
X28876254Y-27753769D01*
X28894597Y-27940000D01*
X28877899Y-28109534D01*
X28876254Y-28126232D01*
X28821932Y-28305308D01*
X28733718Y-28470345D01*
X28615001Y-28615001D01*
X28470345Y-28733718D01*
X28305308Y-28821932D01*
X28126232Y-28876254D01*
X28102971Y-28878545D01*
X27986670Y-28890000D01*
X27893330Y-28890000D01*
X27777029Y-28878545D01*
X27753768Y-28876254D01*
X27574692Y-28821932D01*
X27409655Y-28733718D01*
X27264999Y-28615001D01*
X27146282Y-28470345D01*
X27058068Y-28305308D01*
X27003746Y-28126232D01*
X27002101Y-28109534D01*
X26985403Y-27940000D01*
X27003746Y-27753769D01*
X27058068Y-27574693D01*
X27058068Y-27574692D01*
X27146282Y-27409655D01*
X27264999Y-27264999D01*
X27409655Y-27146282D01*
X27574692Y-27058068D01*
X27753768Y-27003746D01*
X27777029Y-27001455D01*
X27893330Y-26990000D01*
X27986670Y-26990000D01*
X28102971Y-27001455D01*
X28102971Y-27001455D01*
G37*
G36*
X5242971Y-27001455D02*
X5266232Y-27003746D01*
X5445308Y-27058068D01*
X5610345Y-27146282D01*
X5755001Y-27264999D01*
X5873718Y-27409655D01*
X5961932Y-27574692D01*
X5961932Y-27574693D01*
X6016254Y-27753769D01*
X6034597Y-27940000D01*
X6017899Y-28109534D01*
X6016254Y-28126232D01*
X5961932Y-28305308D01*
X5873718Y-28470345D01*
X5755001Y-28615001D01*
X5610345Y-28733718D01*
X5445308Y-28821932D01*
X5266232Y-28876254D01*
X5242971Y-28878545D01*
X5126670Y-28890000D01*
X5033330Y-28890000D01*
X4917029Y-28878545D01*
X4893768Y-28876254D01*
X4714692Y-28821932D01*
X4549655Y-28733718D01*
X4404999Y-28615001D01*
X4286282Y-28470345D01*
X4198068Y-28305308D01*
X4143746Y-28126232D01*
X4142101Y-28109534D01*
X4125403Y-27940000D01*
X4143746Y-27753769D01*
X4198068Y-27574693D01*
X4198068Y-27574692D01*
X4286282Y-27409655D01*
X4404999Y-27264999D01*
X4549655Y-27146282D01*
X4714692Y-27058068D01*
X4893768Y-27003746D01*
X4917029Y-27001455D01*
X5033330Y-26990000D01*
X5126670Y-26990000D01*
X5242971Y-27001455D01*
X5242971Y-27001455D01*
G37*
G36*
X2702971Y-27001455D02*
X2726232Y-27003746D01*
X2905308Y-27058068D01*
X3070345Y-27146282D01*
X3215001Y-27264999D01*
X3333718Y-27409655D01*
X3421932Y-27574692D01*
X3421932Y-27574693D01*
X3476254Y-27753769D01*
X3494597Y-27940000D01*
X3477899Y-28109534D01*
X3476254Y-28126232D01*
X3421932Y-28305308D01*
X3333718Y-28470345D01*
X3215001Y-28615001D01*
X3070345Y-28733718D01*
X2905308Y-28821932D01*
X2726232Y-28876254D01*
X2702971Y-28878545D01*
X2586670Y-28890000D01*
X2493330Y-28890000D01*
X2377029Y-28878545D01*
X2353768Y-28876254D01*
X2174692Y-28821932D01*
X2009655Y-28733718D01*
X1864999Y-28615001D01*
X1746282Y-28470345D01*
X1658068Y-28305308D01*
X1603746Y-28126232D01*
X1602101Y-28109534D01*
X1585403Y-27940000D01*
X1603746Y-27753769D01*
X1658068Y-27574693D01*
X1658068Y-27574692D01*
X1746282Y-27409655D01*
X1864999Y-27264999D01*
X2009655Y-27146282D01*
X2174692Y-27058068D01*
X2353768Y-27003746D01*
X2377029Y-27001455D01*
X2493330Y-26990000D01*
X2586670Y-26990000D01*
X2702971Y-27001455D01*
X2702971Y-27001455D01*
G37*
G36*
X30642971Y-27001455D02*
X30666232Y-27003746D01*
X30845308Y-27058068D01*
X31010345Y-27146282D01*
X31155001Y-27264999D01*
X31273718Y-27409655D01*
X31361932Y-27574692D01*
X31361932Y-27574693D01*
X31416254Y-27753769D01*
X31434597Y-27940000D01*
X31417899Y-28109534D01*
X31416254Y-28126232D01*
X31361932Y-28305308D01*
X31273718Y-28470345D01*
X31155001Y-28615001D01*
X31010345Y-28733718D01*
X30845308Y-28821932D01*
X30666232Y-28876254D01*
X30642971Y-28878545D01*
X30526670Y-28890000D01*
X30433330Y-28890000D01*
X30317029Y-28878545D01*
X30293768Y-28876254D01*
X30114692Y-28821932D01*
X29949655Y-28733718D01*
X29804999Y-28615001D01*
X29686282Y-28470345D01*
X29598068Y-28305308D01*
X29543746Y-28126232D01*
X29542101Y-28109534D01*
X29525403Y-27940000D01*
X29543746Y-27753769D01*
X29598068Y-27574693D01*
X29598068Y-27574692D01*
X29686282Y-27409655D01*
X29804999Y-27264999D01*
X29949655Y-27146282D01*
X30114692Y-27058068D01*
X30293768Y-27003746D01*
X30317029Y-27001455D01*
X30433330Y-26990000D01*
X30526670Y-26990000D01*
X30642971Y-27001455D01*
X30642971Y-27001455D01*
G37*
G36*
X9648830Y-26429677D02*
X9689776Y-26442098D01*
X9727510Y-26462267D01*
X9760587Y-26489413D01*
X9787733Y-26522490D01*
X9807902Y-26560224D01*
X9820323Y-26601170D01*
X9825000Y-26648658D01*
X9825000Y-27351342D01*
X9820323Y-27398830D01*
X9807902Y-27439776D01*
X9787733Y-27477510D01*
X9760587Y-27510587D01*
X9727510Y-27537733D01*
X9689776Y-27557902D01*
X9648830Y-27570323D01*
X9601342Y-27575000D01*
X8973658Y-27575000D01*
X8926170Y-27570323D01*
X8885224Y-27557902D01*
X8847490Y-27537733D01*
X8814413Y-27510587D01*
X8787267Y-27477510D01*
X8767098Y-27439776D01*
X8754677Y-27398830D01*
X8750000Y-27351342D01*
X8750000Y-26648658D01*
X8754677Y-26601170D01*
X8767098Y-26560224D01*
X8787267Y-26522490D01*
X8814413Y-26489413D01*
X8847490Y-26462267D01*
X8885224Y-26442098D01*
X8926170Y-26429677D01*
X8973658Y-26425000D01*
X9601342Y-26425000D01*
X9648830Y-26429677D01*
X9648830Y-26429677D01*
G37*
G36*
X8073830Y-26429677D02*
X8114776Y-26442098D01*
X8152510Y-26462267D01*
X8185587Y-26489413D01*
X8212733Y-26522490D01*
X8232902Y-26560224D01*
X8245323Y-26601170D01*
X8250000Y-26648658D01*
X8250000Y-27351342D01*
X8245323Y-27398830D01*
X8232902Y-27439776D01*
X8212733Y-27477510D01*
X8185587Y-27510587D01*
X8152510Y-27537733D01*
X8114776Y-27557902D01*
X8073830Y-27570323D01*
X8026342Y-27575000D01*
X7398658Y-27575000D01*
X7351170Y-27570323D01*
X7310224Y-27557902D01*
X7272490Y-27537733D01*
X7239413Y-27510587D01*
X7212267Y-27477510D01*
X7192098Y-27439776D01*
X7179677Y-27398830D01*
X7175000Y-27351342D01*
X7175000Y-26648658D01*
X7179677Y-26601170D01*
X7192098Y-26560224D01*
X7212267Y-26522490D01*
X7239413Y-26489413D01*
X7272490Y-26462267D01*
X7310224Y-26442098D01*
X7351170Y-26429677D01*
X7398658Y-26425000D01*
X8026342Y-26425000D01*
X8073830Y-26429677D01*
X8073830Y-26429677D01*
G37*
G36*
X28102971Y-24461455D02*
X28126232Y-24463746D01*
X28305308Y-24518068D01*
X28470345Y-24606282D01*
X28615001Y-24724999D01*
X28733718Y-24869655D01*
X28821932Y-25034692D01*
X28876254Y-25213768D01*
X28876254Y-25213769D01*
X28894597Y-25400000D01*
X28877899Y-25569534D01*
X28876254Y-25586232D01*
X28821932Y-25765308D01*
X28733718Y-25930345D01*
X28615001Y-26075001D01*
X28470345Y-26193718D01*
X28305308Y-26281932D01*
X28126232Y-26336254D01*
X28102971Y-26338545D01*
X27986670Y-26350000D01*
X27893330Y-26350000D01*
X27777029Y-26338545D01*
X27753768Y-26336254D01*
X27574692Y-26281932D01*
X27409655Y-26193718D01*
X27264999Y-26075001D01*
X27146282Y-25930345D01*
X27058068Y-25765308D01*
X27003746Y-25586232D01*
X27002101Y-25569534D01*
X26985403Y-25400000D01*
X27003746Y-25213769D01*
X27003746Y-25213768D01*
X27058068Y-25034692D01*
X27146282Y-24869655D01*
X27264999Y-24724999D01*
X27409655Y-24606282D01*
X27574692Y-24518068D01*
X27753768Y-24463746D01*
X27777029Y-24461455D01*
X27893330Y-24450000D01*
X27986670Y-24450000D01*
X28102971Y-24461455D01*
X28102971Y-24461455D01*
G37*
G36*
X30642971Y-24461455D02*
X30666232Y-24463746D01*
X30845308Y-24518068D01*
X31010345Y-24606282D01*
X31155001Y-24724999D01*
X31273718Y-24869655D01*
X31361932Y-25034692D01*
X31416254Y-25213768D01*
X31416254Y-25213769D01*
X31434597Y-25400000D01*
X31417899Y-25569534D01*
X31416254Y-25586232D01*
X31361932Y-25765308D01*
X31273718Y-25930345D01*
X31155001Y-26075001D01*
X31010345Y-26193718D01*
X30845308Y-26281932D01*
X30666232Y-26336254D01*
X30642971Y-26338545D01*
X30526670Y-26350000D01*
X30433330Y-26350000D01*
X30317029Y-26338545D01*
X30293768Y-26336254D01*
X30114692Y-26281932D01*
X29949655Y-26193718D01*
X29804999Y-26075001D01*
X29686282Y-25930345D01*
X29598068Y-25765308D01*
X29543746Y-25586232D01*
X29542101Y-25569534D01*
X29525403Y-25400000D01*
X29543746Y-25213769D01*
X29543746Y-25213768D01*
X29598068Y-25034692D01*
X29686282Y-24869655D01*
X29804999Y-24724999D01*
X29949655Y-24606282D01*
X30114692Y-24518068D01*
X30293768Y-24463746D01*
X30317029Y-24461455D01*
X30433330Y-24450000D01*
X30526670Y-24450000D01*
X30642971Y-24461455D01*
X30642971Y-24461455D01*
G37*
G36*
X5242971Y-24461455D02*
X5266232Y-24463746D01*
X5445308Y-24518068D01*
X5610345Y-24606282D01*
X5755001Y-24724999D01*
X5873718Y-24869655D01*
X5961932Y-25034692D01*
X6016254Y-25213768D01*
X6016254Y-25213769D01*
X6034597Y-25400000D01*
X6017899Y-25569534D01*
X6016254Y-25586232D01*
X5961932Y-25765308D01*
X5873718Y-25930345D01*
X5755001Y-26075001D01*
X5610345Y-26193718D01*
X5445308Y-26281932D01*
X5266232Y-26336254D01*
X5242971Y-26338545D01*
X5126670Y-26350000D01*
X5033330Y-26350000D01*
X4917029Y-26338545D01*
X4893768Y-26336254D01*
X4714692Y-26281932D01*
X4549655Y-26193718D01*
X4404999Y-26075001D01*
X4286282Y-25930345D01*
X4198068Y-25765308D01*
X4143746Y-25586232D01*
X4142101Y-25569534D01*
X4125403Y-25400000D01*
X4143746Y-25213769D01*
X4143746Y-25213768D01*
X4198068Y-25034692D01*
X4286282Y-24869655D01*
X4404999Y-24724999D01*
X4549655Y-24606282D01*
X4714692Y-24518068D01*
X4893768Y-24463746D01*
X4917029Y-24461455D01*
X5033330Y-24450000D01*
X5126670Y-24450000D01*
X5242971Y-24461455D01*
X5242971Y-24461455D01*
G37*
G36*
X2702971Y-24461455D02*
X2726232Y-24463746D01*
X2905308Y-24518068D01*
X3070345Y-24606282D01*
X3215001Y-24724999D01*
X3333718Y-24869655D01*
X3421932Y-25034692D01*
X3476254Y-25213768D01*
X3476254Y-25213769D01*
X3494597Y-25400000D01*
X3477899Y-25569534D01*
X3476254Y-25586232D01*
X3421932Y-25765308D01*
X3333718Y-25930345D01*
X3215001Y-26075001D01*
X3070345Y-26193718D01*
X2905308Y-26281932D01*
X2726232Y-26336254D01*
X2702971Y-26338545D01*
X2586670Y-26350000D01*
X2493330Y-26350000D01*
X2377029Y-26338545D01*
X2353768Y-26336254D01*
X2174692Y-26281932D01*
X2009655Y-26193718D01*
X1864999Y-26075001D01*
X1746282Y-25930345D01*
X1658068Y-25765308D01*
X1603746Y-25586232D01*
X1602101Y-25569534D01*
X1585403Y-25400000D01*
X1603746Y-25213769D01*
X1603746Y-25213768D01*
X1658068Y-25034692D01*
X1746282Y-24869655D01*
X1864999Y-24724999D01*
X2009655Y-24606282D01*
X2174692Y-24518068D01*
X2353768Y-24463746D01*
X2377029Y-24461455D01*
X2493330Y-24450000D01*
X2586670Y-24450000D01*
X2702971Y-24461455D01*
X2702971Y-24461455D01*
G37*
G36*
X9648830Y-24929677D02*
X9689776Y-24942098D01*
X9727510Y-24962267D01*
X9760587Y-24989413D01*
X9787733Y-25022490D01*
X9807902Y-25060224D01*
X9820323Y-25101170D01*
X9825000Y-25148658D01*
X9825000Y-25851342D01*
X9820323Y-25898830D01*
X9807902Y-25939776D01*
X9787733Y-25977510D01*
X9760587Y-26010587D01*
X9727510Y-26037733D01*
X9689776Y-26057902D01*
X9648830Y-26070323D01*
X9601342Y-26075000D01*
X8973658Y-26075000D01*
X8926170Y-26070323D01*
X8885224Y-26057902D01*
X8847490Y-26037733D01*
X8814413Y-26010587D01*
X8787267Y-25977510D01*
X8767098Y-25939776D01*
X8754677Y-25898830D01*
X8750000Y-25851342D01*
X8750000Y-25148658D01*
X8754677Y-25101170D01*
X8767098Y-25060224D01*
X8787267Y-25022490D01*
X8814413Y-24989413D01*
X8847490Y-24962267D01*
X8885224Y-24942098D01*
X8926170Y-24929677D01*
X8973658Y-24925000D01*
X9601342Y-24925000D01*
X9648830Y-24929677D01*
X9648830Y-24929677D01*
G37*
G36*
X8073830Y-24929677D02*
X8114776Y-24942098D01*
X8152510Y-24962267D01*
X8185587Y-24989413D01*
X8212733Y-25022490D01*
X8232902Y-25060224D01*
X8245323Y-25101170D01*
X8250000Y-25148658D01*
X8250000Y-25851342D01*
X8245323Y-25898830D01*
X8232902Y-25939776D01*
X8212733Y-25977510D01*
X8185587Y-26010587D01*
X8152510Y-26037733D01*
X8114776Y-26057902D01*
X8073830Y-26070323D01*
X8026342Y-26075000D01*
X7398658Y-26075000D01*
X7351170Y-26070323D01*
X7310224Y-26057902D01*
X7272490Y-26037733D01*
X7239413Y-26010587D01*
X7212267Y-25977510D01*
X7192098Y-25939776D01*
X7179677Y-25898830D01*
X7175000Y-25851342D01*
X7175000Y-25148658D01*
X7179677Y-25101170D01*
X7192098Y-25060224D01*
X7212267Y-25022490D01*
X7239413Y-24989413D01*
X7272490Y-24962267D01*
X7310224Y-24942098D01*
X7351170Y-24929677D01*
X7398658Y-24925000D01*
X8026342Y-24925000D01*
X8073830Y-24929677D01*
X8073830Y-24929677D01*
G37*
G36*
X30642971Y-21921455D02*
X30666232Y-21923746D01*
X30845308Y-21978068D01*
X31010345Y-22066282D01*
X31155001Y-22184999D01*
X31273718Y-22329655D01*
X31361932Y-22494692D01*
X31409451Y-22651342D01*
X31416254Y-22673769D01*
X31434597Y-22860000D01*
X31417899Y-23029534D01*
X31416254Y-23046232D01*
X31361932Y-23225308D01*
X31273718Y-23390345D01*
X31155001Y-23535001D01*
X31010345Y-23653718D01*
X30845308Y-23741932D01*
X30666232Y-23796254D01*
X30642971Y-23798545D01*
X30526670Y-23810000D01*
X30433330Y-23810000D01*
X30317029Y-23798545D01*
X30293768Y-23796254D01*
X30114692Y-23741932D01*
X29949655Y-23653718D01*
X29804999Y-23535001D01*
X29686282Y-23390345D01*
X29598068Y-23225308D01*
X29543746Y-23046232D01*
X29542101Y-23029534D01*
X29525403Y-22860000D01*
X29543746Y-22673769D01*
X29550549Y-22651342D01*
X29598068Y-22494692D01*
X29686282Y-22329655D01*
X29804999Y-22184999D01*
X29949655Y-22066282D01*
X30114692Y-21978068D01*
X30293768Y-21923746D01*
X30317029Y-21921455D01*
X30433330Y-21910000D01*
X30526670Y-21910000D01*
X30642971Y-21921455D01*
X30642971Y-21921455D01*
G37*
G36*
X28102971Y-21921455D02*
X28126232Y-21923746D01*
X28305308Y-21978068D01*
X28470345Y-22066282D01*
X28615001Y-22184999D01*
X28733718Y-22329655D01*
X28821932Y-22494692D01*
X28869451Y-22651342D01*
X28876254Y-22673769D01*
X28894597Y-22860000D01*
X28877899Y-23029534D01*
X28876254Y-23046232D01*
X28821932Y-23225308D01*
X28733718Y-23390345D01*
X28615001Y-23535001D01*
X28470345Y-23653718D01*
X28305308Y-23741932D01*
X28126232Y-23796254D01*
X28102971Y-23798545D01*
X27986670Y-23810000D01*
X27893330Y-23810000D01*
X27777029Y-23798545D01*
X27753768Y-23796254D01*
X27574692Y-23741932D01*
X27409655Y-23653718D01*
X27264999Y-23535001D01*
X27146282Y-23390345D01*
X27058068Y-23225308D01*
X27003746Y-23046232D01*
X27002101Y-23029534D01*
X26985403Y-22860000D01*
X27003746Y-22673769D01*
X27010549Y-22651342D01*
X27058068Y-22494692D01*
X27146282Y-22329655D01*
X27264999Y-22184999D01*
X27409655Y-22066282D01*
X27574692Y-21978068D01*
X27753768Y-21923746D01*
X27777029Y-21921455D01*
X27893330Y-21910000D01*
X27986670Y-21910000D01*
X28102971Y-21921455D01*
X28102971Y-21921455D01*
G37*
G36*
X5242971Y-21921455D02*
X5266232Y-21923746D01*
X5445308Y-21978068D01*
X5610345Y-22066282D01*
X5755001Y-22184999D01*
X5873718Y-22329655D01*
X5961932Y-22494692D01*
X6009451Y-22651342D01*
X6016254Y-22673769D01*
X6034597Y-22860000D01*
X6017899Y-23029534D01*
X6016254Y-23046232D01*
X5961932Y-23225308D01*
X5873718Y-23390345D01*
X5755001Y-23535001D01*
X5610345Y-23653718D01*
X5445308Y-23741932D01*
X5266232Y-23796254D01*
X5242971Y-23798545D01*
X5126670Y-23810000D01*
X5033330Y-23810000D01*
X4917029Y-23798545D01*
X4893768Y-23796254D01*
X4714692Y-23741932D01*
X4549655Y-23653718D01*
X4404999Y-23535001D01*
X4286282Y-23390345D01*
X4198068Y-23225308D01*
X4143746Y-23046232D01*
X4142101Y-23029534D01*
X4125403Y-22860000D01*
X4143746Y-22673769D01*
X4150549Y-22651342D01*
X4198068Y-22494692D01*
X4286282Y-22329655D01*
X4404999Y-22184999D01*
X4549655Y-22066282D01*
X4714692Y-21978068D01*
X4893768Y-21923746D01*
X4917029Y-21921455D01*
X5033330Y-21910000D01*
X5126670Y-21910000D01*
X5242971Y-21921455D01*
X5242971Y-21921455D01*
G37*
G36*
X2702971Y-21921455D02*
X2726232Y-21923746D01*
X2905308Y-21978068D01*
X3070345Y-22066282D01*
X3215001Y-22184999D01*
X3333718Y-22329655D01*
X3421932Y-22494692D01*
X3469451Y-22651342D01*
X3476254Y-22673769D01*
X3494597Y-22860000D01*
X3477899Y-23029534D01*
X3476254Y-23046232D01*
X3421932Y-23225308D01*
X3333718Y-23390345D01*
X3215001Y-23535001D01*
X3070345Y-23653718D01*
X2905308Y-23741932D01*
X2726232Y-23796254D01*
X2702971Y-23798545D01*
X2586670Y-23810000D01*
X2493330Y-23810000D01*
X2377029Y-23798545D01*
X2353768Y-23796254D01*
X2174692Y-23741932D01*
X2009655Y-23653718D01*
X1864999Y-23535001D01*
X1746282Y-23390345D01*
X1658068Y-23225308D01*
X1603746Y-23046232D01*
X1602101Y-23029534D01*
X1585403Y-22860000D01*
X1603746Y-22673769D01*
X1610549Y-22651342D01*
X1658068Y-22494692D01*
X1746282Y-22329655D01*
X1864999Y-22184999D01*
X2009655Y-22066282D01*
X2174692Y-21978068D01*
X2353768Y-21923746D01*
X2377029Y-21921455D01*
X2493330Y-21910000D01*
X2586670Y-21910000D01*
X2702971Y-21921455D01*
X2702971Y-21921455D01*
G37*
G36*
X17148830Y-21804677D02*
X17189776Y-21817098D01*
X17227510Y-21837267D01*
X17260587Y-21864413D01*
X17287733Y-21897490D01*
X17307902Y-21935224D01*
X17320323Y-21976170D01*
X17325000Y-22023658D01*
X17325000Y-22651342D01*
X17320323Y-22698830D01*
X17307902Y-22739776D01*
X17287733Y-22777510D01*
X17260587Y-22810587D01*
X17227510Y-22837733D01*
X17189776Y-22857902D01*
X17148830Y-22870323D01*
X17101342Y-22875000D01*
X16398658Y-22875000D01*
X16351170Y-22870323D01*
X16310224Y-22857902D01*
X16272490Y-22837733D01*
X16239413Y-22810587D01*
X16212267Y-22777510D01*
X16192098Y-22739776D01*
X16179677Y-22698830D01*
X16175000Y-22651342D01*
X16175000Y-22023658D01*
X16179677Y-21976170D01*
X16192098Y-21935224D01*
X16212267Y-21897490D01*
X16239413Y-21864413D01*
X16272490Y-21837267D01*
X16310224Y-21817098D01*
X16351170Y-21804677D01*
X16398658Y-21800000D01*
X17101342Y-21800000D01*
X17148830Y-21804677D01*
X17148830Y-21804677D01*
G37*
G36*
X24398830Y-21179677D02*
X24439776Y-21192098D01*
X24477510Y-21212267D01*
X24510587Y-21239413D01*
X24537733Y-21272490D01*
X24557902Y-21310224D01*
X24570323Y-21351170D01*
X24575000Y-21398658D01*
X24575000Y-22101342D01*
X24570323Y-22148830D01*
X24557902Y-22189776D01*
X24537733Y-22227510D01*
X24510587Y-22260587D01*
X24477510Y-22287733D01*
X24439776Y-22307902D01*
X24398830Y-22320323D01*
X24351342Y-22325000D01*
X23723658Y-22325000D01*
X23676170Y-22320323D01*
X23635224Y-22307902D01*
X23597490Y-22287733D01*
X23564413Y-22260587D01*
X23537267Y-22227510D01*
X23517098Y-22189776D01*
X23504677Y-22148830D01*
X23500000Y-22101342D01*
X23500000Y-21398658D01*
X23504677Y-21351170D01*
X23517098Y-21310224D01*
X23537267Y-21272490D01*
X23564413Y-21239413D01*
X23597490Y-21212267D01*
X23635224Y-21192098D01*
X23676170Y-21179677D01*
X23723658Y-21175000D01*
X24351342Y-21175000D01*
X24398830Y-21179677D01*
X24398830Y-21179677D01*
G37*
G36*
X22823830Y-21179677D02*
X22864776Y-21192098D01*
X22902510Y-21212267D01*
X22935587Y-21239413D01*
X22962733Y-21272490D01*
X22982902Y-21310224D01*
X22995323Y-21351170D01*
X23000000Y-21398658D01*
X23000000Y-22101342D01*
X22995323Y-22148830D01*
X22982902Y-22189776D01*
X22962733Y-22227510D01*
X22935587Y-22260587D01*
X22902510Y-22287733D01*
X22864776Y-22307902D01*
X22823830Y-22320323D01*
X22776342Y-22325000D01*
X22148658Y-22325000D01*
X22101170Y-22320323D01*
X22060224Y-22307902D01*
X22022490Y-22287733D01*
X21989413Y-22260587D01*
X21962267Y-22227510D01*
X21942098Y-22189776D01*
X21929677Y-22148830D01*
X21925000Y-22101342D01*
X21925000Y-21398658D01*
X21929677Y-21351170D01*
X21942098Y-21310224D01*
X21962267Y-21272490D01*
X21989413Y-21239413D01*
X22022490Y-21212267D01*
X22060224Y-21192098D01*
X22101170Y-21179677D01*
X22148658Y-21175000D01*
X22776342Y-21175000D01*
X22823830Y-21179677D01*
X22823830Y-21179677D01*
G37*
G36*
X9997936Y-20332665D02*
X9997938Y-20332666D01*
X9997939Y-20332666D01*
X10042611Y-20351170D01*
X10152626Y-20396740D01*
X10291844Y-20489762D01*
X10410238Y-20608156D01*
X10503260Y-20747374D01*
X10567335Y-20902064D01*
X10600000Y-21066282D01*
X10600000Y-21233718D01*
X10581843Y-21325000D01*
X10567334Y-21397939D01*
X10525543Y-21498830D01*
X10503260Y-21552626D01*
X10410238Y-21691844D01*
X10291844Y-21810238D01*
X10281577Y-21817098D01*
X10152626Y-21903260D01*
X9997939Y-21967334D01*
X9997938Y-21967334D01*
X9997936Y-21967335D01*
X9833718Y-22000000D01*
X9666282Y-22000000D01*
X9502064Y-21967335D01*
X9502062Y-21967334D01*
X9502061Y-21967334D01*
X9347374Y-21903260D01*
X9218423Y-21817098D01*
X9208156Y-21810238D01*
X9089762Y-21691844D01*
X8996740Y-21552626D01*
X8974457Y-21498830D01*
X8932666Y-21397939D01*
X8918158Y-21325000D01*
X8900000Y-21233718D01*
X8900000Y-21066282D01*
X8932665Y-20902064D01*
X8996740Y-20747374D01*
X9089762Y-20608156D01*
X9208156Y-20489762D01*
X9347374Y-20396740D01*
X9457389Y-20351170D01*
X9502061Y-20332666D01*
X9502062Y-20332666D01*
X9502064Y-20332665D01*
X9666282Y-20300000D01*
X9833718Y-20300000D01*
X9997936Y-20332665D01*
X9997936Y-20332665D01*
G37*
G36*
X11898830Y-20604677D02*
X11939776Y-20617098D01*
X11977510Y-20637267D01*
X12010587Y-20664413D01*
X12037733Y-20697490D01*
X12057902Y-20735224D01*
X12070323Y-20776170D01*
X12075000Y-20823658D01*
X12075000Y-21451342D01*
X12070323Y-21498830D01*
X12057902Y-21539776D01*
X12037733Y-21577510D01*
X12010587Y-21610587D01*
X11977510Y-21637733D01*
X11939776Y-21657902D01*
X11898830Y-21670323D01*
X11851342Y-21675000D01*
X11148658Y-21675000D01*
X11101170Y-21670323D01*
X11060224Y-21657902D01*
X11022490Y-21637733D01*
X10989413Y-21610587D01*
X10962267Y-21577510D01*
X10942098Y-21539776D01*
X10929677Y-21498830D01*
X10925000Y-21451342D01*
X10925000Y-20823658D01*
X10929677Y-20776170D01*
X10942098Y-20735224D01*
X10962267Y-20697490D01*
X10989413Y-20664413D01*
X11022490Y-20637267D01*
X11060224Y-20617098D01*
X11101170Y-20604677D01*
X11148658Y-20600000D01*
X11851342Y-20600000D01*
X11898830Y-20604677D01*
X11898830Y-20604677D01*
G37*
G36*
X18573830Y-20179677D02*
X18614776Y-20192098D01*
X18652510Y-20212267D01*
X18685587Y-20239413D01*
X18712733Y-20272490D01*
X18732902Y-20310224D01*
X18745323Y-20351170D01*
X18750000Y-20398658D01*
X18750000Y-21101342D01*
X18745323Y-21148830D01*
X18732902Y-21189776D01*
X18712733Y-21227510D01*
X18685587Y-21260587D01*
X18652510Y-21287733D01*
X18614776Y-21307902D01*
X18573830Y-21320323D01*
X18526342Y-21325000D01*
X17898658Y-21325000D01*
X17851170Y-21320323D01*
X17810224Y-21307902D01*
X17772490Y-21287733D01*
X17739413Y-21260587D01*
X17712267Y-21227510D01*
X17692098Y-21189776D01*
X17679677Y-21148830D01*
X17675000Y-21101342D01*
X17675000Y-20398658D01*
X17679677Y-20351170D01*
X17692098Y-20310224D01*
X17712267Y-20272490D01*
X17739413Y-20239413D01*
X17772490Y-20212267D01*
X17810224Y-20192098D01*
X17851170Y-20179677D01*
X17898658Y-20175000D01*
X18526342Y-20175000D01*
X18573830Y-20179677D01*
X18573830Y-20179677D01*
G37*
G36*
X20148830Y-20179677D02*
X20189776Y-20192098D01*
X20227510Y-20212267D01*
X20260587Y-20239413D01*
X20287733Y-20272490D01*
X20307902Y-20310224D01*
X20320323Y-20351170D01*
X20325000Y-20398658D01*
X20325000Y-21101342D01*
X20320323Y-21148830D01*
X20307902Y-21189776D01*
X20287733Y-21227510D01*
X20260587Y-21260587D01*
X20227510Y-21287733D01*
X20189776Y-21307902D01*
X20148830Y-21320323D01*
X20101342Y-21325000D01*
X19473658Y-21325000D01*
X19426170Y-21320323D01*
X19385224Y-21307902D01*
X19347490Y-21287733D01*
X19314413Y-21260587D01*
X19287267Y-21227510D01*
X19267098Y-21189776D01*
X19254677Y-21148830D01*
X19250000Y-21101342D01*
X19250000Y-20398658D01*
X19254677Y-20351170D01*
X19267098Y-20310224D01*
X19287267Y-20272490D01*
X19314413Y-20239413D01*
X19347490Y-20212267D01*
X19385224Y-20192098D01*
X19426170Y-20179677D01*
X19473658Y-20175000D01*
X20101342Y-20175000D01*
X20148830Y-20179677D01*
X20148830Y-20179677D01*
G37*
G36*
X17148830Y-20229677D02*
X17189776Y-20242098D01*
X17227510Y-20262267D01*
X17260587Y-20289413D01*
X17287733Y-20322490D01*
X17307902Y-20360224D01*
X17320323Y-20401170D01*
X17325000Y-20448658D01*
X17325000Y-21076342D01*
X17320323Y-21123830D01*
X17307902Y-21164776D01*
X17287733Y-21202510D01*
X17260587Y-21235587D01*
X17227510Y-21262733D01*
X17189776Y-21282902D01*
X17148830Y-21295323D01*
X17101342Y-21300000D01*
X16398658Y-21300000D01*
X16351170Y-21295323D01*
X16310224Y-21282902D01*
X16272490Y-21262733D01*
X16239413Y-21235587D01*
X16212267Y-21202510D01*
X16192098Y-21164776D01*
X16179677Y-21123830D01*
X16175000Y-21076342D01*
X16175000Y-20448658D01*
X16179677Y-20401170D01*
X16192098Y-20360224D01*
X16212267Y-20322490D01*
X16239413Y-20289413D01*
X16272490Y-20262267D01*
X16310224Y-20242098D01*
X16351170Y-20229677D01*
X16398658Y-20225000D01*
X17101342Y-20225000D01*
X17148830Y-20229677D01*
X17148830Y-20229677D01*
G37*
G36*
X28102971Y-19381455D02*
X28126232Y-19383746D01*
X28305308Y-19438068D01*
X28470345Y-19526282D01*
X28615001Y-19644999D01*
X28733718Y-19789655D01*
X28821932Y-19954692D01*
X28876254Y-20133768D01*
X28876254Y-20133769D01*
X28894597Y-20320000D01*
X28877899Y-20489534D01*
X28876254Y-20506232D01*
X28821932Y-20685308D01*
X28733718Y-20850345D01*
X28615001Y-20995001D01*
X28470345Y-21113718D01*
X28305308Y-21201932D01*
X28126232Y-21256254D01*
X28102971Y-21258545D01*
X27986670Y-21270000D01*
X27893330Y-21270000D01*
X27777029Y-21258545D01*
X27753768Y-21256254D01*
X27574692Y-21201932D01*
X27409655Y-21113718D01*
X27264999Y-20995001D01*
X27146282Y-20850345D01*
X27058068Y-20685308D01*
X27003746Y-20506232D01*
X27002101Y-20489534D01*
X26985403Y-20320000D01*
X27003746Y-20133769D01*
X27003746Y-20133768D01*
X27058068Y-19954692D01*
X27146282Y-19789655D01*
X27264999Y-19644999D01*
X27409655Y-19526282D01*
X27574692Y-19438068D01*
X27753768Y-19383746D01*
X27777029Y-19381455D01*
X27893330Y-19370000D01*
X27986670Y-19370000D01*
X28102971Y-19381455D01*
X28102971Y-19381455D01*
G37*
G36*
X2702971Y-19381455D02*
X2726232Y-19383746D01*
X2905308Y-19438068D01*
X3070345Y-19526282D01*
X3215001Y-19644999D01*
X3333718Y-19789655D01*
X3421932Y-19954692D01*
X3476254Y-20133768D01*
X3476254Y-20133769D01*
X3494597Y-20320000D01*
X3477899Y-20489534D01*
X3476254Y-20506232D01*
X3421932Y-20685308D01*
X3333718Y-20850345D01*
X3215001Y-20995001D01*
X3070345Y-21113718D01*
X2905308Y-21201932D01*
X2726232Y-21256254D01*
X2702971Y-21258545D01*
X2586670Y-21270000D01*
X2493330Y-21270000D01*
X2377029Y-21258545D01*
X2353768Y-21256254D01*
X2174692Y-21201932D01*
X2009655Y-21113718D01*
X1864999Y-20995001D01*
X1746282Y-20850345D01*
X1658068Y-20685308D01*
X1603746Y-20506232D01*
X1602101Y-20489534D01*
X1585403Y-20320000D01*
X1603746Y-20133769D01*
X1603746Y-20133768D01*
X1658068Y-19954692D01*
X1746282Y-19789655D01*
X1864999Y-19644999D01*
X2009655Y-19526282D01*
X2174692Y-19438068D01*
X2353768Y-19383746D01*
X2377029Y-19381455D01*
X2493330Y-19370000D01*
X2586670Y-19370000D01*
X2702971Y-19381455D01*
X2702971Y-19381455D01*
G37*
G36*
X30642971Y-19381455D02*
X30666232Y-19383746D01*
X30845308Y-19438068D01*
X31010345Y-19526282D01*
X31155001Y-19644999D01*
X31273718Y-19789655D01*
X31361932Y-19954692D01*
X31416254Y-20133768D01*
X31416254Y-20133769D01*
X31434597Y-20320000D01*
X31417899Y-20489534D01*
X31416254Y-20506232D01*
X31361932Y-20685308D01*
X31273718Y-20850345D01*
X31155001Y-20995001D01*
X31010345Y-21113718D01*
X30845308Y-21201932D01*
X30666232Y-21256254D01*
X30642971Y-21258545D01*
X30526670Y-21270000D01*
X30433330Y-21270000D01*
X30317029Y-21258545D01*
X30293768Y-21256254D01*
X30114692Y-21201932D01*
X29949655Y-21113718D01*
X29804999Y-20995001D01*
X29686282Y-20850345D01*
X29598068Y-20685308D01*
X29543746Y-20506232D01*
X29542101Y-20489534D01*
X29525403Y-20320000D01*
X29543746Y-20133769D01*
X29543746Y-20133768D01*
X29598068Y-19954692D01*
X29686282Y-19789655D01*
X29804999Y-19644999D01*
X29949655Y-19526282D01*
X30114692Y-19438068D01*
X30293768Y-19383746D01*
X30317029Y-19381455D01*
X30433330Y-19370000D01*
X30526670Y-19370000D01*
X30642971Y-19381455D01*
X30642971Y-19381455D01*
G37*
G36*
X5242971Y-19381455D02*
X5266232Y-19383746D01*
X5445308Y-19438068D01*
X5610345Y-19526282D01*
X5755001Y-19644999D01*
X5873718Y-19789655D01*
X5961932Y-19954692D01*
X6016254Y-20133768D01*
X6016254Y-20133769D01*
X6034597Y-20320000D01*
X6017899Y-20489534D01*
X6016254Y-20506232D01*
X5961932Y-20685308D01*
X5873718Y-20850345D01*
X5755001Y-20995001D01*
X5610345Y-21113718D01*
X5445308Y-21201932D01*
X5266232Y-21256254D01*
X5242971Y-21258545D01*
X5126670Y-21270000D01*
X5033330Y-21270000D01*
X4917029Y-21258545D01*
X4893768Y-21256254D01*
X4714692Y-21201932D01*
X4549655Y-21113718D01*
X4404999Y-20995001D01*
X4286282Y-20850345D01*
X4198068Y-20685308D01*
X4143746Y-20506232D01*
X4142101Y-20489534D01*
X4125403Y-20320000D01*
X4143746Y-20133769D01*
X4143746Y-20133768D01*
X4198068Y-19954692D01*
X4286282Y-19789655D01*
X4404999Y-19644999D01*
X4549655Y-19526282D01*
X4714692Y-19438068D01*
X4893768Y-19383746D01*
X4917029Y-19381455D01*
X5033330Y-19370000D01*
X5126670Y-19370000D01*
X5242971Y-19381455D01*
X5242971Y-19381455D01*
G37*
G36*
X11898830Y-19029677D02*
X11939776Y-19042098D01*
X11977510Y-19062267D01*
X12010587Y-19089413D01*
X12037733Y-19122490D01*
X12057902Y-19160224D01*
X12070323Y-19201170D01*
X12075000Y-19248658D01*
X12075000Y-19876342D01*
X12070323Y-19923830D01*
X12057902Y-19964776D01*
X12037733Y-20002510D01*
X12010587Y-20035587D01*
X11977510Y-20062733D01*
X11939776Y-20082902D01*
X11898830Y-20095323D01*
X11851342Y-20100000D01*
X11148658Y-20100000D01*
X11101170Y-20095323D01*
X11060224Y-20082902D01*
X11022490Y-20062733D01*
X10989413Y-20035587D01*
X10962267Y-20002510D01*
X10942098Y-19964776D01*
X10929677Y-19923830D01*
X10925000Y-19876342D01*
X10925000Y-19248658D01*
X10929677Y-19201170D01*
X10942098Y-19160224D01*
X10962267Y-19122490D01*
X10989413Y-19089413D01*
X11022490Y-19062267D01*
X11060224Y-19042098D01*
X11101170Y-19029677D01*
X11148658Y-19025000D01*
X11851342Y-19025000D01*
X11898830Y-19029677D01*
X11898830Y-19029677D01*
G37*
G36*
X8439081Y-18150903D02*
X8444603Y-18151447D01*
X8463454Y-18157165D01*
X8467066Y-18159096D01*
X8480830Y-18166453D01*
X8496052Y-18178946D01*
X8497693Y-18180945D01*
X8511555Y-18194807D01*
X8527854Y-18205699D01*
X8545965Y-18213201D01*
X8565192Y-18217025D01*
X8584796Y-18217026D01*
X8604022Y-18213201D01*
X8622134Y-18205700D01*
X8638433Y-18194809D01*
X8652360Y-18180869D01*
X8653873Y-18179021D01*
X8669087Y-18166509D01*
X8686449Y-18157205D01*
X8705293Y-18151467D01*
X8725000Y-18149516D01*
X8725050Y-18149516D01*
X8729937Y-18149032D01*
X9720090Y-18149032D01*
X9739081Y-18150903D01*
X9744603Y-18151447D01*
X9763454Y-18157165D01*
X9767066Y-18159096D01*
X9780830Y-18166453D01*
X9796053Y-18178947D01*
X9808547Y-18194170D01*
X9810277Y-18197407D01*
X9817835Y-18211546D01*
X9817836Y-18211549D01*
X9823553Y-18230398D01*
X9825968Y-18254910D01*
X9825968Y-19745090D01*
X9825484Y-19750000D01*
X9823553Y-19769603D01*
X9817835Y-19788454D01*
X9810277Y-19802593D01*
X9808547Y-19805830D01*
X9796053Y-19821053D01*
X9780830Y-19833547D01*
X9780826Y-19833549D01*
X9763454Y-19842835D01*
X9763451Y-19842836D01*
X9763322Y-19842875D01*
X9744603Y-19848553D01*
X9739081Y-19849097D01*
X9720090Y-19850968D01*
X8729910Y-19850968D01*
X8710919Y-19849097D01*
X8705397Y-19848553D01*
X8686678Y-19842875D01*
X8686549Y-19842836D01*
X8686546Y-19842835D01*
X8669174Y-19833549D01*
X8669170Y-19833547D01*
X8653966Y-19821070D01*
X8653962Y-19821066D01*
X8653947Y-19821053D01*
X8652300Y-19819044D01*
X8638477Y-19805207D01*
X8622183Y-19794308D01*
X8604076Y-19786797D01*
X8584851Y-19782962D01*
X8565248Y-19782953D01*
X8546019Y-19786767D01*
X8527904Y-19794260D01*
X8511599Y-19805143D01*
X8497766Y-19818954D01*
X8497666Y-19819076D01*
X8495977Y-19821129D01*
X8480738Y-19833608D01*
X8463360Y-19842874D01*
X8459960Y-19843901D01*
X8444500Y-19848574D01*
X8444495Y-19848574D01*
X8444477Y-19848580D01*
X8420108Y-19850968D01*
X7279910Y-19850968D01*
X7260919Y-19849097D01*
X7255397Y-19848553D01*
X7236678Y-19842875D01*
X7236549Y-19842836D01*
X7236546Y-19842835D01*
X7219174Y-19833549D01*
X7219170Y-19833547D01*
X7203947Y-19821053D01*
X7191453Y-19805830D01*
X7189723Y-19802593D01*
X7182165Y-19788454D01*
X7176447Y-19769603D01*
X7174516Y-19750000D01*
X7174032Y-19745090D01*
X7174032Y-18254910D01*
X7176447Y-18230398D01*
X7182164Y-18211549D01*
X7182165Y-18211546D01*
X7189723Y-18197407D01*
X7191453Y-18194170D01*
X7203947Y-18178947D01*
X7219170Y-18166453D01*
X7232934Y-18159096D01*
X7236546Y-18157165D01*
X7255397Y-18151447D01*
X7260919Y-18150903D01*
X7279910Y-18149032D01*
X8420090Y-18149032D01*
X8439081Y-18150903D01*
X8439081Y-18150903D01*
G37*
G36*
X18939081Y-17900903D02*
X18944603Y-17901447D01*
X18959137Y-17905856D01*
X18963326Y-17907126D01*
X18963454Y-17907165D01*
X18977593Y-17914723D01*
X18980830Y-17916453D01*
X18996052Y-17928946D01*
X18997693Y-17930945D01*
X19011555Y-17944807D01*
X19027854Y-17955699D01*
X19045965Y-17963201D01*
X19065192Y-17967025D01*
X19084796Y-17967026D01*
X19104022Y-17963201D01*
X19122134Y-17955700D01*
X19138433Y-17944809D01*
X19152360Y-17930869D01*
X19153873Y-17929021D01*
X19169087Y-17916509D01*
X19186449Y-17907205D01*
X19205293Y-17901467D01*
X19225000Y-17899516D01*
X19225050Y-17899516D01*
X19229937Y-17899032D01*
X20220090Y-17899032D01*
X20239081Y-17900903D01*
X20244603Y-17901447D01*
X20259137Y-17905856D01*
X20263326Y-17907126D01*
X20263454Y-17907165D01*
X20277593Y-17914723D01*
X20280830Y-17916453D01*
X20296053Y-17928947D01*
X20308547Y-17944170D01*
X20308914Y-17944857D01*
X20317835Y-17961546D01*
X20317836Y-17961549D01*
X20323553Y-17980398D01*
X20325968Y-18004910D01*
X20325968Y-19495090D01*
X20325484Y-19500000D01*
X20323553Y-19519603D01*
X20317835Y-19538454D01*
X20310277Y-19552593D01*
X20308547Y-19555830D01*
X20296053Y-19571053D01*
X20280830Y-19583547D01*
X20280826Y-19583549D01*
X20263454Y-19592835D01*
X20263451Y-19592836D01*
X20263322Y-19592875D01*
X20244603Y-19598553D01*
X20239081Y-19599097D01*
X20220090Y-19600968D01*
X19229910Y-19600968D01*
X19210919Y-19599097D01*
X19205397Y-19598553D01*
X19186678Y-19592875D01*
X19186549Y-19592836D01*
X19186546Y-19592835D01*
X19169174Y-19583549D01*
X19169170Y-19583547D01*
X19153966Y-19571070D01*
X19153962Y-19571066D01*
X19153947Y-19571053D01*
X19152300Y-19569044D01*
X19138477Y-19555207D01*
X19122183Y-19544308D01*
X19104076Y-19536797D01*
X19084851Y-19532962D01*
X19065248Y-19532953D01*
X19046019Y-19536767D01*
X19027904Y-19544260D01*
X19011599Y-19555143D01*
X18997766Y-19568954D01*
X18996101Y-19570979D01*
X18995977Y-19571129D01*
X18980738Y-19583608D01*
X18963360Y-19592874D01*
X18959960Y-19593901D01*
X18944500Y-19598574D01*
X18944495Y-19598574D01*
X18944477Y-19598580D01*
X18920108Y-19600968D01*
X17779910Y-19600968D01*
X17760919Y-19599097D01*
X17755397Y-19598553D01*
X17736678Y-19592875D01*
X17736549Y-19592836D01*
X17736546Y-19592835D01*
X17719174Y-19583549D01*
X17719170Y-19583547D01*
X17703947Y-19571053D01*
X17691453Y-19555830D01*
X17689723Y-19552593D01*
X17682165Y-19538454D01*
X17676447Y-19519603D01*
X17674516Y-19500000D01*
X17674032Y-19495090D01*
X17674032Y-18004910D01*
X17676447Y-17980398D01*
X17682164Y-17961549D01*
X17682165Y-17961546D01*
X17691086Y-17944857D01*
X17691453Y-17944170D01*
X17703947Y-17928947D01*
X17719170Y-17916453D01*
X17722407Y-17914723D01*
X17736546Y-17907165D01*
X17736675Y-17907126D01*
X17740863Y-17905856D01*
X17755397Y-17901447D01*
X17760919Y-17900903D01*
X17779910Y-17899032D01*
X18920090Y-17899032D01*
X18939081Y-17900903D01*
X18939081Y-17900903D01*
G37*
G36*
X23039081Y-17900903D02*
X23044603Y-17901447D01*
X23059137Y-17905856D01*
X23063326Y-17907126D01*
X23063454Y-17907165D01*
X23077593Y-17914723D01*
X23080830Y-17916453D01*
X23096034Y-17928930D01*
X23096038Y-17928934D01*
X23096053Y-17928947D01*
X23097700Y-17930956D01*
X23111523Y-17944793D01*
X23127817Y-17955692D01*
X23145924Y-17963203D01*
X23165149Y-17967038D01*
X23184752Y-17967047D01*
X23203981Y-17963233D01*
X23222096Y-17955740D01*
X23238401Y-17944857D01*
X23252235Y-17931045D01*
X23252317Y-17930945D01*
X23254021Y-17928873D01*
X23269262Y-17916392D01*
X23286640Y-17907126D01*
X23290040Y-17906099D01*
X23305500Y-17901426D01*
X23305505Y-17901426D01*
X23305523Y-17901420D01*
X23329892Y-17899032D01*
X24470090Y-17899032D01*
X24489081Y-17900903D01*
X24494603Y-17901447D01*
X24509137Y-17905856D01*
X24513326Y-17907126D01*
X24513454Y-17907165D01*
X24527593Y-17914723D01*
X24530830Y-17916453D01*
X24546053Y-17928947D01*
X24558547Y-17944170D01*
X24558914Y-17944857D01*
X24567835Y-17961546D01*
X24567836Y-17961549D01*
X24573553Y-17980398D01*
X24575968Y-18004910D01*
X24575968Y-19495090D01*
X24575484Y-19500000D01*
X24573553Y-19519603D01*
X24567835Y-19538454D01*
X24560277Y-19552593D01*
X24558547Y-19555830D01*
X24546053Y-19571053D01*
X24530830Y-19583547D01*
X24530826Y-19583549D01*
X24513454Y-19592835D01*
X24513451Y-19592836D01*
X24513322Y-19592875D01*
X24494603Y-19598553D01*
X24489081Y-19599097D01*
X24470090Y-19600968D01*
X23329910Y-19600968D01*
X23310919Y-19599097D01*
X23305397Y-19598553D01*
X23286678Y-19592875D01*
X23286549Y-19592836D01*
X23286546Y-19592835D01*
X23269174Y-19583549D01*
X23269170Y-19583547D01*
X23253948Y-19571054D01*
X23252307Y-19569055D01*
X23238445Y-19555193D01*
X23222146Y-19544301D01*
X23204035Y-19536799D01*
X23184808Y-19532975D01*
X23165204Y-19532974D01*
X23145978Y-19536799D01*
X23127866Y-19544300D01*
X23111567Y-19555191D01*
X23097642Y-19569129D01*
X23096127Y-19570979D01*
X23080913Y-19583491D01*
X23063551Y-19592795D01*
X23044707Y-19598533D01*
X23025000Y-19600484D01*
X23024950Y-19600484D01*
X23020063Y-19600968D01*
X22029910Y-19600968D01*
X22010919Y-19599097D01*
X22005397Y-19598553D01*
X21986678Y-19592875D01*
X21986549Y-19592836D01*
X21986546Y-19592835D01*
X21969174Y-19583549D01*
X21969170Y-19583547D01*
X21953947Y-19571053D01*
X21941453Y-19555830D01*
X21939723Y-19552593D01*
X21932165Y-19538454D01*
X21926447Y-19519603D01*
X21924516Y-19500000D01*
X21924032Y-19495090D01*
X21924032Y-18004910D01*
X21926447Y-17980398D01*
X21932164Y-17961549D01*
X21932165Y-17961546D01*
X21941086Y-17944857D01*
X21941453Y-17944170D01*
X21953947Y-17928947D01*
X21969170Y-17916453D01*
X21972407Y-17914723D01*
X21986546Y-17907165D01*
X21986675Y-17907126D01*
X21990863Y-17905856D01*
X22005397Y-17901447D01*
X22010919Y-17900903D01*
X22029910Y-17899032D01*
X23020090Y-17899032D01*
X23039081Y-17900903D01*
X23039081Y-17900903D01*
G37*
G36*
X2702971Y-16841455D02*
X2726232Y-16843746D01*
X2905308Y-16898068D01*
X3070345Y-16986282D01*
X3215001Y-17104999D01*
X3333718Y-17249655D01*
X3421932Y-17414692D01*
X3476254Y-17593768D01*
X3476254Y-17593769D01*
X3494597Y-17780000D01*
X3478418Y-17944262D01*
X3476254Y-17966232D01*
X3421932Y-18145308D01*
X3333718Y-18310345D01*
X3215001Y-18455001D01*
X3070345Y-18573718D01*
X2905308Y-18661932D01*
X2726232Y-18716254D01*
X2702971Y-18718545D01*
X2586670Y-18730000D01*
X2493330Y-18730000D01*
X2377029Y-18718545D01*
X2353768Y-18716254D01*
X2174692Y-18661932D01*
X2009655Y-18573718D01*
X1864999Y-18455001D01*
X1746282Y-18310345D01*
X1658068Y-18145308D01*
X1603746Y-17966232D01*
X1601582Y-17944262D01*
X1585403Y-17780000D01*
X1603746Y-17593769D01*
X1603746Y-17593768D01*
X1658068Y-17414692D01*
X1746282Y-17249655D01*
X1864999Y-17104999D01*
X2009655Y-16986282D01*
X2174692Y-16898068D01*
X2353768Y-16843746D01*
X2377029Y-16841455D01*
X2493330Y-16830000D01*
X2586670Y-16830000D01*
X2702971Y-16841455D01*
X2702971Y-16841455D01*
G37*
G36*
X28102971Y-16841455D02*
X28126232Y-16843746D01*
X28305308Y-16898068D01*
X28470345Y-16986282D01*
X28615001Y-17104999D01*
X28733718Y-17249655D01*
X28821932Y-17414692D01*
X28876254Y-17593768D01*
X28876254Y-17593769D01*
X28894597Y-17780000D01*
X28878418Y-17944262D01*
X28876254Y-17966232D01*
X28821932Y-18145308D01*
X28733718Y-18310345D01*
X28615001Y-18455001D01*
X28470345Y-18573718D01*
X28305308Y-18661932D01*
X28126232Y-18716254D01*
X28102971Y-18718545D01*
X27986670Y-18730000D01*
X27893330Y-18730000D01*
X27777029Y-18718545D01*
X27753768Y-18716254D01*
X27574692Y-18661932D01*
X27409655Y-18573718D01*
X27264999Y-18455001D01*
X27146282Y-18310345D01*
X27058068Y-18145308D01*
X27003746Y-17966232D01*
X27001582Y-17944262D01*
X26985403Y-17780000D01*
X27003746Y-17593769D01*
X27003746Y-17593768D01*
X27058068Y-17414692D01*
X27146282Y-17249655D01*
X27264999Y-17104999D01*
X27409655Y-16986282D01*
X27574692Y-16898068D01*
X27753768Y-16843746D01*
X27777029Y-16841455D01*
X27893330Y-16830000D01*
X27986670Y-16830000D01*
X28102971Y-16841455D01*
X28102971Y-16841455D01*
G37*
G36*
X30642971Y-16841455D02*
X30666232Y-16843746D01*
X30845308Y-16898068D01*
X31010345Y-16986282D01*
X31155001Y-17104999D01*
X31273718Y-17249655D01*
X31361932Y-17414692D01*
X31416254Y-17593768D01*
X31416254Y-17593769D01*
X31434597Y-17780000D01*
X31418418Y-17944262D01*
X31416254Y-17966232D01*
X31361932Y-18145308D01*
X31273718Y-18310345D01*
X31155001Y-18455001D01*
X31010345Y-18573718D01*
X30845308Y-18661932D01*
X30666232Y-18716254D01*
X30642971Y-18718545D01*
X30526670Y-18730000D01*
X30433330Y-18730000D01*
X30317029Y-18718545D01*
X30293768Y-18716254D01*
X30114692Y-18661932D01*
X29949655Y-18573718D01*
X29804999Y-18455001D01*
X29686282Y-18310345D01*
X29598068Y-18145308D01*
X29543746Y-17966232D01*
X29541582Y-17944262D01*
X29525403Y-17780000D01*
X29543746Y-17593769D01*
X29543746Y-17593768D01*
X29598068Y-17414692D01*
X29686282Y-17249655D01*
X29804999Y-17104999D01*
X29949655Y-16986282D01*
X30114692Y-16898068D01*
X30293768Y-16843746D01*
X30317029Y-16841455D01*
X30433330Y-16830000D01*
X30526670Y-16830000D01*
X30642971Y-16841455D01*
X30642971Y-16841455D01*
G37*
G36*
X5242971Y-16841455D02*
X5266232Y-16843746D01*
X5445308Y-16898068D01*
X5610345Y-16986282D01*
X5755001Y-17104999D01*
X5873718Y-17249655D01*
X5961932Y-17414692D01*
X6016254Y-17593768D01*
X6016254Y-17593769D01*
X6034597Y-17780000D01*
X6018418Y-17944262D01*
X6016254Y-17966232D01*
X5961932Y-18145308D01*
X5873718Y-18310345D01*
X5755001Y-18455001D01*
X5610345Y-18573718D01*
X5445308Y-18661932D01*
X5266232Y-18716254D01*
X5242971Y-18718545D01*
X5126670Y-18730000D01*
X5033330Y-18730000D01*
X4917029Y-18718545D01*
X4893768Y-18716254D01*
X4714692Y-18661932D01*
X4549655Y-18573718D01*
X4404999Y-18455001D01*
X4286282Y-18310345D01*
X4198068Y-18145308D01*
X4143746Y-17966232D01*
X4141582Y-17944262D01*
X4125403Y-17780000D01*
X4143746Y-17593769D01*
X4143746Y-17593768D01*
X4198068Y-17414692D01*
X4286282Y-17249655D01*
X4404999Y-17104999D01*
X4549655Y-16986282D01*
X4714692Y-16898068D01*
X4893768Y-16843746D01*
X4917029Y-16841455D01*
X5033330Y-16830000D01*
X5126670Y-16830000D01*
X5242971Y-16841455D01*
X5242971Y-16841455D01*
G37*
G36*
X11898830Y-17254677D02*
X11939776Y-17267098D01*
X11977510Y-17287267D01*
X12010587Y-17314413D01*
X12037733Y-17347490D01*
X12057902Y-17385224D01*
X12070323Y-17426170D01*
X12075000Y-17473658D01*
X12075000Y-18101342D01*
X12070323Y-18148830D01*
X12057902Y-18189776D01*
X12037733Y-18227510D01*
X12010587Y-18260587D01*
X11977510Y-18287733D01*
X11939776Y-18307902D01*
X11898830Y-18320323D01*
X11851342Y-18325000D01*
X11148658Y-18325000D01*
X11101170Y-18320323D01*
X11060224Y-18307902D01*
X11022490Y-18287733D01*
X10989413Y-18260587D01*
X10962267Y-18227510D01*
X10942098Y-18189776D01*
X10929677Y-18148830D01*
X10925000Y-18101342D01*
X10925000Y-17473658D01*
X10929677Y-17426170D01*
X10942098Y-17385224D01*
X10962267Y-17347490D01*
X10989413Y-17314413D01*
X11022490Y-17287267D01*
X11060224Y-17267098D01*
X11101170Y-17254677D01*
X11148658Y-17250000D01*
X11851342Y-17250000D01*
X11898830Y-17254677D01*
X11898830Y-17254677D01*
G37*
G36*
X23039081Y-15400903D02*
X23044603Y-15401447D01*
X23059137Y-15405856D01*
X23063326Y-15407126D01*
X23063454Y-15407165D01*
X23077593Y-15414723D01*
X23080830Y-15416453D01*
X23096034Y-15428930D01*
X23096038Y-15428934D01*
X23096053Y-15428947D01*
X23097700Y-15430956D01*
X23111523Y-15444793D01*
X23127817Y-15455692D01*
X23145924Y-15463203D01*
X23165149Y-15467038D01*
X23184752Y-15467047D01*
X23203981Y-15463233D01*
X23222096Y-15455740D01*
X23238401Y-15444857D01*
X23252235Y-15431045D01*
X23252317Y-15430945D01*
X23254021Y-15428873D01*
X23269262Y-15416392D01*
X23286640Y-15407126D01*
X23290040Y-15406099D01*
X23305500Y-15401426D01*
X23305505Y-15401426D01*
X23305523Y-15401420D01*
X23329892Y-15399032D01*
X24470090Y-15399032D01*
X24489081Y-15400903D01*
X24494603Y-15401447D01*
X24509137Y-15405856D01*
X24513326Y-15407126D01*
X24513454Y-15407165D01*
X24527593Y-15414723D01*
X24530830Y-15416453D01*
X24546053Y-15428947D01*
X24558547Y-15444170D01*
X24558914Y-15444857D01*
X24567835Y-15461546D01*
X24567836Y-15461549D01*
X24573553Y-15480398D01*
X24575968Y-15504910D01*
X24575968Y-16995090D01*
X24575484Y-17000000D01*
X24573553Y-17019603D01*
X24567835Y-17038454D01*
X24560277Y-17052593D01*
X24558547Y-17055830D01*
X24546053Y-17071053D01*
X24530830Y-17083547D01*
X24530826Y-17083549D01*
X24513454Y-17092835D01*
X24513451Y-17092836D01*
X24513322Y-17092875D01*
X24494603Y-17098553D01*
X24489081Y-17099097D01*
X24470090Y-17100968D01*
X23329910Y-17100968D01*
X23310919Y-17099097D01*
X23305397Y-17098553D01*
X23286678Y-17092875D01*
X23286549Y-17092836D01*
X23286546Y-17092835D01*
X23269174Y-17083549D01*
X23269170Y-17083547D01*
X23253948Y-17071054D01*
X23252307Y-17069055D01*
X23238445Y-17055193D01*
X23222146Y-17044301D01*
X23204035Y-17036799D01*
X23184808Y-17032975D01*
X23165204Y-17032974D01*
X23145978Y-17036799D01*
X23127866Y-17044300D01*
X23111567Y-17055191D01*
X23097642Y-17069129D01*
X23096127Y-17070979D01*
X23080913Y-17083491D01*
X23063551Y-17092795D01*
X23044707Y-17098533D01*
X23025000Y-17100484D01*
X23024950Y-17100484D01*
X23020063Y-17100968D01*
X22029910Y-17100968D01*
X22010919Y-17099097D01*
X22005397Y-17098553D01*
X21986678Y-17092875D01*
X21986549Y-17092836D01*
X21986546Y-17092835D01*
X21969174Y-17083549D01*
X21969170Y-17083547D01*
X21953947Y-17071053D01*
X21941453Y-17055830D01*
X21939723Y-17052593D01*
X21932165Y-17038454D01*
X21926447Y-17019603D01*
X21924516Y-17000000D01*
X21924032Y-16995090D01*
X21924032Y-15504910D01*
X21926447Y-15480398D01*
X21932164Y-15461549D01*
X21932165Y-15461546D01*
X21941086Y-15444857D01*
X21941453Y-15444170D01*
X21953947Y-15428947D01*
X21969170Y-15416453D01*
X21972407Y-15414723D01*
X21986546Y-15407165D01*
X21986675Y-15407126D01*
X21990863Y-15405856D01*
X22005397Y-15401447D01*
X22010919Y-15400903D01*
X22029910Y-15399032D01*
X23020090Y-15399032D01*
X23039081Y-15400903D01*
X23039081Y-15400903D01*
G37*
G36*
X18939081Y-15400903D02*
X18944603Y-15401447D01*
X18959137Y-15405856D01*
X18963326Y-15407126D01*
X18963454Y-15407165D01*
X18977593Y-15414723D01*
X18980830Y-15416453D01*
X18996052Y-15428946D01*
X18997693Y-15430945D01*
X19011555Y-15444807D01*
X19027854Y-15455699D01*
X19045965Y-15463201D01*
X19065192Y-15467025D01*
X19084796Y-15467026D01*
X19104022Y-15463201D01*
X19122134Y-15455700D01*
X19138433Y-15444809D01*
X19152360Y-15430869D01*
X19153873Y-15429021D01*
X19169087Y-15416509D01*
X19186449Y-15407205D01*
X19205293Y-15401467D01*
X19225000Y-15399516D01*
X19225050Y-15399516D01*
X19229937Y-15399032D01*
X20220090Y-15399032D01*
X20239081Y-15400903D01*
X20244603Y-15401447D01*
X20259137Y-15405856D01*
X20263326Y-15407126D01*
X20263454Y-15407165D01*
X20277593Y-15414723D01*
X20280830Y-15416453D01*
X20296053Y-15428947D01*
X20308547Y-15444170D01*
X20308914Y-15444857D01*
X20317835Y-15461546D01*
X20317836Y-15461549D01*
X20323553Y-15480398D01*
X20325968Y-15504910D01*
X20325968Y-16995090D01*
X20325484Y-17000000D01*
X20323553Y-17019603D01*
X20317835Y-17038454D01*
X20310277Y-17052593D01*
X20308547Y-17055830D01*
X20296053Y-17071053D01*
X20280830Y-17083547D01*
X20280826Y-17083549D01*
X20263454Y-17092835D01*
X20263451Y-17092836D01*
X20263322Y-17092875D01*
X20244603Y-17098553D01*
X20239081Y-17099097D01*
X20220090Y-17100968D01*
X19229910Y-17100968D01*
X19210919Y-17099097D01*
X19205397Y-17098553D01*
X19186678Y-17092875D01*
X19186549Y-17092836D01*
X19186546Y-17092835D01*
X19169174Y-17083549D01*
X19169170Y-17083547D01*
X19153966Y-17071070D01*
X19153962Y-17071066D01*
X19153947Y-17071053D01*
X19152300Y-17069044D01*
X19138477Y-17055207D01*
X19122183Y-17044308D01*
X19104076Y-17036797D01*
X19084851Y-17032962D01*
X19065248Y-17032953D01*
X19046019Y-17036767D01*
X19027904Y-17044260D01*
X19011599Y-17055143D01*
X18997766Y-17068954D01*
X18996101Y-17070979D01*
X18995977Y-17071129D01*
X18980738Y-17083608D01*
X18963360Y-17092874D01*
X18959960Y-17093901D01*
X18944500Y-17098574D01*
X18944495Y-17098574D01*
X18944477Y-17098580D01*
X18920108Y-17100968D01*
X17779910Y-17100968D01*
X17760919Y-17099097D01*
X17755397Y-17098553D01*
X17736678Y-17092875D01*
X17736549Y-17092836D01*
X17736546Y-17092835D01*
X17719174Y-17083549D01*
X17719170Y-17083547D01*
X17703947Y-17071053D01*
X17691453Y-17055830D01*
X17689723Y-17052593D01*
X17682165Y-17038454D01*
X17676447Y-17019603D01*
X17674516Y-17000000D01*
X17674032Y-16995090D01*
X17674032Y-15504910D01*
X17676447Y-15480398D01*
X17682164Y-15461549D01*
X17682165Y-15461546D01*
X17691086Y-15444857D01*
X17691453Y-15444170D01*
X17703947Y-15428947D01*
X17719170Y-15416453D01*
X17722407Y-15414723D01*
X17736546Y-15407165D01*
X17736675Y-15407126D01*
X17740863Y-15405856D01*
X17755397Y-15401447D01*
X17760919Y-15400903D01*
X17779910Y-15399032D01*
X18920090Y-15399032D01*
X18939081Y-15400903D01*
X18939081Y-15400903D01*
G37*
G36*
X9997936Y-15432665D02*
X9997938Y-15432666D01*
X9997939Y-15432666D01*
X10080941Y-15467047D01*
X10152626Y-15496740D01*
X10291844Y-15589762D01*
X10410238Y-15708156D01*
X10431123Y-15739413D01*
X10503260Y-15847374D01*
X10543181Y-15943750D01*
X10567335Y-16002064D01*
X10600000Y-16166282D01*
X10600000Y-16333718D01*
X10567335Y-16497936D01*
X10503260Y-16652626D01*
X10410238Y-16791844D01*
X10291844Y-16910238D01*
X10178034Y-16986283D01*
X10152626Y-17003260D01*
X9997939Y-17067334D01*
X9997938Y-17067334D01*
X9997936Y-17067335D01*
X9833718Y-17100000D01*
X9666282Y-17100000D01*
X9502064Y-17067335D01*
X9502062Y-17067334D01*
X9502061Y-17067334D01*
X9347374Y-17003260D01*
X9321966Y-16986283D01*
X9208156Y-16910238D01*
X9089762Y-16791844D01*
X8996740Y-16652626D01*
X8932665Y-16497936D01*
X8900000Y-16333718D01*
X8900000Y-16166282D01*
X8932665Y-16002064D01*
X8956820Y-15943750D01*
X8996740Y-15847374D01*
X9068877Y-15739413D01*
X9089762Y-15708156D01*
X9208156Y-15589762D01*
X9347374Y-15496740D01*
X9419059Y-15467047D01*
X9502061Y-15432666D01*
X9502062Y-15432666D01*
X9502064Y-15432665D01*
X9666282Y-15400000D01*
X9833718Y-15400000D01*
X9997936Y-15432665D01*
X9997936Y-15432665D01*
G37*
G36*
X11898830Y-15679677D02*
X11939776Y-15692098D01*
X11977510Y-15712267D01*
X12010587Y-15739413D01*
X12037733Y-15772490D01*
X12057902Y-15810224D01*
X12070323Y-15851170D01*
X12075000Y-15898658D01*
X12075000Y-16526342D01*
X12070323Y-16573830D01*
X12057902Y-16614776D01*
X12037733Y-16652510D01*
X12010587Y-16685587D01*
X11977510Y-16712733D01*
X11939776Y-16732902D01*
X11898830Y-16745323D01*
X11851342Y-16750000D01*
X11148658Y-16750000D01*
X11101170Y-16745323D01*
X11060224Y-16732902D01*
X11022490Y-16712733D01*
X10989413Y-16685587D01*
X10962267Y-16652510D01*
X10942098Y-16614776D01*
X10929677Y-16573830D01*
X10925000Y-16526342D01*
X10925000Y-15898658D01*
X10929677Y-15851170D01*
X10942098Y-15810224D01*
X10962267Y-15772490D01*
X10989413Y-15739413D01*
X11022490Y-15712267D01*
X11060224Y-15692098D01*
X11101170Y-15679677D01*
X11148658Y-15675000D01*
X11851342Y-15675000D01*
X11898830Y-15679677D01*
X11898830Y-15679677D01*
G37*
G36*
X28102971Y-14301455D02*
X28126232Y-14303746D01*
X28305308Y-14358068D01*
X28470345Y-14446282D01*
X28615001Y-14564999D01*
X28733718Y-14709655D01*
X28821932Y-14874692D01*
X28821932Y-14874693D01*
X28876254Y-15053769D01*
X28894597Y-15240000D01*
X28878933Y-15399032D01*
X28876254Y-15426232D01*
X28821932Y-15605308D01*
X28733718Y-15770345D01*
X28615001Y-15915001D01*
X28470345Y-16033718D01*
X28305308Y-16121932D01*
X28126232Y-16176254D01*
X28102971Y-16178545D01*
X27986670Y-16190000D01*
X27893330Y-16190000D01*
X27777029Y-16178545D01*
X27753768Y-16176254D01*
X27574692Y-16121932D01*
X27409655Y-16033718D01*
X27264999Y-15915001D01*
X27146282Y-15770345D01*
X27058068Y-15605308D01*
X27003746Y-15426232D01*
X27001067Y-15399032D01*
X26985403Y-15240000D01*
X27003746Y-15053769D01*
X27058068Y-14874693D01*
X27058068Y-14874692D01*
X27146282Y-14709655D01*
X27264999Y-14564999D01*
X27409655Y-14446282D01*
X27574692Y-14358068D01*
X27753768Y-14303746D01*
X27777029Y-14301455D01*
X27893330Y-14290000D01*
X27986670Y-14290000D01*
X28102971Y-14301455D01*
X28102971Y-14301455D01*
G37*
G36*
X2702971Y-14301455D02*
X2726232Y-14303746D01*
X2905308Y-14358068D01*
X3070345Y-14446282D01*
X3215001Y-14564999D01*
X3333718Y-14709655D01*
X3421932Y-14874692D01*
X3421932Y-14874693D01*
X3476254Y-15053769D01*
X3494597Y-15240000D01*
X3478933Y-15399032D01*
X3476254Y-15426232D01*
X3421932Y-15605308D01*
X3333718Y-15770345D01*
X3215001Y-15915001D01*
X3070345Y-16033718D01*
X2905308Y-16121932D01*
X2726232Y-16176254D01*
X2702971Y-16178545D01*
X2586670Y-16190000D01*
X2493330Y-16190000D01*
X2377029Y-16178545D01*
X2353768Y-16176254D01*
X2174692Y-16121932D01*
X2009655Y-16033718D01*
X1864999Y-15915001D01*
X1746282Y-15770345D01*
X1658068Y-15605308D01*
X1603746Y-15426232D01*
X1601067Y-15399032D01*
X1585403Y-15240000D01*
X1603746Y-15053769D01*
X1658068Y-14874693D01*
X1658068Y-14874692D01*
X1746282Y-14709655D01*
X1864999Y-14564999D01*
X2009655Y-14446282D01*
X2174692Y-14358068D01*
X2353768Y-14303746D01*
X2377029Y-14301455D01*
X2493330Y-14290000D01*
X2586670Y-14290000D01*
X2702971Y-14301455D01*
X2702971Y-14301455D01*
G37*
G36*
X30642971Y-14301455D02*
X30666232Y-14303746D01*
X30845308Y-14358068D01*
X31010345Y-14446282D01*
X31155001Y-14564999D01*
X31273718Y-14709655D01*
X31361932Y-14874692D01*
X31361932Y-14874693D01*
X31416254Y-15053769D01*
X31434597Y-15240000D01*
X31418933Y-15399032D01*
X31416254Y-15426232D01*
X31361932Y-15605308D01*
X31273718Y-15770345D01*
X31155001Y-15915001D01*
X31010345Y-16033718D01*
X30845308Y-16121932D01*
X30666232Y-16176254D01*
X30642971Y-16178545D01*
X30526670Y-16190000D01*
X30433330Y-16190000D01*
X30317029Y-16178545D01*
X30293768Y-16176254D01*
X30114692Y-16121932D01*
X29949655Y-16033718D01*
X29804999Y-15915001D01*
X29686282Y-15770345D01*
X29598068Y-15605308D01*
X29543746Y-15426232D01*
X29541067Y-15399032D01*
X29525403Y-15240000D01*
X29543746Y-15053769D01*
X29598068Y-14874693D01*
X29598068Y-14874692D01*
X29686282Y-14709655D01*
X29804999Y-14564999D01*
X29949655Y-14446282D01*
X30114692Y-14358068D01*
X30293768Y-14303746D01*
X30317029Y-14301455D01*
X30433330Y-14290000D01*
X30526670Y-14290000D01*
X30642971Y-14301455D01*
X30642971Y-14301455D01*
G37*
G36*
X5242971Y-14301455D02*
X5266232Y-14303746D01*
X5445308Y-14358068D01*
X5610345Y-14446282D01*
X5755001Y-14564999D01*
X5873718Y-14709655D01*
X5961932Y-14874692D01*
X5961932Y-14874693D01*
X6016254Y-15053769D01*
X6034597Y-15240000D01*
X6018933Y-15399032D01*
X6016254Y-15426232D01*
X5961932Y-15605308D01*
X5873718Y-15770345D01*
X5755001Y-15915001D01*
X5610345Y-16033718D01*
X5445308Y-16121932D01*
X5266232Y-16176254D01*
X5242971Y-16178545D01*
X5126670Y-16190000D01*
X5033330Y-16190000D01*
X4917029Y-16178545D01*
X4893768Y-16176254D01*
X4714692Y-16121932D01*
X4549655Y-16033718D01*
X4404999Y-15915001D01*
X4286282Y-15770345D01*
X4198068Y-15605308D01*
X4143746Y-15426232D01*
X4141067Y-15399032D01*
X4125403Y-15240000D01*
X4143746Y-15053769D01*
X4198068Y-14874693D01*
X4198068Y-14874692D01*
X4286282Y-14709655D01*
X4404999Y-14564999D01*
X4549655Y-14446282D01*
X4714692Y-14358068D01*
X4893768Y-14303746D01*
X4917029Y-14301455D01*
X5033330Y-14290000D01*
X5126670Y-14290000D01*
X5242971Y-14301455D01*
X5242971Y-14301455D01*
G37*
G36*
X8439081Y-13150903D02*
X8444603Y-13151447D01*
X8463454Y-13157165D01*
X8467066Y-13159096D01*
X8480830Y-13166453D01*
X8496052Y-13178946D01*
X8497693Y-13180945D01*
X8511555Y-13194807D01*
X8527854Y-13205699D01*
X8545965Y-13213201D01*
X8565192Y-13217025D01*
X8584796Y-13217026D01*
X8604022Y-13213201D01*
X8622134Y-13205700D01*
X8638433Y-13194809D01*
X8652360Y-13180869D01*
X8653873Y-13179021D01*
X8669087Y-13166509D01*
X8686449Y-13157205D01*
X8705293Y-13151467D01*
X8725000Y-13149516D01*
X8725050Y-13149516D01*
X8729937Y-13149032D01*
X9720090Y-13149032D01*
X9739081Y-13150903D01*
X9744603Y-13151447D01*
X9763454Y-13157165D01*
X9767066Y-13159096D01*
X9780830Y-13166453D01*
X9796053Y-13178947D01*
X9808547Y-13194170D01*
X9810277Y-13197407D01*
X9817835Y-13211546D01*
X9823538Y-13230346D01*
X9823553Y-13230398D01*
X9825968Y-13254910D01*
X9825968Y-14745090D01*
X9825484Y-14750000D01*
X9823553Y-14769603D01*
X9817835Y-14788454D01*
X9810277Y-14802593D01*
X9808547Y-14805830D01*
X9796053Y-14821053D01*
X9780830Y-14833547D01*
X9780826Y-14833549D01*
X9763454Y-14842835D01*
X9763451Y-14842836D01*
X9763322Y-14842875D01*
X9744603Y-14848553D01*
X9739081Y-14849097D01*
X9720090Y-14850968D01*
X8729910Y-14850968D01*
X8710919Y-14849097D01*
X8705397Y-14848553D01*
X8686678Y-14842875D01*
X8686549Y-14842836D01*
X8686546Y-14842835D01*
X8669174Y-14833549D01*
X8669170Y-14833547D01*
X8653966Y-14821070D01*
X8653962Y-14821066D01*
X8653947Y-14821053D01*
X8652300Y-14819044D01*
X8638477Y-14805207D01*
X8622183Y-14794308D01*
X8604076Y-14786797D01*
X8584851Y-14782962D01*
X8565248Y-14782953D01*
X8546019Y-14786767D01*
X8527904Y-14794260D01*
X8511599Y-14805143D01*
X8497766Y-14818954D01*
X8497666Y-14819076D01*
X8495977Y-14821129D01*
X8480738Y-14833608D01*
X8463360Y-14842874D01*
X8459960Y-14843901D01*
X8444500Y-14848574D01*
X8444495Y-14848574D01*
X8444477Y-14848580D01*
X8420108Y-14850968D01*
X7279910Y-14850968D01*
X7260919Y-14849097D01*
X7255397Y-14848553D01*
X7236678Y-14842875D01*
X7236549Y-14842836D01*
X7236546Y-14842835D01*
X7219174Y-14833549D01*
X7219170Y-14833547D01*
X7203947Y-14821053D01*
X7191453Y-14805830D01*
X7189723Y-14802593D01*
X7182165Y-14788454D01*
X7176447Y-14769603D01*
X7174516Y-14750000D01*
X7174032Y-14745090D01*
X7174032Y-13254910D01*
X7176447Y-13230398D01*
X7176463Y-13230346D01*
X7182165Y-13211546D01*
X7189723Y-13197407D01*
X7191453Y-13194170D01*
X7203947Y-13178947D01*
X7219170Y-13166453D01*
X7232934Y-13159096D01*
X7236546Y-13157165D01*
X7255397Y-13151447D01*
X7260919Y-13150903D01*
X7279910Y-13149032D01*
X8420090Y-13149032D01*
X8439081Y-13150903D01*
X8439081Y-13150903D01*
G37*
G36*
X28102971Y-11761455D02*
X28126232Y-11763746D01*
X28305308Y-11818068D01*
X28470345Y-11906282D01*
X28615001Y-12024999D01*
X28733718Y-12169655D01*
X28821932Y-12334692D01*
X28873496Y-12504677D01*
X28876254Y-12513769D01*
X28894597Y-12700000D01*
X28887825Y-12768750D01*
X28876254Y-12886232D01*
X28821932Y-13065308D01*
X28733718Y-13230345D01*
X28615001Y-13375001D01*
X28470345Y-13493718D01*
X28305308Y-13581932D01*
X28126232Y-13636254D01*
X28102971Y-13638545D01*
X27986670Y-13650000D01*
X27893330Y-13650000D01*
X27777029Y-13638545D01*
X27753768Y-13636254D01*
X27574692Y-13581932D01*
X27409655Y-13493718D01*
X27264999Y-13375001D01*
X27146282Y-13230345D01*
X27058068Y-13065308D01*
X27003746Y-12886232D01*
X26992175Y-12768750D01*
X26985403Y-12700000D01*
X27003746Y-12513769D01*
X27006504Y-12504677D01*
X27058068Y-12334692D01*
X27146282Y-12169655D01*
X27264999Y-12024999D01*
X27409655Y-11906282D01*
X27574692Y-11818068D01*
X27753768Y-11763746D01*
X27777029Y-11761455D01*
X27893330Y-11750000D01*
X27986670Y-11750000D01*
X28102971Y-11761455D01*
X28102971Y-11761455D01*
G37*
G36*
X5242971Y-11761455D02*
X5266232Y-11763746D01*
X5445308Y-11818068D01*
X5610345Y-11906282D01*
X5755001Y-12024999D01*
X5873718Y-12169655D01*
X5961932Y-12334692D01*
X6013496Y-12504677D01*
X6016254Y-12513769D01*
X6034597Y-12700000D01*
X6027825Y-12768750D01*
X6016254Y-12886232D01*
X5961932Y-13065308D01*
X5873718Y-13230345D01*
X5755001Y-13375001D01*
X5610345Y-13493718D01*
X5445308Y-13581932D01*
X5266232Y-13636254D01*
X5242971Y-13638545D01*
X5126670Y-13650000D01*
X5033330Y-13650000D01*
X4917029Y-13638545D01*
X4893768Y-13636254D01*
X4714692Y-13581932D01*
X4549655Y-13493718D01*
X4404999Y-13375001D01*
X4286282Y-13230345D01*
X4198068Y-13065308D01*
X4143746Y-12886232D01*
X4132175Y-12768750D01*
X4125403Y-12700000D01*
X4143746Y-12513769D01*
X4146504Y-12504677D01*
X4198068Y-12334692D01*
X4286282Y-12169655D01*
X4404999Y-12024999D01*
X4549655Y-11906282D01*
X4714692Y-11818068D01*
X4893768Y-11763746D01*
X4917029Y-11761455D01*
X5033330Y-11750000D01*
X5126670Y-11750000D01*
X5242971Y-11761455D01*
X5242971Y-11761455D01*
G37*
G36*
X2702971Y-11761455D02*
X2726232Y-11763746D01*
X2905308Y-11818068D01*
X3070345Y-11906282D01*
X3215001Y-12024999D01*
X3333718Y-12169655D01*
X3421932Y-12334692D01*
X3473496Y-12504677D01*
X3476254Y-12513769D01*
X3494597Y-12700000D01*
X3487825Y-12768750D01*
X3476254Y-12886232D01*
X3421932Y-13065308D01*
X3333718Y-13230345D01*
X3215001Y-13375001D01*
X3070345Y-13493718D01*
X2905308Y-13581932D01*
X2726232Y-13636254D01*
X2702971Y-13638545D01*
X2586670Y-13650000D01*
X2493330Y-13650000D01*
X2377029Y-13638545D01*
X2353768Y-13636254D01*
X2174692Y-13581932D01*
X2009655Y-13493718D01*
X1864999Y-13375001D01*
X1746282Y-13230345D01*
X1658068Y-13065308D01*
X1603746Y-12886232D01*
X1592175Y-12768750D01*
X1585403Y-12700000D01*
X1603746Y-12513769D01*
X1606504Y-12504677D01*
X1658068Y-12334692D01*
X1746282Y-12169655D01*
X1864999Y-12024999D01*
X2009655Y-11906282D01*
X2174692Y-11818068D01*
X2353768Y-11763746D01*
X2377029Y-11761455D01*
X2493330Y-11750000D01*
X2586670Y-11750000D01*
X2702971Y-11761455D01*
X2702971Y-11761455D01*
G37*
G36*
X30642971Y-11761455D02*
X30666232Y-11763746D01*
X30845308Y-11818068D01*
X31010345Y-11906282D01*
X31155001Y-12024999D01*
X31273718Y-12169655D01*
X31361932Y-12334692D01*
X31413496Y-12504677D01*
X31416254Y-12513769D01*
X31434597Y-12700000D01*
X31427825Y-12768750D01*
X31416254Y-12886232D01*
X31361932Y-13065308D01*
X31273718Y-13230345D01*
X31155001Y-13375001D01*
X31010345Y-13493718D01*
X30845308Y-13581932D01*
X30666232Y-13636254D01*
X30642971Y-13638545D01*
X30526670Y-13650000D01*
X30433330Y-13650000D01*
X30317029Y-13638545D01*
X30293768Y-13636254D01*
X30114692Y-13581932D01*
X29949655Y-13493718D01*
X29804999Y-13375001D01*
X29686282Y-13230345D01*
X29598068Y-13065308D01*
X29543746Y-12886232D01*
X29532175Y-12768750D01*
X29525403Y-12700000D01*
X29543746Y-12513769D01*
X29546504Y-12504677D01*
X29598068Y-12334692D01*
X29686282Y-12169655D01*
X29804999Y-12024999D01*
X29949655Y-11906282D01*
X30114692Y-11818068D01*
X30293768Y-11763746D01*
X30317029Y-11761455D01*
X30433330Y-11750000D01*
X30526670Y-11750000D01*
X30642971Y-11761455D01*
X30642971Y-11761455D01*
G37*
G36*
X23148830Y-12504677D02*
X23189776Y-12517098D01*
X23227510Y-12537267D01*
X23260587Y-12564413D01*
X23287733Y-12597490D01*
X23307902Y-12635224D01*
X23320323Y-12676170D01*
X23325000Y-12723658D01*
X23325000Y-13351342D01*
X23320323Y-13398830D01*
X23307902Y-13439776D01*
X23287733Y-13477510D01*
X23260587Y-13510587D01*
X23227510Y-13537733D01*
X23189776Y-13557902D01*
X23148830Y-13570323D01*
X23101342Y-13575000D01*
X22398658Y-13575000D01*
X22351170Y-13570323D01*
X22310224Y-13557902D01*
X22272490Y-13537733D01*
X22239413Y-13510587D01*
X22212267Y-13477510D01*
X22192098Y-13439776D01*
X22179677Y-13398830D01*
X22175000Y-13351342D01*
X22175000Y-12723658D01*
X22179677Y-12676170D01*
X22192098Y-12635224D01*
X22212267Y-12597490D01*
X22239413Y-12564413D01*
X22272490Y-12537267D01*
X22310224Y-12517098D01*
X22351170Y-12504677D01*
X22398658Y-12500000D01*
X23101342Y-12500000D01*
X23148830Y-12504677D01*
X23148830Y-12504677D01*
G37*
G36*
X20398830Y-12504677D02*
X20439776Y-12517098D01*
X20477510Y-12537267D01*
X20510587Y-12564413D01*
X20537733Y-12597490D01*
X20557902Y-12635224D01*
X20570323Y-12676170D01*
X20575000Y-12723658D01*
X20575000Y-13351342D01*
X20570323Y-13398830D01*
X20557902Y-13439776D01*
X20537733Y-13477510D01*
X20510587Y-13510587D01*
X20477510Y-13537733D01*
X20439776Y-13557902D01*
X20398830Y-13570323D01*
X20351342Y-13575000D01*
X19648658Y-13575000D01*
X19601170Y-13570323D01*
X19560224Y-13557902D01*
X19522490Y-13537733D01*
X19489413Y-13510587D01*
X19462267Y-13477510D01*
X19442098Y-13439776D01*
X19429677Y-13398830D01*
X19425000Y-13351342D01*
X19425000Y-12723658D01*
X19429677Y-12676170D01*
X19442098Y-12635224D01*
X19462267Y-12597490D01*
X19489413Y-12564413D01*
X19522490Y-12537267D01*
X19560224Y-12517098D01*
X19601170Y-12504677D01*
X19648658Y-12500000D01*
X20351342Y-12500000D01*
X20398830Y-12504677D01*
X20398830Y-12504677D01*
G37*
G36*
X11898830Y-12254677D02*
X11939776Y-12267098D01*
X11977510Y-12287267D01*
X12010587Y-12314413D01*
X12037733Y-12347490D01*
X12057902Y-12385224D01*
X12070323Y-12426170D01*
X12075000Y-12473658D01*
X12075000Y-13101342D01*
X12070323Y-13148830D01*
X12057902Y-13189776D01*
X12037733Y-13227510D01*
X12010587Y-13260587D01*
X11977510Y-13287733D01*
X11939776Y-13307902D01*
X11898830Y-13320323D01*
X11851342Y-13325000D01*
X11148658Y-13325000D01*
X11101170Y-13320323D01*
X11060224Y-13307902D01*
X11022490Y-13287733D01*
X10989413Y-13260587D01*
X10962267Y-13227510D01*
X10942098Y-13189776D01*
X10929677Y-13148830D01*
X10925000Y-13101342D01*
X10925000Y-12473658D01*
X10929677Y-12426170D01*
X10942098Y-12385224D01*
X10962267Y-12347490D01*
X10989413Y-12314413D01*
X11022490Y-12287267D01*
X11060224Y-12267098D01*
X11101170Y-12254677D01*
X11148658Y-12250000D01*
X11851342Y-12250000D01*
X11898830Y-12254677D01*
X11898830Y-12254677D01*
G37*
G36*
X13398830Y-12254677D02*
X13439776Y-12267098D01*
X13477510Y-12287267D01*
X13510587Y-12314413D01*
X13537733Y-12347490D01*
X13557902Y-12385224D01*
X13570323Y-12426170D01*
X13575000Y-12473658D01*
X13575000Y-13101342D01*
X13570323Y-13148830D01*
X13557902Y-13189776D01*
X13537733Y-13227510D01*
X13510587Y-13260587D01*
X13477510Y-13287733D01*
X13439776Y-13307902D01*
X13398830Y-13320323D01*
X13351342Y-13325000D01*
X12648658Y-13325000D01*
X12601170Y-13320323D01*
X12560224Y-13307902D01*
X12522490Y-13287733D01*
X12489413Y-13260587D01*
X12462267Y-13227510D01*
X12442098Y-13189776D01*
X12429677Y-13148830D01*
X12425000Y-13101342D01*
X12425000Y-12473658D01*
X12429677Y-12426170D01*
X12442098Y-12385224D01*
X12462267Y-12347490D01*
X12489413Y-12314413D01*
X12522490Y-12287267D01*
X12560224Y-12267098D01*
X12601170Y-12254677D01*
X12648658Y-12250000D01*
X13351342Y-12250000D01*
X13398830Y-12254677D01*
X13398830Y-12254677D01*
G37*
G36*
X9925011Y-11423057D02*
X9925013Y-11423058D01*
X9925014Y-11423058D01*
X10034207Y-11468287D01*
X10053607Y-11481250D01*
X10132476Y-11533948D01*
X10216052Y-11617524D01*
X10248770Y-11666491D01*
X10281713Y-11715793D01*
X10306793Y-11776342D01*
X10326943Y-11824989D01*
X10350000Y-11940903D01*
X10350000Y-12059097D01*
X10328009Y-12169654D01*
X10326942Y-12175014D01*
X10281713Y-12284207D01*
X10248770Y-12333509D01*
X10216052Y-12382476D01*
X10132476Y-12466052D01*
X10083509Y-12498770D01*
X10034207Y-12531713D01*
X9925014Y-12576942D01*
X9925013Y-12576942D01*
X9925011Y-12576943D01*
X9809097Y-12600000D01*
X9690903Y-12600000D01*
X9574989Y-12576943D01*
X9574987Y-12576942D01*
X9574986Y-12576942D01*
X9465793Y-12531713D01*
X9416491Y-12498770D01*
X9367524Y-12466052D01*
X9283948Y-12382476D01*
X9251230Y-12333509D01*
X9218287Y-12284207D01*
X9173058Y-12175014D01*
X9171992Y-12169654D01*
X9150000Y-12059097D01*
X9150000Y-11940903D01*
X9173057Y-11824989D01*
X9193207Y-11776342D01*
X9218287Y-11715793D01*
X9251230Y-11666491D01*
X9283948Y-11617524D01*
X9367524Y-11533948D01*
X9446393Y-11481250D01*
X9465793Y-11468287D01*
X9574986Y-11423058D01*
X9574987Y-11423058D01*
X9574989Y-11423057D01*
X9690903Y-11400000D01*
X9809097Y-11400000D01*
X9925011Y-11423057D01*
X9925011Y-11423057D01*
G37*
G36*
X8025011Y-11423057D02*
X8025013Y-11423058D01*
X8025014Y-11423058D01*
X8134207Y-11468287D01*
X8153607Y-11481250D01*
X8232476Y-11533948D01*
X8316052Y-11617524D01*
X8348770Y-11666491D01*
X8381713Y-11715793D01*
X8406793Y-11776342D01*
X8426943Y-11824989D01*
X8450000Y-11940903D01*
X8450000Y-12059097D01*
X8428009Y-12169654D01*
X8426942Y-12175014D01*
X8381713Y-12284207D01*
X8348770Y-12333509D01*
X8316052Y-12382476D01*
X8232476Y-12466052D01*
X8183509Y-12498770D01*
X8134207Y-12531713D01*
X8025014Y-12576942D01*
X8025013Y-12576942D01*
X8025011Y-12576943D01*
X7909097Y-12600000D01*
X7790903Y-12600000D01*
X7674989Y-12576943D01*
X7674987Y-12576942D01*
X7674986Y-12576942D01*
X7565793Y-12531713D01*
X7516491Y-12498770D01*
X7467524Y-12466052D01*
X7383948Y-12382476D01*
X7351230Y-12333509D01*
X7318287Y-12284207D01*
X7273058Y-12175014D01*
X7271992Y-12169654D01*
X7250000Y-12059097D01*
X7250000Y-11940903D01*
X7273057Y-11824989D01*
X7293207Y-11776342D01*
X7318287Y-11715793D01*
X7351230Y-11666491D01*
X7383948Y-11617524D01*
X7467524Y-11533948D01*
X7546393Y-11481250D01*
X7565793Y-11468287D01*
X7674986Y-11423058D01*
X7674987Y-11423058D01*
X7674989Y-11423057D01*
X7790903Y-11400000D01*
X7909097Y-11400000D01*
X8025011Y-11423057D01*
X8025011Y-11423057D01*
G37*
G36*
X23148830Y-10929677D02*
X23189776Y-10942098D01*
X23227510Y-10962267D01*
X23260587Y-10989413D01*
X23287733Y-11022490D01*
X23307902Y-11060224D01*
X23320323Y-11101170D01*
X23325000Y-11148658D01*
X23325000Y-11776342D01*
X23320323Y-11823830D01*
X23307902Y-11864776D01*
X23287733Y-11902510D01*
X23260587Y-11935587D01*
X23227510Y-11962733D01*
X23189776Y-11982902D01*
X23148830Y-11995323D01*
X23101342Y-12000000D01*
X22398658Y-12000000D01*
X22351170Y-11995323D01*
X22310224Y-11982902D01*
X22272490Y-11962733D01*
X22239413Y-11935587D01*
X22212267Y-11902510D01*
X22192098Y-11864776D01*
X22179677Y-11823830D01*
X22175000Y-11776342D01*
X22175000Y-11148658D01*
X22179677Y-11101170D01*
X22192098Y-11060224D01*
X22212267Y-11022490D01*
X22239413Y-10989413D01*
X22272490Y-10962267D01*
X22310224Y-10942098D01*
X22351170Y-10929677D01*
X22398658Y-10925000D01*
X23101342Y-10925000D01*
X23148830Y-10929677D01*
X23148830Y-10929677D01*
G37*
G36*
X20398830Y-10929677D02*
X20439776Y-10942098D01*
X20477510Y-10962267D01*
X20510587Y-10989413D01*
X20537733Y-11022490D01*
X20557902Y-11060224D01*
X20570323Y-11101170D01*
X20575000Y-11148658D01*
X20575000Y-11776342D01*
X20570323Y-11823830D01*
X20557902Y-11864776D01*
X20537733Y-11902510D01*
X20510587Y-11935587D01*
X20477510Y-11962733D01*
X20439776Y-11982902D01*
X20398830Y-11995323D01*
X20351342Y-12000000D01*
X19648658Y-12000000D01*
X19601170Y-11995323D01*
X19560224Y-11982902D01*
X19522490Y-11962733D01*
X19489413Y-11935587D01*
X19462267Y-11902510D01*
X19442098Y-11864776D01*
X19429677Y-11823830D01*
X19425000Y-11776342D01*
X19425000Y-11148658D01*
X19429677Y-11101170D01*
X19442098Y-11060224D01*
X19462267Y-11022490D01*
X19489413Y-10989413D01*
X19522490Y-10962267D01*
X19560224Y-10942098D01*
X19601170Y-10929677D01*
X19648658Y-10925000D01*
X20351342Y-10925000D01*
X20398830Y-10929677D01*
X20398830Y-10929677D01*
G37*
G36*
X13398830Y-10679677D02*
X13439776Y-10692098D01*
X13477510Y-10712267D01*
X13510587Y-10739413D01*
X13537733Y-10772490D01*
X13557902Y-10810224D01*
X13570323Y-10851170D01*
X13575000Y-10898658D01*
X13575000Y-11526342D01*
X13570323Y-11573830D01*
X13557902Y-11614776D01*
X13537733Y-11652510D01*
X13510587Y-11685587D01*
X13477510Y-11712733D01*
X13439776Y-11732902D01*
X13398830Y-11745323D01*
X13351342Y-11750000D01*
X12648658Y-11750000D01*
X12601170Y-11745323D01*
X12560224Y-11732902D01*
X12522490Y-11712733D01*
X12489413Y-11685587D01*
X12462267Y-11652510D01*
X12442098Y-11614776D01*
X12429677Y-11573830D01*
X12425000Y-11526342D01*
X12425000Y-10898658D01*
X12429677Y-10851170D01*
X12442098Y-10810224D01*
X12462267Y-10772490D01*
X12489413Y-10739413D01*
X12522490Y-10712267D01*
X12560224Y-10692098D01*
X12601170Y-10679677D01*
X12648658Y-10675000D01*
X13351342Y-10675000D01*
X13398830Y-10679677D01*
X13398830Y-10679677D01*
G37*
G36*
X11898830Y-10679677D02*
X11939776Y-10692098D01*
X11977510Y-10712267D01*
X12010587Y-10739413D01*
X12037733Y-10772490D01*
X12057902Y-10810224D01*
X12070323Y-10851170D01*
X12075000Y-10898658D01*
X12075000Y-11526342D01*
X12070323Y-11573830D01*
X12057902Y-11614776D01*
X12037733Y-11652510D01*
X12010587Y-11685587D01*
X11977510Y-11712733D01*
X11939776Y-11732902D01*
X11898830Y-11745323D01*
X11851342Y-11750000D01*
X11148658Y-11750000D01*
X11101170Y-11745323D01*
X11060224Y-11732902D01*
X11022490Y-11712733D01*
X10989413Y-11685587D01*
X10962267Y-11652510D01*
X10942098Y-11614776D01*
X10929677Y-11573830D01*
X10925000Y-11526342D01*
X10925000Y-10898658D01*
X10929677Y-10851170D01*
X10942098Y-10810224D01*
X10962267Y-10772490D01*
X10989413Y-10739413D01*
X11022490Y-10712267D01*
X11060224Y-10692098D01*
X11101170Y-10679677D01*
X11148658Y-10675000D01*
X11851342Y-10675000D01*
X11898830Y-10679677D01*
X11898830Y-10679677D01*
G37*
G36*
X28102971Y-9221455D02*
X28126232Y-9223746D01*
X28305308Y-9278068D01*
X28470345Y-9366282D01*
X28615001Y-9484999D01*
X28733718Y-9629655D01*
X28821932Y-9794692D01*
X28821932Y-9794693D01*
X28876254Y-9973769D01*
X28894597Y-10160000D01*
X28877899Y-10329534D01*
X28876254Y-10346232D01*
X28821932Y-10525308D01*
X28733718Y-10690345D01*
X28615001Y-10835001D01*
X28470345Y-10953718D01*
X28305308Y-11041932D01*
X28126232Y-11096254D01*
X28102971Y-11098545D01*
X27986670Y-11110000D01*
X27893330Y-11110000D01*
X27777029Y-11098545D01*
X27753768Y-11096254D01*
X27574692Y-11041932D01*
X27409655Y-10953718D01*
X27264999Y-10835001D01*
X27146282Y-10690345D01*
X27058068Y-10525308D01*
X27003746Y-10346232D01*
X27002101Y-10329534D01*
X26985403Y-10160000D01*
X27003746Y-9973769D01*
X27058068Y-9794693D01*
X27058068Y-9794692D01*
X27146282Y-9629655D01*
X27264999Y-9484999D01*
X27409655Y-9366282D01*
X27574692Y-9278068D01*
X27753768Y-9223746D01*
X27777029Y-9221455D01*
X27893330Y-9210000D01*
X27986670Y-9210000D01*
X28102971Y-9221455D01*
X28102971Y-9221455D01*
G37*
G36*
X30642971Y-9221455D02*
X30666232Y-9223746D01*
X30845308Y-9278068D01*
X31010345Y-9366282D01*
X31155001Y-9484999D01*
X31273718Y-9629655D01*
X31361932Y-9794692D01*
X31361932Y-9794693D01*
X31416254Y-9973769D01*
X31434597Y-10160000D01*
X31417899Y-10329534D01*
X31416254Y-10346232D01*
X31361932Y-10525308D01*
X31273718Y-10690345D01*
X31155001Y-10835001D01*
X31010345Y-10953718D01*
X30845308Y-11041932D01*
X30666232Y-11096254D01*
X30642971Y-11098545D01*
X30526670Y-11110000D01*
X30433330Y-11110000D01*
X30317029Y-11098545D01*
X30293768Y-11096254D01*
X30114692Y-11041932D01*
X29949655Y-10953718D01*
X29804999Y-10835001D01*
X29686282Y-10690345D01*
X29598068Y-10525308D01*
X29543746Y-10346232D01*
X29542101Y-10329534D01*
X29525403Y-10160000D01*
X29543746Y-9973769D01*
X29598068Y-9794693D01*
X29598068Y-9794692D01*
X29686282Y-9629655D01*
X29804999Y-9484999D01*
X29949655Y-9366282D01*
X30114692Y-9278068D01*
X30293768Y-9223746D01*
X30317029Y-9221455D01*
X30433330Y-9210000D01*
X30526670Y-9210000D01*
X30642971Y-9221455D01*
X30642971Y-9221455D01*
G37*
G36*
X5242971Y-9221455D02*
X5266232Y-9223746D01*
X5445308Y-9278068D01*
X5610345Y-9366282D01*
X5755001Y-9484999D01*
X5873718Y-9629655D01*
X5961932Y-9794692D01*
X5961932Y-9794693D01*
X6016254Y-9973769D01*
X6034597Y-10160000D01*
X6017899Y-10329534D01*
X6016254Y-10346232D01*
X5961932Y-10525308D01*
X5873718Y-10690345D01*
X5755001Y-10835001D01*
X5610345Y-10953718D01*
X5445308Y-11041932D01*
X5266232Y-11096254D01*
X5242971Y-11098545D01*
X5126670Y-11110000D01*
X5033330Y-11110000D01*
X4917029Y-11098545D01*
X4893768Y-11096254D01*
X4714692Y-11041932D01*
X4549655Y-10953718D01*
X4404999Y-10835001D01*
X4286282Y-10690345D01*
X4198068Y-10525308D01*
X4143746Y-10346232D01*
X4142101Y-10329534D01*
X4125403Y-10160000D01*
X4143746Y-9973769D01*
X4198068Y-9794693D01*
X4198068Y-9794692D01*
X4286282Y-9629655D01*
X4404999Y-9484999D01*
X4549655Y-9366282D01*
X4714692Y-9278068D01*
X4893768Y-9223746D01*
X4917029Y-9221455D01*
X5033330Y-9210000D01*
X5126670Y-9210000D01*
X5242971Y-9221455D01*
X5242971Y-9221455D01*
G37*
G36*
X2702971Y-9221455D02*
X2726232Y-9223746D01*
X2905308Y-9278068D01*
X3070345Y-9366282D01*
X3215001Y-9484999D01*
X3333718Y-9629655D01*
X3421932Y-9794692D01*
X3421932Y-9794693D01*
X3476254Y-9973769D01*
X3494597Y-10160000D01*
X3477899Y-10329534D01*
X3476254Y-10346232D01*
X3421932Y-10525308D01*
X3333718Y-10690345D01*
X3215001Y-10835001D01*
X3070345Y-10953718D01*
X2905308Y-11041932D01*
X2726232Y-11096254D01*
X2702971Y-11098545D01*
X2586670Y-11110000D01*
X2493330Y-11110000D01*
X2377029Y-11098545D01*
X2353768Y-11096254D01*
X2174692Y-11041932D01*
X2009655Y-10953718D01*
X1864999Y-10835001D01*
X1746282Y-10690345D01*
X1658068Y-10525308D01*
X1603746Y-10346232D01*
X1602101Y-10329534D01*
X1585403Y-10160000D01*
X1603746Y-9973769D01*
X1658068Y-9794693D01*
X1658068Y-9794692D01*
X1746282Y-9629655D01*
X1864999Y-9484999D01*
X2009655Y-9366282D01*
X2174692Y-9278068D01*
X2353768Y-9223746D01*
X2377029Y-9221455D01*
X2493330Y-9210000D01*
X2586670Y-9210000D01*
X2702971Y-9221455D01*
X2702971Y-9221455D01*
G37*
G36*
X8439081Y-9150903D02*
X8444603Y-9151447D01*
X8463454Y-9157165D01*
X8477593Y-9164723D01*
X8480830Y-9166453D01*
X8496052Y-9178946D01*
X8497693Y-9180945D01*
X8511555Y-9194807D01*
X8527854Y-9205699D01*
X8545965Y-9213201D01*
X8565192Y-9217025D01*
X8584796Y-9217026D01*
X8604022Y-9213201D01*
X8622134Y-9205700D01*
X8638433Y-9194809D01*
X8652360Y-9180869D01*
X8653873Y-9179021D01*
X8669087Y-9166509D01*
X8686449Y-9157205D01*
X8705293Y-9151467D01*
X8725000Y-9149516D01*
X8725050Y-9149516D01*
X8729937Y-9149032D01*
X9720090Y-9149032D01*
X9739081Y-9150903D01*
X9744603Y-9151447D01*
X9763454Y-9157165D01*
X9777593Y-9164723D01*
X9780830Y-9166453D01*
X9796053Y-9178947D01*
X9808547Y-9194170D01*
X9810277Y-9197407D01*
X9817835Y-9211546D01*
X9821536Y-9223746D01*
X9823553Y-9230398D01*
X9825968Y-9254910D01*
X9825968Y-10745090D01*
X9825484Y-10750000D01*
X9823553Y-10769603D01*
X9817835Y-10788454D01*
X9814635Y-10794440D01*
X9808547Y-10805830D01*
X9796053Y-10821053D01*
X9780830Y-10833547D01*
X9780826Y-10833549D01*
X9763454Y-10842835D01*
X9763451Y-10842836D01*
X9763322Y-10842875D01*
X9744603Y-10848553D01*
X9739081Y-10849097D01*
X9720090Y-10850968D01*
X8729910Y-10850968D01*
X8710919Y-10849097D01*
X8705397Y-10848553D01*
X8686678Y-10842875D01*
X8686549Y-10842836D01*
X8686546Y-10842835D01*
X8669174Y-10833549D01*
X8669170Y-10833547D01*
X8653966Y-10821070D01*
X8653962Y-10821066D01*
X8653947Y-10821053D01*
X8652300Y-10819044D01*
X8638477Y-10805207D01*
X8622183Y-10794308D01*
X8604076Y-10786797D01*
X8584851Y-10782962D01*
X8565248Y-10782953D01*
X8546019Y-10786767D01*
X8527904Y-10794260D01*
X8511599Y-10805143D01*
X8497766Y-10818954D01*
X8497666Y-10819076D01*
X8495977Y-10821129D01*
X8480738Y-10833608D01*
X8463360Y-10842874D01*
X8459960Y-10843901D01*
X8444500Y-10848574D01*
X8444495Y-10848574D01*
X8444477Y-10848580D01*
X8420108Y-10850968D01*
X7279910Y-10850968D01*
X7260919Y-10849097D01*
X7255397Y-10848553D01*
X7236678Y-10842875D01*
X7236549Y-10842836D01*
X7236546Y-10842835D01*
X7219174Y-10833549D01*
X7219170Y-10833547D01*
X7203947Y-10821053D01*
X7191453Y-10805830D01*
X7185365Y-10794440D01*
X7182165Y-10788454D01*
X7176447Y-10769603D01*
X7174516Y-10750000D01*
X7174032Y-10745090D01*
X7174032Y-9254910D01*
X7176447Y-9230398D01*
X7178465Y-9223746D01*
X7182165Y-9211546D01*
X7189723Y-9197407D01*
X7191453Y-9194170D01*
X7203947Y-9178947D01*
X7219170Y-9166453D01*
X7222407Y-9164723D01*
X7236546Y-9157165D01*
X7255397Y-9151447D01*
X7260919Y-9150903D01*
X7279910Y-9149032D01*
X8420090Y-9149032D01*
X8439081Y-9150903D01*
X8439081Y-9150903D01*
G37*
G36*
X28097021Y-6680869D02*
X28126232Y-6683746D01*
X28305308Y-6738068D01*
X28470345Y-6826282D01*
X28615001Y-6944999D01*
X28733718Y-7089655D01*
X28821932Y-7254692D01*
X28821932Y-7254693D01*
X28876254Y-7433769D01*
X28894597Y-7620000D01*
X28877899Y-7789534D01*
X28876254Y-7806232D01*
X28821932Y-7985308D01*
X28733718Y-8150345D01*
X28615001Y-8295001D01*
X28470345Y-8413718D01*
X28305308Y-8501932D01*
X28126232Y-8556254D01*
X28102971Y-8558545D01*
X27986670Y-8570000D01*
X27893330Y-8570000D01*
X27777029Y-8558545D01*
X27753768Y-8556254D01*
X27574692Y-8501932D01*
X27409655Y-8413718D01*
X27264999Y-8295001D01*
X27146282Y-8150345D01*
X27058068Y-7985308D01*
X27003746Y-7806232D01*
X27002101Y-7789534D01*
X26985403Y-7620000D01*
X27003746Y-7433769D01*
X27058068Y-7254693D01*
X27058068Y-7254692D01*
X27146282Y-7089655D01*
X27264999Y-6944999D01*
X27409655Y-6826282D01*
X27574692Y-6738068D01*
X27753768Y-6683746D01*
X27782979Y-6680869D01*
X27893330Y-6670000D01*
X27986670Y-6670000D01*
X28097021Y-6680869D01*
X28097021Y-6680869D01*
G37*
G36*
X30637021Y-6680869D02*
X30666232Y-6683746D01*
X30845308Y-6738068D01*
X31010345Y-6826282D01*
X31155001Y-6944999D01*
X31273718Y-7089655D01*
X31361932Y-7254692D01*
X31361932Y-7254693D01*
X31416254Y-7433769D01*
X31434597Y-7620000D01*
X31417899Y-7789534D01*
X31416254Y-7806232D01*
X31361932Y-7985308D01*
X31273718Y-8150345D01*
X31155001Y-8295001D01*
X31010345Y-8413718D01*
X30845308Y-8501932D01*
X30666232Y-8556254D01*
X30642971Y-8558545D01*
X30526670Y-8570000D01*
X30433330Y-8570000D01*
X30317029Y-8558545D01*
X30293768Y-8556254D01*
X30114692Y-8501932D01*
X29949655Y-8413718D01*
X29804999Y-8295001D01*
X29686282Y-8150345D01*
X29598068Y-7985308D01*
X29543746Y-7806232D01*
X29542101Y-7789534D01*
X29525403Y-7620000D01*
X29543746Y-7433769D01*
X29598068Y-7254693D01*
X29598068Y-7254692D01*
X29686282Y-7089655D01*
X29804999Y-6944999D01*
X29949655Y-6826282D01*
X30114692Y-6738068D01*
X30293768Y-6683746D01*
X30322979Y-6680869D01*
X30433330Y-6670000D01*
X30526670Y-6670000D01*
X30637021Y-6680869D01*
X30637021Y-6680869D01*
G37*
G36*
X5237021Y-6680869D02*
X5266232Y-6683746D01*
X5445308Y-6738068D01*
X5610345Y-6826282D01*
X5755001Y-6944999D01*
X5873718Y-7089655D01*
X5961932Y-7254692D01*
X5961932Y-7254693D01*
X6016254Y-7433769D01*
X6034597Y-7620000D01*
X6017899Y-7789534D01*
X6016254Y-7806232D01*
X5961932Y-7985308D01*
X5873718Y-8150345D01*
X5755001Y-8295001D01*
X5610345Y-8413718D01*
X5445308Y-8501932D01*
X5266232Y-8556254D01*
X5242971Y-8558545D01*
X5126670Y-8570000D01*
X5033330Y-8570000D01*
X4917029Y-8558545D01*
X4893768Y-8556254D01*
X4714692Y-8501932D01*
X4549655Y-8413718D01*
X4404999Y-8295001D01*
X4286282Y-8150345D01*
X4198068Y-7985308D01*
X4143746Y-7806232D01*
X4142101Y-7789534D01*
X4125403Y-7620000D01*
X4143746Y-7433769D01*
X4198068Y-7254693D01*
X4198068Y-7254692D01*
X4286282Y-7089655D01*
X4404999Y-6944999D01*
X4549655Y-6826282D01*
X4714692Y-6738068D01*
X4893768Y-6683746D01*
X4922979Y-6680869D01*
X5033330Y-6670000D01*
X5126670Y-6670000D01*
X5237021Y-6680869D01*
X5237021Y-6680869D01*
G37*
G36*
X2697021Y-6680869D02*
X2726232Y-6683746D01*
X2905308Y-6738068D01*
X3070345Y-6826282D01*
X3215001Y-6944999D01*
X3333718Y-7089655D01*
X3421932Y-7254692D01*
X3421932Y-7254693D01*
X3476254Y-7433769D01*
X3494597Y-7620000D01*
X3477899Y-7789534D01*
X3476254Y-7806232D01*
X3421932Y-7985308D01*
X3333718Y-8150345D01*
X3215001Y-8295001D01*
X3070345Y-8413718D01*
X2905308Y-8501932D01*
X2726232Y-8556254D01*
X2702971Y-8558545D01*
X2586670Y-8570000D01*
X2493330Y-8570000D01*
X2377029Y-8558545D01*
X2353768Y-8556254D01*
X2174692Y-8501932D01*
X2009655Y-8413718D01*
X1864999Y-8295001D01*
X1746282Y-8150345D01*
X1658068Y-7985308D01*
X1603746Y-7806232D01*
X1602101Y-7789534D01*
X1585403Y-7620000D01*
X1603746Y-7433769D01*
X1658068Y-7254693D01*
X1658068Y-7254692D01*
X1746282Y-7089655D01*
X1864999Y-6944999D01*
X2009655Y-6826282D01*
X2174692Y-6738068D01*
X2353768Y-6683746D01*
X2382979Y-6680869D01*
X2493330Y-6670000D01*
X2586670Y-6670000D01*
X2697021Y-6680869D01*
X2697021Y-6680869D01*
G37*
G36*
X8439081Y-6650903D02*
X8444603Y-6651447D01*
X8463454Y-6657165D01*
X8477593Y-6664723D01*
X8480830Y-6666453D01*
X8496052Y-6678946D01*
X8497693Y-6680945D01*
X8511555Y-6694807D01*
X8527854Y-6705699D01*
X8545965Y-6713201D01*
X8565192Y-6717025D01*
X8584796Y-6717026D01*
X8604022Y-6713201D01*
X8622134Y-6705700D01*
X8638433Y-6694809D01*
X8652360Y-6680869D01*
X8653873Y-6679021D01*
X8669087Y-6666509D01*
X8686449Y-6657205D01*
X8705293Y-6651467D01*
X8725000Y-6649516D01*
X8725050Y-6649516D01*
X8729937Y-6649032D01*
X9720090Y-6649032D01*
X9739081Y-6650903D01*
X9744603Y-6651447D01*
X9763454Y-6657165D01*
X9777593Y-6664723D01*
X9780830Y-6666453D01*
X9796053Y-6678947D01*
X9808547Y-6694170D01*
X9810277Y-6697407D01*
X9817835Y-6711546D01*
X9817836Y-6711549D01*
X9823553Y-6730398D01*
X9825968Y-6754910D01*
X9825968Y-8245090D01*
X9825484Y-8250000D01*
X9823553Y-8269603D01*
X9817835Y-8288454D01*
X9814335Y-8295001D01*
X9808547Y-8305830D01*
X9796053Y-8321053D01*
X9780830Y-8333547D01*
X9780826Y-8333549D01*
X9763454Y-8342835D01*
X9763451Y-8342836D01*
X9763322Y-8342875D01*
X9744603Y-8348553D01*
X9739081Y-8349097D01*
X9720090Y-8350968D01*
X8729910Y-8350968D01*
X8710919Y-8349097D01*
X8705397Y-8348553D01*
X8686678Y-8342875D01*
X8686549Y-8342836D01*
X8686546Y-8342835D01*
X8669174Y-8333549D01*
X8669170Y-8333547D01*
X8653966Y-8321070D01*
X8653962Y-8321066D01*
X8653947Y-8321053D01*
X8652300Y-8319044D01*
X8638477Y-8305207D01*
X8622183Y-8294308D01*
X8604076Y-8286797D01*
X8584851Y-8282962D01*
X8565248Y-8282953D01*
X8546019Y-8286767D01*
X8527904Y-8294260D01*
X8511599Y-8305143D01*
X8497766Y-8318954D01*
X8497666Y-8319076D01*
X8495977Y-8321129D01*
X8480738Y-8333608D01*
X8463360Y-8342874D01*
X8459960Y-8343901D01*
X8444500Y-8348574D01*
X8444495Y-8348574D01*
X8444477Y-8348580D01*
X8420108Y-8350968D01*
X7279910Y-8350968D01*
X7260919Y-8349097D01*
X7255397Y-8348553D01*
X7236678Y-8342875D01*
X7236549Y-8342836D01*
X7236546Y-8342835D01*
X7219174Y-8333549D01*
X7219170Y-8333547D01*
X7203947Y-8321053D01*
X7191453Y-8305830D01*
X7185665Y-8295001D01*
X7182165Y-8288454D01*
X7176447Y-8269603D01*
X7174516Y-8250000D01*
X7174032Y-8245090D01*
X7174032Y-6754910D01*
X7176447Y-6730398D01*
X7182164Y-6711549D01*
X7182165Y-6711546D01*
X7189723Y-6697407D01*
X7191453Y-6694170D01*
X7203947Y-6678947D01*
X7219170Y-6666453D01*
X7222407Y-6664723D01*
X7236546Y-6657165D01*
X7255397Y-6651447D01*
X7260919Y-6650903D01*
X7279910Y-6649032D01*
X8420090Y-6649032D01*
X8439081Y-6650903D01*
X8439081Y-6650903D01*
G37*
G36*
X18885011Y-5773057D02*
X18885013Y-5773058D01*
X18885014Y-5773058D01*
X18994207Y-5818287D01*
X19043509Y-5851230D01*
X19092476Y-5883948D01*
X19176052Y-5967524D01*
X19208612Y-6016254D01*
X19241713Y-6065793D01*
X19286942Y-6174986D01*
X19310000Y-6290905D01*
X19310000Y-6409095D01*
X19286942Y-6525014D01*
X19241713Y-6634207D01*
X19226373Y-6657165D01*
X19176052Y-6732476D01*
X19092476Y-6816052D01*
X19043509Y-6848770D01*
X18994207Y-6881713D01*
X18885014Y-6926942D01*
X18885013Y-6926942D01*
X18885011Y-6926943D01*
X18769097Y-6950000D01*
X18650903Y-6950000D01*
X18534989Y-6926943D01*
X18534987Y-6926942D01*
X18534986Y-6926942D01*
X18425793Y-6881713D01*
X18376491Y-6848770D01*
X18327524Y-6816052D01*
X18243948Y-6732476D01*
X18193627Y-6657165D01*
X18178287Y-6634207D01*
X18133058Y-6525014D01*
X18110000Y-6409095D01*
X18110000Y-6290905D01*
X18133058Y-6174986D01*
X18178287Y-6065793D01*
X18211388Y-6016254D01*
X18243948Y-5967524D01*
X18327524Y-5883948D01*
X18376491Y-5851230D01*
X18425793Y-5818287D01*
X18534986Y-5773058D01*
X18534987Y-5773058D01*
X18534989Y-5773057D01*
X18650903Y-5750000D01*
X18769097Y-5750000D01*
X18885011Y-5773057D01*
X18885011Y-5773057D01*
G37*
G36*
X14485011Y-5773057D02*
X14485013Y-5773058D01*
X14485014Y-5773058D01*
X14594207Y-5818287D01*
X14643509Y-5851230D01*
X14692476Y-5883948D01*
X14776052Y-5967524D01*
X14808612Y-6016254D01*
X14841713Y-6065793D01*
X14886942Y-6174986D01*
X14910000Y-6290905D01*
X14910000Y-6409095D01*
X14886942Y-6525014D01*
X14841713Y-6634207D01*
X14826373Y-6657165D01*
X14776052Y-6732476D01*
X14692476Y-6816052D01*
X14643509Y-6848770D01*
X14594207Y-6881713D01*
X14485014Y-6926942D01*
X14485013Y-6926942D01*
X14485011Y-6926943D01*
X14369097Y-6950000D01*
X14250903Y-6950000D01*
X14134989Y-6926943D01*
X14134987Y-6926942D01*
X14134986Y-6926942D01*
X14025793Y-6881713D01*
X13976491Y-6848770D01*
X13927524Y-6816052D01*
X13843948Y-6732476D01*
X13793627Y-6657165D01*
X13778287Y-6634207D01*
X13733058Y-6525014D01*
X13710000Y-6409095D01*
X13710000Y-6290905D01*
X13733058Y-6174986D01*
X13778287Y-6065793D01*
X13811388Y-6016254D01*
X13843948Y-5967524D01*
X13927524Y-5883948D01*
X13976491Y-5851230D01*
X14025793Y-5818287D01*
X14134986Y-5773058D01*
X14134987Y-5773058D01*
X14134989Y-5773057D01*
X14250903Y-5750000D01*
X14369097Y-5750000D01*
X14485011Y-5773057D01*
X14485011Y-5773057D01*
G37*
G36*
X30642971Y-4141455D02*
X30666232Y-4143746D01*
X30845308Y-4198068D01*
X31010345Y-4286282D01*
X31155001Y-4404999D01*
X31273718Y-4549655D01*
X31361932Y-4714692D01*
X31361932Y-4714693D01*
X31416254Y-4893769D01*
X31434597Y-5080000D01*
X31417899Y-5249534D01*
X31416254Y-5266232D01*
X31361932Y-5445308D01*
X31273718Y-5610345D01*
X31155001Y-5755001D01*
X31010345Y-5873718D01*
X30845308Y-5961932D01*
X30666232Y-6016254D01*
X30642971Y-6018545D01*
X30526670Y-6030000D01*
X30433330Y-6030000D01*
X30317029Y-6018545D01*
X30293768Y-6016254D01*
X30114692Y-5961932D01*
X29949655Y-5873718D01*
X29804999Y-5755001D01*
X29686282Y-5610345D01*
X29598068Y-5445308D01*
X29543746Y-5266232D01*
X29542101Y-5249534D01*
X29525403Y-5080000D01*
X29543746Y-4893769D01*
X29598068Y-4714693D01*
X29598068Y-4714692D01*
X29686282Y-4549655D01*
X29804999Y-4404999D01*
X29949655Y-4286282D01*
X30114692Y-4198068D01*
X30293768Y-4143746D01*
X30317029Y-4141455D01*
X30433330Y-4130000D01*
X30526670Y-4130000D01*
X30642971Y-4141455D01*
X30642971Y-4141455D01*
G37*
G36*
X28890000Y-6030000D02*
X26990000Y-6030000D01*
X26990000Y-4130000D01*
X28890000Y-4130000D01*
X28890000Y-6030000D01*
X28890000Y-6030000D01*
G37*
G36*
X5242971Y-4141455D02*
X5266232Y-4143746D01*
X5445308Y-4198068D01*
X5610345Y-4286282D01*
X5755001Y-4404999D01*
X5873718Y-4549655D01*
X5961932Y-4714692D01*
X5961932Y-4714693D01*
X6016254Y-4893769D01*
X6034597Y-5080000D01*
X6017899Y-5249534D01*
X6016254Y-5266232D01*
X5961932Y-5445308D01*
X5873718Y-5610345D01*
X5755001Y-5755001D01*
X5610345Y-5873718D01*
X5445308Y-5961932D01*
X5266232Y-6016254D01*
X5242971Y-6018545D01*
X5126670Y-6030000D01*
X5033330Y-6030000D01*
X4917029Y-6018545D01*
X4893768Y-6016254D01*
X4714692Y-5961932D01*
X4549655Y-5873718D01*
X4404999Y-5755001D01*
X4286282Y-5610345D01*
X4198068Y-5445308D01*
X4143746Y-5266232D01*
X4142101Y-5249534D01*
X4125403Y-5080000D01*
X4143746Y-4893769D01*
X4198068Y-4714693D01*
X4198068Y-4714692D01*
X4286282Y-4549655D01*
X4404999Y-4404999D01*
X4549655Y-4286282D01*
X4714692Y-4198068D01*
X4893768Y-4143746D01*
X4917029Y-4141455D01*
X5033330Y-4130000D01*
X5126670Y-4130000D01*
X5242971Y-4141455D01*
X5242971Y-4141455D01*
G37*
G36*
X3490000Y-6030000D02*
X1590000Y-6030000D01*
X1590000Y-4130000D01*
X3490000Y-4130000D01*
X3490000Y-6030000D01*
X3490000Y-6030000D01*
G37*
M02*
