G04 #@! TF.GenerationSoftware,KiCad,Pcbnew,5.0.2+dfsg1-1*
G04 #@! TF.CreationDate,2019-02-01T15:12:52+03:00*
G04 #@! TF.ProjectId,stm32_48pin,73746d33-325f-4343-9870-696e2e6b6963,rev?*
G04 #@! TF.SameCoordinates,PX14fb180PY2625a00*
G04 #@! TF.FileFunction,Soldermask,Top*
G04 #@! TF.FilePolarity,Negative*
%FSLAX46Y46*%
G04 Gerber Fmt 4.6, Leading zero omitted, Abs format (unit mm)*
G04 Created by KiCad (PCBNEW 5.0.2+dfsg1-1) date Пт 01 фев 2019 15:12:52*
%MOMM*%
%LPD*%
G01*
G04 APERTURE LIST*
%ADD10C,0.100000*%
G04 APERTURE END LIST*
D10*
G36*
X13650000Y-39050000D02*
X11750000Y-39050000D01*
X11750000Y-37150000D01*
X13650000Y-37150000D01*
X13650000Y-39050000D01*
X13650000Y-39050000D01*
G37*
G36*
X20482971Y-37161455D02*
X20506232Y-37163746D01*
X20685308Y-37218068D01*
X20850345Y-37306282D01*
X20995001Y-37424999D01*
X21113718Y-37569655D01*
X21201932Y-37734692D01*
X21201932Y-37734693D01*
X21256254Y-37913769D01*
X21274597Y-38100000D01*
X21257899Y-38269534D01*
X21256254Y-38286232D01*
X21201932Y-38465308D01*
X21113718Y-38630345D01*
X20995001Y-38775001D01*
X20850345Y-38893718D01*
X20685308Y-38981932D01*
X20506232Y-39036254D01*
X20482971Y-39038545D01*
X20366670Y-39050000D01*
X20273330Y-39050000D01*
X20157029Y-39038545D01*
X20133768Y-39036254D01*
X19954692Y-38981932D01*
X19789655Y-38893718D01*
X19644999Y-38775001D01*
X19526282Y-38630345D01*
X19438068Y-38465308D01*
X19383746Y-38286232D01*
X19382101Y-38269534D01*
X19365403Y-38100000D01*
X19383746Y-37913769D01*
X19438068Y-37734693D01*
X19438068Y-37734692D01*
X19526282Y-37569655D01*
X19644999Y-37424999D01*
X19789655Y-37306282D01*
X19954692Y-37218068D01*
X20133768Y-37163746D01*
X20157029Y-37161455D01*
X20273330Y-37150000D01*
X20366670Y-37150000D01*
X20482971Y-37161455D01*
X20482971Y-37161455D01*
G37*
G36*
X2702971Y-37161455D02*
X2726232Y-37163746D01*
X2905308Y-37218068D01*
X3070345Y-37306282D01*
X3215001Y-37424999D01*
X3333718Y-37569655D01*
X3421932Y-37734692D01*
X3421932Y-37734693D01*
X3476254Y-37913769D01*
X3494597Y-38100000D01*
X3477899Y-38269534D01*
X3476254Y-38286232D01*
X3421932Y-38465308D01*
X3333718Y-38630345D01*
X3215001Y-38775001D01*
X3070345Y-38893718D01*
X2905308Y-38981932D01*
X2726232Y-39036254D01*
X2702971Y-39038545D01*
X2586670Y-39050000D01*
X2493330Y-39050000D01*
X2377029Y-39038545D01*
X2353768Y-39036254D01*
X2174692Y-38981932D01*
X2009655Y-38893718D01*
X1864999Y-38775001D01*
X1746282Y-38630345D01*
X1658068Y-38465308D01*
X1603746Y-38286232D01*
X1602101Y-38269534D01*
X1585403Y-38100000D01*
X1603746Y-37913769D01*
X1658068Y-37734693D01*
X1658068Y-37734692D01*
X1746282Y-37569655D01*
X1864999Y-37424999D01*
X2009655Y-37306282D01*
X2174692Y-37218068D01*
X2353768Y-37163746D01*
X2377029Y-37161455D01*
X2493330Y-37150000D01*
X2586670Y-37150000D01*
X2702971Y-37161455D01*
X2702971Y-37161455D01*
G37*
G36*
X6030000Y-39050000D02*
X4130000Y-39050000D01*
X4130000Y-37150000D01*
X6030000Y-37150000D01*
X6030000Y-39050000D01*
X6030000Y-39050000D01*
G37*
G36*
X23022971Y-37161455D02*
X23046232Y-37163746D01*
X23225308Y-37218068D01*
X23390345Y-37306282D01*
X23535001Y-37424999D01*
X23653718Y-37569655D01*
X23741932Y-37734692D01*
X23741932Y-37734693D01*
X23796254Y-37913769D01*
X23814597Y-38100000D01*
X23797899Y-38269534D01*
X23796254Y-38286232D01*
X23741932Y-38465308D01*
X23653718Y-38630345D01*
X23535001Y-38775001D01*
X23390345Y-38893718D01*
X23225308Y-38981932D01*
X23046232Y-39036254D01*
X23022971Y-39038545D01*
X22906670Y-39050000D01*
X22813330Y-39050000D01*
X22697029Y-39038545D01*
X22673768Y-39036254D01*
X22494692Y-38981932D01*
X22329655Y-38893718D01*
X22184999Y-38775001D01*
X22066282Y-38630345D01*
X21978068Y-38465308D01*
X21923746Y-38286232D01*
X21922101Y-38269534D01*
X21905403Y-38100000D01*
X21923746Y-37913769D01*
X21978068Y-37734693D01*
X21978068Y-37734692D01*
X22066282Y-37569655D01*
X22184999Y-37424999D01*
X22329655Y-37306282D01*
X22494692Y-37218068D01*
X22673768Y-37163746D01*
X22697029Y-37161455D01*
X22813330Y-37150000D01*
X22906670Y-37150000D01*
X23022971Y-37161455D01*
X23022971Y-37161455D01*
G37*
G36*
X17942971Y-37161455D02*
X17966232Y-37163746D01*
X18145308Y-37218068D01*
X18310345Y-37306282D01*
X18455001Y-37424999D01*
X18573718Y-37569655D01*
X18661932Y-37734692D01*
X18661932Y-37734693D01*
X18716254Y-37913769D01*
X18734597Y-38100000D01*
X18717899Y-38269534D01*
X18716254Y-38286232D01*
X18661932Y-38465308D01*
X18573718Y-38630345D01*
X18455001Y-38775001D01*
X18310345Y-38893718D01*
X18145308Y-38981932D01*
X17966232Y-39036254D01*
X17942971Y-39038545D01*
X17826670Y-39050000D01*
X17733330Y-39050000D01*
X17617029Y-39038545D01*
X17593768Y-39036254D01*
X17414692Y-38981932D01*
X17249655Y-38893718D01*
X17104999Y-38775001D01*
X16986282Y-38630345D01*
X16898068Y-38465308D01*
X16843746Y-38286232D01*
X16842101Y-38269534D01*
X16825403Y-38100000D01*
X16843746Y-37913769D01*
X16898068Y-37734693D01*
X16898068Y-37734692D01*
X16986282Y-37569655D01*
X17104999Y-37424999D01*
X17249655Y-37306282D01*
X17414692Y-37218068D01*
X17593768Y-37163746D01*
X17617029Y-37161455D01*
X17733330Y-37150000D01*
X17826670Y-37150000D01*
X17942971Y-37161455D01*
X17942971Y-37161455D01*
G37*
G36*
X15402971Y-37161455D02*
X15426232Y-37163746D01*
X15605308Y-37218068D01*
X15770345Y-37306282D01*
X15915001Y-37424999D01*
X16033718Y-37569655D01*
X16121932Y-37734692D01*
X16121932Y-37734693D01*
X16176254Y-37913769D01*
X16194597Y-38100000D01*
X16177899Y-38269534D01*
X16176254Y-38286232D01*
X16121932Y-38465308D01*
X16033718Y-38630345D01*
X15915001Y-38775001D01*
X15770345Y-38893718D01*
X15605308Y-38981932D01*
X15426232Y-39036254D01*
X15402971Y-39038545D01*
X15286670Y-39050000D01*
X15193330Y-39050000D01*
X15077029Y-39038545D01*
X15053768Y-39036254D01*
X14874692Y-38981932D01*
X14709655Y-38893718D01*
X14564999Y-38775001D01*
X14446282Y-38630345D01*
X14358068Y-38465308D01*
X14303746Y-38286232D01*
X14302101Y-38269534D01*
X14285403Y-38100000D01*
X14303746Y-37913769D01*
X14358068Y-37734693D01*
X14358068Y-37734692D01*
X14446282Y-37569655D01*
X14564999Y-37424999D01*
X14709655Y-37306282D01*
X14874692Y-37218068D01*
X15053768Y-37163746D01*
X15077029Y-37161455D01*
X15193330Y-37150000D01*
X15286670Y-37150000D01*
X15402971Y-37161455D01*
X15402971Y-37161455D01*
G37*
G36*
X25648830Y-33504677D02*
X25689776Y-33517098D01*
X25727510Y-33537267D01*
X25760587Y-33564413D01*
X25787733Y-33597490D01*
X25807902Y-33635224D01*
X25820323Y-33676170D01*
X25825000Y-33723658D01*
X25825000Y-34351342D01*
X25820323Y-34398830D01*
X25807902Y-34439776D01*
X25787733Y-34477510D01*
X25760587Y-34510587D01*
X25727510Y-34537733D01*
X25689776Y-34557902D01*
X25648830Y-34570323D01*
X25601342Y-34575000D01*
X24898658Y-34575000D01*
X24851170Y-34570323D01*
X24810224Y-34557902D01*
X24772490Y-34537733D01*
X24739413Y-34510587D01*
X24712267Y-34477510D01*
X24692098Y-34439776D01*
X24679677Y-34398830D01*
X24675000Y-34351342D01*
X24675000Y-33723658D01*
X24679677Y-33676170D01*
X24692098Y-33635224D01*
X24712267Y-33597490D01*
X24739413Y-33564413D01*
X24772490Y-33537267D01*
X24810224Y-33517098D01*
X24851170Y-33504677D01*
X24898658Y-33500000D01*
X25601342Y-33500000D01*
X25648830Y-33504677D01*
X25648830Y-33504677D01*
G37*
G36*
X23898830Y-33504677D02*
X23939776Y-33517098D01*
X23977510Y-33537267D01*
X24010587Y-33564413D01*
X24037733Y-33597490D01*
X24057902Y-33635224D01*
X24070323Y-33676170D01*
X24075000Y-33723658D01*
X24075000Y-34351342D01*
X24070323Y-34398830D01*
X24057902Y-34439776D01*
X24037733Y-34477510D01*
X24010587Y-34510587D01*
X23977510Y-34537733D01*
X23939776Y-34557902D01*
X23898830Y-34570323D01*
X23851342Y-34575000D01*
X23148658Y-34575000D01*
X23101170Y-34570323D01*
X23060224Y-34557902D01*
X23022490Y-34537733D01*
X22989413Y-34510587D01*
X22962267Y-34477510D01*
X22942098Y-34439776D01*
X22929677Y-34398830D01*
X22925000Y-34351342D01*
X22925000Y-33723658D01*
X22929677Y-33676170D01*
X22942098Y-33635224D01*
X22962267Y-33597490D01*
X22989413Y-33564413D01*
X23022490Y-33537267D01*
X23060224Y-33517098D01*
X23101170Y-33504677D01*
X23148658Y-33500000D01*
X23851342Y-33500000D01*
X23898830Y-33504677D01*
X23898830Y-33504677D01*
G37*
G36*
X11323830Y-33429677D02*
X11364776Y-33442098D01*
X11402510Y-33462267D01*
X11435587Y-33489413D01*
X11462733Y-33522490D01*
X11482902Y-33560224D01*
X11495323Y-33601170D01*
X11500000Y-33648658D01*
X11500000Y-34351342D01*
X11495323Y-34398830D01*
X11482902Y-34439776D01*
X11462733Y-34477510D01*
X11435587Y-34510587D01*
X11402510Y-34537733D01*
X11364776Y-34557902D01*
X11323830Y-34570323D01*
X11276342Y-34575000D01*
X10648658Y-34575000D01*
X10601170Y-34570323D01*
X10560224Y-34557902D01*
X10522490Y-34537733D01*
X10489413Y-34510587D01*
X10462267Y-34477510D01*
X10442098Y-34439776D01*
X10429677Y-34398830D01*
X10425000Y-34351342D01*
X10425000Y-33648658D01*
X10429677Y-33601170D01*
X10442098Y-33560224D01*
X10462267Y-33522490D01*
X10489413Y-33489413D01*
X10522490Y-33462267D01*
X10560224Y-33442098D01*
X10601170Y-33429677D01*
X10648658Y-33425000D01*
X11276342Y-33425000D01*
X11323830Y-33429677D01*
X11323830Y-33429677D01*
G37*
G36*
X12898830Y-33429677D02*
X12939776Y-33442098D01*
X12977510Y-33462267D01*
X13010587Y-33489413D01*
X13037733Y-33522490D01*
X13057902Y-33560224D01*
X13070323Y-33601170D01*
X13075000Y-33648658D01*
X13075000Y-34351342D01*
X13070323Y-34398830D01*
X13057902Y-34439776D01*
X13037733Y-34477510D01*
X13010587Y-34510587D01*
X12977510Y-34537733D01*
X12939776Y-34557902D01*
X12898830Y-34570323D01*
X12851342Y-34575000D01*
X12223658Y-34575000D01*
X12176170Y-34570323D01*
X12135224Y-34557902D01*
X12097490Y-34537733D01*
X12064413Y-34510587D01*
X12037267Y-34477510D01*
X12017098Y-34439776D01*
X12004677Y-34398830D01*
X12000000Y-34351342D01*
X12000000Y-33648658D01*
X12004677Y-33601170D01*
X12017098Y-33560224D01*
X12037267Y-33522490D01*
X12064413Y-33489413D01*
X12097490Y-33462267D01*
X12135224Y-33442098D01*
X12176170Y-33429677D01*
X12223658Y-33425000D01*
X12851342Y-33425000D01*
X12898830Y-33429677D01*
X12898830Y-33429677D01*
G37*
G36*
X15700000Y-34400000D02*
X13500000Y-34400000D01*
X13500000Y-32700000D01*
X15700000Y-32700000D01*
X15700000Y-34400000D01*
X15700000Y-34400000D01*
G37*
G36*
X30642971Y-32081455D02*
X30666232Y-32083746D01*
X30845308Y-32138068D01*
X31010345Y-32226282D01*
X31155001Y-32344999D01*
X31273718Y-32489655D01*
X31361932Y-32654692D01*
X31398834Y-32776342D01*
X31416254Y-32833769D01*
X31434597Y-33020000D01*
X31417899Y-33189534D01*
X31416254Y-33206232D01*
X31361932Y-33385308D01*
X31273718Y-33550345D01*
X31155001Y-33695001D01*
X31010345Y-33813718D01*
X30845308Y-33901932D01*
X30666232Y-33956254D01*
X30642971Y-33958545D01*
X30526670Y-33970000D01*
X30433330Y-33970000D01*
X30317029Y-33958545D01*
X30293768Y-33956254D01*
X30114692Y-33901932D01*
X29949655Y-33813718D01*
X29804999Y-33695001D01*
X29686282Y-33550345D01*
X29598068Y-33385308D01*
X29543746Y-33206232D01*
X29542101Y-33189534D01*
X29525403Y-33020000D01*
X29543746Y-32833769D01*
X29561166Y-32776342D01*
X29598068Y-32654692D01*
X29686282Y-32489655D01*
X29804999Y-32344999D01*
X29949655Y-32226282D01*
X30114692Y-32138068D01*
X30293768Y-32083746D01*
X30317029Y-32081455D01*
X30433330Y-32070000D01*
X30526670Y-32070000D01*
X30642971Y-32081455D01*
X30642971Y-32081455D01*
G37*
G36*
X2702971Y-32081455D02*
X2726232Y-32083746D01*
X2905308Y-32138068D01*
X3070345Y-32226282D01*
X3215001Y-32344999D01*
X3333718Y-32489655D01*
X3421932Y-32654692D01*
X3458834Y-32776342D01*
X3476254Y-32833769D01*
X3494597Y-33020000D01*
X3477899Y-33189534D01*
X3476254Y-33206232D01*
X3421932Y-33385308D01*
X3333718Y-33550345D01*
X3215001Y-33695001D01*
X3070345Y-33813718D01*
X2905308Y-33901932D01*
X2726232Y-33956254D01*
X2702971Y-33958545D01*
X2586670Y-33970000D01*
X2493330Y-33970000D01*
X2377029Y-33958545D01*
X2353768Y-33956254D01*
X2174692Y-33901932D01*
X2009655Y-33813718D01*
X1864999Y-33695001D01*
X1746282Y-33550345D01*
X1658068Y-33385308D01*
X1603746Y-33206232D01*
X1602101Y-33189534D01*
X1585403Y-33020000D01*
X1603746Y-32833769D01*
X1621166Y-32776342D01*
X1658068Y-32654692D01*
X1746282Y-32489655D01*
X1864999Y-32344999D01*
X2009655Y-32226282D01*
X2174692Y-32138068D01*
X2353768Y-32083746D01*
X2377029Y-32081455D01*
X2493330Y-32070000D01*
X2586670Y-32070000D01*
X2702971Y-32081455D01*
X2702971Y-32081455D01*
G37*
G36*
X5242971Y-32081455D02*
X5266232Y-32083746D01*
X5445308Y-32138068D01*
X5610345Y-32226282D01*
X5755001Y-32344999D01*
X5873718Y-32489655D01*
X5961932Y-32654692D01*
X5998834Y-32776342D01*
X6016254Y-32833769D01*
X6034597Y-33020000D01*
X6017899Y-33189534D01*
X6016254Y-33206232D01*
X5961932Y-33385308D01*
X5873718Y-33550345D01*
X5755001Y-33695001D01*
X5610345Y-33813718D01*
X5445308Y-33901932D01*
X5266232Y-33956254D01*
X5242971Y-33958545D01*
X5126670Y-33970000D01*
X5033330Y-33970000D01*
X4917029Y-33958545D01*
X4893768Y-33956254D01*
X4714692Y-33901932D01*
X4549655Y-33813718D01*
X4404999Y-33695001D01*
X4286282Y-33550345D01*
X4198068Y-33385308D01*
X4143746Y-33206232D01*
X4142101Y-33189534D01*
X4125403Y-33020000D01*
X4143746Y-32833769D01*
X4161166Y-32776342D01*
X4198068Y-32654692D01*
X4286282Y-32489655D01*
X4404999Y-32344999D01*
X4549655Y-32226282D01*
X4714692Y-32138068D01*
X4893768Y-32083746D01*
X4917029Y-32081455D01*
X5033330Y-32070000D01*
X5126670Y-32070000D01*
X5242971Y-32081455D01*
X5242971Y-32081455D01*
G37*
G36*
X28102971Y-32081455D02*
X28126232Y-32083746D01*
X28305308Y-32138068D01*
X28470345Y-32226282D01*
X28615001Y-32344999D01*
X28733718Y-32489655D01*
X28821932Y-32654692D01*
X28858834Y-32776342D01*
X28876254Y-32833769D01*
X28894597Y-33020000D01*
X28877899Y-33189534D01*
X28876254Y-33206232D01*
X28821932Y-33385308D01*
X28733718Y-33550345D01*
X28615001Y-33695001D01*
X28470345Y-33813718D01*
X28305308Y-33901932D01*
X28126232Y-33956254D01*
X28102971Y-33958545D01*
X27986670Y-33970000D01*
X27893330Y-33970000D01*
X27777029Y-33958545D01*
X27753768Y-33956254D01*
X27574692Y-33901932D01*
X27409655Y-33813718D01*
X27264999Y-33695001D01*
X27146282Y-33550345D01*
X27058068Y-33385308D01*
X27003746Y-33206232D01*
X27002101Y-33189534D01*
X26985403Y-33020000D01*
X27003746Y-32833769D01*
X27021166Y-32776342D01*
X27058068Y-32654692D01*
X27146282Y-32489655D01*
X27264999Y-32344999D01*
X27409655Y-32226282D01*
X27574692Y-32138068D01*
X27753768Y-32083746D01*
X27777029Y-32081455D01*
X27893330Y-32070000D01*
X27986670Y-32070000D01*
X28102971Y-32081455D01*
X28102971Y-32081455D01*
G37*
G36*
X22000000Y-33250000D02*
X19800000Y-33250000D01*
X19800000Y-29250000D01*
X22000000Y-29250000D01*
X22000000Y-33250000D01*
X22000000Y-33250000D01*
G37*
G36*
X25648830Y-31929677D02*
X25689776Y-31942098D01*
X25727510Y-31962267D01*
X25760587Y-31989413D01*
X25787733Y-32022490D01*
X25807902Y-32060224D01*
X25820323Y-32101170D01*
X25825000Y-32148658D01*
X25825000Y-32776342D01*
X25820323Y-32823830D01*
X25807902Y-32864776D01*
X25787733Y-32902510D01*
X25760587Y-32935587D01*
X25727510Y-32962733D01*
X25689776Y-32982902D01*
X25648830Y-32995323D01*
X25601342Y-33000000D01*
X24898658Y-33000000D01*
X24851170Y-32995323D01*
X24810224Y-32982902D01*
X24772490Y-32962733D01*
X24739413Y-32935587D01*
X24712267Y-32902510D01*
X24692098Y-32864776D01*
X24679677Y-32823830D01*
X24675000Y-32776342D01*
X24675000Y-32148658D01*
X24679677Y-32101170D01*
X24692098Y-32060224D01*
X24712267Y-32022490D01*
X24739413Y-31989413D01*
X24772490Y-31962267D01*
X24810224Y-31942098D01*
X24851170Y-31929677D01*
X24898658Y-31925000D01*
X25601342Y-31925000D01*
X25648830Y-31929677D01*
X25648830Y-31929677D01*
G37*
G36*
X23898830Y-31929677D02*
X23939776Y-31942098D01*
X23977510Y-31962267D01*
X24010587Y-31989413D01*
X24037733Y-32022490D01*
X24057902Y-32060224D01*
X24070323Y-32101170D01*
X24075000Y-32148658D01*
X24075000Y-32776342D01*
X24070323Y-32823830D01*
X24057902Y-32864776D01*
X24037733Y-32902510D01*
X24010587Y-32935587D01*
X23977510Y-32962733D01*
X23939776Y-32982902D01*
X23898830Y-32995323D01*
X23851342Y-33000000D01*
X23148658Y-33000000D01*
X23101170Y-32995323D01*
X23060224Y-32982902D01*
X23022490Y-32962733D01*
X22989413Y-32935587D01*
X22962267Y-32902510D01*
X22942098Y-32864776D01*
X22929677Y-32823830D01*
X22925000Y-32776342D01*
X22925000Y-32148658D01*
X22929677Y-32101170D01*
X22942098Y-32060224D01*
X22962267Y-32022490D01*
X22989413Y-31989413D01*
X23022490Y-31962267D01*
X23060224Y-31942098D01*
X23101170Y-31929677D01*
X23148658Y-31925000D01*
X23851342Y-31925000D01*
X23898830Y-31929677D01*
X23898830Y-31929677D01*
G37*
G36*
X15700000Y-32100000D02*
X13500000Y-32100000D01*
X13500000Y-30400000D01*
X15700000Y-30400000D01*
X15700000Y-32100000D01*
X15700000Y-32100000D01*
G37*
G36*
X12648830Y-30754677D02*
X12689776Y-30767098D01*
X12727510Y-30787267D01*
X12760587Y-30814413D01*
X12787733Y-30847490D01*
X12807902Y-30885224D01*
X12820323Y-30926170D01*
X12825000Y-30973658D01*
X12825000Y-31601342D01*
X12820323Y-31648830D01*
X12807902Y-31689776D01*
X12787733Y-31727510D01*
X12760587Y-31760587D01*
X12727510Y-31787733D01*
X12689776Y-31807902D01*
X12648830Y-31820323D01*
X12601342Y-31825000D01*
X11898658Y-31825000D01*
X11851170Y-31820323D01*
X11810224Y-31807902D01*
X11772490Y-31787733D01*
X11739413Y-31760587D01*
X11712267Y-31727510D01*
X11692098Y-31689776D01*
X11679677Y-31648830D01*
X11675000Y-31601342D01*
X11675000Y-30973658D01*
X11679677Y-30926170D01*
X11692098Y-30885224D01*
X11712267Y-30847490D01*
X11739413Y-30814413D01*
X11772490Y-30787267D01*
X11810224Y-30767098D01*
X11851170Y-30754677D01*
X11898658Y-30750000D01*
X12601342Y-30750000D01*
X12648830Y-30754677D01*
X12648830Y-30754677D01*
G37*
G36*
X2702971Y-29541455D02*
X2726232Y-29543746D01*
X2905308Y-29598068D01*
X3070345Y-29686282D01*
X3215001Y-29804999D01*
X3333718Y-29949655D01*
X3421932Y-30114692D01*
X3461558Y-30245323D01*
X3476254Y-30293769D01*
X3494597Y-30480000D01*
X3477899Y-30649534D01*
X3476254Y-30666232D01*
X3421932Y-30845308D01*
X3333718Y-31010345D01*
X3215001Y-31155001D01*
X3070345Y-31273718D01*
X2905308Y-31361932D01*
X2726232Y-31416254D01*
X2702971Y-31418545D01*
X2586670Y-31430000D01*
X2493330Y-31430000D01*
X2377029Y-31418545D01*
X2353768Y-31416254D01*
X2174692Y-31361932D01*
X2009655Y-31273718D01*
X1864999Y-31155001D01*
X1746282Y-31010345D01*
X1658068Y-30845308D01*
X1603746Y-30666232D01*
X1602101Y-30649534D01*
X1585403Y-30480000D01*
X1603746Y-30293769D01*
X1618442Y-30245323D01*
X1658068Y-30114692D01*
X1746282Y-29949655D01*
X1864999Y-29804999D01*
X2009655Y-29686282D01*
X2174692Y-29598068D01*
X2353768Y-29543746D01*
X2377029Y-29541455D01*
X2493330Y-29530000D01*
X2586670Y-29530000D01*
X2702971Y-29541455D01*
X2702971Y-29541455D01*
G37*
G36*
X30642971Y-29541455D02*
X30666232Y-29543746D01*
X30845308Y-29598068D01*
X31010345Y-29686282D01*
X31155001Y-29804999D01*
X31273718Y-29949655D01*
X31361932Y-30114692D01*
X31401558Y-30245323D01*
X31416254Y-30293769D01*
X31434597Y-30480000D01*
X31417899Y-30649534D01*
X31416254Y-30666232D01*
X31361932Y-30845308D01*
X31273718Y-31010345D01*
X31155001Y-31155001D01*
X31010345Y-31273718D01*
X30845308Y-31361932D01*
X30666232Y-31416254D01*
X30642971Y-31418545D01*
X30526670Y-31430000D01*
X30433330Y-31430000D01*
X30317029Y-31418545D01*
X30293768Y-31416254D01*
X30114692Y-31361932D01*
X29949655Y-31273718D01*
X29804999Y-31155001D01*
X29686282Y-31010345D01*
X29598068Y-30845308D01*
X29543746Y-30666232D01*
X29542101Y-30649534D01*
X29525403Y-30480000D01*
X29543746Y-30293769D01*
X29558442Y-30245323D01*
X29598068Y-30114692D01*
X29686282Y-29949655D01*
X29804999Y-29804999D01*
X29949655Y-29686282D01*
X30114692Y-29598068D01*
X30293768Y-29543746D01*
X30317029Y-29541455D01*
X30433330Y-29530000D01*
X30526670Y-29530000D01*
X30642971Y-29541455D01*
X30642971Y-29541455D01*
G37*
G36*
X28102971Y-29541455D02*
X28126232Y-29543746D01*
X28305308Y-29598068D01*
X28470345Y-29686282D01*
X28615001Y-29804999D01*
X28733718Y-29949655D01*
X28821932Y-30114692D01*
X28861558Y-30245323D01*
X28876254Y-30293769D01*
X28894597Y-30480000D01*
X28877899Y-30649534D01*
X28876254Y-30666232D01*
X28821932Y-30845308D01*
X28733718Y-31010345D01*
X28615001Y-31155001D01*
X28470345Y-31273718D01*
X28305308Y-31361932D01*
X28126232Y-31416254D01*
X28102971Y-31418545D01*
X27986670Y-31430000D01*
X27893330Y-31430000D01*
X27777029Y-31418545D01*
X27753768Y-31416254D01*
X27574692Y-31361932D01*
X27409655Y-31273718D01*
X27264999Y-31155001D01*
X27146282Y-31010345D01*
X27058068Y-30845308D01*
X27003746Y-30666232D01*
X27002101Y-30649534D01*
X26985403Y-30480000D01*
X27003746Y-30293769D01*
X27018442Y-30245323D01*
X27058068Y-30114692D01*
X27146282Y-29949655D01*
X27264999Y-29804999D01*
X27409655Y-29686282D01*
X27574692Y-29598068D01*
X27753768Y-29543746D01*
X27777029Y-29541455D01*
X27893330Y-29530000D01*
X27986670Y-29530000D01*
X28102971Y-29541455D01*
X28102971Y-29541455D01*
G37*
G36*
X5242971Y-29541455D02*
X5266232Y-29543746D01*
X5445308Y-29598068D01*
X5610345Y-29686282D01*
X5755001Y-29804999D01*
X5873718Y-29949655D01*
X5961932Y-30114692D01*
X6001558Y-30245323D01*
X6016254Y-30293769D01*
X6034597Y-30480000D01*
X6017899Y-30649534D01*
X6016254Y-30666232D01*
X5961932Y-30845308D01*
X5873718Y-31010345D01*
X5755001Y-31155001D01*
X5610345Y-31273718D01*
X5445308Y-31361932D01*
X5266232Y-31416254D01*
X5242971Y-31418545D01*
X5126670Y-31430000D01*
X5033330Y-31430000D01*
X4917029Y-31418545D01*
X4893768Y-31416254D01*
X4714692Y-31361932D01*
X4549655Y-31273718D01*
X4404999Y-31155001D01*
X4286282Y-31010345D01*
X4198068Y-30845308D01*
X4143746Y-30666232D01*
X4142101Y-30649534D01*
X4125403Y-30480000D01*
X4143746Y-30293769D01*
X4158442Y-30245323D01*
X4198068Y-30114692D01*
X4286282Y-29949655D01*
X4404999Y-29804999D01*
X4549655Y-29686282D01*
X4714692Y-29598068D01*
X4893768Y-29543746D01*
X4917029Y-29541455D01*
X5033330Y-29530000D01*
X5126670Y-29530000D01*
X5242971Y-29541455D01*
X5242971Y-29541455D01*
G37*
G36*
X10898830Y-29504677D02*
X10939776Y-29517098D01*
X10977510Y-29537267D01*
X11010587Y-29564413D01*
X11037733Y-29597490D01*
X11057902Y-29635224D01*
X11070323Y-29676170D01*
X11075000Y-29723658D01*
X11075000Y-30351342D01*
X11070323Y-30398830D01*
X11057902Y-30439776D01*
X11037733Y-30477510D01*
X11010587Y-30510587D01*
X10977510Y-30537733D01*
X10939776Y-30557902D01*
X10898830Y-30570323D01*
X10851342Y-30575000D01*
X10148658Y-30575000D01*
X10101170Y-30570323D01*
X10060224Y-30557902D01*
X10022490Y-30537733D01*
X9989413Y-30510587D01*
X9962267Y-30477510D01*
X9942098Y-30439776D01*
X9929677Y-30398830D01*
X9925000Y-30351342D01*
X9925000Y-29723658D01*
X9929677Y-29676170D01*
X9942098Y-29635224D01*
X9962267Y-29597490D01*
X9989413Y-29564413D01*
X10022490Y-29537267D01*
X10060224Y-29517098D01*
X10101170Y-29504677D01*
X10148658Y-29500000D01*
X10851342Y-29500000D01*
X10898830Y-29504677D01*
X10898830Y-29504677D01*
G37*
G36*
X8398830Y-29504677D02*
X8439776Y-29517098D01*
X8477510Y-29537267D01*
X8510587Y-29564413D01*
X8537733Y-29597490D01*
X8557902Y-29635224D01*
X8570323Y-29676170D01*
X8575000Y-29723658D01*
X8575000Y-30351342D01*
X8570323Y-30398830D01*
X8557902Y-30439776D01*
X8537733Y-30477510D01*
X8510587Y-30510587D01*
X8477510Y-30537733D01*
X8439776Y-30557902D01*
X8398830Y-30570323D01*
X8351342Y-30575000D01*
X7648658Y-30575000D01*
X7601170Y-30570323D01*
X7560224Y-30557902D01*
X7522490Y-30537733D01*
X7489413Y-30510587D01*
X7462267Y-30477510D01*
X7442098Y-30439776D01*
X7429677Y-30398830D01*
X7425000Y-30351342D01*
X7425000Y-29723658D01*
X7429677Y-29676170D01*
X7442098Y-29635224D01*
X7462267Y-29597490D01*
X7489413Y-29564413D01*
X7522490Y-29537267D01*
X7560224Y-29517098D01*
X7601170Y-29504677D01*
X7648658Y-29500000D01*
X8351342Y-29500000D01*
X8398830Y-29504677D01*
X8398830Y-29504677D01*
G37*
G36*
X12648830Y-29179677D02*
X12689776Y-29192098D01*
X12727510Y-29212267D01*
X12760587Y-29239413D01*
X12787733Y-29272490D01*
X12807902Y-29310224D01*
X12820323Y-29351170D01*
X12825000Y-29398658D01*
X12825000Y-30026342D01*
X12820323Y-30073830D01*
X12807902Y-30114776D01*
X12787733Y-30152510D01*
X12760587Y-30185587D01*
X12727510Y-30212733D01*
X12689776Y-30232902D01*
X12648830Y-30245323D01*
X12601342Y-30250000D01*
X11898658Y-30250000D01*
X11851170Y-30245323D01*
X11810224Y-30232902D01*
X11772490Y-30212733D01*
X11739413Y-30185587D01*
X11712267Y-30152510D01*
X11692098Y-30114776D01*
X11679677Y-30073830D01*
X11675000Y-30026342D01*
X11675000Y-29398658D01*
X11679677Y-29351170D01*
X11692098Y-29310224D01*
X11712267Y-29272490D01*
X11739413Y-29239413D01*
X11772490Y-29212267D01*
X11810224Y-29192098D01*
X11851170Y-29179677D01*
X11898658Y-29175000D01*
X12601342Y-29175000D01*
X12648830Y-29179677D01*
X12648830Y-29179677D01*
G37*
G36*
X15700000Y-29800000D02*
X13500000Y-29800000D01*
X13500000Y-28100000D01*
X15700000Y-28100000D01*
X15700000Y-29800000D01*
X15700000Y-29800000D01*
G37*
G36*
X10898830Y-27929677D02*
X10939776Y-27942098D01*
X10977510Y-27962267D01*
X11010587Y-27989413D01*
X11037733Y-28022490D01*
X11057902Y-28060224D01*
X11070323Y-28101170D01*
X11075000Y-28148658D01*
X11075000Y-28776342D01*
X11070323Y-28823830D01*
X11057902Y-28864776D01*
X11037733Y-28902510D01*
X11010587Y-28935587D01*
X10977510Y-28962733D01*
X10939776Y-28982902D01*
X10898830Y-28995323D01*
X10851342Y-29000000D01*
X10148658Y-29000000D01*
X10101170Y-28995323D01*
X10060224Y-28982902D01*
X10022490Y-28962733D01*
X9989413Y-28935587D01*
X9962267Y-28902510D01*
X9942098Y-28864776D01*
X9929677Y-28823830D01*
X9925000Y-28776342D01*
X9925000Y-28148658D01*
X9929677Y-28101170D01*
X9942098Y-28060224D01*
X9962267Y-28022490D01*
X9989413Y-27989413D01*
X10022490Y-27962267D01*
X10060224Y-27942098D01*
X10101170Y-27929677D01*
X10148658Y-27925000D01*
X10851342Y-27925000D01*
X10898830Y-27929677D01*
X10898830Y-27929677D01*
G37*
G36*
X8398830Y-27929677D02*
X8439776Y-27942098D01*
X8477510Y-27962267D01*
X8510587Y-27989413D01*
X8537733Y-28022490D01*
X8557902Y-28060224D01*
X8570323Y-28101170D01*
X8575000Y-28148658D01*
X8575000Y-28776342D01*
X8570323Y-28823830D01*
X8557902Y-28864776D01*
X8537733Y-28902510D01*
X8510587Y-28935587D01*
X8477510Y-28962733D01*
X8439776Y-28982902D01*
X8398830Y-28995323D01*
X8351342Y-29000000D01*
X7648658Y-29000000D01*
X7601170Y-28995323D01*
X7560224Y-28982902D01*
X7522490Y-28962733D01*
X7489413Y-28935587D01*
X7462267Y-28902510D01*
X7442098Y-28864776D01*
X7429677Y-28823830D01*
X7425000Y-28776342D01*
X7425000Y-28148658D01*
X7429677Y-28101170D01*
X7442098Y-28060224D01*
X7462267Y-28022490D01*
X7489413Y-27989413D01*
X7522490Y-27962267D01*
X7560224Y-27942098D01*
X7601170Y-27929677D01*
X7648658Y-27925000D01*
X8351342Y-27925000D01*
X8398830Y-27929677D01*
X8398830Y-27929677D01*
G37*
G36*
X5242971Y-27001455D02*
X5266232Y-27003746D01*
X5445308Y-27058068D01*
X5610345Y-27146282D01*
X5755001Y-27264999D01*
X5873718Y-27409655D01*
X5961932Y-27574692D01*
X5961932Y-27574693D01*
X6016254Y-27753769D01*
X6034597Y-27940000D01*
X6018838Y-28100000D01*
X6016254Y-28126232D01*
X5961932Y-28305308D01*
X5873718Y-28470345D01*
X5755001Y-28615001D01*
X5610345Y-28733718D01*
X5445308Y-28821932D01*
X5266232Y-28876254D01*
X5242971Y-28878545D01*
X5126670Y-28890000D01*
X5033330Y-28890000D01*
X4917029Y-28878545D01*
X4893768Y-28876254D01*
X4714692Y-28821932D01*
X4549655Y-28733718D01*
X4404999Y-28615001D01*
X4286282Y-28470345D01*
X4198068Y-28305308D01*
X4143746Y-28126232D01*
X4141162Y-28100000D01*
X4125403Y-27940000D01*
X4143746Y-27753769D01*
X4198068Y-27574693D01*
X4198068Y-27574692D01*
X4286282Y-27409655D01*
X4404999Y-27264999D01*
X4549655Y-27146282D01*
X4714692Y-27058068D01*
X4893768Y-27003746D01*
X4917029Y-27001455D01*
X5033330Y-26990000D01*
X5126670Y-26990000D01*
X5242971Y-27001455D01*
X5242971Y-27001455D01*
G37*
G36*
X2702971Y-27001455D02*
X2726232Y-27003746D01*
X2905308Y-27058068D01*
X3070345Y-27146282D01*
X3215001Y-27264999D01*
X3333718Y-27409655D01*
X3421932Y-27574692D01*
X3421932Y-27574693D01*
X3476254Y-27753769D01*
X3494597Y-27940000D01*
X3478838Y-28100000D01*
X3476254Y-28126232D01*
X3421932Y-28305308D01*
X3333718Y-28470345D01*
X3215001Y-28615001D01*
X3070345Y-28733718D01*
X2905308Y-28821932D01*
X2726232Y-28876254D01*
X2702971Y-28878545D01*
X2586670Y-28890000D01*
X2493330Y-28890000D01*
X2377029Y-28878545D01*
X2353768Y-28876254D01*
X2174692Y-28821932D01*
X2009655Y-28733718D01*
X1864999Y-28615001D01*
X1746282Y-28470345D01*
X1658068Y-28305308D01*
X1603746Y-28126232D01*
X1601162Y-28100000D01*
X1585403Y-27940000D01*
X1603746Y-27753769D01*
X1658068Y-27574693D01*
X1658068Y-27574692D01*
X1746282Y-27409655D01*
X1864999Y-27264999D01*
X2009655Y-27146282D01*
X2174692Y-27058068D01*
X2353768Y-27003746D01*
X2377029Y-27001455D01*
X2493330Y-26990000D01*
X2586670Y-26990000D01*
X2702971Y-27001455D01*
X2702971Y-27001455D01*
G37*
G36*
X30642971Y-27001455D02*
X30666232Y-27003746D01*
X30845308Y-27058068D01*
X31010345Y-27146282D01*
X31155001Y-27264999D01*
X31273718Y-27409655D01*
X31361932Y-27574692D01*
X31361932Y-27574693D01*
X31416254Y-27753769D01*
X31434597Y-27940000D01*
X31418838Y-28100000D01*
X31416254Y-28126232D01*
X31361932Y-28305308D01*
X31273718Y-28470345D01*
X31155001Y-28615001D01*
X31010345Y-28733718D01*
X30845308Y-28821932D01*
X30666232Y-28876254D01*
X30642971Y-28878545D01*
X30526670Y-28890000D01*
X30433330Y-28890000D01*
X30317029Y-28878545D01*
X30293768Y-28876254D01*
X30114692Y-28821932D01*
X29949655Y-28733718D01*
X29804999Y-28615001D01*
X29686282Y-28470345D01*
X29598068Y-28305308D01*
X29543746Y-28126232D01*
X29541162Y-28100000D01*
X29525403Y-27940000D01*
X29543746Y-27753769D01*
X29598068Y-27574693D01*
X29598068Y-27574692D01*
X29686282Y-27409655D01*
X29804999Y-27264999D01*
X29949655Y-27146282D01*
X30114692Y-27058068D01*
X30293768Y-27003746D01*
X30317029Y-27001455D01*
X30433330Y-26990000D01*
X30526670Y-26990000D01*
X30642971Y-27001455D01*
X30642971Y-27001455D01*
G37*
G36*
X28102971Y-27001455D02*
X28126232Y-27003746D01*
X28305308Y-27058068D01*
X28470345Y-27146282D01*
X28615001Y-27264999D01*
X28733718Y-27409655D01*
X28821932Y-27574692D01*
X28821932Y-27574693D01*
X28876254Y-27753769D01*
X28894597Y-27940000D01*
X28878838Y-28100000D01*
X28876254Y-28126232D01*
X28821932Y-28305308D01*
X28733718Y-28470345D01*
X28615001Y-28615001D01*
X28470345Y-28733718D01*
X28305308Y-28821932D01*
X28126232Y-28876254D01*
X28102971Y-28878545D01*
X27986670Y-28890000D01*
X27893330Y-28890000D01*
X27777029Y-28878545D01*
X27753768Y-28876254D01*
X27574692Y-28821932D01*
X27409655Y-28733718D01*
X27264999Y-28615001D01*
X27146282Y-28470345D01*
X27058068Y-28305308D01*
X27003746Y-28126232D01*
X27001162Y-28100000D01*
X26985403Y-27940000D01*
X27003746Y-27753769D01*
X27058068Y-27574693D01*
X27058068Y-27574692D01*
X27146282Y-27409655D01*
X27264999Y-27264999D01*
X27409655Y-27146282D01*
X27574692Y-27058068D01*
X27753768Y-27003746D01*
X27777029Y-27001455D01*
X27893330Y-26990000D01*
X27986670Y-26990000D01*
X28102971Y-27001455D01*
X28102971Y-27001455D01*
G37*
G36*
X16398830Y-25929677D02*
X16439776Y-25942098D01*
X16477510Y-25962267D01*
X16510587Y-25989413D01*
X16537733Y-26022490D01*
X16557902Y-26060224D01*
X16570323Y-26101170D01*
X16575000Y-26148658D01*
X16575000Y-26851342D01*
X16570323Y-26898830D01*
X16557902Y-26939776D01*
X16537733Y-26977510D01*
X16510587Y-27010587D01*
X16477510Y-27037733D01*
X16439776Y-27057902D01*
X16398830Y-27070323D01*
X16351342Y-27075000D01*
X15723658Y-27075000D01*
X15676170Y-27070323D01*
X15635224Y-27057902D01*
X15597490Y-27037733D01*
X15564413Y-27010587D01*
X15537267Y-26977510D01*
X15517098Y-26939776D01*
X15504677Y-26898830D01*
X15500000Y-26851342D01*
X15500000Y-26148658D01*
X15504677Y-26101170D01*
X15517098Y-26060224D01*
X15537267Y-26022490D01*
X15564413Y-25989413D01*
X15597490Y-25962267D01*
X15635224Y-25942098D01*
X15676170Y-25929677D01*
X15723658Y-25925000D01*
X16351342Y-25925000D01*
X16398830Y-25929677D01*
X16398830Y-25929677D01*
G37*
G36*
X14823830Y-25929677D02*
X14864776Y-25942098D01*
X14902510Y-25962267D01*
X14935587Y-25989413D01*
X14962733Y-26022490D01*
X14982902Y-26060224D01*
X14995323Y-26101170D01*
X15000000Y-26148658D01*
X15000000Y-26851342D01*
X14995323Y-26898830D01*
X14982902Y-26939776D01*
X14962733Y-26977510D01*
X14935587Y-27010587D01*
X14902510Y-27037733D01*
X14864776Y-27057902D01*
X14823830Y-27070323D01*
X14776342Y-27075000D01*
X14148658Y-27075000D01*
X14101170Y-27070323D01*
X14060224Y-27057902D01*
X14022490Y-27037733D01*
X13989413Y-27010587D01*
X13962267Y-26977510D01*
X13942098Y-26939776D01*
X13929677Y-26898830D01*
X13925000Y-26851342D01*
X13925000Y-26148658D01*
X13929677Y-26101170D01*
X13942098Y-26060224D01*
X13962267Y-26022490D01*
X13989413Y-25989413D01*
X14022490Y-25962267D01*
X14060224Y-25942098D01*
X14101170Y-25929677D01*
X14148658Y-25925000D01*
X14776342Y-25925000D01*
X14823830Y-25929677D01*
X14823830Y-25929677D01*
G37*
G36*
X28102971Y-24461455D02*
X28126232Y-24463746D01*
X28305308Y-24518068D01*
X28470345Y-24606282D01*
X28615001Y-24724999D01*
X28733718Y-24869655D01*
X28821932Y-25034692D01*
X28876254Y-25213768D01*
X28876254Y-25213769D01*
X28894597Y-25400000D01*
X28877899Y-25569534D01*
X28876254Y-25586232D01*
X28821932Y-25765308D01*
X28733718Y-25930345D01*
X28615001Y-26075001D01*
X28470345Y-26193718D01*
X28305308Y-26281932D01*
X28126232Y-26336254D01*
X28102971Y-26338545D01*
X27986670Y-26350000D01*
X27893330Y-26350000D01*
X27777029Y-26338545D01*
X27753768Y-26336254D01*
X27574692Y-26281932D01*
X27409655Y-26193718D01*
X27264999Y-26075001D01*
X27146282Y-25930345D01*
X27058068Y-25765308D01*
X27003746Y-25586232D01*
X27002101Y-25569534D01*
X26985403Y-25400000D01*
X27003746Y-25213769D01*
X27003746Y-25213768D01*
X27058068Y-25034692D01*
X27146282Y-24869655D01*
X27264999Y-24724999D01*
X27409655Y-24606282D01*
X27574692Y-24518068D01*
X27753768Y-24463746D01*
X27777029Y-24461455D01*
X27893330Y-24450000D01*
X27986670Y-24450000D01*
X28102971Y-24461455D01*
X28102971Y-24461455D01*
G37*
G36*
X5242971Y-24461455D02*
X5266232Y-24463746D01*
X5445308Y-24518068D01*
X5610345Y-24606282D01*
X5755001Y-24724999D01*
X5873718Y-24869655D01*
X5961932Y-25034692D01*
X6016254Y-25213768D01*
X6016254Y-25213769D01*
X6034597Y-25400000D01*
X6017899Y-25569534D01*
X6016254Y-25586232D01*
X5961932Y-25765308D01*
X5873718Y-25930345D01*
X5755001Y-26075001D01*
X5610345Y-26193718D01*
X5445308Y-26281932D01*
X5266232Y-26336254D01*
X5242971Y-26338545D01*
X5126670Y-26350000D01*
X5033330Y-26350000D01*
X4917029Y-26338545D01*
X4893768Y-26336254D01*
X4714692Y-26281932D01*
X4549655Y-26193718D01*
X4404999Y-26075001D01*
X4286282Y-25930345D01*
X4198068Y-25765308D01*
X4143746Y-25586232D01*
X4142101Y-25569534D01*
X4125403Y-25400000D01*
X4143746Y-25213769D01*
X4143746Y-25213768D01*
X4198068Y-25034692D01*
X4286282Y-24869655D01*
X4404999Y-24724999D01*
X4549655Y-24606282D01*
X4714692Y-24518068D01*
X4893768Y-24463746D01*
X4917029Y-24461455D01*
X5033330Y-24450000D01*
X5126670Y-24450000D01*
X5242971Y-24461455D01*
X5242971Y-24461455D01*
G37*
G36*
X2702971Y-24461455D02*
X2726232Y-24463746D01*
X2905308Y-24518068D01*
X3070345Y-24606282D01*
X3215001Y-24724999D01*
X3333718Y-24869655D01*
X3421932Y-25034692D01*
X3476254Y-25213768D01*
X3476254Y-25213769D01*
X3494597Y-25400000D01*
X3477899Y-25569534D01*
X3476254Y-25586232D01*
X3421932Y-25765308D01*
X3333718Y-25930345D01*
X3215001Y-26075001D01*
X3070345Y-26193718D01*
X2905308Y-26281932D01*
X2726232Y-26336254D01*
X2702971Y-26338545D01*
X2586670Y-26350000D01*
X2493330Y-26350000D01*
X2377029Y-26338545D01*
X2353768Y-26336254D01*
X2174692Y-26281932D01*
X2009655Y-26193718D01*
X1864999Y-26075001D01*
X1746282Y-25930345D01*
X1658068Y-25765308D01*
X1603746Y-25586232D01*
X1602101Y-25569534D01*
X1585403Y-25400000D01*
X1603746Y-25213769D01*
X1603746Y-25213768D01*
X1658068Y-25034692D01*
X1746282Y-24869655D01*
X1864999Y-24724999D01*
X2009655Y-24606282D01*
X2174692Y-24518068D01*
X2353768Y-24463746D01*
X2377029Y-24461455D01*
X2493330Y-24450000D01*
X2586670Y-24450000D01*
X2702971Y-24461455D01*
X2702971Y-24461455D01*
G37*
G36*
X30642971Y-24461455D02*
X30666232Y-24463746D01*
X30845308Y-24518068D01*
X31010345Y-24606282D01*
X31155001Y-24724999D01*
X31273718Y-24869655D01*
X31361932Y-25034692D01*
X31416254Y-25213768D01*
X31416254Y-25213769D01*
X31434597Y-25400000D01*
X31417899Y-25569534D01*
X31416254Y-25586232D01*
X31361932Y-25765308D01*
X31273718Y-25930345D01*
X31155001Y-26075001D01*
X31010345Y-26193718D01*
X30845308Y-26281932D01*
X30666232Y-26336254D01*
X30642971Y-26338545D01*
X30526670Y-26350000D01*
X30433330Y-26350000D01*
X30317029Y-26338545D01*
X30293768Y-26336254D01*
X30114692Y-26281932D01*
X29949655Y-26193718D01*
X29804999Y-26075001D01*
X29686282Y-25930345D01*
X29598068Y-25765308D01*
X29543746Y-25586232D01*
X29542101Y-25569534D01*
X29525403Y-25400000D01*
X29543746Y-25213769D01*
X29543746Y-25213768D01*
X29598068Y-25034692D01*
X29686282Y-24869655D01*
X29804999Y-24724999D01*
X29949655Y-24606282D01*
X30114692Y-24518068D01*
X30293768Y-24463746D01*
X30317029Y-24461455D01*
X30433330Y-24450000D01*
X30526670Y-24450000D01*
X30642971Y-24461455D01*
X30642971Y-24461455D01*
G37*
G36*
X24459887Y-21502602D02*
X20252602Y-25709887D01*
X19191942Y-24649227D01*
X19510140Y-24331029D01*
X19510141Y-24331030D01*
X19545496Y-24295675D01*
X19545495Y-24295674D01*
X19863693Y-23977476D01*
X19863694Y-23977477D01*
X19899050Y-23942121D01*
X19899049Y-23942120D01*
X20217247Y-23623922D01*
X20217248Y-23623923D01*
X20252603Y-23588568D01*
X20252602Y-23588567D01*
X20570800Y-23270369D01*
X20570801Y-23270370D01*
X20606156Y-23235015D01*
X20606155Y-23235014D01*
X20924353Y-22916816D01*
X20924354Y-22916817D01*
X20959710Y-22881461D01*
X20959709Y-22881460D01*
X21277907Y-22563262D01*
X21277908Y-22563263D01*
X21313263Y-22527908D01*
X21313262Y-22527907D01*
X21631460Y-22209709D01*
X21631461Y-22209710D01*
X21666817Y-22174354D01*
X21666816Y-22174353D01*
X21985014Y-21856155D01*
X21985015Y-21856156D01*
X22020370Y-21820801D01*
X22020369Y-21820800D01*
X22338567Y-21502602D01*
X22338568Y-21502603D01*
X22373923Y-21467248D01*
X22373922Y-21467247D01*
X22692120Y-21149049D01*
X22692121Y-21149050D01*
X22727477Y-21113694D01*
X22727476Y-21113693D01*
X23045674Y-20795495D01*
X23045675Y-20795496D01*
X23081030Y-20760141D01*
X23081029Y-20760140D01*
X23399227Y-20441942D01*
X24459887Y-21502602D01*
X24459887Y-21502602D01*
G37*
G36*
X14418971Y-20760140D02*
X14418971Y-20760141D01*
X14454326Y-20795496D01*
X14454326Y-20795495D01*
X14772524Y-21113693D01*
X14772524Y-21113694D01*
X14807880Y-21149050D01*
X14807880Y-21149049D01*
X15126078Y-21467247D01*
X15126078Y-21467248D01*
X15161433Y-21502603D01*
X15161433Y-21502602D01*
X15479631Y-21820800D01*
X15479631Y-21820801D01*
X15514986Y-21856156D01*
X15514986Y-21856155D01*
X15833184Y-22174353D01*
X15833184Y-22174354D01*
X15868540Y-22209710D01*
X15868540Y-22209709D01*
X16186738Y-22527907D01*
X16186738Y-22527908D01*
X16222093Y-22563263D01*
X16222093Y-22563262D01*
X16540291Y-22881460D01*
X16540291Y-22881461D01*
X16575647Y-22916817D01*
X16575647Y-22916816D01*
X16893845Y-23235014D01*
X16893845Y-23235015D01*
X16929200Y-23270370D01*
X16929200Y-23270369D01*
X17247398Y-23588567D01*
X17247398Y-23588568D01*
X17282753Y-23623923D01*
X17282753Y-23623922D01*
X17600951Y-23942120D01*
X17600951Y-23942121D01*
X17636307Y-23977477D01*
X17636307Y-23977476D01*
X17954505Y-24295674D01*
X17954505Y-24295675D01*
X17989860Y-24331030D01*
X17989860Y-24331029D01*
X18308058Y-24649227D01*
X17247398Y-25709887D01*
X16929200Y-25391689D01*
X16929201Y-25391689D01*
X16893846Y-25356334D01*
X16893845Y-25356334D01*
X16575647Y-25038136D01*
X16575648Y-25038136D01*
X16540292Y-25002780D01*
X16540291Y-25002780D01*
X16222093Y-24684582D01*
X16222094Y-24684582D01*
X16186739Y-24649227D01*
X16186738Y-24649227D01*
X15868540Y-24331029D01*
X15868541Y-24331029D01*
X15833186Y-24295674D01*
X15833185Y-24295674D01*
X15514987Y-23977476D01*
X15514988Y-23977476D01*
X15479632Y-23942120D01*
X15479631Y-23942120D01*
X15161433Y-23623922D01*
X15161434Y-23623922D01*
X15126079Y-23588567D01*
X15126078Y-23588567D01*
X14807880Y-23270369D01*
X14807881Y-23270369D01*
X14772525Y-23235013D01*
X14772524Y-23235013D01*
X14454326Y-22916815D01*
X14454327Y-22916815D01*
X14418972Y-22881460D01*
X14418971Y-22881460D01*
X14100773Y-22563262D01*
X14100774Y-22563262D01*
X14065419Y-22527907D01*
X14065418Y-22527907D01*
X13747220Y-22209709D01*
X13747221Y-22209709D01*
X13711865Y-22174353D01*
X13711864Y-22174353D01*
X13393666Y-21856155D01*
X13393667Y-21856155D01*
X13358312Y-21820800D01*
X13358311Y-21820800D01*
X13040113Y-21502602D01*
X14100773Y-20441942D01*
X14418971Y-20760140D01*
X14418971Y-20760140D01*
G37*
G36*
X2702971Y-21921455D02*
X2726232Y-21923746D01*
X2905308Y-21978068D01*
X3070345Y-22066282D01*
X3215001Y-22184999D01*
X3333718Y-22329655D01*
X3421932Y-22494692D01*
X3442732Y-22563262D01*
X3476254Y-22673769D01*
X3494597Y-22860000D01*
X3477899Y-23029534D01*
X3476254Y-23046232D01*
X3421932Y-23225308D01*
X3333718Y-23390345D01*
X3215001Y-23535001D01*
X3070345Y-23653718D01*
X2905308Y-23741932D01*
X2726232Y-23796254D01*
X2702971Y-23798545D01*
X2586670Y-23810000D01*
X2493330Y-23810000D01*
X2377029Y-23798545D01*
X2353768Y-23796254D01*
X2174692Y-23741932D01*
X2009655Y-23653718D01*
X1864999Y-23535001D01*
X1746282Y-23390345D01*
X1658068Y-23225308D01*
X1603746Y-23046232D01*
X1602101Y-23029534D01*
X1585403Y-22860000D01*
X1603746Y-22673769D01*
X1637268Y-22563262D01*
X1658068Y-22494692D01*
X1746282Y-22329655D01*
X1864999Y-22184999D01*
X2009655Y-22066282D01*
X2174692Y-21978068D01*
X2353768Y-21923746D01*
X2377029Y-21921455D01*
X2493330Y-21910000D01*
X2586670Y-21910000D01*
X2702971Y-21921455D01*
X2702971Y-21921455D01*
G37*
G36*
X30642971Y-21921455D02*
X30666232Y-21923746D01*
X30845308Y-21978068D01*
X31010345Y-22066282D01*
X31155001Y-22184999D01*
X31273718Y-22329655D01*
X31361932Y-22494692D01*
X31382732Y-22563262D01*
X31416254Y-22673769D01*
X31434597Y-22860000D01*
X31417899Y-23029534D01*
X31416254Y-23046232D01*
X31361932Y-23225308D01*
X31273718Y-23390345D01*
X31155001Y-23535001D01*
X31010345Y-23653718D01*
X30845308Y-23741932D01*
X30666232Y-23796254D01*
X30642971Y-23798545D01*
X30526670Y-23810000D01*
X30433330Y-23810000D01*
X30317029Y-23798545D01*
X30293768Y-23796254D01*
X30114692Y-23741932D01*
X29949655Y-23653718D01*
X29804999Y-23535001D01*
X29686282Y-23390345D01*
X29598068Y-23225308D01*
X29543746Y-23046232D01*
X29542101Y-23029534D01*
X29525403Y-22860000D01*
X29543746Y-22673769D01*
X29577268Y-22563262D01*
X29598068Y-22494692D01*
X29686282Y-22329655D01*
X29804999Y-22184999D01*
X29949655Y-22066282D01*
X30114692Y-21978068D01*
X30293768Y-21923746D01*
X30317029Y-21921455D01*
X30433330Y-21910000D01*
X30526670Y-21910000D01*
X30642971Y-21921455D01*
X30642971Y-21921455D01*
G37*
G36*
X28102971Y-21921455D02*
X28126232Y-21923746D01*
X28305308Y-21978068D01*
X28470345Y-22066282D01*
X28615001Y-22184999D01*
X28733718Y-22329655D01*
X28821932Y-22494692D01*
X28842732Y-22563262D01*
X28876254Y-22673769D01*
X28894597Y-22860000D01*
X28877899Y-23029534D01*
X28876254Y-23046232D01*
X28821932Y-23225308D01*
X28733718Y-23390345D01*
X28615001Y-23535001D01*
X28470345Y-23653718D01*
X28305308Y-23741932D01*
X28126232Y-23796254D01*
X28102971Y-23798545D01*
X27986670Y-23810000D01*
X27893330Y-23810000D01*
X27777029Y-23798545D01*
X27753768Y-23796254D01*
X27574692Y-23741932D01*
X27409655Y-23653718D01*
X27264999Y-23535001D01*
X27146282Y-23390345D01*
X27058068Y-23225308D01*
X27003746Y-23046232D01*
X27002101Y-23029534D01*
X26985403Y-22860000D01*
X27003746Y-22673769D01*
X27037268Y-22563262D01*
X27058068Y-22494692D01*
X27146282Y-22329655D01*
X27264999Y-22184999D01*
X27409655Y-22066282D01*
X27574692Y-21978068D01*
X27753768Y-21923746D01*
X27777029Y-21921455D01*
X27893330Y-21910000D01*
X27986670Y-21910000D01*
X28102971Y-21921455D01*
X28102971Y-21921455D01*
G37*
G36*
X5242971Y-21921455D02*
X5266232Y-21923746D01*
X5445308Y-21978068D01*
X5610345Y-22066282D01*
X5755001Y-22184999D01*
X5873718Y-22329655D01*
X5961932Y-22494692D01*
X5982732Y-22563262D01*
X6016254Y-22673769D01*
X6034597Y-22860000D01*
X6017899Y-23029534D01*
X6016254Y-23046232D01*
X5961932Y-23225308D01*
X5873718Y-23390345D01*
X5755001Y-23535001D01*
X5610345Y-23653718D01*
X5445308Y-23741932D01*
X5266232Y-23796254D01*
X5242971Y-23798545D01*
X5126670Y-23810000D01*
X5033330Y-23810000D01*
X4917029Y-23798545D01*
X4893768Y-23796254D01*
X4714692Y-23741932D01*
X4549655Y-23653718D01*
X4404999Y-23535001D01*
X4286282Y-23390345D01*
X4198068Y-23225308D01*
X4143746Y-23046232D01*
X4142101Y-23029534D01*
X4125403Y-22860000D01*
X4143746Y-22673769D01*
X4177268Y-22563262D01*
X4198068Y-22494692D01*
X4286282Y-22329655D01*
X4404999Y-22184999D01*
X4549655Y-22066282D01*
X4714692Y-21978068D01*
X4893768Y-21923746D01*
X4917029Y-21921455D01*
X5033330Y-21910000D01*
X5126670Y-21910000D01*
X5242971Y-21921455D01*
X5242971Y-21921455D01*
G37*
G36*
X9997936Y-20332665D02*
X9997938Y-20332666D01*
X9997939Y-20332666D01*
X10152626Y-20396740D01*
X10291844Y-20489762D01*
X10410238Y-20608156D01*
X10410239Y-20608158D01*
X10503260Y-20747374D01*
X10523193Y-20795495D01*
X10567335Y-20902064D01*
X10600000Y-21066282D01*
X10600000Y-21233718D01*
X10567335Y-21397936D01*
X10503260Y-21552626D01*
X10410238Y-21691844D01*
X10291844Y-21810238D01*
X10223124Y-21856155D01*
X10152626Y-21903260D01*
X9997939Y-21967334D01*
X9997938Y-21967334D01*
X9997936Y-21967335D01*
X9833718Y-22000000D01*
X9666282Y-22000000D01*
X9502064Y-21967335D01*
X9502062Y-21967334D01*
X9502061Y-21967334D01*
X9347374Y-21903260D01*
X9276876Y-21856155D01*
X9208156Y-21810238D01*
X9089762Y-21691844D01*
X8996740Y-21552626D01*
X8932665Y-21397936D01*
X8900000Y-21233718D01*
X8900000Y-21066282D01*
X8932665Y-20902064D01*
X8976808Y-20795495D01*
X8996740Y-20747374D01*
X9089761Y-20608158D01*
X9089762Y-20608156D01*
X9208156Y-20489762D01*
X9347374Y-20396740D01*
X9502061Y-20332666D01*
X9502062Y-20332666D01*
X9502064Y-20332665D01*
X9666282Y-20300000D01*
X9833718Y-20300000D01*
X9997936Y-20332665D01*
X9997936Y-20332665D01*
G37*
G36*
X28102971Y-19381455D02*
X28126232Y-19383746D01*
X28305308Y-19438068D01*
X28470345Y-19526282D01*
X28615001Y-19644999D01*
X28733718Y-19789655D01*
X28821932Y-19954692D01*
X28821932Y-19954693D01*
X28876254Y-20133769D01*
X28894597Y-20320000D01*
X28893349Y-20332666D01*
X28876254Y-20506232D01*
X28821932Y-20685308D01*
X28733718Y-20850345D01*
X28615001Y-20995001D01*
X28470345Y-21113718D01*
X28305308Y-21201932D01*
X28126232Y-21256254D01*
X28102971Y-21258545D01*
X27986670Y-21270000D01*
X27893330Y-21270000D01*
X27777029Y-21258545D01*
X27753768Y-21256254D01*
X27574692Y-21201932D01*
X27409655Y-21113718D01*
X27264999Y-20995001D01*
X27146282Y-20850345D01*
X27058068Y-20685308D01*
X27003746Y-20506232D01*
X26986651Y-20332666D01*
X26985403Y-20320000D01*
X27003746Y-20133769D01*
X27058068Y-19954693D01*
X27058068Y-19954692D01*
X27146282Y-19789655D01*
X27264999Y-19644999D01*
X27409655Y-19526282D01*
X27574692Y-19438068D01*
X27753768Y-19383746D01*
X27777029Y-19381455D01*
X27893330Y-19370000D01*
X27986670Y-19370000D01*
X28102971Y-19381455D01*
X28102971Y-19381455D01*
G37*
G36*
X2702971Y-19381455D02*
X2726232Y-19383746D01*
X2905308Y-19438068D01*
X3070345Y-19526282D01*
X3215001Y-19644999D01*
X3333718Y-19789655D01*
X3421932Y-19954692D01*
X3421932Y-19954693D01*
X3476254Y-20133769D01*
X3494597Y-20320000D01*
X3493349Y-20332666D01*
X3476254Y-20506232D01*
X3421932Y-20685308D01*
X3333718Y-20850345D01*
X3215001Y-20995001D01*
X3070345Y-21113718D01*
X2905308Y-21201932D01*
X2726232Y-21256254D01*
X2702971Y-21258545D01*
X2586670Y-21270000D01*
X2493330Y-21270000D01*
X2377029Y-21258545D01*
X2353768Y-21256254D01*
X2174692Y-21201932D01*
X2009655Y-21113718D01*
X1864999Y-20995001D01*
X1746282Y-20850345D01*
X1658068Y-20685308D01*
X1603746Y-20506232D01*
X1586651Y-20332666D01*
X1585403Y-20320000D01*
X1603746Y-20133769D01*
X1658068Y-19954693D01*
X1658068Y-19954692D01*
X1746282Y-19789655D01*
X1864999Y-19644999D01*
X2009655Y-19526282D01*
X2174692Y-19438068D01*
X2353768Y-19383746D01*
X2377029Y-19381455D01*
X2493330Y-19370000D01*
X2586670Y-19370000D01*
X2702971Y-19381455D01*
X2702971Y-19381455D01*
G37*
G36*
X5242971Y-19381455D02*
X5266232Y-19383746D01*
X5445308Y-19438068D01*
X5610345Y-19526282D01*
X5755001Y-19644999D01*
X5873718Y-19789655D01*
X5961932Y-19954692D01*
X5961932Y-19954693D01*
X6016254Y-20133769D01*
X6034597Y-20320000D01*
X6033349Y-20332666D01*
X6016254Y-20506232D01*
X5961932Y-20685308D01*
X5873718Y-20850345D01*
X5755001Y-20995001D01*
X5610345Y-21113718D01*
X5445308Y-21201932D01*
X5266232Y-21256254D01*
X5242971Y-21258545D01*
X5126670Y-21270000D01*
X5033330Y-21270000D01*
X4917029Y-21258545D01*
X4893768Y-21256254D01*
X4714692Y-21201932D01*
X4549655Y-21113718D01*
X4404999Y-20995001D01*
X4286282Y-20850345D01*
X4198068Y-20685308D01*
X4143746Y-20506232D01*
X4126651Y-20332666D01*
X4125403Y-20320000D01*
X4143746Y-20133769D01*
X4198068Y-19954693D01*
X4198068Y-19954692D01*
X4286282Y-19789655D01*
X4404999Y-19644999D01*
X4549655Y-19526282D01*
X4714692Y-19438068D01*
X4893768Y-19383746D01*
X4917029Y-19381455D01*
X5033330Y-19370000D01*
X5126670Y-19370000D01*
X5242971Y-19381455D01*
X5242971Y-19381455D01*
G37*
G36*
X30642971Y-19381455D02*
X30666232Y-19383746D01*
X30845308Y-19438068D01*
X31010345Y-19526282D01*
X31155001Y-19644999D01*
X31273718Y-19789655D01*
X31361932Y-19954692D01*
X31361932Y-19954693D01*
X31416254Y-20133769D01*
X31434597Y-20320000D01*
X31433349Y-20332666D01*
X31416254Y-20506232D01*
X31361932Y-20685308D01*
X31273718Y-20850345D01*
X31155001Y-20995001D01*
X31010345Y-21113718D01*
X30845308Y-21201932D01*
X30666232Y-21256254D01*
X30642971Y-21258545D01*
X30526670Y-21270000D01*
X30433330Y-21270000D01*
X30317029Y-21258545D01*
X30293768Y-21256254D01*
X30114692Y-21201932D01*
X29949655Y-21113718D01*
X29804999Y-20995001D01*
X29686282Y-20850345D01*
X29598068Y-20685308D01*
X29543746Y-20506232D01*
X29526651Y-20332666D01*
X29525403Y-20320000D01*
X29543746Y-20133769D01*
X29598068Y-19954693D01*
X29598068Y-19954692D01*
X29686282Y-19789655D01*
X29804999Y-19644999D01*
X29949655Y-19526282D01*
X30114692Y-19438068D01*
X30293768Y-19383746D01*
X30317029Y-19381455D01*
X30433330Y-19370000D01*
X30526670Y-19370000D01*
X30642971Y-19381455D01*
X30642971Y-19381455D01*
G37*
G36*
X20570800Y-14608311D02*
X20570800Y-14608312D01*
X20606155Y-14643667D01*
X20606155Y-14643666D01*
X20924353Y-14961864D01*
X20924353Y-14961865D01*
X20959709Y-14997221D01*
X20959709Y-14997220D01*
X21277907Y-15315418D01*
X21277907Y-15315419D01*
X21313262Y-15350774D01*
X21313262Y-15350773D01*
X21631460Y-15668971D01*
X21631460Y-15668972D01*
X21666815Y-15704327D01*
X21666815Y-15704326D01*
X21985013Y-16022524D01*
X21985013Y-16022525D01*
X22020369Y-16057881D01*
X22020369Y-16057880D01*
X22338567Y-16376078D01*
X22338567Y-16376079D01*
X22373922Y-16411434D01*
X22373922Y-16411433D01*
X22692120Y-16729631D01*
X22692120Y-16729632D01*
X22727476Y-16764988D01*
X22727476Y-16764987D01*
X23045674Y-17083185D01*
X23045674Y-17083186D01*
X23081029Y-17118541D01*
X23081029Y-17118540D01*
X23399227Y-17436738D01*
X23399227Y-17436739D01*
X23434582Y-17472094D01*
X23434582Y-17472093D01*
X23752780Y-17790291D01*
X23752780Y-17790292D01*
X23788136Y-17825648D01*
X23788136Y-17825647D01*
X24106334Y-18143845D01*
X24106334Y-18143846D01*
X24141689Y-18179201D01*
X24141689Y-18179200D01*
X24459887Y-18497398D01*
X23399227Y-19558058D01*
X23081029Y-19239860D01*
X23081030Y-19239860D01*
X23045675Y-19204505D01*
X23045674Y-19204505D01*
X22727476Y-18886307D01*
X22727477Y-18886307D01*
X22692121Y-18850951D01*
X22692120Y-18850951D01*
X22373922Y-18532753D01*
X22373923Y-18532753D01*
X22338568Y-18497398D01*
X22338567Y-18497398D01*
X22020369Y-18179200D01*
X22020370Y-18179200D01*
X21985015Y-18143845D01*
X21985014Y-18143845D01*
X21666816Y-17825647D01*
X21666817Y-17825647D01*
X21631461Y-17790291D01*
X21631460Y-17790291D01*
X21313262Y-17472093D01*
X21313263Y-17472093D01*
X21277908Y-17436738D01*
X21277907Y-17436738D01*
X20959709Y-17118540D01*
X20959710Y-17118540D01*
X20924354Y-17083184D01*
X20924353Y-17083184D01*
X20606155Y-16764986D01*
X20606156Y-16764986D01*
X20570801Y-16729631D01*
X20570800Y-16729631D01*
X20252602Y-16411433D01*
X20252603Y-16411433D01*
X20217248Y-16376078D01*
X20217247Y-16376078D01*
X19899049Y-16057880D01*
X19899050Y-16057880D01*
X19863694Y-16022524D01*
X19863693Y-16022524D01*
X19545495Y-15704326D01*
X19545496Y-15704326D01*
X19510141Y-15668971D01*
X19510140Y-15668971D01*
X19191942Y-15350773D01*
X20252602Y-14290113D01*
X20570800Y-14608311D01*
X20570800Y-14608311D01*
G37*
G36*
X18308058Y-15350773D02*
X14100773Y-19558058D01*
X13040113Y-18497398D01*
X13358311Y-18179200D01*
X13358312Y-18179201D01*
X13393667Y-18143846D01*
X13393666Y-18143845D01*
X13711864Y-17825647D01*
X13711865Y-17825648D01*
X13747221Y-17790292D01*
X13747220Y-17790291D01*
X14065418Y-17472093D01*
X14065419Y-17472094D01*
X14100774Y-17436739D01*
X14100773Y-17436738D01*
X14418971Y-17118540D01*
X14418972Y-17118541D01*
X14454327Y-17083186D01*
X14454326Y-17083185D01*
X14772524Y-16764987D01*
X14772525Y-16764988D01*
X14807881Y-16729632D01*
X14807880Y-16729631D01*
X15126078Y-16411433D01*
X15126079Y-16411434D01*
X15161434Y-16376079D01*
X15161433Y-16376078D01*
X15479631Y-16057880D01*
X15479632Y-16057881D01*
X15514988Y-16022525D01*
X15514987Y-16022524D01*
X15833185Y-15704326D01*
X15833186Y-15704327D01*
X15868541Y-15668972D01*
X15868540Y-15668971D01*
X16186738Y-15350773D01*
X16186739Y-15350774D01*
X16222094Y-15315419D01*
X16222093Y-15315418D01*
X16540291Y-14997220D01*
X16540292Y-14997221D01*
X16575648Y-14961865D01*
X16575647Y-14961864D01*
X16893845Y-14643666D01*
X16893846Y-14643667D01*
X16929201Y-14608312D01*
X16929200Y-14608311D01*
X17247398Y-14290113D01*
X18308058Y-15350773D01*
X18308058Y-15350773D01*
G37*
G36*
X2702971Y-16841455D02*
X2726232Y-16843746D01*
X2905308Y-16898068D01*
X3070345Y-16986282D01*
X3215001Y-17104999D01*
X3333718Y-17249655D01*
X3421932Y-17414692D01*
X3439344Y-17472093D01*
X3476254Y-17593769D01*
X3494597Y-17780000D01*
X3477899Y-17949534D01*
X3476254Y-17966232D01*
X3421932Y-18145308D01*
X3333718Y-18310345D01*
X3215001Y-18455001D01*
X3070345Y-18573718D01*
X2905308Y-18661932D01*
X2726232Y-18716254D01*
X2702971Y-18718545D01*
X2586670Y-18730000D01*
X2493330Y-18730000D01*
X2377029Y-18718545D01*
X2353768Y-18716254D01*
X2174692Y-18661932D01*
X2009655Y-18573718D01*
X1864999Y-18455001D01*
X1746282Y-18310345D01*
X1658068Y-18145308D01*
X1603746Y-17966232D01*
X1602101Y-17949534D01*
X1585403Y-17780000D01*
X1603746Y-17593769D01*
X1640656Y-17472093D01*
X1658068Y-17414692D01*
X1746282Y-17249655D01*
X1864999Y-17104999D01*
X2009655Y-16986282D01*
X2174692Y-16898068D01*
X2353768Y-16843746D01*
X2377029Y-16841455D01*
X2493330Y-16830000D01*
X2586670Y-16830000D01*
X2702971Y-16841455D01*
X2702971Y-16841455D01*
G37*
G36*
X30642971Y-16841455D02*
X30666232Y-16843746D01*
X30845308Y-16898068D01*
X31010345Y-16986282D01*
X31155001Y-17104999D01*
X31273718Y-17249655D01*
X31361932Y-17414692D01*
X31379344Y-17472093D01*
X31416254Y-17593769D01*
X31434597Y-17780000D01*
X31417899Y-17949534D01*
X31416254Y-17966232D01*
X31361932Y-18145308D01*
X31273718Y-18310345D01*
X31155001Y-18455001D01*
X31010345Y-18573718D01*
X30845308Y-18661932D01*
X30666232Y-18716254D01*
X30642971Y-18718545D01*
X30526670Y-18730000D01*
X30433330Y-18730000D01*
X30317029Y-18718545D01*
X30293768Y-18716254D01*
X30114692Y-18661932D01*
X29949655Y-18573718D01*
X29804999Y-18455001D01*
X29686282Y-18310345D01*
X29598068Y-18145308D01*
X29543746Y-17966232D01*
X29542101Y-17949534D01*
X29525403Y-17780000D01*
X29543746Y-17593769D01*
X29580656Y-17472093D01*
X29598068Y-17414692D01*
X29686282Y-17249655D01*
X29804999Y-17104999D01*
X29949655Y-16986282D01*
X30114692Y-16898068D01*
X30293768Y-16843746D01*
X30317029Y-16841455D01*
X30433330Y-16830000D01*
X30526670Y-16830000D01*
X30642971Y-16841455D01*
X30642971Y-16841455D01*
G37*
G36*
X28102971Y-16841455D02*
X28126232Y-16843746D01*
X28305308Y-16898068D01*
X28470345Y-16986282D01*
X28615001Y-17104999D01*
X28733718Y-17249655D01*
X28821932Y-17414692D01*
X28839344Y-17472093D01*
X28876254Y-17593769D01*
X28894597Y-17780000D01*
X28877899Y-17949534D01*
X28876254Y-17966232D01*
X28821932Y-18145308D01*
X28733718Y-18310345D01*
X28615001Y-18455001D01*
X28470345Y-18573718D01*
X28305308Y-18661932D01*
X28126232Y-18716254D01*
X28102971Y-18718545D01*
X27986670Y-18730000D01*
X27893330Y-18730000D01*
X27777029Y-18718545D01*
X27753768Y-18716254D01*
X27574692Y-18661932D01*
X27409655Y-18573718D01*
X27264999Y-18455001D01*
X27146282Y-18310345D01*
X27058068Y-18145308D01*
X27003746Y-17966232D01*
X27002101Y-17949534D01*
X26985403Y-17780000D01*
X27003746Y-17593769D01*
X27040656Y-17472093D01*
X27058068Y-17414692D01*
X27146282Y-17249655D01*
X27264999Y-17104999D01*
X27409655Y-16986282D01*
X27574692Y-16898068D01*
X27753768Y-16843746D01*
X27777029Y-16841455D01*
X27893330Y-16830000D01*
X27986670Y-16830000D01*
X28102971Y-16841455D01*
X28102971Y-16841455D01*
G37*
G36*
X5242971Y-16841455D02*
X5266232Y-16843746D01*
X5445308Y-16898068D01*
X5610345Y-16986282D01*
X5755001Y-17104999D01*
X5873718Y-17249655D01*
X5961932Y-17414692D01*
X5979344Y-17472093D01*
X6016254Y-17593769D01*
X6034597Y-17780000D01*
X6017899Y-17949534D01*
X6016254Y-17966232D01*
X5961932Y-18145308D01*
X5873718Y-18310345D01*
X5755001Y-18455001D01*
X5610345Y-18573718D01*
X5445308Y-18661932D01*
X5266232Y-18716254D01*
X5242971Y-18718545D01*
X5126670Y-18730000D01*
X5033330Y-18730000D01*
X4917029Y-18718545D01*
X4893768Y-18716254D01*
X4714692Y-18661932D01*
X4549655Y-18573718D01*
X4404999Y-18455001D01*
X4286282Y-18310345D01*
X4198068Y-18145308D01*
X4143746Y-17966232D01*
X4142101Y-17949534D01*
X4125403Y-17780000D01*
X4143746Y-17593769D01*
X4180656Y-17472093D01*
X4198068Y-17414692D01*
X4286282Y-17249655D01*
X4404999Y-17104999D01*
X4549655Y-16986282D01*
X4714692Y-16898068D01*
X4893768Y-16843746D01*
X4917029Y-16841455D01*
X5033330Y-16830000D01*
X5126670Y-16830000D01*
X5242971Y-16841455D01*
X5242971Y-16841455D01*
G37*
G36*
X9997936Y-15432665D02*
X9997938Y-15432666D01*
X9997939Y-15432666D01*
X10152626Y-15496740D01*
X10291844Y-15589762D01*
X10410238Y-15708156D01*
X10503260Y-15847374D01*
X10567335Y-16002064D01*
X10600000Y-16166282D01*
X10600000Y-16333718D01*
X10567335Y-16497936D01*
X10503260Y-16652626D01*
X10410238Y-16791844D01*
X10291844Y-16910238D01*
X10178034Y-16986283D01*
X10152626Y-17003260D01*
X9997939Y-17067334D01*
X9997938Y-17067334D01*
X9997936Y-17067335D01*
X9833718Y-17100000D01*
X9666282Y-17100000D01*
X9502064Y-17067335D01*
X9502062Y-17067334D01*
X9502061Y-17067334D01*
X9347374Y-17003260D01*
X9321966Y-16986283D01*
X9208156Y-16910238D01*
X9089762Y-16791844D01*
X8996740Y-16652626D01*
X8932665Y-16497936D01*
X8900000Y-16333718D01*
X8900000Y-16166282D01*
X8932665Y-16002064D01*
X8996740Y-15847374D01*
X9089762Y-15708156D01*
X9208156Y-15589762D01*
X9347374Y-15496740D01*
X9502061Y-15432666D01*
X9502062Y-15432666D01*
X9502064Y-15432665D01*
X9666282Y-15400000D01*
X9833718Y-15400000D01*
X9997936Y-15432665D01*
X9997936Y-15432665D01*
G37*
G36*
X30642971Y-14301455D02*
X30666232Y-14303746D01*
X30845308Y-14358068D01*
X31010345Y-14446282D01*
X31155001Y-14564999D01*
X31273718Y-14709655D01*
X31361932Y-14874692D01*
X31361932Y-14874693D01*
X31416254Y-15053769D01*
X31434597Y-15240000D01*
X31423686Y-15350773D01*
X31416254Y-15426232D01*
X31361932Y-15605308D01*
X31273718Y-15770345D01*
X31155001Y-15915001D01*
X31010345Y-16033718D01*
X30845308Y-16121932D01*
X30666232Y-16176254D01*
X30642971Y-16178545D01*
X30526670Y-16190000D01*
X30433330Y-16190000D01*
X30317029Y-16178545D01*
X30293768Y-16176254D01*
X30114692Y-16121932D01*
X29949655Y-16033718D01*
X29804999Y-15915001D01*
X29686282Y-15770345D01*
X29598068Y-15605308D01*
X29543746Y-15426232D01*
X29536314Y-15350773D01*
X29525403Y-15240000D01*
X29543746Y-15053769D01*
X29598068Y-14874693D01*
X29598068Y-14874692D01*
X29686282Y-14709655D01*
X29804999Y-14564999D01*
X29949655Y-14446282D01*
X30114692Y-14358068D01*
X30293768Y-14303746D01*
X30317029Y-14301455D01*
X30433330Y-14290000D01*
X30526670Y-14290000D01*
X30642971Y-14301455D01*
X30642971Y-14301455D01*
G37*
G36*
X28102971Y-14301455D02*
X28126232Y-14303746D01*
X28305308Y-14358068D01*
X28470345Y-14446282D01*
X28615001Y-14564999D01*
X28733718Y-14709655D01*
X28821932Y-14874692D01*
X28821932Y-14874693D01*
X28876254Y-15053769D01*
X28894597Y-15240000D01*
X28883686Y-15350773D01*
X28876254Y-15426232D01*
X28821932Y-15605308D01*
X28733718Y-15770345D01*
X28615001Y-15915001D01*
X28470345Y-16033718D01*
X28305308Y-16121932D01*
X28126232Y-16176254D01*
X28102971Y-16178545D01*
X27986670Y-16190000D01*
X27893330Y-16190000D01*
X27777029Y-16178545D01*
X27753768Y-16176254D01*
X27574692Y-16121932D01*
X27409655Y-16033718D01*
X27264999Y-15915001D01*
X27146282Y-15770345D01*
X27058068Y-15605308D01*
X27003746Y-15426232D01*
X26996314Y-15350773D01*
X26985403Y-15240000D01*
X27003746Y-15053769D01*
X27058068Y-14874693D01*
X27058068Y-14874692D01*
X27146282Y-14709655D01*
X27264999Y-14564999D01*
X27409655Y-14446282D01*
X27574692Y-14358068D01*
X27753768Y-14303746D01*
X27777029Y-14301455D01*
X27893330Y-14290000D01*
X27986670Y-14290000D01*
X28102971Y-14301455D01*
X28102971Y-14301455D01*
G37*
G36*
X5242971Y-14301455D02*
X5266232Y-14303746D01*
X5445308Y-14358068D01*
X5610345Y-14446282D01*
X5755001Y-14564999D01*
X5873718Y-14709655D01*
X5961932Y-14874692D01*
X5961932Y-14874693D01*
X6016254Y-15053769D01*
X6034597Y-15240000D01*
X6023686Y-15350773D01*
X6016254Y-15426232D01*
X5961932Y-15605308D01*
X5873718Y-15770345D01*
X5755001Y-15915001D01*
X5610345Y-16033718D01*
X5445308Y-16121932D01*
X5266232Y-16176254D01*
X5242971Y-16178545D01*
X5126670Y-16190000D01*
X5033330Y-16190000D01*
X4917029Y-16178545D01*
X4893768Y-16176254D01*
X4714692Y-16121932D01*
X4549655Y-16033718D01*
X4404999Y-15915001D01*
X4286282Y-15770345D01*
X4198068Y-15605308D01*
X4143746Y-15426232D01*
X4136314Y-15350773D01*
X4125403Y-15240000D01*
X4143746Y-15053769D01*
X4198068Y-14874693D01*
X4198068Y-14874692D01*
X4286282Y-14709655D01*
X4404999Y-14564999D01*
X4549655Y-14446282D01*
X4714692Y-14358068D01*
X4893768Y-14303746D01*
X4917029Y-14301455D01*
X5033330Y-14290000D01*
X5126670Y-14290000D01*
X5242971Y-14301455D01*
X5242971Y-14301455D01*
G37*
G36*
X2702971Y-14301455D02*
X2726232Y-14303746D01*
X2905308Y-14358068D01*
X3070345Y-14446282D01*
X3215001Y-14564999D01*
X3333718Y-14709655D01*
X3421932Y-14874692D01*
X3421932Y-14874693D01*
X3476254Y-15053769D01*
X3494597Y-15240000D01*
X3483686Y-15350773D01*
X3476254Y-15426232D01*
X3421932Y-15605308D01*
X3333718Y-15770345D01*
X3215001Y-15915001D01*
X3070345Y-16033718D01*
X2905308Y-16121932D01*
X2726232Y-16176254D01*
X2702971Y-16178545D01*
X2586670Y-16190000D01*
X2493330Y-16190000D01*
X2377029Y-16178545D01*
X2353768Y-16176254D01*
X2174692Y-16121932D01*
X2009655Y-16033718D01*
X1864999Y-15915001D01*
X1746282Y-15770345D01*
X1658068Y-15605308D01*
X1603746Y-15426232D01*
X1596314Y-15350773D01*
X1585403Y-15240000D01*
X1603746Y-15053769D01*
X1658068Y-14874693D01*
X1658068Y-14874692D01*
X1746282Y-14709655D01*
X1864999Y-14564999D01*
X2009655Y-14446282D01*
X2174692Y-14358068D01*
X2353768Y-14303746D01*
X2377029Y-14301455D01*
X2493330Y-14290000D01*
X2586670Y-14290000D01*
X2702971Y-14301455D01*
X2702971Y-14301455D01*
G37*
G36*
X5242971Y-11761455D02*
X5266232Y-11763746D01*
X5445308Y-11818068D01*
X5610345Y-11906282D01*
X5755001Y-12024999D01*
X5873718Y-12169655D01*
X5961932Y-12334692D01*
X6013496Y-12504677D01*
X6016254Y-12513769D01*
X6034597Y-12700000D01*
X6027825Y-12768750D01*
X6016254Y-12886232D01*
X5961932Y-13065308D01*
X5873718Y-13230345D01*
X5755001Y-13375001D01*
X5610345Y-13493718D01*
X5445308Y-13581932D01*
X5266232Y-13636254D01*
X5242971Y-13638545D01*
X5126670Y-13650000D01*
X5033330Y-13650000D01*
X4917029Y-13638545D01*
X4893768Y-13636254D01*
X4714692Y-13581932D01*
X4549655Y-13493718D01*
X4404999Y-13375001D01*
X4286282Y-13230345D01*
X4198068Y-13065308D01*
X4143746Y-12886232D01*
X4132175Y-12768750D01*
X4125403Y-12700000D01*
X4143746Y-12513769D01*
X4146504Y-12504677D01*
X4198068Y-12334692D01*
X4286282Y-12169655D01*
X4404999Y-12024999D01*
X4549655Y-11906282D01*
X4714692Y-11818068D01*
X4893768Y-11763746D01*
X4917029Y-11761455D01*
X5033330Y-11750000D01*
X5126670Y-11750000D01*
X5242971Y-11761455D01*
X5242971Y-11761455D01*
G37*
G36*
X2702971Y-11761455D02*
X2726232Y-11763746D01*
X2905308Y-11818068D01*
X3070345Y-11906282D01*
X3215001Y-12024999D01*
X3333718Y-12169655D01*
X3421932Y-12334692D01*
X3473496Y-12504677D01*
X3476254Y-12513769D01*
X3494597Y-12700000D01*
X3487825Y-12768750D01*
X3476254Y-12886232D01*
X3421932Y-13065308D01*
X3333718Y-13230345D01*
X3215001Y-13375001D01*
X3070345Y-13493718D01*
X2905308Y-13581932D01*
X2726232Y-13636254D01*
X2702971Y-13638545D01*
X2586670Y-13650000D01*
X2493330Y-13650000D01*
X2377029Y-13638545D01*
X2353768Y-13636254D01*
X2174692Y-13581932D01*
X2009655Y-13493718D01*
X1864999Y-13375001D01*
X1746282Y-13230345D01*
X1658068Y-13065308D01*
X1603746Y-12886232D01*
X1592175Y-12768750D01*
X1585403Y-12700000D01*
X1603746Y-12513769D01*
X1606504Y-12504677D01*
X1658068Y-12334692D01*
X1746282Y-12169655D01*
X1864999Y-12024999D01*
X2009655Y-11906282D01*
X2174692Y-11818068D01*
X2353768Y-11763746D01*
X2377029Y-11761455D01*
X2493330Y-11750000D01*
X2586670Y-11750000D01*
X2702971Y-11761455D01*
X2702971Y-11761455D01*
G37*
G36*
X28102971Y-11761455D02*
X28126232Y-11763746D01*
X28305308Y-11818068D01*
X28470345Y-11906282D01*
X28615001Y-12024999D01*
X28733718Y-12169655D01*
X28821932Y-12334692D01*
X28873496Y-12504677D01*
X28876254Y-12513769D01*
X28894597Y-12700000D01*
X28887825Y-12768750D01*
X28876254Y-12886232D01*
X28821932Y-13065308D01*
X28733718Y-13230345D01*
X28615001Y-13375001D01*
X28470345Y-13493718D01*
X28305308Y-13581932D01*
X28126232Y-13636254D01*
X28102971Y-13638545D01*
X27986670Y-13650000D01*
X27893330Y-13650000D01*
X27777029Y-13638545D01*
X27753768Y-13636254D01*
X27574692Y-13581932D01*
X27409655Y-13493718D01*
X27264999Y-13375001D01*
X27146282Y-13230345D01*
X27058068Y-13065308D01*
X27003746Y-12886232D01*
X26992175Y-12768750D01*
X26985403Y-12700000D01*
X27003746Y-12513769D01*
X27006504Y-12504677D01*
X27058068Y-12334692D01*
X27146282Y-12169655D01*
X27264999Y-12024999D01*
X27409655Y-11906282D01*
X27574692Y-11818068D01*
X27753768Y-11763746D01*
X27777029Y-11761455D01*
X27893330Y-11750000D01*
X27986670Y-11750000D01*
X28102971Y-11761455D01*
X28102971Y-11761455D01*
G37*
G36*
X30642971Y-11761455D02*
X30666232Y-11763746D01*
X30845308Y-11818068D01*
X31010345Y-11906282D01*
X31155001Y-12024999D01*
X31273718Y-12169655D01*
X31361932Y-12334692D01*
X31413496Y-12504677D01*
X31416254Y-12513769D01*
X31434597Y-12700000D01*
X31427825Y-12768750D01*
X31416254Y-12886232D01*
X31361932Y-13065308D01*
X31273718Y-13230345D01*
X31155001Y-13375001D01*
X31010345Y-13493718D01*
X30845308Y-13581932D01*
X30666232Y-13636254D01*
X30642971Y-13638545D01*
X30526670Y-13650000D01*
X30433330Y-13650000D01*
X30317029Y-13638545D01*
X30293768Y-13636254D01*
X30114692Y-13581932D01*
X29949655Y-13493718D01*
X29804999Y-13375001D01*
X29686282Y-13230345D01*
X29598068Y-13065308D01*
X29543746Y-12886232D01*
X29532175Y-12768750D01*
X29525403Y-12700000D01*
X29543746Y-12513769D01*
X29546504Y-12504677D01*
X29598068Y-12334692D01*
X29686282Y-12169655D01*
X29804999Y-12024999D01*
X29949655Y-11906282D01*
X30114692Y-11818068D01*
X30293768Y-11763746D01*
X30317029Y-11761455D01*
X30433330Y-11750000D01*
X30526670Y-11750000D01*
X30642971Y-11761455D01*
X30642971Y-11761455D01*
G37*
G36*
X19648830Y-12504677D02*
X19689776Y-12517098D01*
X19727510Y-12537267D01*
X19760587Y-12564413D01*
X19787733Y-12597490D01*
X19807902Y-12635224D01*
X19820323Y-12676170D01*
X19825000Y-12723658D01*
X19825000Y-13351342D01*
X19820323Y-13398830D01*
X19807902Y-13439776D01*
X19787733Y-13477510D01*
X19760587Y-13510587D01*
X19727510Y-13537733D01*
X19689776Y-13557902D01*
X19648830Y-13570323D01*
X19601342Y-13575000D01*
X18898658Y-13575000D01*
X18851170Y-13570323D01*
X18810224Y-13557902D01*
X18772490Y-13537733D01*
X18739413Y-13510587D01*
X18712267Y-13477510D01*
X18692098Y-13439776D01*
X18679677Y-13398830D01*
X18675000Y-13351342D01*
X18675000Y-12723658D01*
X18679677Y-12676170D01*
X18692098Y-12635224D01*
X18712267Y-12597490D01*
X18739413Y-12564413D01*
X18772490Y-12537267D01*
X18810224Y-12517098D01*
X18851170Y-12504677D01*
X18898658Y-12500000D01*
X19601342Y-12500000D01*
X19648830Y-12504677D01*
X19648830Y-12504677D01*
G37*
G36*
X21148830Y-12504677D02*
X21189776Y-12517098D01*
X21227510Y-12537267D01*
X21260587Y-12564413D01*
X21287733Y-12597490D01*
X21307902Y-12635224D01*
X21320323Y-12676170D01*
X21325000Y-12723658D01*
X21325000Y-13351342D01*
X21320323Y-13398830D01*
X21307902Y-13439776D01*
X21287733Y-13477510D01*
X21260587Y-13510587D01*
X21227510Y-13537733D01*
X21189776Y-13557902D01*
X21148830Y-13570323D01*
X21101342Y-13575000D01*
X20398658Y-13575000D01*
X20351170Y-13570323D01*
X20310224Y-13557902D01*
X20272490Y-13537733D01*
X20239413Y-13510587D01*
X20212267Y-13477510D01*
X20192098Y-13439776D01*
X20179677Y-13398830D01*
X20175000Y-13351342D01*
X20175000Y-12723658D01*
X20179677Y-12676170D01*
X20192098Y-12635224D01*
X20212267Y-12597490D01*
X20239413Y-12564413D01*
X20272490Y-12537267D01*
X20310224Y-12517098D01*
X20351170Y-12504677D01*
X20398658Y-12500000D01*
X21101342Y-12500000D01*
X21148830Y-12504677D01*
X21148830Y-12504677D01*
G37*
G36*
X18148830Y-12504677D02*
X18189776Y-12517098D01*
X18227510Y-12537267D01*
X18260587Y-12564413D01*
X18287733Y-12597490D01*
X18307902Y-12635224D01*
X18320323Y-12676170D01*
X18325000Y-12723658D01*
X18325000Y-13351342D01*
X18320323Y-13398830D01*
X18307902Y-13439776D01*
X18287733Y-13477510D01*
X18260587Y-13510587D01*
X18227510Y-13537733D01*
X18189776Y-13557902D01*
X18148830Y-13570323D01*
X18101342Y-13575000D01*
X17398658Y-13575000D01*
X17351170Y-13570323D01*
X17310224Y-13557902D01*
X17272490Y-13537733D01*
X17239413Y-13510587D01*
X17212267Y-13477510D01*
X17192098Y-13439776D01*
X17179677Y-13398830D01*
X17175000Y-13351342D01*
X17175000Y-12723658D01*
X17179677Y-12676170D01*
X17192098Y-12635224D01*
X17212267Y-12597490D01*
X17239413Y-12564413D01*
X17272490Y-12537267D01*
X17310224Y-12517098D01*
X17351170Y-12504677D01*
X17398658Y-12500000D01*
X18101342Y-12500000D01*
X18148830Y-12504677D01*
X18148830Y-12504677D01*
G37*
G36*
X9925011Y-11423057D02*
X9925013Y-11423058D01*
X9925014Y-11423058D01*
X10034207Y-11468287D01*
X10083509Y-11501230D01*
X10132476Y-11533948D01*
X10216052Y-11617524D01*
X10248770Y-11666491D01*
X10281713Y-11715793D01*
X10306793Y-11776342D01*
X10326943Y-11824989D01*
X10350000Y-11940903D01*
X10350000Y-12059097D01*
X10328009Y-12169654D01*
X10326942Y-12175014D01*
X10281713Y-12284207D01*
X10248770Y-12333509D01*
X10216052Y-12382476D01*
X10132476Y-12466052D01*
X10083509Y-12498770D01*
X10034207Y-12531713D01*
X9925014Y-12576942D01*
X9925013Y-12576942D01*
X9925011Y-12576943D01*
X9809097Y-12600000D01*
X9690903Y-12600000D01*
X9574989Y-12576943D01*
X9574987Y-12576942D01*
X9574986Y-12576942D01*
X9465793Y-12531713D01*
X9416491Y-12498770D01*
X9367524Y-12466052D01*
X9283948Y-12382476D01*
X9251230Y-12333509D01*
X9218287Y-12284207D01*
X9173058Y-12175014D01*
X9171992Y-12169654D01*
X9150000Y-12059097D01*
X9150000Y-11940903D01*
X9173057Y-11824989D01*
X9193207Y-11776342D01*
X9218287Y-11715793D01*
X9251230Y-11666491D01*
X9283948Y-11617524D01*
X9367524Y-11533948D01*
X9416491Y-11501230D01*
X9465793Y-11468287D01*
X9574986Y-11423058D01*
X9574987Y-11423058D01*
X9574989Y-11423057D01*
X9690903Y-11400000D01*
X9809097Y-11400000D01*
X9925011Y-11423057D01*
X9925011Y-11423057D01*
G37*
G36*
X8025011Y-11423057D02*
X8025013Y-11423058D01*
X8025014Y-11423058D01*
X8134207Y-11468287D01*
X8183509Y-11501230D01*
X8232476Y-11533948D01*
X8316052Y-11617524D01*
X8348770Y-11666491D01*
X8381713Y-11715793D01*
X8406793Y-11776342D01*
X8426943Y-11824989D01*
X8450000Y-11940903D01*
X8450000Y-12059097D01*
X8428009Y-12169654D01*
X8426942Y-12175014D01*
X8381713Y-12284207D01*
X8348770Y-12333509D01*
X8316052Y-12382476D01*
X8232476Y-12466052D01*
X8183509Y-12498770D01*
X8134207Y-12531713D01*
X8025014Y-12576942D01*
X8025013Y-12576942D01*
X8025011Y-12576943D01*
X7909097Y-12600000D01*
X7790903Y-12600000D01*
X7674989Y-12576943D01*
X7674987Y-12576942D01*
X7674986Y-12576942D01*
X7565793Y-12531713D01*
X7516491Y-12498770D01*
X7467524Y-12466052D01*
X7383948Y-12382476D01*
X7351230Y-12333509D01*
X7318287Y-12284207D01*
X7273058Y-12175014D01*
X7271992Y-12169654D01*
X7250000Y-12059097D01*
X7250000Y-11940903D01*
X7273057Y-11824989D01*
X7293207Y-11776342D01*
X7318287Y-11715793D01*
X7351230Y-11666491D01*
X7383948Y-11617524D01*
X7467524Y-11533948D01*
X7516491Y-11501230D01*
X7565793Y-11468287D01*
X7674986Y-11423058D01*
X7674987Y-11423058D01*
X7674989Y-11423057D01*
X7790903Y-11400000D01*
X7909097Y-11400000D01*
X8025011Y-11423057D01*
X8025011Y-11423057D01*
G37*
G36*
X18148830Y-10929677D02*
X18189776Y-10942098D01*
X18227510Y-10962267D01*
X18260587Y-10989413D01*
X18287733Y-11022490D01*
X18307902Y-11060224D01*
X18320323Y-11101170D01*
X18325000Y-11148658D01*
X18325000Y-11776342D01*
X18320323Y-11823830D01*
X18307902Y-11864776D01*
X18287733Y-11902510D01*
X18260587Y-11935587D01*
X18227510Y-11962733D01*
X18189776Y-11982902D01*
X18148830Y-11995323D01*
X18101342Y-12000000D01*
X17398658Y-12000000D01*
X17351170Y-11995323D01*
X17310224Y-11982902D01*
X17272490Y-11962733D01*
X17239413Y-11935587D01*
X17212267Y-11902510D01*
X17192098Y-11864776D01*
X17179677Y-11823830D01*
X17175000Y-11776342D01*
X17175000Y-11148658D01*
X17179677Y-11101170D01*
X17192098Y-11060224D01*
X17212267Y-11022490D01*
X17239413Y-10989413D01*
X17272490Y-10962267D01*
X17310224Y-10942098D01*
X17351170Y-10929677D01*
X17398658Y-10925000D01*
X18101342Y-10925000D01*
X18148830Y-10929677D01*
X18148830Y-10929677D01*
G37*
G36*
X21148830Y-10929677D02*
X21189776Y-10942098D01*
X21227510Y-10962267D01*
X21260587Y-10989413D01*
X21287733Y-11022490D01*
X21307902Y-11060224D01*
X21320323Y-11101170D01*
X21325000Y-11148658D01*
X21325000Y-11776342D01*
X21320323Y-11823830D01*
X21307902Y-11864776D01*
X21287733Y-11902510D01*
X21260587Y-11935587D01*
X21227510Y-11962733D01*
X21189776Y-11982902D01*
X21148830Y-11995323D01*
X21101342Y-12000000D01*
X20398658Y-12000000D01*
X20351170Y-11995323D01*
X20310224Y-11982902D01*
X20272490Y-11962733D01*
X20239413Y-11935587D01*
X20212267Y-11902510D01*
X20192098Y-11864776D01*
X20179677Y-11823830D01*
X20175000Y-11776342D01*
X20175000Y-11148658D01*
X20179677Y-11101170D01*
X20192098Y-11060224D01*
X20212267Y-11022490D01*
X20239413Y-10989413D01*
X20272490Y-10962267D01*
X20310224Y-10942098D01*
X20351170Y-10929677D01*
X20398658Y-10925000D01*
X21101342Y-10925000D01*
X21148830Y-10929677D01*
X21148830Y-10929677D01*
G37*
G36*
X19648830Y-10929677D02*
X19689776Y-10942098D01*
X19727510Y-10962267D01*
X19760587Y-10989413D01*
X19787733Y-11022490D01*
X19807902Y-11060224D01*
X19820323Y-11101170D01*
X19825000Y-11148658D01*
X19825000Y-11776342D01*
X19820323Y-11823830D01*
X19807902Y-11864776D01*
X19787733Y-11902510D01*
X19760587Y-11935587D01*
X19727510Y-11962733D01*
X19689776Y-11982902D01*
X19648830Y-11995323D01*
X19601342Y-12000000D01*
X18898658Y-12000000D01*
X18851170Y-11995323D01*
X18810224Y-11982902D01*
X18772490Y-11962733D01*
X18739413Y-11935587D01*
X18712267Y-11902510D01*
X18692098Y-11864776D01*
X18679677Y-11823830D01*
X18675000Y-11776342D01*
X18675000Y-11148658D01*
X18679677Y-11101170D01*
X18692098Y-11060224D01*
X18712267Y-11022490D01*
X18739413Y-10989413D01*
X18772490Y-10962267D01*
X18810224Y-10942098D01*
X18851170Y-10929677D01*
X18898658Y-10925000D01*
X19601342Y-10925000D01*
X19648830Y-10929677D01*
X19648830Y-10929677D01*
G37*
G36*
X28102971Y-9221455D02*
X28126232Y-9223746D01*
X28305308Y-9278068D01*
X28470345Y-9366282D01*
X28615001Y-9484999D01*
X28733718Y-9629655D01*
X28821932Y-9794692D01*
X28876254Y-9973768D01*
X28876254Y-9973769D01*
X28894597Y-10160000D01*
X28877899Y-10329534D01*
X28876254Y-10346232D01*
X28821932Y-10525308D01*
X28733718Y-10690345D01*
X28615001Y-10835001D01*
X28470345Y-10953718D01*
X28305308Y-11041932D01*
X28126232Y-11096254D01*
X28102971Y-11098545D01*
X27986670Y-11110000D01*
X27893330Y-11110000D01*
X27777029Y-11098545D01*
X27753768Y-11096254D01*
X27574692Y-11041932D01*
X27409655Y-10953718D01*
X27264999Y-10835001D01*
X27146282Y-10690345D01*
X27058068Y-10525308D01*
X27003746Y-10346232D01*
X27002101Y-10329534D01*
X26985403Y-10160000D01*
X27003746Y-9973769D01*
X27003746Y-9973768D01*
X27058068Y-9794692D01*
X27146282Y-9629655D01*
X27264999Y-9484999D01*
X27409655Y-9366282D01*
X27574692Y-9278068D01*
X27753768Y-9223746D01*
X27777029Y-9221455D01*
X27893330Y-9210000D01*
X27986670Y-9210000D01*
X28102971Y-9221455D01*
X28102971Y-9221455D01*
G37*
G36*
X5242971Y-9221455D02*
X5266232Y-9223746D01*
X5445308Y-9278068D01*
X5610345Y-9366282D01*
X5755001Y-9484999D01*
X5873718Y-9629655D01*
X5961932Y-9794692D01*
X6016254Y-9973768D01*
X6016254Y-9973769D01*
X6034597Y-10160000D01*
X6017899Y-10329534D01*
X6016254Y-10346232D01*
X5961932Y-10525308D01*
X5873718Y-10690345D01*
X5755001Y-10835001D01*
X5610345Y-10953718D01*
X5445308Y-11041932D01*
X5266232Y-11096254D01*
X5242971Y-11098545D01*
X5126670Y-11110000D01*
X5033330Y-11110000D01*
X4917029Y-11098545D01*
X4893768Y-11096254D01*
X4714692Y-11041932D01*
X4549655Y-10953718D01*
X4404999Y-10835001D01*
X4286282Y-10690345D01*
X4198068Y-10525308D01*
X4143746Y-10346232D01*
X4142101Y-10329534D01*
X4125403Y-10160000D01*
X4143746Y-9973769D01*
X4143746Y-9973768D01*
X4198068Y-9794692D01*
X4286282Y-9629655D01*
X4404999Y-9484999D01*
X4549655Y-9366282D01*
X4714692Y-9278068D01*
X4893768Y-9223746D01*
X4917029Y-9221455D01*
X5033330Y-9210000D01*
X5126670Y-9210000D01*
X5242971Y-9221455D01*
X5242971Y-9221455D01*
G37*
G36*
X2702971Y-9221455D02*
X2726232Y-9223746D01*
X2905308Y-9278068D01*
X3070345Y-9366282D01*
X3215001Y-9484999D01*
X3333718Y-9629655D01*
X3421932Y-9794692D01*
X3476254Y-9973768D01*
X3476254Y-9973769D01*
X3494597Y-10160000D01*
X3477899Y-10329534D01*
X3476254Y-10346232D01*
X3421932Y-10525308D01*
X3333718Y-10690345D01*
X3215001Y-10835001D01*
X3070345Y-10953718D01*
X2905308Y-11041932D01*
X2726232Y-11096254D01*
X2702971Y-11098545D01*
X2586670Y-11110000D01*
X2493330Y-11110000D01*
X2377029Y-11098545D01*
X2353768Y-11096254D01*
X2174692Y-11041932D01*
X2009655Y-10953718D01*
X1864999Y-10835001D01*
X1746282Y-10690345D01*
X1658068Y-10525308D01*
X1603746Y-10346232D01*
X1602101Y-10329534D01*
X1585403Y-10160000D01*
X1603746Y-9973769D01*
X1603746Y-9973768D01*
X1658068Y-9794692D01*
X1746282Y-9629655D01*
X1864999Y-9484999D01*
X2009655Y-9366282D01*
X2174692Y-9278068D01*
X2353768Y-9223746D01*
X2377029Y-9221455D01*
X2493330Y-9210000D01*
X2586670Y-9210000D01*
X2702971Y-9221455D01*
X2702971Y-9221455D01*
G37*
G36*
X30642971Y-9221455D02*
X30666232Y-9223746D01*
X30845308Y-9278068D01*
X31010345Y-9366282D01*
X31155001Y-9484999D01*
X31273718Y-9629655D01*
X31361932Y-9794692D01*
X31416254Y-9973768D01*
X31416254Y-9973769D01*
X31434597Y-10160000D01*
X31417899Y-10329534D01*
X31416254Y-10346232D01*
X31361932Y-10525308D01*
X31273718Y-10690345D01*
X31155001Y-10835001D01*
X31010345Y-10953718D01*
X30845308Y-11041932D01*
X30666232Y-11096254D01*
X30642971Y-11098545D01*
X30526670Y-11110000D01*
X30433330Y-11110000D01*
X30317029Y-11098545D01*
X30293768Y-11096254D01*
X30114692Y-11041932D01*
X29949655Y-10953718D01*
X29804999Y-10835001D01*
X29686282Y-10690345D01*
X29598068Y-10525308D01*
X29543746Y-10346232D01*
X29542101Y-10329534D01*
X29525403Y-10160000D01*
X29543746Y-9973769D01*
X29543746Y-9973768D01*
X29598068Y-9794692D01*
X29686282Y-9629655D01*
X29804999Y-9484999D01*
X29949655Y-9366282D01*
X30114692Y-9278068D01*
X30293768Y-9223746D01*
X30317029Y-9221455D01*
X30433330Y-9210000D01*
X30526670Y-9210000D01*
X30642971Y-9221455D01*
X30642971Y-9221455D01*
G37*
G36*
X18460000Y-10150000D02*
X14560000Y-10150000D01*
X14560000Y-7950000D01*
X18460000Y-7950000D01*
X18460000Y-10150000D01*
X18460000Y-10150000D01*
G37*
G36*
X22060000Y-9900000D02*
X19860000Y-9900000D01*
X19860000Y-8000000D01*
X22060000Y-8000000D01*
X22060000Y-9900000D01*
X22060000Y-9900000D01*
G37*
G36*
X13160000Y-9900000D02*
X10960000Y-9900000D01*
X10960000Y-8000000D01*
X13160000Y-8000000D01*
X13160000Y-9900000D01*
X13160000Y-9900000D01*
G37*
G36*
X5242971Y-6681455D02*
X5266232Y-6683746D01*
X5445308Y-6738068D01*
X5610345Y-6826282D01*
X5755001Y-6944999D01*
X5873718Y-7089655D01*
X5961932Y-7254692D01*
X5961932Y-7254693D01*
X6016254Y-7433769D01*
X6034597Y-7620000D01*
X6017899Y-7789534D01*
X6016254Y-7806232D01*
X5961932Y-7985308D01*
X5873718Y-8150345D01*
X5755001Y-8295001D01*
X5610345Y-8413718D01*
X5445308Y-8501932D01*
X5266232Y-8556254D01*
X5242971Y-8558545D01*
X5126670Y-8570000D01*
X5033330Y-8570000D01*
X4917029Y-8558545D01*
X4893768Y-8556254D01*
X4714692Y-8501932D01*
X4549655Y-8413718D01*
X4404999Y-8295001D01*
X4286282Y-8150345D01*
X4198068Y-7985308D01*
X4143746Y-7806232D01*
X4142101Y-7789534D01*
X4125403Y-7620000D01*
X4143746Y-7433769D01*
X4198068Y-7254693D01*
X4198068Y-7254692D01*
X4286282Y-7089655D01*
X4404999Y-6944999D01*
X4549655Y-6826282D01*
X4714692Y-6738068D01*
X4893768Y-6683746D01*
X4917029Y-6681455D01*
X5033330Y-6670000D01*
X5126670Y-6670000D01*
X5242971Y-6681455D01*
X5242971Y-6681455D01*
G37*
G36*
X2702971Y-6681455D02*
X2726232Y-6683746D01*
X2905308Y-6738068D01*
X3070345Y-6826282D01*
X3215001Y-6944999D01*
X3333718Y-7089655D01*
X3421932Y-7254692D01*
X3421932Y-7254693D01*
X3476254Y-7433769D01*
X3494597Y-7620000D01*
X3477899Y-7789534D01*
X3476254Y-7806232D01*
X3421932Y-7985308D01*
X3333718Y-8150345D01*
X3215001Y-8295001D01*
X3070345Y-8413718D01*
X2905308Y-8501932D01*
X2726232Y-8556254D01*
X2702971Y-8558545D01*
X2586670Y-8570000D01*
X2493330Y-8570000D01*
X2377029Y-8558545D01*
X2353768Y-8556254D01*
X2174692Y-8501932D01*
X2009655Y-8413718D01*
X1864999Y-8295001D01*
X1746282Y-8150345D01*
X1658068Y-7985308D01*
X1603746Y-7806232D01*
X1602101Y-7789534D01*
X1585403Y-7620000D01*
X1603746Y-7433769D01*
X1658068Y-7254693D01*
X1658068Y-7254692D01*
X1746282Y-7089655D01*
X1864999Y-6944999D01*
X2009655Y-6826282D01*
X2174692Y-6738068D01*
X2353768Y-6683746D01*
X2377029Y-6681455D01*
X2493330Y-6670000D01*
X2586670Y-6670000D01*
X2702971Y-6681455D01*
X2702971Y-6681455D01*
G37*
G36*
X30642971Y-6681455D02*
X30666232Y-6683746D01*
X30845308Y-6738068D01*
X31010345Y-6826282D01*
X31155001Y-6944999D01*
X31273718Y-7089655D01*
X31361932Y-7254692D01*
X31361932Y-7254693D01*
X31416254Y-7433769D01*
X31434597Y-7620000D01*
X31417899Y-7789534D01*
X31416254Y-7806232D01*
X31361932Y-7985308D01*
X31273718Y-8150345D01*
X31155001Y-8295001D01*
X31010345Y-8413718D01*
X30845308Y-8501932D01*
X30666232Y-8556254D01*
X30642971Y-8558545D01*
X30526670Y-8570000D01*
X30433330Y-8570000D01*
X30317029Y-8558545D01*
X30293768Y-8556254D01*
X30114692Y-8501932D01*
X29949655Y-8413718D01*
X29804999Y-8295001D01*
X29686282Y-8150345D01*
X29598068Y-7985308D01*
X29543746Y-7806232D01*
X29542101Y-7789534D01*
X29525403Y-7620000D01*
X29543746Y-7433769D01*
X29598068Y-7254693D01*
X29598068Y-7254692D01*
X29686282Y-7089655D01*
X29804999Y-6944999D01*
X29949655Y-6826282D01*
X30114692Y-6738068D01*
X30293768Y-6683746D01*
X30317029Y-6681455D01*
X30433330Y-6670000D01*
X30526670Y-6670000D01*
X30642971Y-6681455D01*
X30642971Y-6681455D01*
G37*
G36*
X28102971Y-6681455D02*
X28126232Y-6683746D01*
X28305308Y-6738068D01*
X28470345Y-6826282D01*
X28615001Y-6944999D01*
X28733718Y-7089655D01*
X28821932Y-7254692D01*
X28821932Y-7254693D01*
X28876254Y-7433769D01*
X28894597Y-7620000D01*
X28877899Y-7789534D01*
X28876254Y-7806232D01*
X28821932Y-7985308D01*
X28733718Y-8150345D01*
X28615001Y-8295001D01*
X28470345Y-8413718D01*
X28305308Y-8501932D01*
X28126232Y-8556254D01*
X28102971Y-8558545D01*
X27986670Y-8570000D01*
X27893330Y-8570000D01*
X27777029Y-8558545D01*
X27753768Y-8556254D01*
X27574692Y-8501932D01*
X27409655Y-8413718D01*
X27264999Y-8295001D01*
X27146282Y-8150345D01*
X27058068Y-7985308D01*
X27003746Y-7806232D01*
X27002101Y-7789534D01*
X26985403Y-7620000D01*
X27003746Y-7433769D01*
X27058068Y-7254693D01*
X27058068Y-7254692D01*
X27146282Y-7089655D01*
X27264999Y-6944999D01*
X27409655Y-6826282D01*
X27574692Y-6738068D01*
X27753768Y-6683746D01*
X27777029Y-6681455D01*
X27893330Y-6670000D01*
X27986670Y-6670000D01*
X28102971Y-6681455D01*
X28102971Y-6681455D01*
G37*
G36*
X18885011Y-5773057D02*
X18885013Y-5773058D01*
X18885014Y-5773058D01*
X18994207Y-5818287D01*
X19043509Y-5851230D01*
X19092476Y-5883948D01*
X19176052Y-5967524D01*
X19208612Y-6016254D01*
X19241713Y-6065793D01*
X19286942Y-6174986D01*
X19310000Y-6290905D01*
X19310000Y-6409095D01*
X19286942Y-6525014D01*
X19241713Y-6634207D01*
X19217797Y-6670000D01*
X19176052Y-6732476D01*
X19092476Y-6816052D01*
X19043509Y-6848770D01*
X18994207Y-6881713D01*
X18885014Y-6926942D01*
X18885013Y-6926942D01*
X18885011Y-6926943D01*
X18769097Y-6950000D01*
X18650903Y-6950000D01*
X18534989Y-6926943D01*
X18534987Y-6926942D01*
X18534986Y-6926942D01*
X18425793Y-6881713D01*
X18376491Y-6848770D01*
X18327524Y-6816052D01*
X18243948Y-6732476D01*
X18202203Y-6670000D01*
X18178287Y-6634207D01*
X18133058Y-6525014D01*
X18110000Y-6409095D01*
X18110000Y-6290905D01*
X18133058Y-6174986D01*
X18178287Y-6065793D01*
X18211388Y-6016254D01*
X18243948Y-5967524D01*
X18327524Y-5883948D01*
X18376491Y-5851230D01*
X18425793Y-5818287D01*
X18534986Y-5773058D01*
X18534987Y-5773058D01*
X18534989Y-5773057D01*
X18650903Y-5750000D01*
X18769097Y-5750000D01*
X18885011Y-5773057D01*
X18885011Y-5773057D01*
G37*
G36*
X14485011Y-5773057D02*
X14485013Y-5773058D01*
X14485014Y-5773058D01*
X14594207Y-5818287D01*
X14643509Y-5851230D01*
X14692476Y-5883948D01*
X14776052Y-5967524D01*
X14808612Y-6016254D01*
X14841713Y-6065793D01*
X14886942Y-6174986D01*
X14910000Y-6290905D01*
X14910000Y-6409095D01*
X14886942Y-6525014D01*
X14841713Y-6634207D01*
X14817797Y-6670000D01*
X14776052Y-6732476D01*
X14692476Y-6816052D01*
X14643509Y-6848770D01*
X14594207Y-6881713D01*
X14485014Y-6926942D01*
X14485013Y-6926942D01*
X14485011Y-6926943D01*
X14369097Y-6950000D01*
X14250903Y-6950000D01*
X14134989Y-6926943D01*
X14134987Y-6926942D01*
X14134986Y-6926942D01*
X14025793Y-6881713D01*
X13976491Y-6848770D01*
X13927524Y-6816052D01*
X13843948Y-6732476D01*
X13802203Y-6670000D01*
X13778287Y-6634207D01*
X13733058Y-6525014D01*
X13710000Y-6409095D01*
X13710000Y-6290905D01*
X13733058Y-6174986D01*
X13778287Y-6065793D01*
X13811388Y-6016254D01*
X13843948Y-5967524D01*
X13927524Y-5883948D01*
X13976491Y-5851230D01*
X14025793Y-5818287D01*
X14134986Y-5773058D01*
X14134987Y-5773058D01*
X14134989Y-5773057D01*
X14250903Y-5750000D01*
X14369097Y-5750000D01*
X14485011Y-5773057D01*
X14485011Y-5773057D01*
G37*
G36*
X5242971Y-4141455D02*
X5266232Y-4143746D01*
X5445308Y-4198068D01*
X5610345Y-4286282D01*
X5755001Y-4404999D01*
X5873718Y-4549655D01*
X5961932Y-4714692D01*
X5961932Y-4714693D01*
X6016254Y-4893769D01*
X6034597Y-5080000D01*
X6017899Y-5249534D01*
X6016254Y-5266232D01*
X5961932Y-5445308D01*
X5873718Y-5610345D01*
X5755001Y-5755001D01*
X5610345Y-5873718D01*
X5445308Y-5961932D01*
X5266232Y-6016254D01*
X5242971Y-6018545D01*
X5126670Y-6030000D01*
X5033330Y-6030000D01*
X4917029Y-6018545D01*
X4893768Y-6016254D01*
X4714692Y-5961932D01*
X4549655Y-5873718D01*
X4404999Y-5755001D01*
X4286282Y-5610345D01*
X4198068Y-5445308D01*
X4143746Y-5266232D01*
X4142101Y-5249534D01*
X4125403Y-5080000D01*
X4143746Y-4893769D01*
X4198068Y-4714693D01*
X4198068Y-4714692D01*
X4286282Y-4549655D01*
X4404999Y-4404999D01*
X4549655Y-4286282D01*
X4714692Y-4198068D01*
X4893768Y-4143746D01*
X4917029Y-4141455D01*
X5033330Y-4130000D01*
X5126670Y-4130000D01*
X5242971Y-4141455D01*
X5242971Y-4141455D01*
G37*
G36*
X3490000Y-6030000D02*
X1590000Y-6030000D01*
X1590000Y-4130000D01*
X3490000Y-4130000D01*
X3490000Y-6030000D01*
X3490000Y-6030000D01*
G37*
G36*
X28890000Y-6030000D02*
X26990000Y-6030000D01*
X26990000Y-4130000D01*
X28890000Y-4130000D01*
X28890000Y-6030000D01*
X28890000Y-6030000D01*
G37*
G36*
X30642971Y-4141455D02*
X30666232Y-4143746D01*
X30845308Y-4198068D01*
X31010345Y-4286282D01*
X31155001Y-4404999D01*
X31273718Y-4549655D01*
X31361932Y-4714692D01*
X31361932Y-4714693D01*
X31416254Y-4893769D01*
X31434597Y-5080000D01*
X31417899Y-5249534D01*
X31416254Y-5266232D01*
X31361932Y-5445308D01*
X31273718Y-5610345D01*
X31155001Y-5755001D01*
X31010345Y-5873718D01*
X30845308Y-5961932D01*
X30666232Y-6016254D01*
X30642971Y-6018545D01*
X30526670Y-6030000D01*
X30433330Y-6030000D01*
X30317029Y-6018545D01*
X30293768Y-6016254D01*
X30114692Y-5961932D01*
X29949655Y-5873718D01*
X29804999Y-5755001D01*
X29686282Y-5610345D01*
X29598068Y-5445308D01*
X29543746Y-5266232D01*
X29542101Y-5249534D01*
X29525403Y-5080000D01*
X29543746Y-4893769D01*
X29598068Y-4714693D01*
X29598068Y-4714692D01*
X29686282Y-4549655D01*
X29804999Y-4404999D01*
X29949655Y-4286282D01*
X30114692Y-4198068D01*
X30293768Y-4143746D01*
X30317029Y-4141455D01*
X30433330Y-4130000D01*
X30526670Y-4130000D01*
X30642971Y-4141455D01*
X30642971Y-4141455D01*
G37*
G36*
X22060000Y-4450000D02*
X19860000Y-4450000D01*
X19860000Y-2550000D01*
X22060000Y-2550000D01*
X22060000Y-4450000D01*
X22060000Y-4450000D01*
G37*
G36*
X13160000Y-4450000D02*
X10960000Y-4450000D01*
X10960000Y-2550000D01*
X13160000Y-2550000D01*
X13160000Y-4450000D01*
X13160000Y-4450000D01*
G37*
M02*
