M48
;DRILL file {KiCad 5.0.2+dfsg1-1} date Пт 01 фев 2019 15:12:57
;FORMAT={-:-/ absolute / metric / decimal}
FMAT,2
METRIC,TZ
T1C0.300
T2C0.500
T3C0.800
T4C1.000
%
G90
G05
T1
X9.2Y-17.6
X9.25Y-28.45
X10.5Y-27.25
X12.55Y-32.75
X13.Y-20.05
X13.85Y-14.7
X13.85Y-16.6
X15.4Y-11.6
X15.7Y-7.15
X16.Y-18.75
X16.5Y-12.5
X16.526Y-13.674
X16.65Y-18.05
X16.7Y-32.95
X18.Y-23.3
X18.7Y-25.65
X18.95Y-9.05
X19.65Y-14.25
X19.8Y-26.55
X20.99Y-18.91
X21.Y-18.
X21.1Y-14.2
X21.7Y-26.9
X22.29Y-20.55
X23.5Y-26.9
X24.Y-13.
X24.15Y-22.8
X24.65Y-8.95
X25.25Y-20.8
X25.25Y-21.8
X25.9Y-19.75
T2
X7.85Y-12.
X9.75Y-12.
T3
X9.75Y-16.25
X9.75Y-21.15
T4
X12.7Y-38.1
X15.24Y-38.1
X17.78Y-38.1
X20.32Y-38.1
X22.86Y-38.1
X2.54Y-5.08
X2.54Y-7.62
X2.54Y-10.16
X2.54Y-12.7
X2.54Y-15.24
X2.54Y-17.78
X2.54Y-20.32
X2.54Y-22.86
X2.54Y-25.4
X2.54Y-27.94
X2.54Y-30.48
X2.54Y-33.02
X5.08Y-5.08
X5.08Y-7.62
X5.08Y-10.16
X5.08Y-12.7
X5.08Y-15.24
X5.08Y-17.78
X5.08Y-20.32
X5.08Y-22.86
X5.08Y-25.4
X5.08Y-27.94
X5.08Y-30.48
X5.08Y-33.02
X27.94Y-5.08
X27.94Y-7.62
X27.94Y-10.16
X27.94Y-12.7
X27.94Y-15.24
X27.94Y-17.78
X27.94Y-20.32
X27.94Y-22.86
X27.94Y-25.4
X27.94Y-27.94
X27.94Y-30.48
X27.94Y-33.02
X30.48Y-5.08
X30.48Y-7.62
X30.48Y-10.16
X30.48Y-12.7
X30.48Y-15.24
X30.48Y-17.78
X30.48Y-20.32
X30.48Y-22.86
X30.48Y-25.4
X30.48Y-27.94
X30.48Y-30.48
X30.48Y-33.02
X2.54Y-38.1
X5.08Y-38.1
T0
M30
