G04 #@! TF.GenerationSoftware,KiCad,Pcbnew,5.0.2+dfsg1-1*
G04 #@! TF.CreationDate,2019-02-01T15:12:52+03:00*
G04 #@! TF.ProjectId,stm32_48pin,73746d33-325f-4343-9870-696e2e6b6963,rev?*
G04 #@! TF.SameCoordinates,PX14fb180PY2625a00*
G04 #@! TF.FileFunction,Copper,L2,Bot*
G04 #@! TF.FilePolarity,Positive*
%FSLAX46Y46*%
G04 Gerber Fmt 4.6, Leading zero omitted, Abs format (unit mm)*
G04 Created by KiCad (PCBNEW 5.0.2+dfsg1-1) date Пт 01 фев 2019 15:12:52*
%MOMM*%
%LPD*%
G01*
G04 APERTURE LIST*
G04 #@! TA.AperFunction,Conductor*
%ADD10C,0.100000*%
G04 #@! TD*
G04 #@! TA.AperFunction,SMDPad,CuDef*
%ADD11C,0.875000*%
G04 #@! TD*
G04 #@! TA.AperFunction,ComponentPad*
%ADD12R,1.700000X1.700000*%
G04 #@! TD*
G04 #@! TA.AperFunction,ComponentPad*
%ADD13O,1.700000X1.700000*%
G04 #@! TD*
G04 #@! TA.AperFunction,SMDPad,CuDef*
%ADD14C,0.300000*%
G04 #@! TD*
G04 #@! TA.AperFunction,ComponentPad*
%ADD15C,1.000000*%
G04 #@! TD*
G04 #@! TA.AperFunction,ComponentPad*
%ADD16C,1.500000*%
G04 #@! TD*
G04 #@! TA.AperFunction,ViaPad*
%ADD17C,0.700000*%
G04 #@! TD*
G04 #@! TA.AperFunction,Conductor*
%ADD18C,0.200000*%
G04 #@! TD*
G04 #@! TA.AperFunction,Conductor*
%ADD19C,0.400000*%
G04 #@! TD*
G04 APERTURE END LIST*
D10*
G04 #@! TO.N,GND*
G04 #@! TO.C,C2*
G36*
X13277691Y-10776053D02*
X13298926Y-10779203D01*
X13319750Y-10784419D01*
X13339962Y-10791651D01*
X13359368Y-10800830D01*
X13377781Y-10811866D01*
X13395024Y-10824654D01*
X13410930Y-10839070D01*
X13425346Y-10854976D01*
X13438134Y-10872219D01*
X13449170Y-10890632D01*
X13458349Y-10910038D01*
X13465581Y-10930250D01*
X13470797Y-10951074D01*
X13473947Y-10972309D01*
X13475000Y-10993750D01*
X13475000Y-11431250D01*
X13473947Y-11452691D01*
X13470797Y-11473926D01*
X13465581Y-11494750D01*
X13458349Y-11514962D01*
X13449170Y-11534368D01*
X13438134Y-11552781D01*
X13425346Y-11570024D01*
X13410930Y-11585930D01*
X13395024Y-11600346D01*
X13377781Y-11613134D01*
X13359368Y-11624170D01*
X13339962Y-11633349D01*
X13319750Y-11640581D01*
X13298926Y-11645797D01*
X13277691Y-11648947D01*
X13256250Y-11650000D01*
X12743750Y-11650000D01*
X12722309Y-11648947D01*
X12701074Y-11645797D01*
X12680250Y-11640581D01*
X12660038Y-11633349D01*
X12640632Y-11624170D01*
X12622219Y-11613134D01*
X12604976Y-11600346D01*
X12589070Y-11585930D01*
X12574654Y-11570024D01*
X12561866Y-11552781D01*
X12550830Y-11534368D01*
X12541651Y-11514962D01*
X12534419Y-11494750D01*
X12529203Y-11473926D01*
X12526053Y-11452691D01*
X12525000Y-11431250D01*
X12525000Y-10993750D01*
X12526053Y-10972309D01*
X12529203Y-10951074D01*
X12534419Y-10930250D01*
X12541651Y-10910038D01*
X12550830Y-10890632D01*
X12561866Y-10872219D01*
X12574654Y-10854976D01*
X12589070Y-10839070D01*
X12604976Y-10824654D01*
X12622219Y-10811866D01*
X12640632Y-10800830D01*
X12660038Y-10791651D01*
X12680250Y-10784419D01*
X12701074Y-10779203D01*
X12722309Y-10776053D01*
X12743750Y-10775000D01*
X13256250Y-10775000D01*
X13277691Y-10776053D01*
X13277691Y-10776053D01*
G37*
D11*
G04 #@! TD*
G04 #@! TO.P,C2,2*
G04 #@! TO.N,GND*
X13000000Y-11212500D03*
D10*
G04 #@! TO.N,/osc32k_in*
G04 #@! TO.C,C2*
G36*
X13277691Y-12351053D02*
X13298926Y-12354203D01*
X13319750Y-12359419D01*
X13339962Y-12366651D01*
X13359368Y-12375830D01*
X13377781Y-12386866D01*
X13395024Y-12399654D01*
X13410930Y-12414070D01*
X13425346Y-12429976D01*
X13438134Y-12447219D01*
X13449170Y-12465632D01*
X13458349Y-12485038D01*
X13465581Y-12505250D01*
X13470797Y-12526074D01*
X13473947Y-12547309D01*
X13475000Y-12568750D01*
X13475000Y-13006250D01*
X13473947Y-13027691D01*
X13470797Y-13048926D01*
X13465581Y-13069750D01*
X13458349Y-13089962D01*
X13449170Y-13109368D01*
X13438134Y-13127781D01*
X13425346Y-13145024D01*
X13410930Y-13160930D01*
X13395024Y-13175346D01*
X13377781Y-13188134D01*
X13359368Y-13199170D01*
X13339962Y-13208349D01*
X13319750Y-13215581D01*
X13298926Y-13220797D01*
X13277691Y-13223947D01*
X13256250Y-13225000D01*
X12743750Y-13225000D01*
X12722309Y-13223947D01*
X12701074Y-13220797D01*
X12680250Y-13215581D01*
X12660038Y-13208349D01*
X12640632Y-13199170D01*
X12622219Y-13188134D01*
X12604976Y-13175346D01*
X12589070Y-13160930D01*
X12574654Y-13145024D01*
X12561866Y-13127781D01*
X12550830Y-13109368D01*
X12541651Y-13089962D01*
X12534419Y-13069750D01*
X12529203Y-13048926D01*
X12526053Y-13027691D01*
X12525000Y-13006250D01*
X12525000Y-12568750D01*
X12526053Y-12547309D01*
X12529203Y-12526074D01*
X12534419Y-12505250D01*
X12541651Y-12485038D01*
X12550830Y-12465632D01*
X12561866Y-12447219D01*
X12574654Y-12429976D01*
X12589070Y-12414070D01*
X12604976Y-12399654D01*
X12622219Y-12386866D01*
X12640632Y-12375830D01*
X12660038Y-12366651D01*
X12680250Y-12359419D01*
X12701074Y-12354203D01*
X12722309Y-12351053D01*
X12743750Y-12350000D01*
X13256250Y-12350000D01*
X13277691Y-12351053D01*
X13277691Y-12351053D01*
G37*
D11*
G04 #@! TD*
G04 #@! TO.P,C2,1*
G04 #@! TO.N,/osc32k_in*
X13000000Y-12787500D03*
D10*
G04 #@! TO.N,/osc32k_out*
G04 #@! TO.C,C3*
G36*
X11777691Y-12351053D02*
X11798926Y-12354203D01*
X11819750Y-12359419D01*
X11839962Y-12366651D01*
X11859368Y-12375830D01*
X11877781Y-12386866D01*
X11895024Y-12399654D01*
X11910930Y-12414070D01*
X11925346Y-12429976D01*
X11938134Y-12447219D01*
X11949170Y-12465632D01*
X11958349Y-12485038D01*
X11965581Y-12505250D01*
X11970797Y-12526074D01*
X11973947Y-12547309D01*
X11975000Y-12568750D01*
X11975000Y-13006250D01*
X11973947Y-13027691D01*
X11970797Y-13048926D01*
X11965581Y-13069750D01*
X11958349Y-13089962D01*
X11949170Y-13109368D01*
X11938134Y-13127781D01*
X11925346Y-13145024D01*
X11910930Y-13160930D01*
X11895024Y-13175346D01*
X11877781Y-13188134D01*
X11859368Y-13199170D01*
X11839962Y-13208349D01*
X11819750Y-13215581D01*
X11798926Y-13220797D01*
X11777691Y-13223947D01*
X11756250Y-13225000D01*
X11243750Y-13225000D01*
X11222309Y-13223947D01*
X11201074Y-13220797D01*
X11180250Y-13215581D01*
X11160038Y-13208349D01*
X11140632Y-13199170D01*
X11122219Y-13188134D01*
X11104976Y-13175346D01*
X11089070Y-13160930D01*
X11074654Y-13145024D01*
X11061866Y-13127781D01*
X11050830Y-13109368D01*
X11041651Y-13089962D01*
X11034419Y-13069750D01*
X11029203Y-13048926D01*
X11026053Y-13027691D01*
X11025000Y-13006250D01*
X11025000Y-12568750D01*
X11026053Y-12547309D01*
X11029203Y-12526074D01*
X11034419Y-12505250D01*
X11041651Y-12485038D01*
X11050830Y-12465632D01*
X11061866Y-12447219D01*
X11074654Y-12429976D01*
X11089070Y-12414070D01*
X11104976Y-12399654D01*
X11122219Y-12386866D01*
X11140632Y-12375830D01*
X11160038Y-12366651D01*
X11180250Y-12359419D01*
X11201074Y-12354203D01*
X11222309Y-12351053D01*
X11243750Y-12350000D01*
X11756250Y-12350000D01*
X11777691Y-12351053D01*
X11777691Y-12351053D01*
G37*
D11*
G04 #@! TD*
G04 #@! TO.P,C3,1*
G04 #@! TO.N,/osc32k_out*
X11500000Y-12787500D03*
D10*
G04 #@! TO.N,GND*
G04 #@! TO.C,C3*
G36*
X11777691Y-10776053D02*
X11798926Y-10779203D01*
X11819750Y-10784419D01*
X11839962Y-10791651D01*
X11859368Y-10800830D01*
X11877781Y-10811866D01*
X11895024Y-10824654D01*
X11910930Y-10839070D01*
X11925346Y-10854976D01*
X11938134Y-10872219D01*
X11949170Y-10890632D01*
X11958349Y-10910038D01*
X11965581Y-10930250D01*
X11970797Y-10951074D01*
X11973947Y-10972309D01*
X11975000Y-10993750D01*
X11975000Y-11431250D01*
X11973947Y-11452691D01*
X11970797Y-11473926D01*
X11965581Y-11494750D01*
X11958349Y-11514962D01*
X11949170Y-11534368D01*
X11938134Y-11552781D01*
X11925346Y-11570024D01*
X11910930Y-11585930D01*
X11895024Y-11600346D01*
X11877781Y-11613134D01*
X11859368Y-11624170D01*
X11839962Y-11633349D01*
X11819750Y-11640581D01*
X11798926Y-11645797D01*
X11777691Y-11648947D01*
X11756250Y-11650000D01*
X11243750Y-11650000D01*
X11222309Y-11648947D01*
X11201074Y-11645797D01*
X11180250Y-11640581D01*
X11160038Y-11633349D01*
X11140632Y-11624170D01*
X11122219Y-11613134D01*
X11104976Y-11600346D01*
X11089070Y-11585930D01*
X11074654Y-11570024D01*
X11061866Y-11552781D01*
X11050830Y-11534368D01*
X11041651Y-11514962D01*
X11034419Y-11494750D01*
X11029203Y-11473926D01*
X11026053Y-11452691D01*
X11025000Y-11431250D01*
X11025000Y-10993750D01*
X11026053Y-10972309D01*
X11029203Y-10951074D01*
X11034419Y-10930250D01*
X11041651Y-10910038D01*
X11050830Y-10890632D01*
X11061866Y-10872219D01*
X11074654Y-10854976D01*
X11089070Y-10839070D01*
X11104976Y-10824654D01*
X11122219Y-10811866D01*
X11140632Y-10800830D01*
X11160038Y-10791651D01*
X11180250Y-10784419D01*
X11201074Y-10779203D01*
X11222309Y-10776053D01*
X11243750Y-10775000D01*
X11756250Y-10775000D01*
X11777691Y-10776053D01*
X11777691Y-10776053D01*
G37*
D11*
G04 #@! TD*
G04 #@! TO.P,C3,2*
G04 #@! TO.N,GND*
X11500000Y-11212500D03*
D10*
G04 #@! TO.N,/osc_in*
G04 #@! TO.C,C4*
G36*
X11777691Y-15776053D02*
X11798926Y-15779203D01*
X11819750Y-15784419D01*
X11839962Y-15791651D01*
X11859368Y-15800830D01*
X11877781Y-15811866D01*
X11895024Y-15824654D01*
X11910930Y-15839070D01*
X11925346Y-15854976D01*
X11938134Y-15872219D01*
X11949170Y-15890632D01*
X11958349Y-15910038D01*
X11965581Y-15930250D01*
X11970797Y-15951074D01*
X11973947Y-15972309D01*
X11975000Y-15993750D01*
X11975000Y-16431250D01*
X11973947Y-16452691D01*
X11970797Y-16473926D01*
X11965581Y-16494750D01*
X11958349Y-16514962D01*
X11949170Y-16534368D01*
X11938134Y-16552781D01*
X11925346Y-16570024D01*
X11910930Y-16585930D01*
X11895024Y-16600346D01*
X11877781Y-16613134D01*
X11859368Y-16624170D01*
X11839962Y-16633349D01*
X11819750Y-16640581D01*
X11798926Y-16645797D01*
X11777691Y-16648947D01*
X11756250Y-16650000D01*
X11243750Y-16650000D01*
X11222309Y-16648947D01*
X11201074Y-16645797D01*
X11180250Y-16640581D01*
X11160038Y-16633349D01*
X11140632Y-16624170D01*
X11122219Y-16613134D01*
X11104976Y-16600346D01*
X11089070Y-16585930D01*
X11074654Y-16570024D01*
X11061866Y-16552781D01*
X11050830Y-16534368D01*
X11041651Y-16514962D01*
X11034419Y-16494750D01*
X11029203Y-16473926D01*
X11026053Y-16452691D01*
X11025000Y-16431250D01*
X11025000Y-15993750D01*
X11026053Y-15972309D01*
X11029203Y-15951074D01*
X11034419Y-15930250D01*
X11041651Y-15910038D01*
X11050830Y-15890632D01*
X11061866Y-15872219D01*
X11074654Y-15854976D01*
X11089070Y-15839070D01*
X11104976Y-15824654D01*
X11122219Y-15811866D01*
X11140632Y-15800830D01*
X11160038Y-15791651D01*
X11180250Y-15784419D01*
X11201074Y-15779203D01*
X11222309Y-15776053D01*
X11243750Y-15775000D01*
X11756250Y-15775000D01*
X11777691Y-15776053D01*
X11777691Y-15776053D01*
G37*
D11*
G04 #@! TD*
G04 #@! TO.P,C4,1*
G04 #@! TO.N,/osc_in*
X11500000Y-16212500D03*
D10*
G04 #@! TO.N,GND*
G04 #@! TO.C,C4*
G36*
X11777691Y-17351053D02*
X11798926Y-17354203D01*
X11819750Y-17359419D01*
X11839962Y-17366651D01*
X11859368Y-17375830D01*
X11877781Y-17386866D01*
X11895024Y-17399654D01*
X11910930Y-17414070D01*
X11925346Y-17429976D01*
X11938134Y-17447219D01*
X11949170Y-17465632D01*
X11958349Y-17485038D01*
X11965581Y-17505250D01*
X11970797Y-17526074D01*
X11973947Y-17547309D01*
X11975000Y-17568750D01*
X11975000Y-18006250D01*
X11973947Y-18027691D01*
X11970797Y-18048926D01*
X11965581Y-18069750D01*
X11958349Y-18089962D01*
X11949170Y-18109368D01*
X11938134Y-18127781D01*
X11925346Y-18145024D01*
X11910930Y-18160930D01*
X11895024Y-18175346D01*
X11877781Y-18188134D01*
X11859368Y-18199170D01*
X11839962Y-18208349D01*
X11819750Y-18215581D01*
X11798926Y-18220797D01*
X11777691Y-18223947D01*
X11756250Y-18225000D01*
X11243750Y-18225000D01*
X11222309Y-18223947D01*
X11201074Y-18220797D01*
X11180250Y-18215581D01*
X11160038Y-18208349D01*
X11140632Y-18199170D01*
X11122219Y-18188134D01*
X11104976Y-18175346D01*
X11089070Y-18160930D01*
X11074654Y-18145024D01*
X11061866Y-18127781D01*
X11050830Y-18109368D01*
X11041651Y-18089962D01*
X11034419Y-18069750D01*
X11029203Y-18048926D01*
X11026053Y-18027691D01*
X11025000Y-18006250D01*
X11025000Y-17568750D01*
X11026053Y-17547309D01*
X11029203Y-17526074D01*
X11034419Y-17505250D01*
X11041651Y-17485038D01*
X11050830Y-17465632D01*
X11061866Y-17447219D01*
X11074654Y-17429976D01*
X11089070Y-17414070D01*
X11104976Y-17399654D01*
X11122219Y-17386866D01*
X11140632Y-17375830D01*
X11160038Y-17366651D01*
X11180250Y-17359419D01*
X11201074Y-17354203D01*
X11222309Y-17351053D01*
X11243750Y-17350000D01*
X11756250Y-17350000D01*
X11777691Y-17351053D01*
X11777691Y-17351053D01*
G37*
D11*
G04 #@! TD*
G04 #@! TO.P,C4,2*
G04 #@! TO.N,GND*
X11500000Y-17787500D03*
D10*
G04 #@! TO.N,/osc_out*
G04 #@! TO.C,C5*
G36*
X11777691Y-20701053D02*
X11798926Y-20704203D01*
X11819750Y-20709419D01*
X11839962Y-20716651D01*
X11859368Y-20725830D01*
X11877781Y-20736866D01*
X11895024Y-20749654D01*
X11910930Y-20764070D01*
X11925346Y-20779976D01*
X11938134Y-20797219D01*
X11949170Y-20815632D01*
X11958349Y-20835038D01*
X11965581Y-20855250D01*
X11970797Y-20876074D01*
X11973947Y-20897309D01*
X11975000Y-20918750D01*
X11975000Y-21356250D01*
X11973947Y-21377691D01*
X11970797Y-21398926D01*
X11965581Y-21419750D01*
X11958349Y-21439962D01*
X11949170Y-21459368D01*
X11938134Y-21477781D01*
X11925346Y-21495024D01*
X11910930Y-21510930D01*
X11895024Y-21525346D01*
X11877781Y-21538134D01*
X11859368Y-21549170D01*
X11839962Y-21558349D01*
X11819750Y-21565581D01*
X11798926Y-21570797D01*
X11777691Y-21573947D01*
X11756250Y-21575000D01*
X11243750Y-21575000D01*
X11222309Y-21573947D01*
X11201074Y-21570797D01*
X11180250Y-21565581D01*
X11160038Y-21558349D01*
X11140632Y-21549170D01*
X11122219Y-21538134D01*
X11104976Y-21525346D01*
X11089070Y-21510930D01*
X11074654Y-21495024D01*
X11061866Y-21477781D01*
X11050830Y-21459368D01*
X11041651Y-21439962D01*
X11034419Y-21419750D01*
X11029203Y-21398926D01*
X11026053Y-21377691D01*
X11025000Y-21356250D01*
X11025000Y-20918750D01*
X11026053Y-20897309D01*
X11029203Y-20876074D01*
X11034419Y-20855250D01*
X11041651Y-20835038D01*
X11050830Y-20815632D01*
X11061866Y-20797219D01*
X11074654Y-20779976D01*
X11089070Y-20764070D01*
X11104976Y-20749654D01*
X11122219Y-20736866D01*
X11140632Y-20725830D01*
X11160038Y-20716651D01*
X11180250Y-20709419D01*
X11201074Y-20704203D01*
X11222309Y-20701053D01*
X11243750Y-20700000D01*
X11756250Y-20700000D01*
X11777691Y-20701053D01*
X11777691Y-20701053D01*
G37*
D11*
G04 #@! TD*
G04 #@! TO.P,C5,1*
G04 #@! TO.N,/osc_out*
X11500000Y-21137500D03*
D10*
G04 #@! TO.N,GND*
G04 #@! TO.C,C5*
G36*
X11777691Y-19126053D02*
X11798926Y-19129203D01*
X11819750Y-19134419D01*
X11839962Y-19141651D01*
X11859368Y-19150830D01*
X11877781Y-19161866D01*
X11895024Y-19174654D01*
X11910930Y-19189070D01*
X11925346Y-19204976D01*
X11938134Y-19222219D01*
X11949170Y-19240632D01*
X11958349Y-19260038D01*
X11965581Y-19280250D01*
X11970797Y-19301074D01*
X11973947Y-19322309D01*
X11975000Y-19343750D01*
X11975000Y-19781250D01*
X11973947Y-19802691D01*
X11970797Y-19823926D01*
X11965581Y-19844750D01*
X11958349Y-19864962D01*
X11949170Y-19884368D01*
X11938134Y-19902781D01*
X11925346Y-19920024D01*
X11910930Y-19935930D01*
X11895024Y-19950346D01*
X11877781Y-19963134D01*
X11859368Y-19974170D01*
X11839962Y-19983349D01*
X11819750Y-19990581D01*
X11798926Y-19995797D01*
X11777691Y-19998947D01*
X11756250Y-20000000D01*
X11243750Y-20000000D01*
X11222309Y-19998947D01*
X11201074Y-19995797D01*
X11180250Y-19990581D01*
X11160038Y-19983349D01*
X11140632Y-19974170D01*
X11122219Y-19963134D01*
X11104976Y-19950346D01*
X11089070Y-19935930D01*
X11074654Y-19920024D01*
X11061866Y-19902781D01*
X11050830Y-19884368D01*
X11041651Y-19864962D01*
X11034419Y-19844750D01*
X11029203Y-19823926D01*
X11026053Y-19802691D01*
X11025000Y-19781250D01*
X11025000Y-19343750D01*
X11026053Y-19322309D01*
X11029203Y-19301074D01*
X11034419Y-19280250D01*
X11041651Y-19260038D01*
X11050830Y-19240632D01*
X11061866Y-19222219D01*
X11074654Y-19204976D01*
X11089070Y-19189070D01*
X11104976Y-19174654D01*
X11122219Y-19161866D01*
X11140632Y-19150830D01*
X11160038Y-19141651D01*
X11180250Y-19134419D01*
X11201074Y-19129203D01*
X11222309Y-19126053D01*
X11243750Y-19125000D01*
X11756250Y-19125000D01*
X11777691Y-19126053D01*
X11777691Y-19126053D01*
G37*
D11*
G04 #@! TD*
G04 #@! TO.P,C5,2*
G04 #@! TO.N,GND*
X11500000Y-19562500D03*
D10*
G04 #@! TO.N,GND*
G04 #@! TO.C,C7*
G36*
X24277691Y-21276053D02*
X24298926Y-21279203D01*
X24319750Y-21284419D01*
X24339962Y-21291651D01*
X24359368Y-21300830D01*
X24377781Y-21311866D01*
X24395024Y-21324654D01*
X24410930Y-21339070D01*
X24425346Y-21354976D01*
X24438134Y-21372219D01*
X24449170Y-21390632D01*
X24458349Y-21410038D01*
X24465581Y-21430250D01*
X24470797Y-21451074D01*
X24473947Y-21472309D01*
X24475000Y-21493750D01*
X24475000Y-22006250D01*
X24473947Y-22027691D01*
X24470797Y-22048926D01*
X24465581Y-22069750D01*
X24458349Y-22089962D01*
X24449170Y-22109368D01*
X24438134Y-22127781D01*
X24425346Y-22145024D01*
X24410930Y-22160930D01*
X24395024Y-22175346D01*
X24377781Y-22188134D01*
X24359368Y-22199170D01*
X24339962Y-22208349D01*
X24319750Y-22215581D01*
X24298926Y-22220797D01*
X24277691Y-22223947D01*
X24256250Y-22225000D01*
X23818750Y-22225000D01*
X23797309Y-22223947D01*
X23776074Y-22220797D01*
X23755250Y-22215581D01*
X23735038Y-22208349D01*
X23715632Y-22199170D01*
X23697219Y-22188134D01*
X23679976Y-22175346D01*
X23664070Y-22160930D01*
X23649654Y-22145024D01*
X23636866Y-22127781D01*
X23625830Y-22109368D01*
X23616651Y-22089962D01*
X23609419Y-22069750D01*
X23604203Y-22048926D01*
X23601053Y-22027691D01*
X23600000Y-22006250D01*
X23600000Y-21493750D01*
X23601053Y-21472309D01*
X23604203Y-21451074D01*
X23609419Y-21430250D01*
X23616651Y-21410038D01*
X23625830Y-21390632D01*
X23636866Y-21372219D01*
X23649654Y-21354976D01*
X23664070Y-21339070D01*
X23679976Y-21324654D01*
X23697219Y-21311866D01*
X23715632Y-21300830D01*
X23735038Y-21291651D01*
X23755250Y-21284419D01*
X23776074Y-21279203D01*
X23797309Y-21276053D01*
X23818750Y-21275000D01*
X24256250Y-21275000D01*
X24277691Y-21276053D01*
X24277691Y-21276053D01*
G37*
D11*
G04 #@! TD*
G04 #@! TO.P,C7,2*
G04 #@! TO.N,GND*
X24037500Y-21750000D03*
D10*
G04 #@! TO.N,/3.3v*
G04 #@! TO.C,C7*
G36*
X22702691Y-21276053D02*
X22723926Y-21279203D01*
X22744750Y-21284419D01*
X22764962Y-21291651D01*
X22784368Y-21300830D01*
X22802781Y-21311866D01*
X22820024Y-21324654D01*
X22835930Y-21339070D01*
X22850346Y-21354976D01*
X22863134Y-21372219D01*
X22874170Y-21390632D01*
X22883349Y-21410038D01*
X22890581Y-21430250D01*
X22895797Y-21451074D01*
X22898947Y-21472309D01*
X22900000Y-21493750D01*
X22900000Y-22006250D01*
X22898947Y-22027691D01*
X22895797Y-22048926D01*
X22890581Y-22069750D01*
X22883349Y-22089962D01*
X22874170Y-22109368D01*
X22863134Y-22127781D01*
X22850346Y-22145024D01*
X22835930Y-22160930D01*
X22820024Y-22175346D01*
X22802781Y-22188134D01*
X22784368Y-22199170D01*
X22764962Y-22208349D01*
X22744750Y-22215581D01*
X22723926Y-22220797D01*
X22702691Y-22223947D01*
X22681250Y-22225000D01*
X22243750Y-22225000D01*
X22222309Y-22223947D01*
X22201074Y-22220797D01*
X22180250Y-22215581D01*
X22160038Y-22208349D01*
X22140632Y-22199170D01*
X22122219Y-22188134D01*
X22104976Y-22175346D01*
X22089070Y-22160930D01*
X22074654Y-22145024D01*
X22061866Y-22127781D01*
X22050830Y-22109368D01*
X22041651Y-22089962D01*
X22034419Y-22069750D01*
X22029203Y-22048926D01*
X22026053Y-22027691D01*
X22025000Y-22006250D01*
X22025000Y-21493750D01*
X22026053Y-21472309D01*
X22029203Y-21451074D01*
X22034419Y-21430250D01*
X22041651Y-21410038D01*
X22050830Y-21390632D01*
X22061866Y-21372219D01*
X22074654Y-21354976D01*
X22089070Y-21339070D01*
X22104976Y-21324654D01*
X22122219Y-21311866D01*
X22140632Y-21300830D01*
X22160038Y-21291651D01*
X22180250Y-21284419D01*
X22201074Y-21279203D01*
X22222309Y-21276053D01*
X22243750Y-21275000D01*
X22681250Y-21275000D01*
X22702691Y-21276053D01*
X22702691Y-21276053D01*
G37*
D11*
G04 #@! TD*
G04 #@! TO.P,C7,1*
G04 #@! TO.N,/3.3v*
X22462500Y-21750000D03*
D10*
G04 #@! TO.N,/3.3v*
G04 #@! TO.C,C8*
G36*
X20277691Y-12601053D02*
X20298926Y-12604203D01*
X20319750Y-12609419D01*
X20339962Y-12616651D01*
X20359368Y-12625830D01*
X20377781Y-12636866D01*
X20395024Y-12649654D01*
X20410930Y-12664070D01*
X20425346Y-12679976D01*
X20438134Y-12697219D01*
X20449170Y-12715632D01*
X20458349Y-12735038D01*
X20465581Y-12755250D01*
X20470797Y-12776074D01*
X20473947Y-12797309D01*
X20475000Y-12818750D01*
X20475000Y-13256250D01*
X20473947Y-13277691D01*
X20470797Y-13298926D01*
X20465581Y-13319750D01*
X20458349Y-13339962D01*
X20449170Y-13359368D01*
X20438134Y-13377781D01*
X20425346Y-13395024D01*
X20410930Y-13410930D01*
X20395024Y-13425346D01*
X20377781Y-13438134D01*
X20359368Y-13449170D01*
X20339962Y-13458349D01*
X20319750Y-13465581D01*
X20298926Y-13470797D01*
X20277691Y-13473947D01*
X20256250Y-13475000D01*
X19743750Y-13475000D01*
X19722309Y-13473947D01*
X19701074Y-13470797D01*
X19680250Y-13465581D01*
X19660038Y-13458349D01*
X19640632Y-13449170D01*
X19622219Y-13438134D01*
X19604976Y-13425346D01*
X19589070Y-13410930D01*
X19574654Y-13395024D01*
X19561866Y-13377781D01*
X19550830Y-13359368D01*
X19541651Y-13339962D01*
X19534419Y-13319750D01*
X19529203Y-13298926D01*
X19526053Y-13277691D01*
X19525000Y-13256250D01*
X19525000Y-12818750D01*
X19526053Y-12797309D01*
X19529203Y-12776074D01*
X19534419Y-12755250D01*
X19541651Y-12735038D01*
X19550830Y-12715632D01*
X19561866Y-12697219D01*
X19574654Y-12679976D01*
X19589070Y-12664070D01*
X19604976Y-12649654D01*
X19622219Y-12636866D01*
X19640632Y-12625830D01*
X19660038Y-12616651D01*
X19680250Y-12609419D01*
X19701074Y-12604203D01*
X19722309Y-12601053D01*
X19743750Y-12600000D01*
X20256250Y-12600000D01*
X20277691Y-12601053D01*
X20277691Y-12601053D01*
G37*
D11*
G04 #@! TD*
G04 #@! TO.P,C8,1*
G04 #@! TO.N,/3.3v*
X20000000Y-13037500D03*
D10*
G04 #@! TO.N,GND*
G04 #@! TO.C,C8*
G36*
X20277691Y-11026053D02*
X20298926Y-11029203D01*
X20319750Y-11034419D01*
X20339962Y-11041651D01*
X20359368Y-11050830D01*
X20377781Y-11061866D01*
X20395024Y-11074654D01*
X20410930Y-11089070D01*
X20425346Y-11104976D01*
X20438134Y-11122219D01*
X20449170Y-11140632D01*
X20458349Y-11160038D01*
X20465581Y-11180250D01*
X20470797Y-11201074D01*
X20473947Y-11222309D01*
X20475000Y-11243750D01*
X20475000Y-11681250D01*
X20473947Y-11702691D01*
X20470797Y-11723926D01*
X20465581Y-11744750D01*
X20458349Y-11764962D01*
X20449170Y-11784368D01*
X20438134Y-11802781D01*
X20425346Y-11820024D01*
X20410930Y-11835930D01*
X20395024Y-11850346D01*
X20377781Y-11863134D01*
X20359368Y-11874170D01*
X20339962Y-11883349D01*
X20319750Y-11890581D01*
X20298926Y-11895797D01*
X20277691Y-11898947D01*
X20256250Y-11900000D01*
X19743750Y-11900000D01*
X19722309Y-11898947D01*
X19701074Y-11895797D01*
X19680250Y-11890581D01*
X19660038Y-11883349D01*
X19640632Y-11874170D01*
X19622219Y-11863134D01*
X19604976Y-11850346D01*
X19589070Y-11835930D01*
X19574654Y-11820024D01*
X19561866Y-11802781D01*
X19550830Y-11784368D01*
X19541651Y-11764962D01*
X19534419Y-11744750D01*
X19529203Y-11723926D01*
X19526053Y-11702691D01*
X19525000Y-11681250D01*
X19525000Y-11243750D01*
X19526053Y-11222309D01*
X19529203Y-11201074D01*
X19534419Y-11180250D01*
X19541651Y-11160038D01*
X19550830Y-11140632D01*
X19561866Y-11122219D01*
X19574654Y-11104976D01*
X19589070Y-11089070D01*
X19604976Y-11074654D01*
X19622219Y-11061866D01*
X19640632Y-11050830D01*
X19660038Y-11041651D01*
X19680250Y-11034419D01*
X19701074Y-11029203D01*
X19722309Y-11026053D01*
X19743750Y-11025000D01*
X20256250Y-11025000D01*
X20277691Y-11026053D01*
X20277691Y-11026053D01*
G37*
D11*
G04 #@! TD*
G04 #@! TO.P,C8,2*
G04 #@! TO.N,GND*
X20000000Y-11462500D03*
D10*
G04 #@! TO.N,GND*
G04 #@! TO.C,C10*
G36*
X17027691Y-21901053D02*
X17048926Y-21904203D01*
X17069750Y-21909419D01*
X17089962Y-21916651D01*
X17109368Y-21925830D01*
X17127781Y-21936866D01*
X17145024Y-21949654D01*
X17160930Y-21964070D01*
X17175346Y-21979976D01*
X17188134Y-21997219D01*
X17199170Y-22015632D01*
X17208349Y-22035038D01*
X17215581Y-22055250D01*
X17220797Y-22076074D01*
X17223947Y-22097309D01*
X17225000Y-22118750D01*
X17225000Y-22556250D01*
X17223947Y-22577691D01*
X17220797Y-22598926D01*
X17215581Y-22619750D01*
X17208349Y-22639962D01*
X17199170Y-22659368D01*
X17188134Y-22677781D01*
X17175346Y-22695024D01*
X17160930Y-22710930D01*
X17145024Y-22725346D01*
X17127781Y-22738134D01*
X17109368Y-22749170D01*
X17089962Y-22758349D01*
X17069750Y-22765581D01*
X17048926Y-22770797D01*
X17027691Y-22773947D01*
X17006250Y-22775000D01*
X16493750Y-22775000D01*
X16472309Y-22773947D01*
X16451074Y-22770797D01*
X16430250Y-22765581D01*
X16410038Y-22758349D01*
X16390632Y-22749170D01*
X16372219Y-22738134D01*
X16354976Y-22725346D01*
X16339070Y-22710930D01*
X16324654Y-22695024D01*
X16311866Y-22677781D01*
X16300830Y-22659368D01*
X16291651Y-22639962D01*
X16284419Y-22619750D01*
X16279203Y-22598926D01*
X16276053Y-22577691D01*
X16275000Y-22556250D01*
X16275000Y-22118750D01*
X16276053Y-22097309D01*
X16279203Y-22076074D01*
X16284419Y-22055250D01*
X16291651Y-22035038D01*
X16300830Y-22015632D01*
X16311866Y-21997219D01*
X16324654Y-21979976D01*
X16339070Y-21964070D01*
X16354976Y-21949654D01*
X16372219Y-21936866D01*
X16390632Y-21925830D01*
X16410038Y-21916651D01*
X16430250Y-21909419D01*
X16451074Y-21904203D01*
X16472309Y-21901053D01*
X16493750Y-21900000D01*
X17006250Y-21900000D01*
X17027691Y-21901053D01*
X17027691Y-21901053D01*
G37*
D11*
G04 #@! TD*
G04 #@! TO.P,C10,2*
G04 #@! TO.N,GND*
X16750000Y-22337500D03*
D10*
G04 #@! TO.N,/vdda*
G04 #@! TO.C,C10*
G36*
X17027691Y-20326053D02*
X17048926Y-20329203D01*
X17069750Y-20334419D01*
X17089962Y-20341651D01*
X17109368Y-20350830D01*
X17127781Y-20361866D01*
X17145024Y-20374654D01*
X17160930Y-20389070D01*
X17175346Y-20404976D01*
X17188134Y-20422219D01*
X17199170Y-20440632D01*
X17208349Y-20460038D01*
X17215581Y-20480250D01*
X17220797Y-20501074D01*
X17223947Y-20522309D01*
X17225000Y-20543750D01*
X17225000Y-20981250D01*
X17223947Y-21002691D01*
X17220797Y-21023926D01*
X17215581Y-21044750D01*
X17208349Y-21064962D01*
X17199170Y-21084368D01*
X17188134Y-21102781D01*
X17175346Y-21120024D01*
X17160930Y-21135930D01*
X17145024Y-21150346D01*
X17127781Y-21163134D01*
X17109368Y-21174170D01*
X17089962Y-21183349D01*
X17069750Y-21190581D01*
X17048926Y-21195797D01*
X17027691Y-21198947D01*
X17006250Y-21200000D01*
X16493750Y-21200000D01*
X16472309Y-21198947D01*
X16451074Y-21195797D01*
X16430250Y-21190581D01*
X16410038Y-21183349D01*
X16390632Y-21174170D01*
X16372219Y-21163134D01*
X16354976Y-21150346D01*
X16339070Y-21135930D01*
X16324654Y-21120024D01*
X16311866Y-21102781D01*
X16300830Y-21084368D01*
X16291651Y-21064962D01*
X16284419Y-21044750D01*
X16279203Y-21023926D01*
X16276053Y-21002691D01*
X16275000Y-20981250D01*
X16275000Y-20543750D01*
X16276053Y-20522309D01*
X16279203Y-20501074D01*
X16284419Y-20480250D01*
X16291651Y-20460038D01*
X16300830Y-20440632D01*
X16311866Y-20422219D01*
X16324654Y-20404976D01*
X16339070Y-20389070D01*
X16354976Y-20374654D01*
X16372219Y-20361866D01*
X16390632Y-20350830D01*
X16410038Y-20341651D01*
X16430250Y-20334419D01*
X16451074Y-20329203D01*
X16472309Y-20326053D01*
X16493750Y-20325000D01*
X17006250Y-20325000D01*
X17027691Y-20326053D01*
X17027691Y-20326053D01*
G37*
D11*
G04 #@! TD*
G04 #@! TO.P,C10,1*
G04 #@! TO.N,/vdda*
X16750000Y-20762500D03*
D12*
G04 #@! TO.P,J1,1*
G04 #@! TO.N,/3.3v*
X12700000Y-38100000D03*
D13*
G04 #@! TO.P,J1,2*
G04 #@! TO.N,GND*
X15240000Y-38100000D03*
G04 #@! TO.P,J1,3*
G04 #@! TO.N,/reset_n*
X17780000Y-38100000D03*
G04 #@! TO.P,J1,4*
G04 #@! TO.N,Net-(J1-Pad4)*
X20320000Y-38100000D03*
G04 #@! TO.P,J1,5*
G04 #@! TO.N,Net-(J1-Pad5)*
X22860000Y-38100000D03*
G04 #@! TD*
D12*
G04 #@! TO.P,J2,1*
G04 #@! TO.N,/5v*
X5080000Y-38100000D03*
D13*
G04 #@! TO.P,J2,2*
G04 #@! TO.N,GND*
X2540000Y-38100000D03*
G04 #@! TD*
G04 #@! TO.P,J3,24*
G04 #@! TO.N,/3.3v*
X5080000Y-33020000D03*
G04 #@! TO.P,J3,23*
X2540000Y-33020000D03*
G04 #@! TO.P,J3,22*
G04 #@! TO.N,GND*
X5080000Y-30480000D03*
G04 #@! TO.P,J3,21*
X2540000Y-30480000D03*
G04 #@! TO.P,J3,20*
G04 #@! TO.N,/PB11*
X5080000Y-27940000D03*
G04 #@! TO.P,J3,19*
G04 #@! TO.N,/PB10*
X2540000Y-27940000D03*
G04 #@! TO.P,J3,18*
G04 #@! TO.N,/PB2*
X5080000Y-25400000D03*
G04 #@! TO.P,J3,17*
G04 #@! TO.N,/PB1*
X2540000Y-25400000D03*
G04 #@! TO.P,J3,16*
G04 #@! TO.N,/PB0*
X5080000Y-22860000D03*
G04 #@! TO.P,J3,15*
G04 #@! TO.N,/PA7*
X2540000Y-22860000D03*
G04 #@! TO.P,J3,14*
G04 #@! TO.N,/PA6*
X5080000Y-20320000D03*
G04 #@! TO.P,J3,13*
G04 #@! TO.N,/PA5*
X2540000Y-20320000D03*
G04 #@! TO.P,J3,12*
G04 #@! TO.N,/PA4*
X5080000Y-17780000D03*
G04 #@! TO.P,J3,11*
G04 #@! TO.N,/PA3*
X2540000Y-17780000D03*
G04 #@! TO.P,J3,10*
G04 #@! TO.N,/PA2*
X5080000Y-15240000D03*
G04 #@! TO.P,J3,9*
G04 #@! TO.N,/PA1*
X2540000Y-15240000D03*
G04 #@! TO.P,J3,8*
G04 #@! TO.N,/PA0*
X5080000Y-12700000D03*
G04 #@! TO.P,J3,7*
G04 #@! TO.N,/PH1*
X2540000Y-12700000D03*
G04 #@! TO.P,J3,6*
G04 #@! TO.N,/PH0*
X5080000Y-10160000D03*
G04 #@! TO.P,J3,5*
G04 #@! TO.N,/PC15*
X2540000Y-10160000D03*
G04 #@! TO.P,J3,4*
G04 #@! TO.N,/PC14*
X5080000Y-7620000D03*
G04 #@! TO.P,J3,3*
G04 #@! TO.N,/PC13*
X2540000Y-7620000D03*
G04 #@! TO.P,J3,2*
G04 #@! TO.N,/vdda*
X5080000Y-5080000D03*
D12*
G04 #@! TO.P,J3,1*
G04 #@! TO.N,/vlcd*
X2540000Y-5080000D03*
G04 #@! TD*
G04 #@! TO.P,J4,1*
G04 #@! TO.N,/reset_n*
X27940000Y-5080000D03*
D13*
G04 #@! TO.P,J4,2*
G04 #@! TO.N,/PB9*
X30480000Y-5080000D03*
G04 #@! TO.P,J4,3*
G04 #@! TO.N,/PB8*
X27940000Y-7620000D03*
G04 #@! TO.P,J4,4*
G04 #@! TO.N,/PB7*
X30480000Y-7620000D03*
G04 #@! TO.P,J4,5*
G04 #@! TO.N,/PB6*
X27940000Y-10160000D03*
G04 #@! TO.P,J4,6*
G04 #@! TO.N,/PB5*
X30480000Y-10160000D03*
G04 #@! TO.P,J4,7*
G04 #@! TO.N,/PB4*
X27940000Y-12700000D03*
G04 #@! TO.P,J4,8*
G04 #@! TO.N,/PB3*
X30480000Y-12700000D03*
G04 #@! TO.P,J4,9*
G04 #@! TO.N,/PA15*
X27940000Y-15240000D03*
G04 #@! TO.P,J4,10*
G04 #@! TO.N,/PA14*
X30480000Y-15240000D03*
G04 #@! TO.P,J4,11*
G04 #@! TO.N,/PA13*
X27940000Y-17780000D03*
G04 #@! TO.P,J4,12*
G04 #@! TO.N,/PA12*
X30480000Y-17780000D03*
G04 #@! TO.P,J4,13*
G04 #@! TO.N,/PA11*
X27940000Y-20320000D03*
G04 #@! TO.P,J4,14*
G04 #@! TO.N,/PA10*
X30480000Y-20320000D03*
G04 #@! TO.P,J4,15*
G04 #@! TO.N,/PA9*
X27940000Y-22860000D03*
G04 #@! TO.P,J4,16*
G04 #@! TO.N,/PA8*
X30480000Y-22860000D03*
G04 #@! TO.P,J4,17*
G04 #@! TO.N,/PB15*
X27940000Y-25400000D03*
G04 #@! TO.P,J4,18*
G04 #@! TO.N,/PB14*
X30480000Y-25400000D03*
G04 #@! TO.P,J4,19*
G04 #@! TO.N,/PB13*
X27940000Y-27940000D03*
G04 #@! TO.P,J4,20*
G04 #@! TO.N,/PB12*
X30480000Y-27940000D03*
G04 #@! TO.P,J4,21*
G04 #@! TO.N,GND*
X27940000Y-30480000D03*
G04 #@! TO.P,J4,22*
X30480000Y-30480000D03*
G04 #@! TO.P,J4,23*
G04 #@! TO.N,/3.3v*
X27940000Y-33020000D03*
G04 #@! TO.P,J4,24*
X30480000Y-33020000D03*
G04 #@! TD*
D14*
G04 #@! TO.P,JP1,2*
G04 #@! TO.N,/vlcd*
X18275000Y-16250000D03*
D10*
G04 #@! TD*
G04 #@! TO.N,/vlcd*
G04 #@! TO.C,JP1*
G36*
X17775000Y-15500000D02*
X18925000Y-15500000D01*
X18425000Y-16250000D01*
X18925000Y-17000000D01*
X17775000Y-17000000D01*
X17775000Y-15500000D01*
X17775000Y-15500000D01*
G37*
D14*
G04 #@! TO.P,JP1,1*
G04 #@! TO.N,/3.3v*
X19725000Y-16250000D03*
D10*
G04 #@! TD*
G04 #@! TO.N,/3.3v*
G04 #@! TO.C,JP1*
G36*
X18725000Y-16250000D02*
X19225000Y-15500000D01*
X20225000Y-15500000D01*
X20225000Y-17000000D01*
X19225000Y-17000000D01*
X18725000Y-16250000D01*
X18725000Y-16250000D01*
G37*
D14*
G04 #@! TO.P,JP2,1*
G04 #@! TO.N,/3.3v*
X19725000Y-18750000D03*
D10*
G04 #@! TD*
G04 #@! TO.N,/3.3v*
G04 #@! TO.C,JP2*
G36*
X18725000Y-18750000D02*
X19225000Y-18000000D01*
X20225000Y-18000000D01*
X20225000Y-19500000D01*
X19225000Y-19500000D01*
X18725000Y-18750000D01*
X18725000Y-18750000D01*
G37*
D14*
G04 #@! TO.P,JP2,2*
G04 #@! TO.N,/vdda*
X18275000Y-18750000D03*
D10*
G04 #@! TD*
G04 #@! TO.N,/vdda*
G04 #@! TO.C,JP2*
G36*
X17775000Y-18000000D02*
X18925000Y-18000000D01*
X18425000Y-18750000D01*
X18925000Y-19500000D01*
X17775000Y-19500000D01*
X17775000Y-18000000D01*
X17775000Y-18000000D01*
G37*
D14*
G04 #@! TO.P,JP3,1*
G04 #@! TO.N,/osc32k_in*
X9225000Y-7500000D03*
D10*
G04 #@! TD*
G04 #@! TO.N,/osc32k_in*
G04 #@! TO.C,JP3*
G36*
X8225000Y-7500000D02*
X8725000Y-6750000D01*
X9725000Y-6750000D01*
X9725000Y-8250000D01*
X8725000Y-8250000D01*
X8225000Y-7500000D01*
X8225000Y-7500000D01*
G37*
D14*
G04 #@! TO.P,JP3,2*
G04 #@! TO.N,/PC14*
X7775000Y-7500000D03*
D10*
G04 #@! TD*
G04 #@! TO.N,/PC14*
G04 #@! TO.C,JP3*
G36*
X7275000Y-6750000D02*
X8425000Y-6750000D01*
X7925000Y-7500000D01*
X8425000Y-8250000D01*
X7275000Y-8250000D01*
X7275000Y-6750000D01*
X7275000Y-6750000D01*
G37*
D14*
G04 #@! TO.P,JP4,2*
G04 #@! TO.N,/PC15*
X7775000Y-10000000D03*
D10*
G04 #@! TD*
G04 #@! TO.N,/PC15*
G04 #@! TO.C,JP4*
G36*
X7275000Y-9250000D02*
X8425000Y-9250000D01*
X7925000Y-10000000D01*
X8425000Y-10750000D01*
X7275000Y-10750000D01*
X7275000Y-9250000D01*
X7275000Y-9250000D01*
G37*
D14*
G04 #@! TO.P,JP4,1*
G04 #@! TO.N,/osc32k_out*
X9225000Y-10000000D03*
D10*
G04 #@! TD*
G04 #@! TO.N,/osc32k_out*
G04 #@! TO.C,JP4*
G36*
X8225000Y-10000000D02*
X8725000Y-9250000D01*
X9725000Y-9250000D01*
X9725000Y-10750000D01*
X8725000Y-10750000D01*
X8225000Y-10000000D01*
X8225000Y-10000000D01*
G37*
D14*
G04 #@! TO.P,JP5,1*
G04 #@! TO.N,/osc_in*
X9225000Y-14000000D03*
D10*
G04 #@! TD*
G04 #@! TO.N,/osc_in*
G04 #@! TO.C,JP5*
G36*
X8225000Y-14000000D02*
X8725000Y-13250000D01*
X9725000Y-13250000D01*
X9725000Y-14750000D01*
X8725000Y-14750000D01*
X8225000Y-14000000D01*
X8225000Y-14000000D01*
G37*
D14*
G04 #@! TO.P,JP5,2*
G04 #@! TO.N,/PH0*
X7775000Y-14000000D03*
D10*
G04 #@! TD*
G04 #@! TO.N,/PH0*
G04 #@! TO.C,JP5*
G36*
X7275000Y-13250000D02*
X8425000Y-13250000D01*
X7925000Y-14000000D01*
X8425000Y-14750000D01*
X7275000Y-14750000D01*
X7275000Y-13250000D01*
X7275000Y-13250000D01*
G37*
D14*
G04 #@! TO.P,JP6,2*
G04 #@! TO.N,/PH1*
X7775000Y-19000000D03*
D10*
G04 #@! TD*
G04 #@! TO.N,/PH1*
G04 #@! TO.C,JP6*
G36*
X7275000Y-18250000D02*
X8425000Y-18250000D01*
X7925000Y-19000000D01*
X8425000Y-19750000D01*
X7275000Y-19750000D01*
X7275000Y-18250000D01*
X7275000Y-18250000D01*
G37*
D14*
G04 #@! TO.P,JP6,1*
G04 #@! TO.N,/osc_out*
X9225000Y-19000000D03*
D10*
G04 #@! TD*
G04 #@! TO.N,/osc_out*
G04 #@! TO.C,JP6*
G36*
X8225000Y-19000000D02*
X8725000Y-18250000D01*
X9725000Y-18250000D01*
X9725000Y-19750000D01*
X8725000Y-19750000D01*
X8225000Y-19000000D01*
X8225000Y-19000000D01*
G37*
D14*
G04 #@! TO.P,JP7,1*
G04 #@! TO.N,/usb-*
X22525000Y-18750000D03*
D10*
G04 #@! TD*
G04 #@! TO.N,/usb-*
G04 #@! TO.C,JP7*
G36*
X23525000Y-18750000D02*
X23025000Y-19500000D01*
X22025000Y-19500000D01*
X22025000Y-18000000D01*
X23025000Y-18000000D01*
X23525000Y-18750000D01*
X23525000Y-18750000D01*
G37*
D14*
G04 #@! TO.P,JP7,2*
G04 #@! TO.N,/PA11*
X23975000Y-18750000D03*
D10*
G04 #@! TD*
G04 #@! TO.N,/PA11*
G04 #@! TO.C,JP7*
G36*
X24475000Y-19500000D02*
X23325000Y-19500000D01*
X23825000Y-18750000D01*
X23325000Y-18000000D01*
X24475000Y-18000000D01*
X24475000Y-19500000D01*
X24475000Y-19500000D01*
G37*
D14*
G04 #@! TO.P,JP8,2*
G04 #@! TO.N,/PA12*
X23975000Y-16250000D03*
D10*
G04 #@! TD*
G04 #@! TO.N,/PA12*
G04 #@! TO.C,JP8*
G36*
X24475000Y-17000000D02*
X23325000Y-17000000D01*
X23825000Y-16250000D01*
X23325000Y-15500000D01*
X24475000Y-15500000D01*
X24475000Y-17000000D01*
X24475000Y-17000000D01*
G37*
D14*
G04 #@! TO.P,JP8,1*
G04 #@! TO.N,/usb+*
X22525000Y-16250000D03*
D10*
G04 #@! TD*
G04 #@! TO.N,/usb+*
G04 #@! TO.C,JP8*
G36*
X23525000Y-16250000D02*
X23025000Y-17000000D01*
X22025000Y-17000000D01*
X22025000Y-15500000D01*
X23025000Y-15500000D01*
X23525000Y-16250000D01*
X23525000Y-16250000D01*
G37*
G04 #@! TO.N,GND*
G04 #@! TO.C,R1*
G36*
X23027691Y-11026053D02*
X23048926Y-11029203D01*
X23069750Y-11034419D01*
X23089962Y-11041651D01*
X23109368Y-11050830D01*
X23127781Y-11061866D01*
X23145024Y-11074654D01*
X23160930Y-11089070D01*
X23175346Y-11104976D01*
X23188134Y-11122219D01*
X23199170Y-11140632D01*
X23208349Y-11160038D01*
X23215581Y-11180250D01*
X23220797Y-11201074D01*
X23223947Y-11222309D01*
X23225000Y-11243750D01*
X23225000Y-11681250D01*
X23223947Y-11702691D01*
X23220797Y-11723926D01*
X23215581Y-11744750D01*
X23208349Y-11764962D01*
X23199170Y-11784368D01*
X23188134Y-11802781D01*
X23175346Y-11820024D01*
X23160930Y-11835930D01*
X23145024Y-11850346D01*
X23127781Y-11863134D01*
X23109368Y-11874170D01*
X23089962Y-11883349D01*
X23069750Y-11890581D01*
X23048926Y-11895797D01*
X23027691Y-11898947D01*
X23006250Y-11900000D01*
X22493750Y-11900000D01*
X22472309Y-11898947D01*
X22451074Y-11895797D01*
X22430250Y-11890581D01*
X22410038Y-11883349D01*
X22390632Y-11874170D01*
X22372219Y-11863134D01*
X22354976Y-11850346D01*
X22339070Y-11835930D01*
X22324654Y-11820024D01*
X22311866Y-11802781D01*
X22300830Y-11784368D01*
X22291651Y-11764962D01*
X22284419Y-11744750D01*
X22279203Y-11723926D01*
X22276053Y-11702691D01*
X22275000Y-11681250D01*
X22275000Y-11243750D01*
X22276053Y-11222309D01*
X22279203Y-11201074D01*
X22284419Y-11180250D01*
X22291651Y-11160038D01*
X22300830Y-11140632D01*
X22311866Y-11122219D01*
X22324654Y-11104976D01*
X22339070Y-11089070D01*
X22354976Y-11074654D01*
X22372219Y-11061866D01*
X22390632Y-11050830D01*
X22410038Y-11041651D01*
X22430250Y-11034419D01*
X22451074Y-11029203D01*
X22472309Y-11026053D01*
X22493750Y-11025000D01*
X23006250Y-11025000D01*
X23027691Y-11026053D01*
X23027691Y-11026053D01*
G37*
D11*
G04 #@! TD*
G04 #@! TO.P,R1,1*
G04 #@! TO.N,GND*
X22750000Y-11462500D03*
D10*
G04 #@! TO.N,Net-(D1-Pad44)*
G04 #@! TO.C,R1*
G36*
X23027691Y-12601053D02*
X23048926Y-12604203D01*
X23069750Y-12609419D01*
X23089962Y-12616651D01*
X23109368Y-12625830D01*
X23127781Y-12636866D01*
X23145024Y-12649654D01*
X23160930Y-12664070D01*
X23175346Y-12679976D01*
X23188134Y-12697219D01*
X23199170Y-12715632D01*
X23208349Y-12735038D01*
X23215581Y-12755250D01*
X23220797Y-12776074D01*
X23223947Y-12797309D01*
X23225000Y-12818750D01*
X23225000Y-13256250D01*
X23223947Y-13277691D01*
X23220797Y-13298926D01*
X23215581Y-13319750D01*
X23208349Y-13339962D01*
X23199170Y-13359368D01*
X23188134Y-13377781D01*
X23175346Y-13395024D01*
X23160930Y-13410930D01*
X23145024Y-13425346D01*
X23127781Y-13438134D01*
X23109368Y-13449170D01*
X23089962Y-13458349D01*
X23069750Y-13465581D01*
X23048926Y-13470797D01*
X23027691Y-13473947D01*
X23006250Y-13475000D01*
X22493750Y-13475000D01*
X22472309Y-13473947D01*
X22451074Y-13470797D01*
X22430250Y-13465581D01*
X22410038Y-13458349D01*
X22390632Y-13449170D01*
X22372219Y-13438134D01*
X22354976Y-13425346D01*
X22339070Y-13410930D01*
X22324654Y-13395024D01*
X22311866Y-13377781D01*
X22300830Y-13359368D01*
X22291651Y-13339962D01*
X22284419Y-13319750D01*
X22279203Y-13298926D01*
X22276053Y-13277691D01*
X22275000Y-13256250D01*
X22275000Y-12818750D01*
X22276053Y-12797309D01*
X22279203Y-12776074D01*
X22284419Y-12755250D01*
X22291651Y-12735038D01*
X22300830Y-12715632D01*
X22311866Y-12697219D01*
X22324654Y-12679976D01*
X22339070Y-12664070D01*
X22354976Y-12649654D01*
X22372219Y-12636866D01*
X22390632Y-12625830D01*
X22410038Y-12616651D01*
X22430250Y-12609419D01*
X22451074Y-12604203D01*
X22472309Y-12601053D01*
X22493750Y-12600000D01*
X23006250Y-12600000D01*
X23027691Y-12601053D01*
X23027691Y-12601053D01*
G37*
D11*
G04 #@! TD*
G04 #@! TO.P,R1,2*
G04 #@! TO.N,Net-(D1-Pad44)*
X22750000Y-13037500D03*
D10*
G04 #@! TO.N,/reset_n*
G04 #@! TO.C,R5*
G36*
X18027691Y-33816053D02*
X18048926Y-33819203D01*
X18069750Y-33824419D01*
X18089962Y-33831651D01*
X18109368Y-33840830D01*
X18127781Y-33851866D01*
X18145024Y-33864654D01*
X18160930Y-33879070D01*
X18175346Y-33894976D01*
X18188134Y-33912219D01*
X18199170Y-33930632D01*
X18208349Y-33950038D01*
X18215581Y-33970250D01*
X18220797Y-33991074D01*
X18223947Y-34012309D01*
X18225000Y-34033750D01*
X18225000Y-34546250D01*
X18223947Y-34567691D01*
X18220797Y-34588926D01*
X18215581Y-34609750D01*
X18208349Y-34629962D01*
X18199170Y-34649368D01*
X18188134Y-34667781D01*
X18175346Y-34685024D01*
X18160930Y-34700930D01*
X18145024Y-34715346D01*
X18127781Y-34728134D01*
X18109368Y-34739170D01*
X18089962Y-34748349D01*
X18069750Y-34755581D01*
X18048926Y-34760797D01*
X18027691Y-34763947D01*
X18006250Y-34765000D01*
X17568750Y-34765000D01*
X17547309Y-34763947D01*
X17526074Y-34760797D01*
X17505250Y-34755581D01*
X17485038Y-34748349D01*
X17465632Y-34739170D01*
X17447219Y-34728134D01*
X17429976Y-34715346D01*
X17414070Y-34700930D01*
X17399654Y-34685024D01*
X17386866Y-34667781D01*
X17375830Y-34649368D01*
X17366651Y-34629962D01*
X17359419Y-34609750D01*
X17354203Y-34588926D01*
X17351053Y-34567691D01*
X17350000Y-34546250D01*
X17350000Y-34033750D01*
X17351053Y-34012309D01*
X17354203Y-33991074D01*
X17359419Y-33970250D01*
X17366651Y-33950038D01*
X17375830Y-33930632D01*
X17386866Y-33912219D01*
X17399654Y-33894976D01*
X17414070Y-33879070D01*
X17429976Y-33864654D01*
X17447219Y-33851866D01*
X17465632Y-33840830D01*
X17485038Y-33831651D01*
X17505250Y-33824419D01*
X17526074Y-33819203D01*
X17547309Y-33816053D01*
X17568750Y-33815000D01*
X18006250Y-33815000D01*
X18027691Y-33816053D01*
X18027691Y-33816053D01*
G37*
D11*
G04 #@! TD*
G04 #@! TO.P,R5,1*
G04 #@! TO.N,/reset_n*
X17787500Y-34290000D03*
D10*
G04 #@! TO.N,/3.3v*
G04 #@! TO.C,R5*
G36*
X16452691Y-33816053D02*
X16473926Y-33819203D01*
X16494750Y-33824419D01*
X16514962Y-33831651D01*
X16534368Y-33840830D01*
X16552781Y-33851866D01*
X16570024Y-33864654D01*
X16585930Y-33879070D01*
X16600346Y-33894976D01*
X16613134Y-33912219D01*
X16624170Y-33930632D01*
X16633349Y-33950038D01*
X16640581Y-33970250D01*
X16645797Y-33991074D01*
X16648947Y-34012309D01*
X16650000Y-34033750D01*
X16650000Y-34546250D01*
X16648947Y-34567691D01*
X16645797Y-34588926D01*
X16640581Y-34609750D01*
X16633349Y-34629962D01*
X16624170Y-34649368D01*
X16613134Y-34667781D01*
X16600346Y-34685024D01*
X16585930Y-34700930D01*
X16570024Y-34715346D01*
X16552781Y-34728134D01*
X16534368Y-34739170D01*
X16514962Y-34748349D01*
X16494750Y-34755581D01*
X16473926Y-34760797D01*
X16452691Y-34763947D01*
X16431250Y-34765000D01*
X15993750Y-34765000D01*
X15972309Y-34763947D01*
X15951074Y-34760797D01*
X15930250Y-34755581D01*
X15910038Y-34748349D01*
X15890632Y-34739170D01*
X15872219Y-34728134D01*
X15854976Y-34715346D01*
X15839070Y-34700930D01*
X15824654Y-34685024D01*
X15811866Y-34667781D01*
X15800830Y-34649368D01*
X15791651Y-34629962D01*
X15784419Y-34609750D01*
X15779203Y-34588926D01*
X15776053Y-34567691D01*
X15775000Y-34546250D01*
X15775000Y-34033750D01*
X15776053Y-34012309D01*
X15779203Y-33991074D01*
X15784419Y-33970250D01*
X15791651Y-33950038D01*
X15800830Y-33930632D01*
X15811866Y-33912219D01*
X15824654Y-33894976D01*
X15839070Y-33879070D01*
X15854976Y-33864654D01*
X15872219Y-33851866D01*
X15890632Y-33840830D01*
X15910038Y-33831651D01*
X15930250Y-33824419D01*
X15951074Y-33819203D01*
X15972309Y-33816053D01*
X15993750Y-33815000D01*
X16431250Y-33815000D01*
X16452691Y-33816053D01*
X16452691Y-33816053D01*
G37*
D11*
G04 #@! TD*
G04 #@! TO.P,R5,2*
G04 #@! TO.N,/3.3v*
X16212500Y-34290000D03*
D10*
G04 #@! TO.N,Net-(J1-Pad4)*
G04 #@! TO.C,R6*
G36*
X20527691Y-34351053D02*
X20548926Y-34354203D01*
X20569750Y-34359419D01*
X20589962Y-34366651D01*
X20609368Y-34375830D01*
X20627781Y-34386866D01*
X20645024Y-34399654D01*
X20660930Y-34414070D01*
X20675346Y-34429976D01*
X20688134Y-34447219D01*
X20699170Y-34465632D01*
X20708349Y-34485038D01*
X20715581Y-34505250D01*
X20720797Y-34526074D01*
X20723947Y-34547309D01*
X20725000Y-34568750D01*
X20725000Y-35006250D01*
X20723947Y-35027691D01*
X20720797Y-35048926D01*
X20715581Y-35069750D01*
X20708349Y-35089962D01*
X20699170Y-35109368D01*
X20688134Y-35127781D01*
X20675346Y-35145024D01*
X20660930Y-35160930D01*
X20645024Y-35175346D01*
X20627781Y-35188134D01*
X20609368Y-35199170D01*
X20589962Y-35208349D01*
X20569750Y-35215581D01*
X20548926Y-35220797D01*
X20527691Y-35223947D01*
X20506250Y-35225000D01*
X19993750Y-35225000D01*
X19972309Y-35223947D01*
X19951074Y-35220797D01*
X19930250Y-35215581D01*
X19910038Y-35208349D01*
X19890632Y-35199170D01*
X19872219Y-35188134D01*
X19854976Y-35175346D01*
X19839070Y-35160930D01*
X19824654Y-35145024D01*
X19811866Y-35127781D01*
X19800830Y-35109368D01*
X19791651Y-35089962D01*
X19784419Y-35069750D01*
X19779203Y-35048926D01*
X19776053Y-35027691D01*
X19775000Y-35006250D01*
X19775000Y-34568750D01*
X19776053Y-34547309D01*
X19779203Y-34526074D01*
X19784419Y-34505250D01*
X19791651Y-34485038D01*
X19800830Y-34465632D01*
X19811866Y-34447219D01*
X19824654Y-34429976D01*
X19839070Y-34414070D01*
X19854976Y-34399654D01*
X19872219Y-34386866D01*
X19890632Y-34375830D01*
X19910038Y-34366651D01*
X19930250Y-34359419D01*
X19951074Y-34354203D01*
X19972309Y-34351053D01*
X19993750Y-34350000D01*
X20506250Y-34350000D01*
X20527691Y-34351053D01*
X20527691Y-34351053D01*
G37*
D11*
G04 #@! TD*
G04 #@! TO.P,R6,2*
G04 #@! TO.N,Net-(J1-Pad4)*
X20250000Y-34787500D03*
D10*
G04 #@! TO.N,/PA13*
G04 #@! TO.C,R6*
G36*
X20527691Y-32776053D02*
X20548926Y-32779203D01*
X20569750Y-32784419D01*
X20589962Y-32791651D01*
X20609368Y-32800830D01*
X20627781Y-32811866D01*
X20645024Y-32824654D01*
X20660930Y-32839070D01*
X20675346Y-32854976D01*
X20688134Y-32872219D01*
X20699170Y-32890632D01*
X20708349Y-32910038D01*
X20715581Y-32930250D01*
X20720797Y-32951074D01*
X20723947Y-32972309D01*
X20725000Y-32993750D01*
X20725000Y-33431250D01*
X20723947Y-33452691D01*
X20720797Y-33473926D01*
X20715581Y-33494750D01*
X20708349Y-33514962D01*
X20699170Y-33534368D01*
X20688134Y-33552781D01*
X20675346Y-33570024D01*
X20660930Y-33585930D01*
X20645024Y-33600346D01*
X20627781Y-33613134D01*
X20609368Y-33624170D01*
X20589962Y-33633349D01*
X20569750Y-33640581D01*
X20548926Y-33645797D01*
X20527691Y-33648947D01*
X20506250Y-33650000D01*
X19993750Y-33650000D01*
X19972309Y-33648947D01*
X19951074Y-33645797D01*
X19930250Y-33640581D01*
X19910038Y-33633349D01*
X19890632Y-33624170D01*
X19872219Y-33613134D01*
X19854976Y-33600346D01*
X19839070Y-33585930D01*
X19824654Y-33570024D01*
X19811866Y-33552781D01*
X19800830Y-33534368D01*
X19791651Y-33514962D01*
X19784419Y-33494750D01*
X19779203Y-33473926D01*
X19776053Y-33452691D01*
X19775000Y-33431250D01*
X19775000Y-32993750D01*
X19776053Y-32972309D01*
X19779203Y-32951074D01*
X19784419Y-32930250D01*
X19791651Y-32910038D01*
X19800830Y-32890632D01*
X19811866Y-32872219D01*
X19824654Y-32854976D01*
X19839070Y-32839070D01*
X19854976Y-32824654D01*
X19872219Y-32811866D01*
X19890632Y-32800830D01*
X19910038Y-32791651D01*
X19930250Y-32784419D01*
X19951074Y-32779203D01*
X19972309Y-32776053D01*
X19993750Y-32775000D01*
X20506250Y-32775000D01*
X20527691Y-32776053D01*
X20527691Y-32776053D01*
G37*
D11*
G04 #@! TD*
G04 #@! TO.P,R6,1*
G04 #@! TO.N,/PA13*
X20250000Y-33212500D03*
D10*
G04 #@! TO.N,Net-(J1-Pad5)*
G04 #@! TO.C,R7*
G36*
X23027691Y-34351053D02*
X23048926Y-34354203D01*
X23069750Y-34359419D01*
X23089962Y-34366651D01*
X23109368Y-34375830D01*
X23127781Y-34386866D01*
X23145024Y-34399654D01*
X23160930Y-34414070D01*
X23175346Y-34429976D01*
X23188134Y-34447219D01*
X23199170Y-34465632D01*
X23208349Y-34485038D01*
X23215581Y-34505250D01*
X23220797Y-34526074D01*
X23223947Y-34547309D01*
X23225000Y-34568750D01*
X23225000Y-35006250D01*
X23223947Y-35027691D01*
X23220797Y-35048926D01*
X23215581Y-35069750D01*
X23208349Y-35089962D01*
X23199170Y-35109368D01*
X23188134Y-35127781D01*
X23175346Y-35145024D01*
X23160930Y-35160930D01*
X23145024Y-35175346D01*
X23127781Y-35188134D01*
X23109368Y-35199170D01*
X23089962Y-35208349D01*
X23069750Y-35215581D01*
X23048926Y-35220797D01*
X23027691Y-35223947D01*
X23006250Y-35225000D01*
X22493750Y-35225000D01*
X22472309Y-35223947D01*
X22451074Y-35220797D01*
X22430250Y-35215581D01*
X22410038Y-35208349D01*
X22390632Y-35199170D01*
X22372219Y-35188134D01*
X22354976Y-35175346D01*
X22339070Y-35160930D01*
X22324654Y-35145024D01*
X22311866Y-35127781D01*
X22300830Y-35109368D01*
X22291651Y-35089962D01*
X22284419Y-35069750D01*
X22279203Y-35048926D01*
X22276053Y-35027691D01*
X22275000Y-35006250D01*
X22275000Y-34568750D01*
X22276053Y-34547309D01*
X22279203Y-34526074D01*
X22284419Y-34505250D01*
X22291651Y-34485038D01*
X22300830Y-34465632D01*
X22311866Y-34447219D01*
X22324654Y-34429976D01*
X22339070Y-34414070D01*
X22354976Y-34399654D01*
X22372219Y-34386866D01*
X22390632Y-34375830D01*
X22410038Y-34366651D01*
X22430250Y-34359419D01*
X22451074Y-34354203D01*
X22472309Y-34351053D01*
X22493750Y-34350000D01*
X23006250Y-34350000D01*
X23027691Y-34351053D01*
X23027691Y-34351053D01*
G37*
D11*
G04 #@! TD*
G04 #@! TO.P,R7,2*
G04 #@! TO.N,Net-(J1-Pad5)*
X22750000Y-34787500D03*
D10*
G04 #@! TO.N,/PA14*
G04 #@! TO.C,R7*
G36*
X23027691Y-32776053D02*
X23048926Y-32779203D01*
X23069750Y-32784419D01*
X23089962Y-32791651D01*
X23109368Y-32800830D01*
X23127781Y-32811866D01*
X23145024Y-32824654D01*
X23160930Y-32839070D01*
X23175346Y-32854976D01*
X23188134Y-32872219D01*
X23199170Y-32890632D01*
X23208349Y-32910038D01*
X23215581Y-32930250D01*
X23220797Y-32951074D01*
X23223947Y-32972309D01*
X23225000Y-32993750D01*
X23225000Y-33431250D01*
X23223947Y-33452691D01*
X23220797Y-33473926D01*
X23215581Y-33494750D01*
X23208349Y-33514962D01*
X23199170Y-33534368D01*
X23188134Y-33552781D01*
X23175346Y-33570024D01*
X23160930Y-33585930D01*
X23145024Y-33600346D01*
X23127781Y-33613134D01*
X23109368Y-33624170D01*
X23089962Y-33633349D01*
X23069750Y-33640581D01*
X23048926Y-33645797D01*
X23027691Y-33648947D01*
X23006250Y-33650000D01*
X22493750Y-33650000D01*
X22472309Y-33648947D01*
X22451074Y-33645797D01*
X22430250Y-33640581D01*
X22410038Y-33633349D01*
X22390632Y-33624170D01*
X22372219Y-33613134D01*
X22354976Y-33600346D01*
X22339070Y-33585930D01*
X22324654Y-33570024D01*
X22311866Y-33552781D01*
X22300830Y-33534368D01*
X22291651Y-33514962D01*
X22284419Y-33494750D01*
X22279203Y-33473926D01*
X22276053Y-33452691D01*
X22275000Y-33431250D01*
X22275000Y-32993750D01*
X22276053Y-32972309D01*
X22279203Y-32951074D01*
X22284419Y-32930250D01*
X22291651Y-32910038D01*
X22300830Y-32890632D01*
X22311866Y-32872219D01*
X22324654Y-32854976D01*
X22339070Y-32839070D01*
X22354976Y-32824654D01*
X22372219Y-32811866D01*
X22390632Y-32800830D01*
X22410038Y-32791651D01*
X22430250Y-32784419D01*
X22451074Y-32779203D01*
X22472309Y-32776053D01*
X22493750Y-32775000D01*
X23006250Y-32775000D01*
X23027691Y-32776053D01*
X23027691Y-32776053D01*
G37*
D11*
G04 #@! TD*
G04 #@! TO.P,R7,1*
G04 #@! TO.N,/PA14*
X22750000Y-33212500D03*
D10*
G04 #@! TO.N,/vdda*
G04 #@! TO.C,R8*
G36*
X18452691Y-20276053D02*
X18473926Y-20279203D01*
X18494750Y-20284419D01*
X18514962Y-20291651D01*
X18534368Y-20300830D01*
X18552781Y-20311866D01*
X18570024Y-20324654D01*
X18585930Y-20339070D01*
X18600346Y-20354976D01*
X18613134Y-20372219D01*
X18624170Y-20390632D01*
X18633349Y-20410038D01*
X18640581Y-20430250D01*
X18645797Y-20451074D01*
X18648947Y-20472309D01*
X18650000Y-20493750D01*
X18650000Y-21006250D01*
X18648947Y-21027691D01*
X18645797Y-21048926D01*
X18640581Y-21069750D01*
X18633349Y-21089962D01*
X18624170Y-21109368D01*
X18613134Y-21127781D01*
X18600346Y-21145024D01*
X18585930Y-21160930D01*
X18570024Y-21175346D01*
X18552781Y-21188134D01*
X18534368Y-21199170D01*
X18514962Y-21208349D01*
X18494750Y-21215581D01*
X18473926Y-21220797D01*
X18452691Y-21223947D01*
X18431250Y-21225000D01*
X17993750Y-21225000D01*
X17972309Y-21223947D01*
X17951074Y-21220797D01*
X17930250Y-21215581D01*
X17910038Y-21208349D01*
X17890632Y-21199170D01*
X17872219Y-21188134D01*
X17854976Y-21175346D01*
X17839070Y-21160930D01*
X17824654Y-21145024D01*
X17811866Y-21127781D01*
X17800830Y-21109368D01*
X17791651Y-21089962D01*
X17784419Y-21069750D01*
X17779203Y-21048926D01*
X17776053Y-21027691D01*
X17775000Y-21006250D01*
X17775000Y-20493750D01*
X17776053Y-20472309D01*
X17779203Y-20451074D01*
X17784419Y-20430250D01*
X17791651Y-20410038D01*
X17800830Y-20390632D01*
X17811866Y-20372219D01*
X17824654Y-20354976D01*
X17839070Y-20339070D01*
X17854976Y-20324654D01*
X17872219Y-20311866D01*
X17890632Y-20300830D01*
X17910038Y-20291651D01*
X17930250Y-20284419D01*
X17951074Y-20279203D01*
X17972309Y-20276053D01*
X17993750Y-20275000D01*
X18431250Y-20275000D01*
X18452691Y-20276053D01*
X18452691Y-20276053D01*
G37*
D11*
G04 #@! TD*
G04 #@! TO.P,R8,2*
G04 #@! TO.N,/vdda*
X18212500Y-20750000D03*
D10*
G04 #@! TO.N,/3.3v*
G04 #@! TO.C,R8*
G36*
X20027691Y-20276053D02*
X20048926Y-20279203D01*
X20069750Y-20284419D01*
X20089962Y-20291651D01*
X20109368Y-20300830D01*
X20127781Y-20311866D01*
X20145024Y-20324654D01*
X20160930Y-20339070D01*
X20175346Y-20354976D01*
X20188134Y-20372219D01*
X20199170Y-20390632D01*
X20208349Y-20410038D01*
X20215581Y-20430250D01*
X20220797Y-20451074D01*
X20223947Y-20472309D01*
X20225000Y-20493750D01*
X20225000Y-21006250D01*
X20223947Y-21027691D01*
X20220797Y-21048926D01*
X20215581Y-21069750D01*
X20208349Y-21089962D01*
X20199170Y-21109368D01*
X20188134Y-21127781D01*
X20175346Y-21145024D01*
X20160930Y-21160930D01*
X20145024Y-21175346D01*
X20127781Y-21188134D01*
X20109368Y-21199170D01*
X20089962Y-21208349D01*
X20069750Y-21215581D01*
X20048926Y-21220797D01*
X20027691Y-21223947D01*
X20006250Y-21225000D01*
X19568750Y-21225000D01*
X19547309Y-21223947D01*
X19526074Y-21220797D01*
X19505250Y-21215581D01*
X19485038Y-21208349D01*
X19465632Y-21199170D01*
X19447219Y-21188134D01*
X19429976Y-21175346D01*
X19414070Y-21160930D01*
X19399654Y-21145024D01*
X19386866Y-21127781D01*
X19375830Y-21109368D01*
X19366651Y-21089962D01*
X19359419Y-21069750D01*
X19354203Y-21048926D01*
X19351053Y-21027691D01*
X19350000Y-21006250D01*
X19350000Y-20493750D01*
X19351053Y-20472309D01*
X19354203Y-20451074D01*
X19359419Y-20430250D01*
X19366651Y-20410038D01*
X19375830Y-20390632D01*
X19386866Y-20372219D01*
X19399654Y-20354976D01*
X19414070Y-20339070D01*
X19429976Y-20324654D01*
X19447219Y-20311866D01*
X19465632Y-20300830D01*
X19485038Y-20291651D01*
X19505250Y-20284419D01*
X19526074Y-20279203D01*
X19547309Y-20276053D01*
X19568750Y-20275000D01*
X20006250Y-20275000D01*
X20027691Y-20276053D01*
X20027691Y-20276053D01*
G37*
D11*
G04 #@! TD*
G04 #@! TO.P,R8,1*
G04 #@! TO.N,/3.3v*
X19787500Y-20750000D03*
D15*
G04 #@! TO.P,Y1,1*
G04 #@! TO.N,/osc32k_in*
X9750000Y-12000000D03*
G04 #@! TO.P,Y1,2*
G04 #@! TO.N,/osc32k_out*
X7850000Y-12000000D03*
G04 #@! TD*
D16*
G04 #@! TO.P,Y2,1*
G04 #@! TO.N,/osc_in*
X9750000Y-16250000D03*
G04 #@! TO.P,Y2,2*
G04 #@! TO.N,/osc_out*
X9750000Y-21150000D03*
G04 #@! TD*
D10*
G04 #@! TO.N,/PB0*
G04 #@! TO.C,R9*
G36*
X7952691Y-25026053D02*
X7973926Y-25029203D01*
X7994750Y-25034419D01*
X8014962Y-25041651D01*
X8034368Y-25050830D01*
X8052781Y-25061866D01*
X8070024Y-25074654D01*
X8085930Y-25089070D01*
X8100346Y-25104976D01*
X8113134Y-25122219D01*
X8124170Y-25140632D01*
X8133349Y-25160038D01*
X8140581Y-25180250D01*
X8145797Y-25201074D01*
X8148947Y-25222309D01*
X8150000Y-25243750D01*
X8150000Y-25756250D01*
X8148947Y-25777691D01*
X8145797Y-25798926D01*
X8140581Y-25819750D01*
X8133349Y-25839962D01*
X8124170Y-25859368D01*
X8113134Y-25877781D01*
X8100346Y-25895024D01*
X8085930Y-25910930D01*
X8070024Y-25925346D01*
X8052781Y-25938134D01*
X8034368Y-25949170D01*
X8014962Y-25958349D01*
X7994750Y-25965581D01*
X7973926Y-25970797D01*
X7952691Y-25973947D01*
X7931250Y-25975000D01*
X7493750Y-25975000D01*
X7472309Y-25973947D01*
X7451074Y-25970797D01*
X7430250Y-25965581D01*
X7410038Y-25958349D01*
X7390632Y-25949170D01*
X7372219Y-25938134D01*
X7354976Y-25925346D01*
X7339070Y-25910930D01*
X7324654Y-25895024D01*
X7311866Y-25877781D01*
X7300830Y-25859368D01*
X7291651Y-25839962D01*
X7284419Y-25819750D01*
X7279203Y-25798926D01*
X7276053Y-25777691D01*
X7275000Y-25756250D01*
X7275000Y-25243750D01*
X7276053Y-25222309D01*
X7279203Y-25201074D01*
X7284419Y-25180250D01*
X7291651Y-25160038D01*
X7300830Y-25140632D01*
X7311866Y-25122219D01*
X7324654Y-25104976D01*
X7339070Y-25089070D01*
X7354976Y-25074654D01*
X7372219Y-25061866D01*
X7390632Y-25050830D01*
X7410038Y-25041651D01*
X7430250Y-25034419D01*
X7451074Y-25029203D01*
X7472309Y-25026053D01*
X7493750Y-25025000D01*
X7931250Y-25025000D01*
X7952691Y-25026053D01*
X7952691Y-25026053D01*
G37*
D11*
G04 #@! TD*
G04 #@! TO.P,R9,1*
G04 #@! TO.N,/PB0*
X7712500Y-25500000D03*
D10*
G04 #@! TO.N,Net-(D2-Pad2)*
G04 #@! TO.C,R9*
G36*
X9527691Y-25026053D02*
X9548926Y-25029203D01*
X9569750Y-25034419D01*
X9589962Y-25041651D01*
X9609368Y-25050830D01*
X9627781Y-25061866D01*
X9645024Y-25074654D01*
X9660930Y-25089070D01*
X9675346Y-25104976D01*
X9688134Y-25122219D01*
X9699170Y-25140632D01*
X9708349Y-25160038D01*
X9715581Y-25180250D01*
X9720797Y-25201074D01*
X9723947Y-25222309D01*
X9725000Y-25243750D01*
X9725000Y-25756250D01*
X9723947Y-25777691D01*
X9720797Y-25798926D01*
X9715581Y-25819750D01*
X9708349Y-25839962D01*
X9699170Y-25859368D01*
X9688134Y-25877781D01*
X9675346Y-25895024D01*
X9660930Y-25910930D01*
X9645024Y-25925346D01*
X9627781Y-25938134D01*
X9609368Y-25949170D01*
X9589962Y-25958349D01*
X9569750Y-25965581D01*
X9548926Y-25970797D01*
X9527691Y-25973947D01*
X9506250Y-25975000D01*
X9068750Y-25975000D01*
X9047309Y-25973947D01*
X9026074Y-25970797D01*
X9005250Y-25965581D01*
X8985038Y-25958349D01*
X8965632Y-25949170D01*
X8947219Y-25938134D01*
X8929976Y-25925346D01*
X8914070Y-25910930D01*
X8899654Y-25895024D01*
X8886866Y-25877781D01*
X8875830Y-25859368D01*
X8866651Y-25839962D01*
X8859419Y-25819750D01*
X8854203Y-25798926D01*
X8851053Y-25777691D01*
X8850000Y-25756250D01*
X8850000Y-25243750D01*
X8851053Y-25222309D01*
X8854203Y-25201074D01*
X8859419Y-25180250D01*
X8866651Y-25160038D01*
X8875830Y-25140632D01*
X8886866Y-25122219D01*
X8899654Y-25104976D01*
X8914070Y-25089070D01*
X8929976Y-25074654D01*
X8947219Y-25061866D01*
X8965632Y-25050830D01*
X8985038Y-25041651D01*
X9005250Y-25034419D01*
X9026074Y-25029203D01*
X9047309Y-25026053D01*
X9068750Y-25025000D01*
X9506250Y-25025000D01*
X9527691Y-25026053D01*
X9527691Y-25026053D01*
G37*
D11*
G04 #@! TD*
G04 #@! TO.P,R9,2*
G04 #@! TO.N,Net-(D2-Pad2)*
X9287500Y-25500000D03*
D10*
G04 #@! TO.N,Net-(D3-Pad2)*
G04 #@! TO.C,R10*
G36*
X9527691Y-26526053D02*
X9548926Y-26529203D01*
X9569750Y-26534419D01*
X9589962Y-26541651D01*
X9609368Y-26550830D01*
X9627781Y-26561866D01*
X9645024Y-26574654D01*
X9660930Y-26589070D01*
X9675346Y-26604976D01*
X9688134Y-26622219D01*
X9699170Y-26640632D01*
X9708349Y-26660038D01*
X9715581Y-26680250D01*
X9720797Y-26701074D01*
X9723947Y-26722309D01*
X9725000Y-26743750D01*
X9725000Y-27256250D01*
X9723947Y-27277691D01*
X9720797Y-27298926D01*
X9715581Y-27319750D01*
X9708349Y-27339962D01*
X9699170Y-27359368D01*
X9688134Y-27377781D01*
X9675346Y-27395024D01*
X9660930Y-27410930D01*
X9645024Y-27425346D01*
X9627781Y-27438134D01*
X9609368Y-27449170D01*
X9589962Y-27458349D01*
X9569750Y-27465581D01*
X9548926Y-27470797D01*
X9527691Y-27473947D01*
X9506250Y-27475000D01*
X9068750Y-27475000D01*
X9047309Y-27473947D01*
X9026074Y-27470797D01*
X9005250Y-27465581D01*
X8985038Y-27458349D01*
X8965632Y-27449170D01*
X8947219Y-27438134D01*
X8929976Y-27425346D01*
X8914070Y-27410930D01*
X8899654Y-27395024D01*
X8886866Y-27377781D01*
X8875830Y-27359368D01*
X8866651Y-27339962D01*
X8859419Y-27319750D01*
X8854203Y-27298926D01*
X8851053Y-27277691D01*
X8850000Y-27256250D01*
X8850000Y-26743750D01*
X8851053Y-26722309D01*
X8854203Y-26701074D01*
X8859419Y-26680250D01*
X8866651Y-26660038D01*
X8875830Y-26640632D01*
X8886866Y-26622219D01*
X8899654Y-26604976D01*
X8914070Y-26589070D01*
X8929976Y-26574654D01*
X8947219Y-26561866D01*
X8965632Y-26550830D01*
X8985038Y-26541651D01*
X9005250Y-26534419D01*
X9026074Y-26529203D01*
X9047309Y-26526053D01*
X9068750Y-26525000D01*
X9506250Y-26525000D01*
X9527691Y-26526053D01*
X9527691Y-26526053D01*
G37*
D11*
G04 #@! TD*
G04 #@! TO.P,R10,2*
G04 #@! TO.N,Net-(D3-Pad2)*
X9287500Y-27000000D03*
D10*
G04 #@! TO.N,/PB1*
G04 #@! TO.C,R10*
G36*
X7952691Y-26526053D02*
X7973926Y-26529203D01*
X7994750Y-26534419D01*
X8014962Y-26541651D01*
X8034368Y-26550830D01*
X8052781Y-26561866D01*
X8070024Y-26574654D01*
X8085930Y-26589070D01*
X8100346Y-26604976D01*
X8113134Y-26622219D01*
X8124170Y-26640632D01*
X8133349Y-26660038D01*
X8140581Y-26680250D01*
X8145797Y-26701074D01*
X8148947Y-26722309D01*
X8150000Y-26743750D01*
X8150000Y-27256250D01*
X8148947Y-27277691D01*
X8145797Y-27298926D01*
X8140581Y-27319750D01*
X8133349Y-27339962D01*
X8124170Y-27359368D01*
X8113134Y-27377781D01*
X8100346Y-27395024D01*
X8085930Y-27410930D01*
X8070024Y-27425346D01*
X8052781Y-27438134D01*
X8034368Y-27449170D01*
X8014962Y-27458349D01*
X7994750Y-27465581D01*
X7973926Y-27470797D01*
X7952691Y-27473947D01*
X7931250Y-27475000D01*
X7493750Y-27475000D01*
X7472309Y-27473947D01*
X7451074Y-27470797D01*
X7430250Y-27465581D01*
X7410038Y-27458349D01*
X7390632Y-27449170D01*
X7372219Y-27438134D01*
X7354976Y-27425346D01*
X7339070Y-27410930D01*
X7324654Y-27395024D01*
X7311866Y-27377781D01*
X7300830Y-27359368D01*
X7291651Y-27339962D01*
X7284419Y-27319750D01*
X7279203Y-27298926D01*
X7276053Y-27277691D01*
X7275000Y-27256250D01*
X7275000Y-26743750D01*
X7276053Y-26722309D01*
X7279203Y-26701074D01*
X7284419Y-26680250D01*
X7291651Y-26660038D01*
X7300830Y-26640632D01*
X7311866Y-26622219D01*
X7324654Y-26604976D01*
X7339070Y-26589070D01*
X7354976Y-26574654D01*
X7372219Y-26561866D01*
X7390632Y-26550830D01*
X7410038Y-26541651D01*
X7430250Y-26534419D01*
X7451074Y-26529203D01*
X7472309Y-26526053D01*
X7493750Y-26525000D01*
X7931250Y-26525000D01*
X7952691Y-26526053D01*
X7952691Y-26526053D01*
G37*
D11*
G04 #@! TD*
G04 #@! TO.P,R10,1*
G04 #@! TO.N,/PB1*
X7712500Y-27000000D03*
D17*
G04 #@! TO.N,GND*
X13850000Y-16600000D03*
X25250000Y-21800000D03*
X25900000Y-19750000D03*
X18000000Y-23300000D03*
X21100000Y-14200000D03*
X16500000Y-12500000D03*
X15700000Y-7150000D03*
X24650000Y-8950000D03*
X13000000Y-20050000D03*
X13850000Y-14700000D03*
X23500000Y-26900000D03*
X21700000Y-26900000D03*
G04 #@! TO.N,/osc_out*
X9200000Y-17600000D03*
G04 #@! TO.N,/3.3v*
X22290383Y-20550000D03*
X19800000Y-26550000D03*
X16700000Y-32950000D03*
X19650000Y-14250000D03*
G04 #@! TO.N,/reset_n*
X16650000Y-18050000D03*
X18700000Y-25650000D03*
G04 #@! TO.N,/usb-*
X20990382Y-18909621D03*
G04 #@! TO.N,/usb+*
X21000000Y-18000000D03*
G04 #@! TO.N,Net-(D1-Pad44)*
X24000000Y-13000000D03*
G04 #@! TO.N,/5v*
X18950000Y-9050000D03*
X12550000Y-32750000D03*
G04 #@! TO.N,/vdda*
X16000000Y-18750000D03*
X15400000Y-11600000D03*
G04 #@! TO.N,/vlcd*
X16525610Y-13674390D03*
G04 #@! TO.N,/PA13*
X24150000Y-22800000D03*
G04 #@! TO.N,/PA14*
X25250000Y-20800000D03*
G04 #@! TO.N,Net-(D2-Pad2)*
X10500000Y-27250000D03*
G04 #@! TO.N,Net-(D3-Pad2)*
X9250000Y-28450000D03*
G04 #@! TD*
D18*
G04 #@! TO.N,GND*
X13850000Y-16600000D02*
X13850000Y-14700000D01*
X27940000Y-30480000D02*
X26280000Y-30480000D01*
X26280000Y-30480000D02*
X23500000Y-27700000D01*
X23500000Y-27700000D02*
X23500000Y-26900000D01*
G04 #@! TO.N,/osc32k_in*
X10249999Y-11500001D02*
X9750000Y-12000000D01*
X10249999Y-8524999D02*
X10249999Y-11500001D01*
X9225000Y-7500000D02*
X10249999Y-8524999D01*
X12212500Y-12000000D02*
X13000000Y-12787500D01*
X9750000Y-12000000D02*
X12212500Y-12000000D01*
G04 #@! TO.N,/osc32k_out*
X8075000Y-12000000D02*
X7850000Y-12000000D01*
X9225000Y-10850000D02*
X8075000Y-12000000D01*
X9225000Y-10000000D02*
X9225000Y-10850000D01*
X8349999Y-12499999D02*
X7850000Y-12000000D01*
X10912499Y-12800001D02*
X8650001Y-12800001D01*
X10925000Y-12787500D02*
X10912499Y-12800001D01*
X8650001Y-12800001D02*
X8349999Y-12499999D01*
X11500000Y-12787500D02*
X10925000Y-12787500D01*
G04 #@! TO.N,/osc_in*
X9787500Y-16212500D02*
X9750000Y-16250000D01*
X11500000Y-16212500D02*
X9787500Y-16212500D01*
X9225000Y-15725000D02*
X9750000Y-16250000D01*
X9225000Y-14000000D02*
X9225000Y-15725000D01*
G04 #@! TO.N,/osc_out*
X9225000Y-20625000D02*
X9750000Y-21150000D01*
X9225000Y-19000000D02*
X9225000Y-20625000D01*
X11487500Y-21150000D02*
X11500000Y-21137500D01*
X9750000Y-21150000D02*
X11487500Y-21150000D01*
X9200000Y-18975000D02*
X9225000Y-19000000D01*
X9200000Y-17600000D02*
X9200000Y-18975000D01*
D19*
G04 #@! TO.N,/3.3v*
X19725000Y-16250000D02*
X19725000Y-18750000D01*
X19787500Y-18812500D02*
X19725000Y-18750000D01*
X19787500Y-20750000D02*
X19787500Y-18812500D01*
X19787500Y-26537500D02*
X19800000Y-26550000D01*
X22462500Y-21750000D02*
X19787500Y-21750000D01*
X19787500Y-20750000D02*
X19787500Y-21750000D01*
X19787500Y-21750000D02*
X19787500Y-26537500D01*
X22290383Y-21577883D02*
X22462500Y-21750000D01*
X22290383Y-20550000D02*
X22290383Y-21577883D01*
X15675000Y-34290000D02*
X16212500Y-34290000D01*
X15260000Y-34290000D02*
X15675000Y-34290000D01*
X12700000Y-36850000D02*
X15260000Y-34290000D01*
X12700000Y-38100000D02*
X12700000Y-36850000D01*
X16212500Y-34290000D02*
X16212500Y-33437500D01*
X16212500Y-33437500D02*
X16700000Y-32950000D01*
X19650000Y-13387500D02*
X20000000Y-13037500D01*
X19650000Y-14250000D02*
X19650000Y-13387500D01*
X19650000Y-16175000D02*
X19725000Y-16250000D01*
X19650000Y-14250000D02*
X19650000Y-16175000D01*
D18*
G04 #@! TO.N,/reset_n*
X15800010Y-17200010D02*
X16650000Y-18050000D01*
X15800010Y-12161992D02*
X15800010Y-17200010D01*
X17812002Y-10150000D02*
X15800010Y-12161992D01*
X21820000Y-10150000D02*
X17812002Y-10150000D01*
X26890000Y-5080000D02*
X21820000Y-10150000D01*
X27940000Y-5080000D02*
X26890000Y-5080000D01*
X17780000Y-34297500D02*
X17787500Y-34290000D01*
X17787500Y-34290000D02*
X17787500Y-27462500D01*
X17787500Y-27057474D02*
X17787500Y-27462500D01*
X18700000Y-26144974D02*
X17787500Y-27057474D01*
X18700000Y-25650000D02*
X18700000Y-26144974D01*
X17787500Y-38092500D02*
X17780000Y-38100000D01*
X17787500Y-34290000D02*
X17787500Y-38092500D01*
G04 #@! TO.N,/usb-*
X22365379Y-18909621D02*
X22525000Y-18750000D01*
X20990382Y-18909621D02*
X22365379Y-18909621D01*
G04 #@! TO.N,/usb+*
X22525000Y-16475000D02*
X22525000Y-16250000D01*
X21000000Y-18000000D02*
X22525000Y-16475000D01*
G04 #@! TO.N,Net-(D1-Pad44)*
X22787500Y-13000000D02*
X22750000Y-13037500D01*
X24000000Y-13000000D02*
X22787500Y-13000000D01*
D19*
G04 #@! TO.N,/5v*
X18950000Y-9050000D02*
X16050000Y-9050000D01*
X16050000Y-9050000D02*
X14600000Y-10500000D01*
X14600000Y-10500000D02*
X14600000Y-31150000D01*
X14600000Y-31150000D02*
X13000000Y-32750000D01*
X13000000Y-32750000D02*
X12550000Y-32750000D01*
D18*
G04 #@! TO.N,/vdda*
X18212500Y-18812500D02*
X18275000Y-18750000D01*
X18212500Y-20750000D02*
X18212500Y-18812500D01*
X16000000Y-18750000D02*
X15400000Y-18150000D01*
X15400000Y-18150000D02*
X15400000Y-11600000D01*
X16494974Y-18750000D02*
X18275000Y-18750000D01*
X16000000Y-18750000D02*
X16494974Y-18750000D01*
X18200000Y-20762500D02*
X18212500Y-20750000D01*
X16750000Y-20762500D02*
X18200000Y-20762500D01*
G04 #@! TO.N,/vlcd*
X16525610Y-14169364D02*
X16525610Y-13674390D01*
X16525610Y-15100610D02*
X16525610Y-14169364D01*
X17675000Y-16250000D02*
X16525610Y-15100610D01*
X18275000Y-16250000D02*
X17675000Y-16250000D01*
G04 #@! TO.N,/PB0*
X7712500Y-25492500D02*
X7712500Y-25500000D01*
X5080000Y-22860000D02*
X7712500Y-25492500D01*
G04 #@! TO.N,/PB1*
X2540000Y-25400000D02*
X3790000Y-26650000D01*
X7175000Y-27000000D02*
X7712500Y-27000000D01*
X6825000Y-26650000D02*
X7175000Y-27000000D01*
X3790000Y-26650000D02*
X6825000Y-26650000D01*
G04 #@! TO.N,/PA13*
X21850000Y-31612500D02*
X20250000Y-33212500D01*
X22350000Y-25084301D02*
X22350000Y-31112500D01*
X24137997Y-23296304D02*
X22350000Y-25084301D01*
X24150000Y-23296304D02*
X24137997Y-23296304D01*
X22350000Y-31112500D02*
X21850000Y-31612500D01*
X24150000Y-22800000D02*
X24150000Y-23296304D01*
G04 #@! TO.N,/PA14*
X25250000Y-20800000D02*
X25900001Y-21450001D01*
X22750000Y-33212500D02*
X22750000Y-25250000D01*
X25900001Y-22112001D02*
X25900001Y-21450001D01*
X22762002Y-25250000D02*
X25900001Y-22112001D01*
X22750000Y-25250000D02*
X22762002Y-25250000D01*
G04 #@! TO.N,Net-(J1-Pad4)*
X20250000Y-38030000D02*
X20320000Y-38100000D01*
X20250000Y-34787500D02*
X20250000Y-38030000D01*
G04 #@! TO.N,Net-(J1-Pad5)*
X22750000Y-37990000D02*
X22860000Y-38100000D01*
X22750000Y-34787500D02*
X22750000Y-37990000D01*
G04 #@! TO.N,/PH1*
X7775000Y-15993000D02*
X7775000Y-19000000D01*
X5732000Y-13950000D02*
X7775000Y-15993000D01*
X3790000Y-13950000D02*
X5732000Y-13950000D01*
X2540000Y-12700000D02*
X3790000Y-13950000D01*
G04 #@! TO.N,/PH0*
X7204290Y-13429290D02*
X7775000Y-14000000D01*
X5080000Y-10160000D02*
X6650000Y-11730000D01*
X6650000Y-11730000D02*
X6650000Y-12875000D01*
X6650000Y-12875000D02*
X7204290Y-13429290D01*
G04 #@! TO.N,/PC15*
X7175000Y-10000000D02*
X7775000Y-10000000D01*
X6075000Y-8900000D02*
X7175000Y-10000000D01*
X3800000Y-8900000D02*
X6075000Y-8900000D01*
X2540000Y-10160000D02*
X3800000Y-8900000D01*
G04 #@! TO.N,/PC14*
X5200000Y-7500000D02*
X5080000Y-7620000D01*
X7775000Y-7500000D02*
X5200000Y-7500000D01*
G04 #@! TO.N,/PA12*
X24575000Y-16250000D02*
X24825000Y-16500000D01*
X23975000Y-16250000D02*
X24575000Y-16250000D01*
X29200000Y-16500000D02*
X30480000Y-17780000D01*
X24825000Y-16500000D02*
X29200000Y-16500000D01*
G04 #@! TO.N,/PA11*
X26370000Y-18750000D02*
X27940000Y-20320000D01*
X23975000Y-18750000D02*
X26370000Y-18750000D01*
G04 #@! TO.N,Net-(D2-Pad2)*
X9287500Y-25500000D02*
X10500000Y-26712500D01*
X10500000Y-26712500D02*
X10500000Y-27250000D01*
G04 #@! TO.N,Net-(D3-Pad2)*
X9287500Y-27000000D02*
X9287500Y-28412500D01*
X9287500Y-28412500D02*
X9250000Y-28450000D01*
G04 #@! TD*
G04 #@! TO.N,GND*
G36*
X32625000Y-39625000D02*
X375000Y-39625000D01*
X375000Y-38312373D01*
X1358940Y-38312373D01*
X1530114Y-38748179D01*
X1855034Y-39085306D01*
X2284234Y-39272429D01*
X2327627Y-39281058D01*
X2515000Y-39212219D01*
X2515000Y-38125000D01*
X2565000Y-38125000D01*
X2565000Y-39212219D01*
X2752373Y-39281058D01*
X2795766Y-39272429D01*
X3224966Y-39085306D01*
X3549886Y-38748179D01*
X3721060Y-38312373D01*
X3652242Y-38125000D01*
X2565000Y-38125000D01*
X2515000Y-38125000D01*
X1427758Y-38125000D01*
X1358940Y-38312373D01*
X375000Y-38312373D01*
X375000Y-37887627D01*
X1358940Y-37887627D01*
X1427758Y-38075000D01*
X2515000Y-38075000D01*
X2515000Y-36987781D01*
X2565000Y-36987781D01*
X2565000Y-38075000D01*
X3652242Y-38075000D01*
X3721060Y-37887627D01*
X3549886Y-37451821D01*
X3355373Y-37250000D01*
X3924123Y-37250000D01*
X3924123Y-38950000D01*
X3947407Y-39067054D01*
X4013712Y-39166288D01*
X4112946Y-39232593D01*
X4230000Y-39255877D01*
X5930000Y-39255877D01*
X6047054Y-39232593D01*
X6146288Y-39166288D01*
X6212593Y-39067054D01*
X6235877Y-38950000D01*
X6235877Y-37250000D01*
X11544123Y-37250000D01*
X11544123Y-38950000D01*
X11567407Y-39067054D01*
X11633712Y-39166288D01*
X11732946Y-39232593D01*
X11850000Y-39255877D01*
X13550000Y-39255877D01*
X13667054Y-39232593D01*
X13766288Y-39166288D01*
X13832593Y-39067054D01*
X13855877Y-38950000D01*
X13855877Y-38312373D01*
X14058940Y-38312373D01*
X14230114Y-38748179D01*
X14555034Y-39085306D01*
X14984234Y-39272429D01*
X15027627Y-39281058D01*
X15215000Y-39212219D01*
X15215000Y-38125000D01*
X15265000Y-38125000D01*
X15265000Y-39212219D01*
X15452373Y-39281058D01*
X15495766Y-39272429D01*
X15924966Y-39085306D01*
X16249886Y-38748179D01*
X16421060Y-38312373D01*
X16352242Y-38125000D01*
X15265000Y-38125000D01*
X15215000Y-38125000D01*
X14127758Y-38125000D01*
X14058940Y-38312373D01*
X13855877Y-38312373D01*
X13855877Y-37887627D01*
X14058940Y-37887627D01*
X14127758Y-38075000D01*
X15215000Y-38075000D01*
X15215000Y-36987781D01*
X15265000Y-36987781D01*
X15265000Y-38075000D01*
X16352242Y-38075000D01*
X16421060Y-37887627D01*
X16249886Y-37451821D01*
X15924966Y-37114694D01*
X15495766Y-36927571D01*
X15452373Y-36918942D01*
X15265000Y-36987781D01*
X15215000Y-36987781D01*
X15027627Y-36918942D01*
X14984234Y-36927571D01*
X14555034Y-37114694D01*
X14230114Y-37451821D01*
X14058940Y-37887627D01*
X13855877Y-37887627D01*
X13855877Y-37250000D01*
X13832593Y-37132946D01*
X13766288Y-37033712D01*
X13667054Y-36967407D01*
X13550000Y-36944123D01*
X13312983Y-36944123D01*
X15467107Y-34790000D01*
X15537779Y-34790000D01*
X15622783Y-34917217D01*
X15792984Y-35030942D01*
X15993750Y-35070877D01*
X16431250Y-35070877D01*
X16632016Y-35030942D01*
X16802217Y-34917217D01*
X16915942Y-34747016D01*
X16955877Y-34546250D01*
X16955877Y-34033750D01*
X16915942Y-33832984D01*
X16802217Y-33662783D01*
X16737540Y-33619567D01*
X16757106Y-33600000D01*
X16829293Y-33600000D01*
X17068195Y-33501043D01*
X17251043Y-33318195D01*
X17350000Y-33079293D01*
X17350000Y-32820707D01*
X17251043Y-32581805D01*
X17068195Y-32398957D01*
X16829293Y-32300000D01*
X16570707Y-32300000D01*
X16331805Y-32398957D01*
X16148957Y-32581805D01*
X16050000Y-32820707D01*
X16050000Y-32892894D01*
X15893768Y-33049126D01*
X15852021Y-33077020D01*
X15824127Y-33118767D01*
X15741512Y-33242410D01*
X15702705Y-33437500D01*
X15712501Y-33486746D01*
X15712501Y-33602835D01*
X15622783Y-33662783D01*
X15537779Y-33790000D01*
X15309243Y-33790000D01*
X15260000Y-33780205D01*
X15210757Y-33790000D01*
X15064910Y-33819011D01*
X14899520Y-33929520D01*
X14871625Y-33971268D01*
X12381268Y-36461625D01*
X12339521Y-36489520D01*
X12311627Y-36531267D01*
X12229012Y-36654910D01*
X12190205Y-36850000D01*
X12200001Y-36899246D01*
X12200001Y-36944123D01*
X11850000Y-36944123D01*
X11732946Y-36967407D01*
X11633712Y-37033712D01*
X11567407Y-37132946D01*
X11544123Y-37250000D01*
X6235877Y-37250000D01*
X6212593Y-37132946D01*
X6146288Y-37033712D01*
X6047054Y-36967407D01*
X5930000Y-36944123D01*
X4230000Y-36944123D01*
X4112946Y-36967407D01*
X4013712Y-37033712D01*
X3947407Y-37132946D01*
X3924123Y-37250000D01*
X3355373Y-37250000D01*
X3224966Y-37114694D01*
X2795766Y-36927571D01*
X2752373Y-36918942D01*
X2565000Y-36987781D01*
X2515000Y-36987781D01*
X2327627Y-36918942D01*
X2284234Y-36927571D01*
X1855034Y-37114694D01*
X1530114Y-37451821D01*
X1358940Y-37887627D01*
X375000Y-37887627D01*
X375000Y-33020000D01*
X1367471Y-33020000D01*
X1456724Y-33468707D01*
X1710897Y-33849103D01*
X2091293Y-34103276D01*
X2426739Y-34170000D01*
X2653261Y-34170000D01*
X2988707Y-34103276D01*
X3369103Y-33849103D01*
X3623276Y-33468707D01*
X3712529Y-33020000D01*
X3907471Y-33020000D01*
X3996724Y-33468707D01*
X4250897Y-33849103D01*
X4631293Y-34103276D01*
X4966739Y-34170000D01*
X5193261Y-34170000D01*
X5528707Y-34103276D01*
X5909103Y-33849103D01*
X6163276Y-33468707D01*
X6252529Y-33020000D01*
X6173106Y-32620707D01*
X11900000Y-32620707D01*
X11900000Y-32879293D01*
X11998957Y-33118195D01*
X12181805Y-33301043D01*
X12420707Y-33400000D01*
X12679293Y-33400000D01*
X12918195Y-33301043D01*
X12966172Y-33253066D01*
X13000000Y-33259795D01*
X13049241Y-33250000D01*
X13049243Y-33250000D01*
X13195090Y-33220989D01*
X13360480Y-33110480D01*
X13388376Y-33068730D01*
X14918732Y-31538375D01*
X14960480Y-31510480D01*
X15070989Y-31345090D01*
X15100000Y-31199243D01*
X15109795Y-31150000D01*
X15100000Y-31100757D01*
X15100000Y-22450000D01*
X15925000Y-22450000D01*
X15925000Y-22844619D01*
X15978284Y-22973259D01*
X16076741Y-23071715D01*
X16205380Y-23125000D01*
X16637500Y-23125000D01*
X16725000Y-23037500D01*
X16725000Y-22362500D01*
X16775000Y-22362500D01*
X16775000Y-23037500D01*
X16862500Y-23125000D01*
X17294620Y-23125000D01*
X17423259Y-23071715D01*
X17521716Y-22973259D01*
X17575000Y-22844619D01*
X17575000Y-22450000D01*
X17487500Y-22362500D01*
X16775000Y-22362500D01*
X16725000Y-22362500D01*
X16012500Y-22362500D01*
X15925000Y-22450000D01*
X15100000Y-22450000D01*
X15100000Y-21830381D01*
X15925000Y-21830381D01*
X15925000Y-22225000D01*
X16012500Y-22312500D01*
X16725000Y-22312500D01*
X16725000Y-21637500D01*
X16775000Y-21637500D01*
X16775000Y-22312500D01*
X17487500Y-22312500D01*
X17575000Y-22225000D01*
X17575000Y-21830381D01*
X17521716Y-21701741D01*
X17423259Y-21603285D01*
X17294620Y-21550000D01*
X16862500Y-21550000D01*
X16775000Y-21637500D01*
X16725000Y-21637500D01*
X16637500Y-21550000D01*
X16205380Y-21550000D01*
X16076741Y-21603285D01*
X15978284Y-21701741D01*
X15925000Y-21830381D01*
X15100000Y-21830381D01*
X15100000Y-18420999D01*
X15111616Y-18438384D01*
X15145018Y-18460702D01*
X15350000Y-18665685D01*
X15350000Y-18879293D01*
X15448957Y-19118195D01*
X15631805Y-19301043D01*
X15870707Y-19400000D01*
X16129293Y-19400000D01*
X16368195Y-19301043D01*
X16519238Y-19150000D01*
X17469123Y-19150000D01*
X17469123Y-19500000D01*
X17492407Y-19617054D01*
X17558712Y-19716288D01*
X17657946Y-19782593D01*
X17775000Y-19805877D01*
X17812500Y-19805877D01*
X17812500Y-20005176D01*
X17792984Y-20009058D01*
X17622783Y-20122783D01*
X17509058Y-20292984D01*
X17495230Y-20362500D01*
X17494824Y-20362500D01*
X17490942Y-20342984D01*
X17377217Y-20172783D01*
X17207016Y-20059058D01*
X17006250Y-20019123D01*
X16493750Y-20019123D01*
X16292984Y-20059058D01*
X16122783Y-20172783D01*
X16009058Y-20342984D01*
X15969123Y-20543750D01*
X15969123Y-20981250D01*
X16009058Y-21182016D01*
X16122783Y-21352217D01*
X16292984Y-21465942D01*
X16493750Y-21505877D01*
X17006250Y-21505877D01*
X17207016Y-21465942D01*
X17377217Y-21352217D01*
X17490942Y-21182016D01*
X17494824Y-21162500D01*
X17500203Y-21162500D01*
X17509058Y-21207016D01*
X17622783Y-21377217D01*
X17792984Y-21490942D01*
X17993750Y-21530877D01*
X18431250Y-21530877D01*
X18632016Y-21490942D01*
X18802217Y-21377217D01*
X18915942Y-21207016D01*
X18955877Y-21006250D01*
X18955877Y-20493750D01*
X18915942Y-20292984D01*
X18802217Y-20122783D01*
X18632016Y-20009058D01*
X18612500Y-20005176D01*
X18612500Y-19805877D01*
X18925000Y-19805877D01*
X19074878Y-19760498D01*
X19107946Y-19782593D01*
X19225000Y-19805877D01*
X19287500Y-19805877D01*
X19287500Y-20062836D01*
X19197783Y-20122783D01*
X19084058Y-20292984D01*
X19044123Y-20493750D01*
X19044123Y-21006250D01*
X19084058Y-21207016D01*
X19197783Y-21377217D01*
X19287501Y-21437165D01*
X19287501Y-21700753D01*
X19277705Y-21750000D01*
X19287500Y-21799243D01*
X19287501Y-25369821D01*
X19251043Y-25281805D01*
X19068195Y-25098957D01*
X18829293Y-25000000D01*
X18570707Y-25000000D01*
X18331805Y-25098957D01*
X18148957Y-25281805D01*
X18050000Y-25520707D01*
X18050000Y-25779293D01*
X18148957Y-26018195D01*
X18205026Y-26074264D01*
X17532519Y-26746771D01*
X17499116Y-26769090D01*
X17423804Y-26881805D01*
X17410709Y-26901403D01*
X17379664Y-27057474D01*
X17387500Y-27096868D01*
X17387500Y-27501894D01*
X17387501Y-27501899D01*
X17387500Y-33545176D01*
X17367984Y-33549058D01*
X17197783Y-33662783D01*
X17084058Y-33832984D01*
X17044123Y-34033750D01*
X17044123Y-34546250D01*
X17084058Y-34747016D01*
X17197783Y-34917217D01*
X17367984Y-35030942D01*
X17387500Y-35034824D01*
X17387501Y-37005544D01*
X17331293Y-37016724D01*
X16950897Y-37270897D01*
X16696724Y-37651293D01*
X16607471Y-38100000D01*
X16696724Y-38548707D01*
X16950897Y-38929103D01*
X17331293Y-39183276D01*
X17666739Y-39250000D01*
X17893261Y-39250000D01*
X18228707Y-39183276D01*
X18609103Y-38929103D01*
X18863276Y-38548707D01*
X18952529Y-38100000D01*
X19147471Y-38100000D01*
X19236724Y-38548707D01*
X19490897Y-38929103D01*
X19871293Y-39183276D01*
X20206739Y-39250000D01*
X20433261Y-39250000D01*
X20768707Y-39183276D01*
X21149103Y-38929103D01*
X21403276Y-38548707D01*
X21492529Y-38100000D01*
X21687471Y-38100000D01*
X21776724Y-38548707D01*
X22030897Y-38929103D01*
X22411293Y-39183276D01*
X22746739Y-39250000D01*
X22973261Y-39250000D01*
X23308707Y-39183276D01*
X23689103Y-38929103D01*
X23943276Y-38548707D01*
X24032529Y-38100000D01*
X23943276Y-37651293D01*
X23689103Y-37270897D01*
X23308707Y-37016724D01*
X23150000Y-36985155D01*
X23150000Y-35502283D01*
X23207016Y-35490942D01*
X23377217Y-35377217D01*
X23490942Y-35207016D01*
X23530877Y-35006250D01*
X23530877Y-34568750D01*
X23490942Y-34367984D01*
X23377217Y-34197783D01*
X23207016Y-34084058D01*
X23006250Y-34044123D01*
X22493750Y-34044123D01*
X22292984Y-34084058D01*
X22122783Y-34197783D01*
X22009058Y-34367984D01*
X21969123Y-34568750D01*
X21969123Y-35006250D01*
X22009058Y-35207016D01*
X22122783Y-35377217D01*
X22292984Y-35490942D01*
X22350000Y-35502283D01*
X22350001Y-37057678D01*
X22030897Y-37270897D01*
X21776724Y-37651293D01*
X21687471Y-38100000D01*
X21492529Y-38100000D01*
X21403276Y-37651293D01*
X21149103Y-37270897D01*
X20768707Y-37016724D01*
X20650000Y-36993112D01*
X20650000Y-35502283D01*
X20707016Y-35490942D01*
X20877217Y-35377217D01*
X20990942Y-35207016D01*
X21030877Y-35006250D01*
X21030877Y-34568750D01*
X20990942Y-34367984D01*
X20877217Y-34197783D01*
X20707016Y-34084058D01*
X20506250Y-34044123D01*
X19993750Y-34044123D01*
X19792984Y-34084058D01*
X19622783Y-34197783D01*
X19509058Y-34367984D01*
X19469123Y-34568750D01*
X19469123Y-35006250D01*
X19509058Y-35207016D01*
X19622783Y-35377217D01*
X19792984Y-35490942D01*
X19850000Y-35502283D01*
X19850001Y-37030951D01*
X19490897Y-37270897D01*
X19236724Y-37651293D01*
X19147471Y-38100000D01*
X18952529Y-38100000D01*
X18863276Y-37651293D01*
X18609103Y-37270897D01*
X18228707Y-37016724D01*
X18187500Y-37008527D01*
X18187500Y-35034824D01*
X18207016Y-35030942D01*
X18377217Y-34917217D01*
X18490942Y-34747016D01*
X18530877Y-34546250D01*
X18530877Y-34033750D01*
X18490942Y-33832984D01*
X18377217Y-33662783D01*
X18207016Y-33549058D01*
X18187500Y-33545176D01*
X18187500Y-32993750D01*
X19469123Y-32993750D01*
X19469123Y-33431250D01*
X19509058Y-33632016D01*
X19622783Y-33802217D01*
X19792984Y-33915942D01*
X19993750Y-33955877D01*
X20506250Y-33955877D01*
X20707016Y-33915942D01*
X20877217Y-33802217D01*
X20990942Y-33632016D01*
X21030877Y-33431250D01*
X21030877Y-32997307D01*
X22160698Y-31867487D01*
X22160700Y-31867484D01*
X22350000Y-31678184D01*
X22350000Y-32497717D01*
X22292984Y-32509058D01*
X22122783Y-32622783D01*
X22009058Y-32792984D01*
X21969123Y-32993750D01*
X21969123Y-33431250D01*
X22009058Y-33632016D01*
X22122783Y-33802217D01*
X22292984Y-33915942D01*
X22493750Y-33955877D01*
X23006250Y-33955877D01*
X23207016Y-33915942D01*
X23377217Y-33802217D01*
X23490942Y-33632016D01*
X23530877Y-33431250D01*
X23530877Y-33020000D01*
X26767471Y-33020000D01*
X26856724Y-33468707D01*
X27110897Y-33849103D01*
X27491293Y-34103276D01*
X27826739Y-34170000D01*
X28053261Y-34170000D01*
X28388707Y-34103276D01*
X28769103Y-33849103D01*
X29023276Y-33468707D01*
X29112529Y-33020000D01*
X29307471Y-33020000D01*
X29396724Y-33468707D01*
X29650897Y-33849103D01*
X30031293Y-34103276D01*
X30366739Y-34170000D01*
X30593261Y-34170000D01*
X30928707Y-34103276D01*
X31309103Y-33849103D01*
X31563276Y-33468707D01*
X31652529Y-33020000D01*
X31563276Y-32571293D01*
X31309103Y-32190897D01*
X30928707Y-31936724D01*
X30593261Y-31870000D01*
X30366739Y-31870000D01*
X30031293Y-31936724D01*
X29650897Y-32190897D01*
X29396724Y-32571293D01*
X29307471Y-33020000D01*
X29112529Y-33020000D01*
X29023276Y-32571293D01*
X28769103Y-32190897D01*
X28388707Y-31936724D01*
X28053261Y-31870000D01*
X27826739Y-31870000D01*
X27491293Y-31936724D01*
X27110897Y-32190897D01*
X26856724Y-32571293D01*
X26767471Y-33020000D01*
X23530877Y-33020000D01*
X23530877Y-32993750D01*
X23490942Y-32792984D01*
X23377217Y-32622783D01*
X23207016Y-32509058D01*
X23150000Y-32497717D01*
X23150000Y-30692373D01*
X26758942Y-30692373D01*
X26767571Y-30735766D01*
X26954694Y-31164966D01*
X27291821Y-31489886D01*
X27727627Y-31661060D01*
X27915000Y-31592242D01*
X27915000Y-30505000D01*
X27965000Y-30505000D01*
X27965000Y-31592242D01*
X28152373Y-31661060D01*
X28588179Y-31489886D01*
X28925306Y-31164966D01*
X29112429Y-30735766D01*
X29121058Y-30692373D01*
X29298942Y-30692373D01*
X29307571Y-30735766D01*
X29494694Y-31164966D01*
X29831821Y-31489886D01*
X30267627Y-31661060D01*
X30455000Y-31592242D01*
X30455000Y-30505000D01*
X30505000Y-30505000D01*
X30505000Y-31592242D01*
X30692373Y-31661060D01*
X31128179Y-31489886D01*
X31465306Y-31164966D01*
X31652429Y-30735766D01*
X31661058Y-30692373D01*
X31592219Y-30505000D01*
X30505000Y-30505000D01*
X30455000Y-30505000D01*
X29367781Y-30505000D01*
X29298942Y-30692373D01*
X29121058Y-30692373D01*
X29052219Y-30505000D01*
X27965000Y-30505000D01*
X27915000Y-30505000D01*
X26827781Y-30505000D01*
X26758942Y-30692373D01*
X23150000Y-30692373D01*
X23150000Y-30267627D01*
X26758942Y-30267627D01*
X26827781Y-30455000D01*
X27915000Y-30455000D01*
X27915000Y-29367758D01*
X27965000Y-29367758D01*
X27965000Y-30455000D01*
X29052219Y-30455000D01*
X29121058Y-30267627D01*
X29298942Y-30267627D01*
X29367781Y-30455000D01*
X30455000Y-30455000D01*
X30455000Y-29367758D01*
X30505000Y-29367758D01*
X30505000Y-30455000D01*
X31592219Y-30455000D01*
X31661058Y-30267627D01*
X31652429Y-30224234D01*
X31465306Y-29795034D01*
X31128179Y-29470114D01*
X30692373Y-29298940D01*
X30505000Y-29367758D01*
X30455000Y-29367758D01*
X30267627Y-29298940D01*
X29831821Y-29470114D01*
X29494694Y-29795034D01*
X29307571Y-30224234D01*
X29298942Y-30267627D01*
X29121058Y-30267627D01*
X29112429Y-30224234D01*
X28925306Y-29795034D01*
X28588179Y-29470114D01*
X28152373Y-29298940D01*
X27965000Y-29367758D01*
X27915000Y-29367758D01*
X27727627Y-29298940D01*
X27291821Y-29470114D01*
X26954694Y-29795034D01*
X26767571Y-30224234D01*
X26758942Y-30267627D01*
X23150000Y-30267627D01*
X23150000Y-27940000D01*
X26767471Y-27940000D01*
X26856724Y-28388707D01*
X27110897Y-28769103D01*
X27491293Y-29023276D01*
X27826739Y-29090000D01*
X28053261Y-29090000D01*
X28388707Y-29023276D01*
X28769103Y-28769103D01*
X29023276Y-28388707D01*
X29112529Y-27940000D01*
X29307471Y-27940000D01*
X29396724Y-28388707D01*
X29650897Y-28769103D01*
X30031293Y-29023276D01*
X30366739Y-29090000D01*
X30593261Y-29090000D01*
X30928707Y-29023276D01*
X31309103Y-28769103D01*
X31563276Y-28388707D01*
X31652529Y-27940000D01*
X31563276Y-27491293D01*
X31309103Y-27110897D01*
X30928707Y-26856724D01*
X30593261Y-26790000D01*
X30366739Y-26790000D01*
X30031293Y-26856724D01*
X29650897Y-27110897D01*
X29396724Y-27491293D01*
X29307471Y-27940000D01*
X29112529Y-27940000D01*
X29023276Y-27491293D01*
X28769103Y-27110897D01*
X28388707Y-26856724D01*
X28053261Y-26790000D01*
X27826739Y-26790000D01*
X27491293Y-26856724D01*
X27110897Y-27110897D01*
X26856724Y-27491293D01*
X26767471Y-27940000D01*
X23150000Y-27940000D01*
X23150000Y-25427686D01*
X23177686Y-25400000D01*
X26767471Y-25400000D01*
X26856724Y-25848707D01*
X27110897Y-26229103D01*
X27491293Y-26483276D01*
X27826739Y-26550000D01*
X28053261Y-26550000D01*
X28388707Y-26483276D01*
X28769103Y-26229103D01*
X29023276Y-25848707D01*
X29112529Y-25400000D01*
X29307471Y-25400000D01*
X29396724Y-25848707D01*
X29650897Y-26229103D01*
X30031293Y-26483276D01*
X30366739Y-26550000D01*
X30593261Y-26550000D01*
X30928707Y-26483276D01*
X31309103Y-26229103D01*
X31563276Y-25848707D01*
X31652529Y-25400000D01*
X31563276Y-24951293D01*
X31309103Y-24570897D01*
X30928707Y-24316724D01*
X30593261Y-24250000D01*
X30366739Y-24250000D01*
X30031293Y-24316724D01*
X29650897Y-24570897D01*
X29396724Y-24951293D01*
X29307471Y-25400000D01*
X29112529Y-25400000D01*
X29023276Y-24951293D01*
X28769103Y-24570897D01*
X28388707Y-24316724D01*
X28053261Y-24250000D01*
X27826739Y-24250000D01*
X27491293Y-24316724D01*
X27110897Y-24570897D01*
X26856724Y-24951293D01*
X26767471Y-25400000D01*
X23177686Y-25400000D01*
X25717686Y-22860000D01*
X26767471Y-22860000D01*
X26856724Y-23308707D01*
X27110897Y-23689103D01*
X27491293Y-23943276D01*
X27826739Y-24010000D01*
X28053261Y-24010000D01*
X28388707Y-23943276D01*
X28769103Y-23689103D01*
X29023276Y-23308707D01*
X29112529Y-22860000D01*
X29307471Y-22860000D01*
X29396724Y-23308707D01*
X29650897Y-23689103D01*
X30031293Y-23943276D01*
X30366739Y-24010000D01*
X30593261Y-24010000D01*
X30928707Y-23943276D01*
X31309103Y-23689103D01*
X31563276Y-23308707D01*
X31652529Y-22860000D01*
X31563276Y-22411293D01*
X31309103Y-22030897D01*
X30928707Y-21776724D01*
X30593261Y-21710000D01*
X30366739Y-21710000D01*
X30031293Y-21776724D01*
X29650897Y-22030897D01*
X29396724Y-22411293D01*
X29307471Y-22860000D01*
X29112529Y-22860000D01*
X29023276Y-22411293D01*
X28769103Y-22030897D01*
X28388707Y-21776724D01*
X28053261Y-21710000D01*
X27826739Y-21710000D01*
X27491293Y-21776724D01*
X27110897Y-22030897D01*
X26856724Y-22411293D01*
X26767471Y-22860000D01*
X25717686Y-22860000D01*
X26154986Y-22422701D01*
X26188385Y-22400385D01*
X26276792Y-22268073D01*
X26300001Y-22151395D01*
X26300001Y-22151394D01*
X26307837Y-22112001D01*
X26300001Y-22072607D01*
X26300001Y-21489393D01*
X26307837Y-21450000D01*
X26289707Y-21358858D01*
X26276792Y-21293929D01*
X26188385Y-21161617D01*
X26154988Y-21139302D01*
X25900000Y-20884315D01*
X25900000Y-20670707D01*
X25801043Y-20431805D01*
X25618195Y-20248957D01*
X25379293Y-20150000D01*
X25120707Y-20150000D01*
X24881805Y-20248957D01*
X24698957Y-20431805D01*
X24600000Y-20670707D01*
X24600000Y-20929293D01*
X24609323Y-20951801D01*
X24544619Y-20925000D01*
X24150000Y-20925000D01*
X24062500Y-21012500D01*
X24062500Y-21725000D01*
X24737500Y-21725000D01*
X24825000Y-21637500D01*
X24825000Y-21294238D01*
X24881805Y-21351043D01*
X25120707Y-21450000D01*
X25334315Y-21450000D01*
X25500002Y-21615687D01*
X25500001Y-21946316D01*
X24792856Y-22653461D01*
X24719240Y-22475735D01*
X24771715Y-22423259D01*
X24825000Y-22294620D01*
X24825000Y-21862500D01*
X24737500Y-21775000D01*
X24062500Y-21775000D01*
X24062500Y-21795000D01*
X24012500Y-21795000D01*
X24012500Y-21775000D01*
X23337500Y-21775000D01*
X23250000Y-21862500D01*
X23250000Y-22294620D01*
X23303285Y-22423259D01*
X23401741Y-22521716D01*
X23530381Y-22575000D01*
X23539643Y-22575000D01*
X23500000Y-22670707D01*
X23500000Y-22929293D01*
X23598957Y-23168195D01*
X23649689Y-23218927D01*
X22095019Y-24773598D01*
X22061616Y-24795917D01*
X21973210Y-24928229D01*
X21973209Y-24928230D01*
X21942164Y-25084301D01*
X21950000Y-25123695D01*
X21950001Y-30946814D01*
X21595016Y-31301800D01*
X21595013Y-31301802D01*
X20427693Y-32469123D01*
X19993750Y-32469123D01*
X19792984Y-32509058D01*
X19622783Y-32622783D01*
X19509058Y-32792984D01*
X19469123Y-32993750D01*
X18187500Y-32993750D01*
X18187500Y-27223158D01*
X18954984Y-26455675D01*
X18988384Y-26433358D01*
X19076791Y-26301046D01*
X19100000Y-26184368D01*
X19103757Y-26165481D01*
X19251043Y-26018195D01*
X19287501Y-25930178D01*
X19287501Y-26143261D01*
X19248957Y-26181805D01*
X19150000Y-26420707D01*
X19150000Y-26679293D01*
X19248957Y-26918195D01*
X19431805Y-27101043D01*
X19670707Y-27200000D01*
X19929293Y-27200000D01*
X20168195Y-27101043D01*
X20351043Y-26918195D01*
X20450000Y-26679293D01*
X20450000Y-26420707D01*
X20351043Y-26181805D01*
X20287500Y-26118262D01*
X20287500Y-22250000D01*
X21787779Y-22250000D01*
X21872783Y-22377217D01*
X22042984Y-22490942D01*
X22243750Y-22530877D01*
X22681250Y-22530877D01*
X22882016Y-22490942D01*
X23052217Y-22377217D01*
X23165942Y-22207016D01*
X23205877Y-22006250D01*
X23205877Y-21493750D01*
X23165942Y-21292984D01*
X23107407Y-21205380D01*
X23250000Y-21205380D01*
X23250000Y-21637500D01*
X23337500Y-21725000D01*
X24012500Y-21725000D01*
X24012500Y-21012500D01*
X23925000Y-20925000D01*
X23530381Y-20925000D01*
X23401741Y-20978284D01*
X23303285Y-21076741D01*
X23250000Y-21205380D01*
X23107407Y-21205380D01*
X23052217Y-21122783D01*
X22882016Y-21009058D01*
X22790383Y-20990831D01*
X22790383Y-20969238D01*
X22841426Y-20918195D01*
X22940383Y-20679293D01*
X22940383Y-20420707D01*
X22841426Y-20181805D01*
X22658578Y-19998957D01*
X22419676Y-19900000D01*
X22161090Y-19900000D01*
X21922188Y-19998957D01*
X21739340Y-20181805D01*
X21640383Y-20420707D01*
X21640383Y-20679293D01*
X21739340Y-20918195D01*
X21790383Y-20969238D01*
X21790384Y-21246102D01*
X21787779Y-21250000D01*
X20462221Y-21250000D01*
X20490942Y-21207016D01*
X20530877Y-21006250D01*
X20530877Y-20493750D01*
X20490942Y-20292984D01*
X20377217Y-20122783D01*
X20287500Y-20062836D01*
X20287500Y-19793445D01*
X20342054Y-19782593D01*
X20441288Y-19716288D01*
X20507593Y-19617054D01*
X20530877Y-19500000D01*
X20530877Y-19369354D01*
X20622187Y-19460664D01*
X20861089Y-19559621D01*
X21119675Y-19559621D01*
X21358577Y-19460664D01*
X21509620Y-19309621D01*
X21719123Y-19309621D01*
X21719123Y-19500000D01*
X21742407Y-19617054D01*
X21808712Y-19716288D01*
X21907946Y-19782593D01*
X22025000Y-19805877D01*
X23025000Y-19805877D01*
X23084987Y-19799937D01*
X23176812Y-19761790D01*
X23207946Y-19782593D01*
X23325000Y-19805877D01*
X24475000Y-19805877D01*
X24592054Y-19782593D01*
X24691288Y-19716288D01*
X24757593Y-19617054D01*
X24780877Y-19500000D01*
X24780877Y-19150000D01*
X26204316Y-19150000D01*
X26884315Y-19830000D01*
X26856724Y-19871293D01*
X26767471Y-20320000D01*
X26856724Y-20768707D01*
X27110897Y-21149103D01*
X27491293Y-21403276D01*
X27826739Y-21470000D01*
X28053261Y-21470000D01*
X28388707Y-21403276D01*
X28769103Y-21149103D01*
X29023276Y-20768707D01*
X29112529Y-20320000D01*
X29307471Y-20320000D01*
X29396724Y-20768707D01*
X29650897Y-21149103D01*
X30031293Y-21403276D01*
X30366739Y-21470000D01*
X30593261Y-21470000D01*
X30928707Y-21403276D01*
X31309103Y-21149103D01*
X31563276Y-20768707D01*
X31652529Y-20320000D01*
X31563276Y-19871293D01*
X31309103Y-19490897D01*
X30928707Y-19236724D01*
X30593261Y-19170000D01*
X30366739Y-19170000D01*
X30031293Y-19236724D01*
X29650897Y-19490897D01*
X29396724Y-19871293D01*
X29307471Y-20320000D01*
X29112529Y-20320000D01*
X29023276Y-19871293D01*
X28769103Y-19490897D01*
X28388707Y-19236724D01*
X28053261Y-19170000D01*
X27826739Y-19170000D01*
X27491293Y-19236724D01*
X27450000Y-19264315D01*
X26680703Y-18495019D01*
X26658384Y-18461616D01*
X26526072Y-18373209D01*
X26409394Y-18350000D01*
X26370000Y-18342164D01*
X26330606Y-18350000D01*
X24780877Y-18350000D01*
X24780877Y-18000000D01*
X24757593Y-17882946D01*
X24691288Y-17783712D01*
X24592054Y-17717407D01*
X24475000Y-17694123D01*
X23325000Y-17694123D01*
X23175122Y-17739502D01*
X23142054Y-17717407D01*
X23025000Y-17694123D01*
X22025000Y-17694123D01*
X21907946Y-17717407D01*
X21808712Y-17783712D01*
X21742407Y-17882946D01*
X21719123Y-18000000D01*
X21719123Y-18509621D01*
X21509620Y-18509621D01*
X21459619Y-18459620D01*
X21551043Y-18368195D01*
X21650000Y-18129293D01*
X21650000Y-17915684D01*
X22259808Y-17305877D01*
X23025000Y-17305877D01*
X23084987Y-17299937D01*
X23176812Y-17261790D01*
X23207946Y-17282593D01*
X23325000Y-17305877D01*
X24475000Y-17305877D01*
X24592054Y-17282593D01*
X24691288Y-17216288D01*
X24757593Y-17117054D01*
X24780877Y-17000000D01*
X24780877Y-16899059D01*
X24785606Y-16900000D01*
X24824999Y-16907836D01*
X24864392Y-16900000D01*
X27187070Y-16900000D01*
X27110897Y-16950897D01*
X26856724Y-17331293D01*
X26767471Y-17780000D01*
X26856724Y-18228707D01*
X27110897Y-18609103D01*
X27491293Y-18863276D01*
X27826739Y-18930000D01*
X28053261Y-18930000D01*
X28388707Y-18863276D01*
X28769103Y-18609103D01*
X29023276Y-18228707D01*
X29112529Y-17780000D01*
X29023276Y-17331293D01*
X28769103Y-16950897D01*
X28692930Y-16900000D01*
X29034316Y-16900000D01*
X29424315Y-17290000D01*
X29396724Y-17331293D01*
X29307471Y-17780000D01*
X29396724Y-18228707D01*
X29650897Y-18609103D01*
X30031293Y-18863276D01*
X30366739Y-18930000D01*
X30593261Y-18930000D01*
X30928707Y-18863276D01*
X31309103Y-18609103D01*
X31563276Y-18228707D01*
X31652529Y-17780000D01*
X31563276Y-17331293D01*
X31309103Y-16950897D01*
X30928707Y-16696724D01*
X30593261Y-16630000D01*
X30366739Y-16630000D01*
X30031293Y-16696724D01*
X29990000Y-16724315D01*
X29510703Y-16245018D01*
X29488384Y-16211616D01*
X29356072Y-16123209D01*
X29239394Y-16100000D01*
X29200000Y-16092164D01*
X29160606Y-16100000D01*
X28722862Y-16100000D01*
X28769103Y-16069103D01*
X29023276Y-15688707D01*
X29112529Y-15240000D01*
X29307471Y-15240000D01*
X29396724Y-15688707D01*
X29650897Y-16069103D01*
X30031293Y-16323276D01*
X30366739Y-16390000D01*
X30593261Y-16390000D01*
X30928707Y-16323276D01*
X31309103Y-16069103D01*
X31563276Y-15688707D01*
X31652529Y-15240000D01*
X31563276Y-14791293D01*
X31309103Y-14410897D01*
X30928707Y-14156724D01*
X30593261Y-14090000D01*
X30366739Y-14090000D01*
X30031293Y-14156724D01*
X29650897Y-14410897D01*
X29396724Y-14791293D01*
X29307471Y-15240000D01*
X29112529Y-15240000D01*
X29023276Y-14791293D01*
X28769103Y-14410897D01*
X28388707Y-14156724D01*
X28053261Y-14090000D01*
X27826739Y-14090000D01*
X27491293Y-14156724D01*
X27110897Y-14410897D01*
X26856724Y-14791293D01*
X26767471Y-15240000D01*
X26856724Y-15688707D01*
X27110897Y-16069103D01*
X27157138Y-16100000D01*
X24990685Y-16100000D01*
X24885702Y-15995018D01*
X24863384Y-15961616D01*
X24780877Y-15906487D01*
X24780877Y-15500000D01*
X24757593Y-15382946D01*
X24691288Y-15283712D01*
X24592054Y-15217407D01*
X24475000Y-15194123D01*
X23325000Y-15194123D01*
X23175122Y-15239502D01*
X23142054Y-15217407D01*
X23025000Y-15194123D01*
X22025000Y-15194123D01*
X21907946Y-15217407D01*
X21808712Y-15283712D01*
X21742407Y-15382946D01*
X21719123Y-15500000D01*
X21719123Y-16715192D01*
X21084316Y-17350000D01*
X20870707Y-17350000D01*
X20631805Y-17448957D01*
X20448957Y-17631805D01*
X20398012Y-17754796D01*
X20342054Y-17717407D01*
X20225000Y-17694123D01*
X20225000Y-17305877D01*
X20342054Y-17282593D01*
X20441288Y-17216288D01*
X20507593Y-17117054D01*
X20530877Y-17000000D01*
X20530877Y-15500000D01*
X20507593Y-15382946D01*
X20441288Y-15283712D01*
X20342054Y-15217407D01*
X20225000Y-15194123D01*
X20150000Y-15194123D01*
X20150000Y-14669238D01*
X20201043Y-14618195D01*
X20300000Y-14379293D01*
X20300000Y-14120707D01*
X20201043Y-13881805D01*
X20150000Y-13830762D01*
X20150000Y-13780877D01*
X20256250Y-13780877D01*
X20457016Y-13740942D01*
X20627217Y-13627217D01*
X20740942Y-13457016D01*
X20780877Y-13256250D01*
X20780877Y-12818750D01*
X21969123Y-12818750D01*
X21969123Y-13256250D01*
X22009058Y-13457016D01*
X22122783Y-13627217D01*
X22292984Y-13740942D01*
X22493750Y-13780877D01*
X23006250Y-13780877D01*
X23207016Y-13740942D01*
X23377217Y-13627217D01*
X23490942Y-13457016D01*
X23498713Y-13417951D01*
X23631805Y-13551043D01*
X23870707Y-13650000D01*
X24129293Y-13650000D01*
X24368195Y-13551043D01*
X24551043Y-13368195D01*
X24650000Y-13129293D01*
X24650000Y-12870707D01*
X24579291Y-12700000D01*
X26767471Y-12700000D01*
X26856724Y-13148707D01*
X27110897Y-13529103D01*
X27491293Y-13783276D01*
X27826739Y-13850000D01*
X28053261Y-13850000D01*
X28388707Y-13783276D01*
X28769103Y-13529103D01*
X29023276Y-13148707D01*
X29112529Y-12700000D01*
X29307471Y-12700000D01*
X29396724Y-13148707D01*
X29650897Y-13529103D01*
X30031293Y-13783276D01*
X30366739Y-13850000D01*
X30593261Y-13850000D01*
X30928707Y-13783276D01*
X31309103Y-13529103D01*
X31563276Y-13148707D01*
X31652529Y-12700000D01*
X31563276Y-12251293D01*
X31309103Y-11870897D01*
X30928707Y-11616724D01*
X30593261Y-11550000D01*
X30366739Y-11550000D01*
X30031293Y-11616724D01*
X29650897Y-11870897D01*
X29396724Y-12251293D01*
X29307471Y-12700000D01*
X29112529Y-12700000D01*
X29023276Y-12251293D01*
X28769103Y-11870897D01*
X28388707Y-11616724D01*
X28053261Y-11550000D01*
X27826739Y-11550000D01*
X27491293Y-11616724D01*
X27110897Y-11870897D01*
X26856724Y-12251293D01*
X26767471Y-12700000D01*
X24579291Y-12700000D01*
X24551043Y-12631805D01*
X24368195Y-12448957D01*
X24129293Y-12350000D01*
X23870707Y-12350000D01*
X23631805Y-12448957D01*
X23480762Y-12600000D01*
X23478925Y-12600000D01*
X23377217Y-12447783D01*
X23207016Y-12334058D01*
X23006250Y-12294123D01*
X22493750Y-12294123D01*
X22292984Y-12334058D01*
X22122783Y-12447783D01*
X22009058Y-12617984D01*
X21969123Y-12818750D01*
X20780877Y-12818750D01*
X20740942Y-12617984D01*
X20627217Y-12447783D01*
X20457016Y-12334058D01*
X20256250Y-12294123D01*
X19743750Y-12294123D01*
X19542984Y-12334058D01*
X19372783Y-12447783D01*
X19259058Y-12617984D01*
X19219123Y-12818750D01*
X19219123Y-13132379D01*
X19179012Y-13192410D01*
X19140205Y-13387500D01*
X19150001Y-13436746D01*
X19150000Y-13830762D01*
X19098957Y-13881805D01*
X19000000Y-14120707D01*
X19000000Y-14379293D01*
X19098957Y-14618195D01*
X19150000Y-14669238D01*
X19150000Y-15206300D01*
X19073188Y-15238210D01*
X19042054Y-15217407D01*
X18925000Y-15194123D01*
X17775000Y-15194123D01*
X17657946Y-15217407D01*
X17558712Y-15283712D01*
X17492407Y-15382946D01*
X17472700Y-15482016D01*
X16925610Y-14934926D01*
X16925610Y-14193628D01*
X17076653Y-14042585D01*
X17175610Y-13803683D01*
X17175610Y-13545097D01*
X17076653Y-13306195D01*
X16893805Y-13123347D01*
X16654903Y-13024390D01*
X16396317Y-13024390D01*
X16200010Y-13105703D01*
X16200010Y-12327676D01*
X16952686Y-11575000D01*
X19175000Y-11575000D01*
X19175000Y-11969619D01*
X19228284Y-12098259D01*
X19326741Y-12196715D01*
X19455380Y-12250000D01*
X19887500Y-12250000D01*
X19975000Y-12162500D01*
X19975000Y-11487500D01*
X20025000Y-11487500D01*
X20025000Y-12162500D01*
X20112500Y-12250000D01*
X20544620Y-12250000D01*
X20673259Y-12196715D01*
X20771716Y-12098259D01*
X20825000Y-11969619D01*
X20825000Y-11575000D01*
X21925000Y-11575000D01*
X21925000Y-11969619D01*
X21978284Y-12098259D01*
X22076741Y-12196715D01*
X22205380Y-12250000D01*
X22637500Y-12250000D01*
X22725000Y-12162500D01*
X22725000Y-11487500D01*
X22775000Y-11487500D01*
X22775000Y-12162500D01*
X22862500Y-12250000D01*
X23294620Y-12250000D01*
X23423259Y-12196715D01*
X23521716Y-12098259D01*
X23575000Y-11969619D01*
X23575000Y-11575000D01*
X23487500Y-11487500D01*
X22775000Y-11487500D01*
X22725000Y-11487500D01*
X22012500Y-11487500D01*
X21925000Y-11575000D01*
X20825000Y-11575000D01*
X20737500Y-11487500D01*
X20025000Y-11487500D01*
X19975000Y-11487500D01*
X19262500Y-11487500D01*
X19175000Y-11575000D01*
X16952686Y-11575000D01*
X17572306Y-10955381D01*
X19175000Y-10955381D01*
X19175000Y-11350000D01*
X19262500Y-11437500D01*
X19975000Y-11437500D01*
X19975000Y-10762500D01*
X20025000Y-10762500D01*
X20025000Y-11437500D01*
X20737500Y-11437500D01*
X20825000Y-11350000D01*
X20825000Y-10955381D01*
X21925000Y-10955381D01*
X21925000Y-11350000D01*
X22012500Y-11437500D01*
X22725000Y-11437500D01*
X22725000Y-10762500D01*
X22775000Y-10762500D01*
X22775000Y-11437500D01*
X23487500Y-11437500D01*
X23575000Y-11350000D01*
X23575000Y-10955381D01*
X23521716Y-10826741D01*
X23423259Y-10728285D01*
X23294620Y-10675000D01*
X22862500Y-10675000D01*
X22775000Y-10762500D01*
X22725000Y-10762500D01*
X22637500Y-10675000D01*
X22205380Y-10675000D01*
X22076741Y-10728285D01*
X21978284Y-10826741D01*
X21925000Y-10955381D01*
X20825000Y-10955381D01*
X20771716Y-10826741D01*
X20673259Y-10728285D01*
X20544620Y-10675000D01*
X20112500Y-10675000D01*
X20025000Y-10762500D01*
X19975000Y-10762500D01*
X19887500Y-10675000D01*
X19455380Y-10675000D01*
X19326741Y-10728285D01*
X19228284Y-10826741D01*
X19175000Y-10955381D01*
X17572306Y-10955381D01*
X17977688Y-10550000D01*
X21780606Y-10550000D01*
X21820000Y-10557836D01*
X21859394Y-10550000D01*
X21976072Y-10526791D01*
X22108384Y-10438384D01*
X22130703Y-10404981D01*
X22375684Y-10160000D01*
X26767471Y-10160000D01*
X26856724Y-10608707D01*
X27110897Y-10989103D01*
X27491293Y-11243276D01*
X27826739Y-11310000D01*
X28053261Y-11310000D01*
X28388707Y-11243276D01*
X28769103Y-10989103D01*
X29023276Y-10608707D01*
X29112529Y-10160000D01*
X29307471Y-10160000D01*
X29396724Y-10608707D01*
X29650897Y-10989103D01*
X30031293Y-11243276D01*
X30366739Y-11310000D01*
X30593261Y-11310000D01*
X30928707Y-11243276D01*
X31309103Y-10989103D01*
X31563276Y-10608707D01*
X31652529Y-10160000D01*
X31563276Y-9711293D01*
X31309103Y-9330897D01*
X30928707Y-9076724D01*
X30593261Y-9010000D01*
X30366739Y-9010000D01*
X30031293Y-9076724D01*
X29650897Y-9330897D01*
X29396724Y-9711293D01*
X29307471Y-10160000D01*
X29112529Y-10160000D01*
X29023276Y-9711293D01*
X28769103Y-9330897D01*
X28388707Y-9076724D01*
X28053261Y-9010000D01*
X27826739Y-9010000D01*
X27491293Y-9076724D01*
X27110897Y-9330897D01*
X26856724Y-9711293D01*
X26767471Y-10160000D01*
X22375684Y-10160000D01*
X24915684Y-7620000D01*
X26767471Y-7620000D01*
X26856724Y-8068707D01*
X27110897Y-8449103D01*
X27491293Y-8703276D01*
X27826739Y-8770000D01*
X28053261Y-8770000D01*
X28388707Y-8703276D01*
X28769103Y-8449103D01*
X29023276Y-8068707D01*
X29112529Y-7620000D01*
X29307471Y-7620000D01*
X29396724Y-8068707D01*
X29650897Y-8449103D01*
X30031293Y-8703276D01*
X30366739Y-8770000D01*
X30593261Y-8770000D01*
X30928707Y-8703276D01*
X31309103Y-8449103D01*
X31563276Y-8068707D01*
X31652529Y-7620000D01*
X31563276Y-7171293D01*
X31309103Y-6790897D01*
X30928707Y-6536724D01*
X30593261Y-6470000D01*
X30366739Y-6470000D01*
X30031293Y-6536724D01*
X29650897Y-6790897D01*
X29396724Y-7171293D01*
X29307471Y-7620000D01*
X29112529Y-7620000D01*
X29023276Y-7171293D01*
X28769103Y-6790897D01*
X28388707Y-6536724D01*
X28053261Y-6470000D01*
X27826739Y-6470000D01*
X27491293Y-6536724D01*
X27110897Y-6790897D01*
X26856724Y-7171293D01*
X26767471Y-7620000D01*
X24915684Y-7620000D01*
X26784123Y-5751562D01*
X26784123Y-5930000D01*
X26807407Y-6047054D01*
X26873712Y-6146288D01*
X26972946Y-6212593D01*
X27090000Y-6235877D01*
X28790000Y-6235877D01*
X28907054Y-6212593D01*
X29006288Y-6146288D01*
X29072593Y-6047054D01*
X29095877Y-5930000D01*
X29095877Y-5080000D01*
X29307471Y-5080000D01*
X29396724Y-5528707D01*
X29650897Y-5909103D01*
X30031293Y-6163276D01*
X30366739Y-6230000D01*
X30593261Y-6230000D01*
X30928707Y-6163276D01*
X31309103Y-5909103D01*
X31563276Y-5528707D01*
X31652529Y-5080000D01*
X31563276Y-4631293D01*
X31309103Y-4250897D01*
X30928707Y-3996724D01*
X30593261Y-3930000D01*
X30366739Y-3930000D01*
X30031293Y-3996724D01*
X29650897Y-4250897D01*
X29396724Y-4631293D01*
X29307471Y-5080000D01*
X29095877Y-5080000D01*
X29095877Y-4230000D01*
X29072593Y-4112946D01*
X29006288Y-4013712D01*
X28907054Y-3947407D01*
X28790000Y-3924123D01*
X27090000Y-3924123D01*
X26972946Y-3947407D01*
X26873712Y-4013712D01*
X26807407Y-4112946D01*
X26784123Y-4230000D01*
X26784123Y-4693224D01*
X26733928Y-4703209D01*
X26601616Y-4791616D01*
X26579299Y-4825016D01*
X21654316Y-9750000D01*
X17851394Y-9750000D01*
X17812001Y-9742164D01*
X17772608Y-9750000D01*
X17655930Y-9773209D01*
X17523618Y-9861616D01*
X17501303Y-9895013D01*
X16013567Y-11382750D01*
X15951043Y-11231805D01*
X15768195Y-11048957D01*
X15529293Y-10950000D01*
X15270707Y-10950000D01*
X15100000Y-11020710D01*
X15100000Y-10707106D01*
X16257107Y-9550000D01*
X18530762Y-9550000D01*
X18581805Y-9601043D01*
X18820707Y-9700000D01*
X19079293Y-9700000D01*
X19318195Y-9601043D01*
X19501043Y-9418195D01*
X19600000Y-9179293D01*
X19600000Y-8920707D01*
X19501043Y-8681805D01*
X19318195Y-8498957D01*
X19079293Y-8400000D01*
X18820707Y-8400000D01*
X18581805Y-8498957D01*
X18530762Y-8550000D01*
X16099243Y-8550000D01*
X16050000Y-8540205D01*
X16000757Y-8550000D01*
X15854910Y-8579011D01*
X15689520Y-8689520D01*
X15661625Y-8731268D01*
X14281270Y-10111624D01*
X14239520Y-10139520D01*
X14129011Y-10304911D01*
X14100000Y-10450757D01*
X14090205Y-10500000D01*
X14100000Y-10549241D01*
X14100001Y-30942892D01*
X12865687Y-32177207D01*
X12679293Y-32100000D01*
X12420707Y-32100000D01*
X12181805Y-32198957D01*
X11998957Y-32381805D01*
X11900000Y-32620707D01*
X6173106Y-32620707D01*
X6163276Y-32571293D01*
X5909103Y-32190897D01*
X5528707Y-31936724D01*
X5193261Y-31870000D01*
X4966739Y-31870000D01*
X4631293Y-31936724D01*
X4250897Y-32190897D01*
X3996724Y-32571293D01*
X3907471Y-33020000D01*
X3712529Y-33020000D01*
X3623276Y-32571293D01*
X3369103Y-32190897D01*
X2988707Y-31936724D01*
X2653261Y-31870000D01*
X2426739Y-31870000D01*
X2091293Y-31936724D01*
X1710897Y-32190897D01*
X1456724Y-32571293D01*
X1367471Y-33020000D01*
X375000Y-33020000D01*
X375000Y-30692373D01*
X1358942Y-30692373D01*
X1367571Y-30735766D01*
X1554694Y-31164966D01*
X1891821Y-31489886D01*
X2327627Y-31661060D01*
X2515000Y-31592242D01*
X2515000Y-30505000D01*
X2565000Y-30505000D01*
X2565000Y-31592242D01*
X2752373Y-31661060D01*
X3188179Y-31489886D01*
X3525306Y-31164966D01*
X3712429Y-30735766D01*
X3721058Y-30692373D01*
X3898942Y-30692373D01*
X3907571Y-30735766D01*
X4094694Y-31164966D01*
X4431821Y-31489886D01*
X4867627Y-31661060D01*
X5055000Y-31592242D01*
X5055000Y-30505000D01*
X5105000Y-30505000D01*
X5105000Y-31592242D01*
X5292373Y-31661060D01*
X5728179Y-31489886D01*
X6065306Y-31164966D01*
X6252429Y-30735766D01*
X6261058Y-30692373D01*
X6192219Y-30505000D01*
X5105000Y-30505000D01*
X5055000Y-30505000D01*
X3967781Y-30505000D01*
X3898942Y-30692373D01*
X3721058Y-30692373D01*
X3652219Y-30505000D01*
X2565000Y-30505000D01*
X2515000Y-30505000D01*
X1427781Y-30505000D01*
X1358942Y-30692373D01*
X375000Y-30692373D01*
X375000Y-30267627D01*
X1358942Y-30267627D01*
X1427781Y-30455000D01*
X2515000Y-30455000D01*
X2515000Y-29367758D01*
X2565000Y-29367758D01*
X2565000Y-30455000D01*
X3652219Y-30455000D01*
X3721058Y-30267627D01*
X3898942Y-30267627D01*
X3967781Y-30455000D01*
X5055000Y-30455000D01*
X5055000Y-29367758D01*
X5105000Y-29367758D01*
X5105000Y-30455000D01*
X6192219Y-30455000D01*
X6261058Y-30267627D01*
X6252429Y-30224234D01*
X6065306Y-29795034D01*
X5728179Y-29470114D01*
X5292373Y-29298940D01*
X5105000Y-29367758D01*
X5055000Y-29367758D01*
X4867627Y-29298940D01*
X4431821Y-29470114D01*
X4094694Y-29795034D01*
X3907571Y-30224234D01*
X3898942Y-30267627D01*
X3721058Y-30267627D01*
X3712429Y-30224234D01*
X3525306Y-29795034D01*
X3188179Y-29470114D01*
X2752373Y-29298940D01*
X2565000Y-29367758D01*
X2515000Y-29367758D01*
X2327627Y-29298940D01*
X1891821Y-29470114D01*
X1554694Y-29795034D01*
X1367571Y-30224234D01*
X1358942Y-30267627D01*
X375000Y-30267627D01*
X375000Y-27940000D01*
X1367471Y-27940000D01*
X1456724Y-28388707D01*
X1710897Y-28769103D01*
X2091293Y-29023276D01*
X2426739Y-29090000D01*
X2653261Y-29090000D01*
X2988707Y-29023276D01*
X3369103Y-28769103D01*
X3623276Y-28388707D01*
X3712529Y-27940000D01*
X3623276Y-27491293D01*
X3369103Y-27110897D01*
X2988707Y-26856724D01*
X2653261Y-26790000D01*
X2426739Y-26790000D01*
X2091293Y-26856724D01*
X1710897Y-27110897D01*
X1456724Y-27491293D01*
X1367471Y-27940000D01*
X375000Y-27940000D01*
X375000Y-25400000D01*
X1367471Y-25400000D01*
X1456724Y-25848707D01*
X1710897Y-26229103D01*
X2091293Y-26483276D01*
X2426739Y-26550000D01*
X2653261Y-26550000D01*
X2988707Y-26483276D01*
X3030000Y-26455685D01*
X3479299Y-26904984D01*
X3501616Y-26938384D01*
X3625245Y-27020989D01*
X3633928Y-27026791D01*
X3790000Y-27057836D01*
X3829394Y-27050000D01*
X4342036Y-27050000D01*
X4250897Y-27110897D01*
X3996724Y-27491293D01*
X3907471Y-27940000D01*
X3996724Y-28388707D01*
X4250897Y-28769103D01*
X4631293Y-29023276D01*
X4966739Y-29090000D01*
X5193261Y-29090000D01*
X5528707Y-29023276D01*
X5909103Y-28769103D01*
X6163276Y-28388707D01*
X6252529Y-27940000D01*
X6163276Y-27491293D01*
X5909103Y-27110897D01*
X5817964Y-27050000D01*
X6659316Y-27050000D01*
X6864299Y-27254984D01*
X6886616Y-27288384D01*
X6989141Y-27356888D01*
X7009058Y-27457016D01*
X7122783Y-27627217D01*
X7292984Y-27740942D01*
X7493750Y-27780877D01*
X7931250Y-27780877D01*
X8132016Y-27740942D01*
X8302217Y-27627217D01*
X8415942Y-27457016D01*
X8455877Y-27256250D01*
X8455877Y-26743750D01*
X8415942Y-26542984D01*
X8302217Y-26372783D01*
X8132016Y-26259058D01*
X8086479Y-26250000D01*
X8132016Y-26240942D01*
X8302217Y-26127217D01*
X8415942Y-25957016D01*
X8455877Y-25756250D01*
X8455877Y-25243750D01*
X8544123Y-25243750D01*
X8544123Y-25756250D01*
X8584058Y-25957016D01*
X8697783Y-26127217D01*
X8867984Y-26240942D01*
X8913521Y-26250000D01*
X8867984Y-26259058D01*
X8697783Y-26372783D01*
X8584058Y-26542984D01*
X8544123Y-26743750D01*
X8544123Y-27256250D01*
X8584058Y-27457016D01*
X8697783Y-27627217D01*
X8867984Y-27740942D01*
X8887501Y-27744824D01*
X8887501Y-27896598D01*
X8881805Y-27898957D01*
X8698957Y-28081805D01*
X8600000Y-28320707D01*
X8600000Y-28579293D01*
X8698957Y-28818195D01*
X8881805Y-29001043D01*
X9120707Y-29100000D01*
X9379293Y-29100000D01*
X9618195Y-29001043D01*
X9801043Y-28818195D01*
X9900000Y-28579293D01*
X9900000Y-28320707D01*
X9801043Y-28081805D01*
X9687500Y-27968262D01*
X9687500Y-27744824D01*
X9707016Y-27740942D01*
X9877217Y-27627217D01*
X9923810Y-27557486D01*
X9948957Y-27618195D01*
X10131805Y-27801043D01*
X10370707Y-27900000D01*
X10629293Y-27900000D01*
X10868195Y-27801043D01*
X11051043Y-27618195D01*
X11150000Y-27379293D01*
X11150000Y-27120707D01*
X11051043Y-26881805D01*
X10903506Y-26734268D01*
X10907836Y-26712500D01*
X10876791Y-26556428D01*
X10853630Y-26521765D01*
X10788384Y-26424116D01*
X10754985Y-26401800D01*
X10030877Y-25677693D01*
X10030877Y-25243750D01*
X9990942Y-25042984D01*
X9877217Y-24872783D01*
X9707016Y-24759058D01*
X9506250Y-24719123D01*
X9068750Y-24719123D01*
X8867984Y-24759058D01*
X8697783Y-24872783D01*
X8584058Y-25042984D01*
X8544123Y-25243750D01*
X8455877Y-25243750D01*
X8415942Y-25042984D01*
X8302217Y-24872783D01*
X8132016Y-24759058D01*
X7931250Y-24719123D01*
X7504809Y-24719123D01*
X6135685Y-23350000D01*
X6163276Y-23308707D01*
X6252529Y-22860000D01*
X6163276Y-22411293D01*
X5909103Y-22030897D01*
X5528707Y-21776724D01*
X5193261Y-21710000D01*
X4966739Y-21710000D01*
X4631293Y-21776724D01*
X4250897Y-22030897D01*
X3996724Y-22411293D01*
X3907471Y-22860000D01*
X3996724Y-23308707D01*
X4250897Y-23689103D01*
X4631293Y-23943276D01*
X4966739Y-24010000D01*
X5193261Y-24010000D01*
X5528707Y-23943276D01*
X5570000Y-23915685D01*
X6969123Y-25314809D01*
X6969123Y-25756250D01*
X7009058Y-25957016D01*
X7122783Y-26127217D01*
X7292984Y-26240942D01*
X7338521Y-26250000D01*
X7292984Y-26259058D01*
X7122783Y-26372783D01*
X7121814Y-26374233D01*
X7113384Y-26361616D01*
X6981072Y-26273209D01*
X6864394Y-26250000D01*
X6825000Y-26242164D01*
X6785606Y-26250000D01*
X5877828Y-26250000D01*
X5909103Y-26229103D01*
X6163276Y-25848707D01*
X6252529Y-25400000D01*
X6163276Y-24951293D01*
X5909103Y-24570897D01*
X5528707Y-24316724D01*
X5193261Y-24250000D01*
X4966739Y-24250000D01*
X4631293Y-24316724D01*
X4250897Y-24570897D01*
X3996724Y-24951293D01*
X3907471Y-25400000D01*
X3996724Y-25848707D01*
X4250897Y-26229103D01*
X4282172Y-26250000D01*
X3955685Y-26250000D01*
X3595685Y-25890000D01*
X3623276Y-25848707D01*
X3712529Y-25400000D01*
X3623276Y-24951293D01*
X3369103Y-24570897D01*
X2988707Y-24316724D01*
X2653261Y-24250000D01*
X2426739Y-24250000D01*
X2091293Y-24316724D01*
X1710897Y-24570897D01*
X1456724Y-24951293D01*
X1367471Y-25400000D01*
X375000Y-25400000D01*
X375000Y-22860000D01*
X1367471Y-22860000D01*
X1456724Y-23308707D01*
X1710897Y-23689103D01*
X2091293Y-23943276D01*
X2426739Y-24010000D01*
X2653261Y-24010000D01*
X2988707Y-23943276D01*
X3369103Y-23689103D01*
X3623276Y-23308707D01*
X3712529Y-22860000D01*
X3623276Y-22411293D01*
X3369103Y-22030897D01*
X2988707Y-21776724D01*
X2653261Y-21710000D01*
X2426739Y-21710000D01*
X2091293Y-21776724D01*
X1710897Y-22030897D01*
X1456724Y-22411293D01*
X1367471Y-22860000D01*
X375000Y-22860000D01*
X375000Y-20320000D01*
X1367471Y-20320000D01*
X1456724Y-20768707D01*
X1710897Y-21149103D01*
X2091293Y-21403276D01*
X2426739Y-21470000D01*
X2653261Y-21470000D01*
X2988707Y-21403276D01*
X3369103Y-21149103D01*
X3623276Y-20768707D01*
X3712529Y-20320000D01*
X3907471Y-20320000D01*
X3996724Y-20768707D01*
X4250897Y-21149103D01*
X4631293Y-21403276D01*
X4966739Y-21470000D01*
X5193261Y-21470000D01*
X5528707Y-21403276D01*
X5909103Y-21149103D01*
X6163276Y-20768707D01*
X6252529Y-20320000D01*
X6163276Y-19871293D01*
X5909103Y-19490897D01*
X5528707Y-19236724D01*
X5193261Y-19170000D01*
X4966739Y-19170000D01*
X4631293Y-19236724D01*
X4250897Y-19490897D01*
X3996724Y-19871293D01*
X3907471Y-20320000D01*
X3712529Y-20320000D01*
X3623276Y-19871293D01*
X3369103Y-19490897D01*
X2988707Y-19236724D01*
X2653261Y-19170000D01*
X2426739Y-19170000D01*
X2091293Y-19236724D01*
X1710897Y-19490897D01*
X1456724Y-19871293D01*
X1367471Y-20320000D01*
X375000Y-20320000D01*
X375000Y-17780000D01*
X1367471Y-17780000D01*
X1456724Y-18228707D01*
X1710897Y-18609103D01*
X2091293Y-18863276D01*
X2426739Y-18930000D01*
X2653261Y-18930000D01*
X2988707Y-18863276D01*
X3369103Y-18609103D01*
X3623276Y-18228707D01*
X3712529Y-17780000D01*
X3907471Y-17780000D01*
X3996724Y-18228707D01*
X4250897Y-18609103D01*
X4631293Y-18863276D01*
X4966739Y-18930000D01*
X5193261Y-18930000D01*
X5528707Y-18863276D01*
X5909103Y-18609103D01*
X6163276Y-18228707D01*
X6252529Y-17780000D01*
X6163276Y-17331293D01*
X5909103Y-16950897D01*
X5528707Y-16696724D01*
X5193261Y-16630000D01*
X4966739Y-16630000D01*
X4631293Y-16696724D01*
X4250897Y-16950897D01*
X3996724Y-17331293D01*
X3907471Y-17780000D01*
X3712529Y-17780000D01*
X3623276Y-17331293D01*
X3369103Y-16950897D01*
X2988707Y-16696724D01*
X2653261Y-16630000D01*
X2426739Y-16630000D01*
X2091293Y-16696724D01*
X1710897Y-16950897D01*
X1456724Y-17331293D01*
X1367471Y-17780000D01*
X375000Y-17780000D01*
X375000Y-15240000D01*
X1367471Y-15240000D01*
X1456724Y-15688707D01*
X1710897Y-16069103D01*
X2091293Y-16323276D01*
X2426739Y-16390000D01*
X2653261Y-16390000D01*
X2988707Y-16323276D01*
X3369103Y-16069103D01*
X3623276Y-15688707D01*
X3712529Y-15240000D01*
X3623276Y-14791293D01*
X3369103Y-14410897D01*
X2988707Y-14156724D01*
X2653261Y-14090000D01*
X2426739Y-14090000D01*
X2091293Y-14156724D01*
X1710897Y-14410897D01*
X1456724Y-14791293D01*
X1367471Y-15240000D01*
X375000Y-15240000D01*
X375000Y-10160000D01*
X1367471Y-10160000D01*
X1456724Y-10608707D01*
X1710897Y-10989103D01*
X2091293Y-11243276D01*
X2426739Y-11310000D01*
X2653261Y-11310000D01*
X2988707Y-11243276D01*
X3369103Y-10989103D01*
X3623276Y-10608707D01*
X3712529Y-10160000D01*
X3623276Y-9711293D01*
X3595685Y-9670000D01*
X3965686Y-9300000D01*
X4297138Y-9300000D01*
X4250897Y-9330897D01*
X3996724Y-9711293D01*
X3907471Y-10160000D01*
X3996724Y-10608707D01*
X4250897Y-10989103D01*
X4631293Y-11243276D01*
X4966739Y-11310000D01*
X5193261Y-11310000D01*
X5528707Y-11243276D01*
X5570000Y-11215685D01*
X6250000Y-11895686D01*
X6250001Y-12687290D01*
X6163276Y-12251293D01*
X5909103Y-11870897D01*
X5528707Y-11616724D01*
X5193261Y-11550000D01*
X4966739Y-11550000D01*
X4631293Y-11616724D01*
X4250897Y-11870897D01*
X3996724Y-12251293D01*
X3907471Y-12700000D01*
X3996724Y-13148707D01*
X4250897Y-13529103D01*
X4282172Y-13550000D01*
X3955685Y-13550000D01*
X3595685Y-13190000D01*
X3623276Y-13148707D01*
X3712529Y-12700000D01*
X3623276Y-12251293D01*
X3369103Y-11870897D01*
X2988707Y-11616724D01*
X2653261Y-11550000D01*
X2426739Y-11550000D01*
X2091293Y-11616724D01*
X1710897Y-11870897D01*
X1456724Y-12251293D01*
X1367471Y-12700000D01*
X1456724Y-13148707D01*
X1710897Y-13529103D01*
X2091293Y-13783276D01*
X2426739Y-13850000D01*
X2653261Y-13850000D01*
X2988707Y-13783276D01*
X3030000Y-13755685D01*
X3479299Y-14204984D01*
X3501616Y-14238384D01*
X3609843Y-14310698D01*
X3633928Y-14326791D01*
X3790000Y-14357836D01*
X3829394Y-14350000D01*
X4342036Y-14350000D01*
X4250897Y-14410897D01*
X3996724Y-14791293D01*
X3907471Y-15240000D01*
X3996724Y-15688707D01*
X4250897Y-16069103D01*
X4631293Y-16323276D01*
X4966739Y-16390000D01*
X5193261Y-16390000D01*
X5528707Y-16323276D01*
X5909103Y-16069103D01*
X6163276Y-15688707D01*
X6252529Y-15240000D01*
X6201929Y-14985613D01*
X7375000Y-16158686D01*
X7375001Y-17944123D01*
X7275000Y-17944123D01*
X7157946Y-17967407D01*
X7058712Y-18033712D01*
X6992407Y-18132946D01*
X6969123Y-18250000D01*
X6969123Y-19750000D01*
X6992407Y-19867054D01*
X7058712Y-19966288D01*
X7157946Y-20032593D01*
X7275000Y-20055877D01*
X8425000Y-20055877D01*
X8574878Y-20010498D01*
X8607946Y-20032593D01*
X8725000Y-20055877D01*
X8825001Y-20055877D01*
X8825001Y-20585602D01*
X8817164Y-20625000D01*
X8821637Y-20647485D01*
X8700000Y-20941142D01*
X8700000Y-21358858D01*
X8859853Y-21744777D01*
X9155223Y-22040147D01*
X9541142Y-22200000D01*
X9958858Y-22200000D01*
X10344777Y-22040147D01*
X10640147Y-21744777D01*
X10720826Y-21550000D01*
X10757662Y-21550000D01*
X10759058Y-21557016D01*
X10872783Y-21727217D01*
X11042984Y-21840942D01*
X11243750Y-21880877D01*
X11756250Y-21880877D01*
X11957016Y-21840942D01*
X12127217Y-21727217D01*
X12240942Y-21557016D01*
X12280877Y-21356250D01*
X12280877Y-20918750D01*
X12240942Y-20717984D01*
X12127217Y-20547783D01*
X11957016Y-20434058D01*
X11756250Y-20394123D01*
X11243750Y-20394123D01*
X11042984Y-20434058D01*
X10872783Y-20547783D01*
X10759058Y-20717984D01*
X10752690Y-20750000D01*
X10720826Y-20750000D01*
X10640147Y-20555223D01*
X10344777Y-20259853D01*
X9958858Y-20100000D01*
X9625000Y-20100000D01*
X9625000Y-20055877D01*
X9725000Y-20055877D01*
X9842054Y-20032593D01*
X9941288Y-19966288D01*
X10007593Y-19867054D01*
X10030877Y-19750000D01*
X10030877Y-19675000D01*
X10675000Y-19675000D01*
X10675000Y-20069619D01*
X10728284Y-20198259D01*
X10826741Y-20296715D01*
X10955380Y-20350000D01*
X11387500Y-20350000D01*
X11475000Y-20262500D01*
X11475000Y-19587500D01*
X11525000Y-19587500D01*
X11525000Y-20262500D01*
X11612500Y-20350000D01*
X12044620Y-20350000D01*
X12173259Y-20296715D01*
X12271716Y-20198259D01*
X12325000Y-20069619D01*
X12325000Y-19675000D01*
X12237500Y-19587500D01*
X11525000Y-19587500D01*
X11475000Y-19587500D01*
X10762500Y-19587500D01*
X10675000Y-19675000D01*
X10030877Y-19675000D01*
X10030877Y-19055381D01*
X10675000Y-19055381D01*
X10675000Y-19450000D01*
X10762500Y-19537500D01*
X11475000Y-19537500D01*
X11475000Y-18862500D01*
X11525000Y-18862500D01*
X11525000Y-19537500D01*
X12237500Y-19537500D01*
X12325000Y-19450000D01*
X12325000Y-19055381D01*
X12271716Y-18926741D01*
X12173259Y-18828285D01*
X12044620Y-18775000D01*
X11612500Y-18775000D01*
X11525000Y-18862500D01*
X11475000Y-18862500D01*
X11387500Y-18775000D01*
X10955380Y-18775000D01*
X10826741Y-18828285D01*
X10728284Y-18926741D01*
X10675000Y-19055381D01*
X10030877Y-19055381D01*
X10030877Y-18250000D01*
X10007593Y-18132946D01*
X9941288Y-18033712D01*
X9842054Y-17967407D01*
X9758273Y-17950741D01*
X9779290Y-17900000D01*
X10675000Y-17900000D01*
X10675000Y-18294619D01*
X10728284Y-18423259D01*
X10826741Y-18521715D01*
X10955380Y-18575000D01*
X11387500Y-18575000D01*
X11475000Y-18487500D01*
X11475000Y-17812500D01*
X11525000Y-17812500D01*
X11525000Y-18487500D01*
X11612500Y-18575000D01*
X12044620Y-18575000D01*
X12173259Y-18521715D01*
X12271716Y-18423259D01*
X12325000Y-18294619D01*
X12325000Y-17900000D01*
X12237500Y-17812500D01*
X11525000Y-17812500D01*
X11475000Y-17812500D01*
X10762500Y-17812500D01*
X10675000Y-17900000D01*
X9779290Y-17900000D01*
X9850000Y-17729293D01*
X9850000Y-17470707D01*
X9779290Y-17300000D01*
X9958858Y-17300000D01*
X10006222Y-17280381D01*
X10675000Y-17280381D01*
X10675000Y-17675000D01*
X10762500Y-17762500D01*
X11475000Y-17762500D01*
X11475000Y-17087500D01*
X11525000Y-17087500D01*
X11525000Y-17762500D01*
X12237500Y-17762500D01*
X12325000Y-17675000D01*
X12325000Y-17280381D01*
X12271716Y-17151741D01*
X12173259Y-17053285D01*
X12044620Y-17000000D01*
X11612500Y-17000000D01*
X11525000Y-17087500D01*
X11475000Y-17087500D01*
X11387500Y-17000000D01*
X10955380Y-17000000D01*
X10826741Y-17053285D01*
X10728284Y-17151741D01*
X10675000Y-17280381D01*
X10006222Y-17280381D01*
X10344777Y-17140147D01*
X10640147Y-16844777D01*
X10736359Y-16612500D01*
X10755176Y-16612500D01*
X10759058Y-16632016D01*
X10872783Y-16802217D01*
X11042984Y-16915942D01*
X11243750Y-16955877D01*
X11756250Y-16955877D01*
X11957016Y-16915942D01*
X12127217Y-16802217D01*
X12240942Y-16632016D01*
X12280877Y-16431250D01*
X12280877Y-15993750D01*
X12240942Y-15792984D01*
X12127217Y-15622783D01*
X11957016Y-15509058D01*
X11756250Y-15469123D01*
X11243750Y-15469123D01*
X11042984Y-15509058D01*
X10872783Y-15622783D01*
X10759058Y-15792984D01*
X10755176Y-15812500D01*
X10705293Y-15812500D01*
X10640147Y-15655223D01*
X10344777Y-15359853D01*
X9958858Y-15200000D01*
X9625000Y-15200000D01*
X9625000Y-15055877D01*
X9725000Y-15055877D01*
X9842054Y-15032593D01*
X9941288Y-14966288D01*
X10007593Y-14867054D01*
X10030877Y-14750000D01*
X10030877Y-13250000D01*
X10020931Y-13200001D01*
X10757663Y-13200001D01*
X10759058Y-13207016D01*
X10872783Y-13377217D01*
X11042984Y-13490942D01*
X11243750Y-13530877D01*
X11756250Y-13530877D01*
X11957016Y-13490942D01*
X12127217Y-13377217D01*
X12240942Y-13207016D01*
X12250000Y-13161479D01*
X12259058Y-13207016D01*
X12372783Y-13377217D01*
X12542984Y-13490942D01*
X12743750Y-13530877D01*
X13256250Y-13530877D01*
X13457016Y-13490942D01*
X13627217Y-13377217D01*
X13740942Y-13207016D01*
X13780877Y-13006250D01*
X13780877Y-12568750D01*
X13740942Y-12367984D01*
X13627217Y-12197783D01*
X13457016Y-12084058D01*
X13256250Y-12044123D01*
X12822308Y-12044123D01*
X12778185Y-12000000D01*
X12887500Y-12000000D01*
X12975000Y-11912500D01*
X12975000Y-11237500D01*
X13025000Y-11237500D01*
X13025000Y-11912500D01*
X13112500Y-12000000D01*
X13544620Y-12000000D01*
X13673259Y-11946715D01*
X13771716Y-11848259D01*
X13825000Y-11719619D01*
X13825000Y-11325000D01*
X13737500Y-11237500D01*
X13025000Y-11237500D01*
X12975000Y-11237500D01*
X12262500Y-11237500D01*
X12250000Y-11250000D01*
X12237500Y-11237500D01*
X11525000Y-11237500D01*
X11525000Y-11257500D01*
X11475000Y-11257500D01*
X11475000Y-11237500D01*
X10762500Y-11237500D01*
X10675000Y-11325000D01*
X10675000Y-11600000D01*
X10637944Y-11600000D01*
X10649999Y-11539395D01*
X10657835Y-11500002D01*
X10649999Y-11460609D01*
X10649999Y-10705381D01*
X10675000Y-10705381D01*
X10675000Y-11100000D01*
X10762500Y-11187500D01*
X11475000Y-11187500D01*
X11475000Y-10512500D01*
X11525000Y-10512500D01*
X11525000Y-11187500D01*
X12237500Y-11187500D01*
X12250000Y-11175000D01*
X12262500Y-11187500D01*
X12975000Y-11187500D01*
X12975000Y-10512500D01*
X13025000Y-10512500D01*
X13025000Y-11187500D01*
X13737500Y-11187500D01*
X13825000Y-11100000D01*
X13825000Y-10705381D01*
X13771716Y-10576741D01*
X13673259Y-10478285D01*
X13544620Y-10425000D01*
X13112500Y-10425000D01*
X13025000Y-10512500D01*
X12975000Y-10512500D01*
X12887500Y-10425000D01*
X12455380Y-10425000D01*
X12326741Y-10478285D01*
X12250000Y-10555025D01*
X12173259Y-10478285D01*
X12044620Y-10425000D01*
X11612500Y-10425000D01*
X11525000Y-10512500D01*
X11475000Y-10512500D01*
X11387500Y-10425000D01*
X10955380Y-10425000D01*
X10826741Y-10478285D01*
X10728284Y-10576741D01*
X10675000Y-10705381D01*
X10649999Y-10705381D01*
X10649999Y-8564391D01*
X10657835Y-8524998D01*
X10649999Y-8485605D01*
X10626790Y-8368927D01*
X10538383Y-8236615D01*
X10504987Y-8214301D01*
X10030877Y-7740192D01*
X10030877Y-6750000D01*
X10007593Y-6632946D01*
X9941288Y-6533712D01*
X9842054Y-6467407D01*
X9725000Y-6444123D01*
X8725000Y-6444123D01*
X8665013Y-6450063D01*
X8573188Y-6488210D01*
X8542054Y-6467407D01*
X8425000Y-6444123D01*
X7275000Y-6444123D01*
X7157946Y-6467407D01*
X7058712Y-6533712D01*
X6992407Y-6632946D01*
X6969123Y-6750000D01*
X6969123Y-7100000D01*
X6115639Y-7100000D01*
X5909103Y-6790897D01*
X5528707Y-6536724D01*
X5193261Y-6470000D01*
X4966739Y-6470000D01*
X4631293Y-6536724D01*
X4250897Y-6790897D01*
X3996724Y-7171293D01*
X3907471Y-7620000D01*
X3996724Y-8068707D01*
X4250897Y-8449103D01*
X4327070Y-8500000D01*
X3839392Y-8500000D01*
X3799999Y-8492164D01*
X3760607Y-8500000D01*
X3760606Y-8500000D01*
X3643928Y-8523209D01*
X3511616Y-8611616D01*
X3489301Y-8645013D01*
X3030000Y-9104315D01*
X2988707Y-9076724D01*
X2653261Y-9010000D01*
X2426739Y-9010000D01*
X2091293Y-9076724D01*
X1710897Y-9330897D01*
X1456724Y-9711293D01*
X1367471Y-10160000D01*
X375000Y-10160000D01*
X375000Y-7620000D01*
X1367471Y-7620000D01*
X1456724Y-8068707D01*
X1710897Y-8449103D01*
X2091293Y-8703276D01*
X2426739Y-8770000D01*
X2653261Y-8770000D01*
X2988707Y-8703276D01*
X3369103Y-8449103D01*
X3623276Y-8068707D01*
X3712529Y-7620000D01*
X3623276Y-7171293D01*
X3369103Y-6790897D01*
X2988707Y-6536724D01*
X2653261Y-6470000D01*
X2426739Y-6470000D01*
X2091293Y-6536724D01*
X1710897Y-6790897D01*
X1456724Y-7171293D01*
X1367471Y-7620000D01*
X375000Y-7620000D01*
X375000Y-4230000D01*
X1384123Y-4230000D01*
X1384123Y-5930000D01*
X1407407Y-6047054D01*
X1473712Y-6146288D01*
X1572946Y-6212593D01*
X1690000Y-6235877D01*
X3390000Y-6235877D01*
X3507054Y-6212593D01*
X3606288Y-6146288D01*
X3672593Y-6047054D01*
X3695877Y-5930000D01*
X3695877Y-5080000D01*
X3907471Y-5080000D01*
X3996724Y-5528707D01*
X4250897Y-5909103D01*
X4631293Y-6163276D01*
X4966739Y-6230000D01*
X5193261Y-6230000D01*
X5389981Y-6190870D01*
X13510000Y-6190870D01*
X13510000Y-6509130D01*
X13631793Y-6803164D01*
X13856836Y-7028207D01*
X14150870Y-7150000D01*
X14469130Y-7150000D01*
X14763164Y-7028207D01*
X14988207Y-6803164D01*
X15110000Y-6509130D01*
X15110000Y-6190870D01*
X17910000Y-6190870D01*
X17910000Y-6509130D01*
X18031793Y-6803164D01*
X18256836Y-7028207D01*
X18550870Y-7150000D01*
X18869130Y-7150000D01*
X19163164Y-7028207D01*
X19388207Y-6803164D01*
X19510000Y-6509130D01*
X19510000Y-6190870D01*
X19388207Y-5896836D01*
X19163164Y-5671793D01*
X18869130Y-5550000D01*
X18550870Y-5550000D01*
X18256836Y-5671793D01*
X18031793Y-5896836D01*
X17910000Y-6190870D01*
X15110000Y-6190870D01*
X14988207Y-5896836D01*
X14763164Y-5671793D01*
X14469130Y-5550000D01*
X14150870Y-5550000D01*
X13856836Y-5671793D01*
X13631793Y-5896836D01*
X13510000Y-6190870D01*
X5389981Y-6190870D01*
X5528707Y-6163276D01*
X5909103Y-5909103D01*
X6163276Y-5528707D01*
X6252529Y-5080000D01*
X6163276Y-4631293D01*
X5909103Y-4250897D01*
X5528707Y-3996724D01*
X5193261Y-3930000D01*
X4966739Y-3930000D01*
X4631293Y-3996724D01*
X4250897Y-4250897D01*
X3996724Y-4631293D01*
X3907471Y-5080000D01*
X3695877Y-5080000D01*
X3695877Y-4230000D01*
X3672593Y-4112946D01*
X3606288Y-4013712D01*
X3507054Y-3947407D01*
X3390000Y-3924123D01*
X1690000Y-3924123D01*
X1572946Y-3947407D01*
X1473712Y-4013712D01*
X1407407Y-4112946D01*
X1384123Y-4230000D01*
X375000Y-4230000D01*
X375000Y-375000D01*
X32625001Y-375000D01*
X32625000Y-39625000D01*
X32625000Y-39625000D01*
G37*
X32625000Y-39625000D02*
X375000Y-39625000D01*
X375000Y-38312373D01*
X1358940Y-38312373D01*
X1530114Y-38748179D01*
X1855034Y-39085306D01*
X2284234Y-39272429D01*
X2327627Y-39281058D01*
X2515000Y-39212219D01*
X2515000Y-38125000D01*
X2565000Y-38125000D01*
X2565000Y-39212219D01*
X2752373Y-39281058D01*
X2795766Y-39272429D01*
X3224966Y-39085306D01*
X3549886Y-38748179D01*
X3721060Y-38312373D01*
X3652242Y-38125000D01*
X2565000Y-38125000D01*
X2515000Y-38125000D01*
X1427758Y-38125000D01*
X1358940Y-38312373D01*
X375000Y-38312373D01*
X375000Y-37887627D01*
X1358940Y-37887627D01*
X1427758Y-38075000D01*
X2515000Y-38075000D01*
X2515000Y-36987781D01*
X2565000Y-36987781D01*
X2565000Y-38075000D01*
X3652242Y-38075000D01*
X3721060Y-37887627D01*
X3549886Y-37451821D01*
X3355373Y-37250000D01*
X3924123Y-37250000D01*
X3924123Y-38950000D01*
X3947407Y-39067054D01*
X4013712Y-39166288D01*
X4112946Y-39232593D01*
X4230000Y-39255877D01*
X5930000Y-39255877D01*
X6047054Y-39232593D01*
X6146288Y-39166288D01*
X6212593Y-39067054D01*
X6235877Y-38950000D01*
X6235877Y-37250000D01*
X11544123Y-37250000D01*
X11544123Y-38950000D01*
X11567407Y-39067054D01*
X11633712Y-39166288D01*
X11732946Y-39232593D01*
X11850000Y-39255877D01*
X13550000Y-39255877D01*
X13667054Y-39232593D01*
X13766288Y-39166288D01*
X13832593Y-39067054D01*
X13855877Y-38950000D01*
X13855877Y-38312373D01*
X14058940Y-38312373D01*
X14230114Y-38748179D01*
X14555034Y-39085306D01*
X14984234Y-39272429D01*
X15027627Y-39281058D01*
X15215000Y-39212219D01*
X15215000Y-38125000D01*
X15265000Y-38125000D01*
X15265000Y-39212219D01*
X15452373Y-39281058D01*
X15495766Y-39272429D01*
X15924966Y-39085306D01*
X16249886Y-38748179D01*
X16421060Y-38312373D01*
X16352242Y-38125000D01*
X15265000Y-38125000D01*
X15215000Y-38125000D01*
X14127758Y-38125000D01*
X14058940Y-38312373D01*
X13855877Y-38312373D01*
X13855877Y-37887627D01*
X14058940Y-37887627D01*
X14127758Y-38075000D01*
X15215000Y-38075000D01*
X15215000Y-36987781D01*
X15265000Y-36987781D01*
X15265000Y-38075000D01*
X16352242Y-38075000D01*
X16421060Y-37887627D01*
X16249886Y-37451821D01*
X15924966Y-37114694D01*
X15495766Y-36927571D01*
X15452373Y-36918942D01*
X15265000Y-36987781D01*
X15215000Y-36987781D01*
X15027627Y-36918942D01*
X14984234Y-36927571D01*
X14555034Y-37114694D01*
X14230114Y-37451821D01*
X14058940Y-37887627D01*
X13855877Y-37887627D01*
X13855877Y-37250000D01*
X13832593Y-37132946D01*
X13766288Y-37033712D01*
X13667054Y-36967407D01*
X13550000Y-36944123D01*
X13312983Y-36944123D01*
X15467107Y-34790000D01*
X15537779Y-34790000D01*
X15622783Y-34917217D01*
X15792984Y-35030942D01*
X15993750Y-35070877D01*
X16431250Y-35070877D01*
X16632016Y-35030942D01*
X16802217Y-34917217D01*
X16915942Y-34747016D01*
X16955877Y-34546250D01*
X16955877Y-34033750D01*
X16915942Y-33832984D01*
X16802217Y-33662783D01*
X16737540Y-33619567D01*
X16757106Y-33600000D01*
X16829293Y-33600000D01*
X17068195Y-33501043D01*
X17251043Y-33318195D01*
X17350000Y-33079293D01*
X17350000Y-32820707D01*
X17251043Y-32581805D01*
X17068195Y-32398957D01*
X16829293Y-32300000D01*
X16570707Y-32300000D01*
X16331805Y-32398957D01*
X16148957Y-32581805D01*
X16050000Y-32820707D01*
X16050000Y-32892894D01*
X15893768Y-33049126D01*
X15852021Y-33077020D01*
X15824127Y-33118767D01*
X15741512Y-33242410D01*
X15702705Y-33437500D01*
X15712501Y-33486746D01*
X15712501Y-33602835D01*
X15622783Y-33662783D01*
X15537779Y-33790000D01*
X15309243Y-33790000D01*
X15260000Y-33780205D01*
X15210757Y-33790000D01*
X15064910Y-33819011D01*
X14899520Y-33929520D01*
X14871625Y-33971268D01*
X12381268Y-36461625D01*
X12339521Y-36489520D01*
X12311627Y-36531267D01*
X12229012Y-36654910D01*
X12190205Y-36850000D01*
X12200001Y-36899246D01*
X12200001Y-36944123D01*
X11850000Y-36944123D01*
X11732946Y-36967407D01*
X11633712Y-37033712D01*
X11567407Y-37132946D01*
X11544123Y-37250000D01*
X6235877Y-37250000D01*
X6212593Y-37132946D01*
X6146288Y-37033712D01*
X6047054Y-36967407D01*
X5930000Y-36944123D01*
X4230000Y-36944123D01*
X4112946Y-36967407D01*
X4013712Y-37033712D01*
X3947407Y-37132946D01*
X3924123Y-37250000D01*
X3355373Y-37250000D01*
X3224966Y-37114694D01*
X2795766Y-36927571D01*
X2752373Y-36918942D01*
X2565000Y-36987781D01*
X2515000Y-36987781D01*
X2327627Y-36918942D01*
X2284234Y-36927571D01*
X1855034Y-37114694D01*
X1530114Y-37451821D01*
X1358940Y-37887627D01*
X375000Y-37887627D01*
X375000Y-33020000D01*
X1367471Y-33020000D01*
X1456724Y-33468707D01*
X1710897Y-33849103D01*
X2091293Y-34103276D01*
X2426739Y-34170000D01*
X2653261Y-34170000D01*
X2988707Y-34103276D01*
X3369103Y-33849103D01*
X3623276Y-33468707D01*
X3712529Y-33020000D01*
X3907471Y-33020000D01*
X3996724Y-33468707D01*
X4250897Y-33849103D01*
X4631293Y-34103276D01*
X4966739Y-34170000D01*
X5193261Y-34170000D01*
X5528707Y-34103276D01*
X5909103Y-33849103D01*
X6163276Y-33468707D01*
X6252529Y-33020000D01*
X6173106Y-32620707D01*
X11900000Y-32620707D01*
X11900000Y-32879293D01*
X11998957Y-33118195D01*
X12181805Y-33301043D01*
X12420707Y-33400000D01*
X12679293Y-33400000D01*
X12918195Y-33301043D01*
X12966172Y-33253066D01*
X13000000Y-33259795D01*
X13049241Y-33250000D01*
X13049243Y-33250000D01*
X13195090Y-33220989D01*
X13360480Y-33110480D01*
X13388376Y-33068730D01*
X14918732Y-31538375D01*
X14960480Y-31510480D01*
X15070989Y-31345090D01*
X15100000Y-31199243D01*
X15109795Y-31150000D01*
X15100000Y-31100757D01*
X15100000Y-22450000D01*
X15925000Y-22450000D01*
X15925000Y-22844619D01*
X15978284Y-22973259D01*
X16076741Y-23071715D01*
X16205380Y-23125000D01*
X16637500Y-23125000D01*
X16725000Y-23037500D01*
X16725000Y-22362500D01*
X16775000Y-22362500D01*
X16775000Y-23037500D01*
X16862500Y-23125000D01*
X17294620Y-23125000D01*
X17423259Y-23071715D01*
X17521716Y-22973259D01*
X17575000Y-22844619D01*
X17575000Y-22450000D01*
X17487500Y-22362500D01*
X16775000Y-22362500D01*
X16725000Y-22362500D01*
X16012500Y-22362500D01*
X15925000Y-22450000D01*
X15100000Y-22450000D01*
X15100000Y-21830381D01*
X15925000Y-21830381D01*
X15925000Y-22225000D01*
X16012500Y-22312500D01*
X16725000Y-22312500D01*
X16725000Y-21637500D01*
X16775000Y-21637500D01*
X16775000Y-22312500D01*
X17487500Y-22312500D01*
X17575000Y-22225000D01*
X17575000Y-21830381D01*
X17521716Y-21701741D01*
X17423259Y-21603285D01*
X17294620Y-21550000D01*
X16862500Y-21550000D01*
X16775000Y-21637500D01*
X16725000Y-21637500D01*
X16637500Y-21550000D01*
X16205380Y-21550000D01*
X16076741Y-21603285D01*
X15978284Y-21701741D01*
X15925000Y-21830381D01*
X15100000Y-21830381D01*
X15100000Y-18420999D01*
X15111616Y-18438384D01*
X15145018Y-18460702D01*
X15350000Y-18665685D01*
X15350000Y-18879293D01*
X15448957Y-19118195D01*
X15631805Y-19301043D01*
X15870707Y-19400000D01*
X16129293Y-19400000D01*
X16368195Y-19301043D01*
X16519238Y-19150000D01*
X17469123Y-19150000D01*
X17469123Y-19500000D01*
X17492407Y-19617054D01*
X17558712Y-19716288D01*
X17657946Y-19782593D01*
X17775000Y-19805877D01*
X17812500Y-19805877D01*
X17812500Y-20005176D01*
X17792984Y-20009058D01*
X17622783Y-20122783D01*
X17509058Y-20292984D01*
X17495230Y-20362500D01*
X17494824Y-20362500D01*
X17490942Y-20342984D01*
X17377217Y-20172783D01*
X17207016Y-20059058D01*
X17006250Y-20019123D01*
X16493750Y-20019123D01*
X16292984Y-20059058D01*
X16122783Y-20172783D01*
X16009058Y-20342984D01*
X15969123Y-20543750D01*
X15969123Y-20981250D01*
X16009058Y-21182016D01*
X16122783Y-21352217D01*
X16292984Y-21465942D01*
X16493750Y-21505877D01*
X17006250Y-21505877D01*
X17207016Y-21465942D01*
X17377217Y-21352217D01*
X17490942Y-21182016D01*
X17494824Y-21162500D01*
X17500203Y-21162500D01*
X17509058Y-21207016D01*
X17622783Y-21377217D01*
X17792984Y-21490942D01*
X17993750Y-21530877D01*
X18431250Y-21530877D01*
X18632016Y-21490942D01*
X18802217Y-21377217D01*
X18915942Y-21207016D01*
X18955877Y-21006250D01*
X18955877Y-20493750D01*
X18915942Y-20292984D01*
X18802217Y-20122783D01*
X18632016Y-20009058D01*
X18612500Y-20005176D01*
X18612500Y-19805877D01*
X18925000Y-19805877D01*
X19074878Y-19760498D01*
X19107946Y-19782593D01*
X19225000Y-19805877D01*
X19287500Y-19805877D01*
X19287500Y-20062836D01*
X19197783Y-20122783D01*
X19084058Y-20292984D01*
X19044123Y-20493750D01*
X19044123Y-21006250D01*
X19084058Y-21207016D01*
X19197783Y-21377217D01*
X19287501Y-21437165D01*
X19287501Y-21700753D01*
X19277705Y-21750000D01*
X19287500Y-21799243D01*
X19287501Y-25369821D01*
X19251043Y-25281805D01*
X19068195Y-25098957D01*
X18829293Y-25000000D01*
X18570707Y-25000000D01*
X18331805Y-25098957D01*
X18148957Y-25281805D01*
X18050000Y-25520707D01*
X18050000Y-25779293D01*
X18148957Y-26018195D01*
X18205026Y-26074264D01*
X17532519Y-26746771D01*
X17499116Y-26769090D01*
X17423804Y-26881805D01*
X17410709Y-26901403D01*
X17379664Y-27057474D01*
X17387500Y-27096868D01*
X17387500Y-27501894D01*
X17387501Y-27501899D01*
X17387500Y-33545176D01*
X17367984Y-33549058D01*
X17197783Y-33662783D01*
X17084058Y-33832984D01*
X17044123Y-34033750D01*
X17044123Y-34546250D01*
X17084058Y-34747016D01*
X17197783Y-34917217D01*
X17367984Y-35030942D01*
X17387500Y-35034824D01*
X17387501Y-37005544D01*
X17331293Y-37016724D01*
X16950897Y-37270897D01*
X16696724Y-37651293D01*
X16607471Y-38100000D01*
X16696724Y-38548707D01*
X16950897Y-38929103D01*
X17331293Y-39183276D01*
X17666739Y-39250000D01*
X17893261Y-39250000D01*
X18228707Y-39183276D01*
X18609103Y-38929103D01*
X18863276Y-38548707D01*
X18952529Y-38100000D01*
X19147471Y-38100000D01*
X19236724Y-38548707D01*
X19490897Y-38929103D01*
X19871293Y-39183276D01*
X20206739Y-39250000D01*
X20433261Y-39250000D01*
X20768707Y-39183276D01*
X21149103Y-38929103D01*
X21403276Y-38548707D01*
X21492529Y-38100000D01*
X21687471Y-38100000D01*
X21776724Y-38548707D01*
X22030897Y-38929103D01*
X22411293Y-39183276D01*
X22746739Y-39250000D01*
X22973261Y-39250000D01*
X23308707Y-39183276D01*
X23689103Y-38929103D01*
X23943276Y-38548707D01*
X24032529Y-38100000D01*
X23943276Y-37651293D01*
X23689103Y-37270897D01*
X23308707Y-37016724D01*
X23150000Y-36985155D01*
X23150000Y-35502283D01*
X23207016Y-35490942D01*
X23377217Y-35377217D01*
X23490942Y-35207016D01*
X23530877Y-35006250D01*
X23530877Y-34568750D01*
X23490942Y-34367984D01*
X23377217Y-34197783D01*
X23207016Y-34084058D01*
X23006250Y-34044123D01*
X22493750Y-34044123D01*
X22292984Y-34084058D01*
X22122783Y-34197783D01*
X22009058Y-34367984D01*
X21969123Y-34568750D01*
X21969123Y-35006250D01*
X22009058Y-35207016D01*
X22122783Y-35377217D01*
X22292984Y-35490942D01*
X22350000Y-35502283D01*
X22350001Y-37057678D01*
X22030897Y-37270897D01*
X21776724Y-37651293D01*
X21687471Y-38100000D01*
X21492529Y-38100000D01*
X21403276Y-37651293D01*
X21149103Y-37270897D01*
X20768707Y-37016724D01*
X20650000Y-36993112D01*
X20650000Y-35502283D01*
X20707016Y-35490942D01*
X20877217Y-35377217D01*
X20990942Y-35207016D01*
X21030877Y-35006250D01*
X21030877Y-34568750D01*
X20990942Y-34367984D01*
X20877217Y-34197783D01*
X20707016Y-34084058D01*
X20506250Y-34044123D01*
X19993750Y-34044123D01*
X19792984Y-34084058D01*
X19622783Y-34197783D01*
X19509058Y-34367984D01*
X19469123Y-34568750D01*
X19469123Y-35006250D01*
X19509058Y-35207016D01*
X19622783Y-35377217D01*
X19792984Y-35490942D01*
X19850000Y-35502283D01*
X19850001Y-37030951D01*
X19490897Y-37270897D01*
X19236724Y-37651293D01*
X19147471Y-38100000D01*
X18952529Y-38100000D01*
X18863276Y-37651293D01*
X18609103Y-37270897D01*
X18228707Y-37016724D01*
X18187500Y-37008527D01*
X18187500Y-35034824D01*
X18207016Y-35030942D01*
X18377217Y-34917217D01*
X18490942Y-34747016D01*
X18530877Y-34546250D01*
X18530877Y-34033750D01*
X18490942Y-33832984D01*
X18377217Y-33662783D01*
X18207016Y-33549058D01*
X18187500Y-33545176D01*
X18187500Y-32993750D01*
X19469123Y-32993750D01*
X19469123Y-33431250D01*
X19509058Y-33632016D01*
X19622783Y-33802217D01*
X19792984Y-33915942D01*
X19993750Y-33955877D01*
X20506250Y-33955877D01*
X20707016Y-33915942D01*
X20877217Y-33802217D01*
X20990942Y-33632016D01*
X21030877Y-33431250D01*
X21030877Y-32997307D01*
X22160698Y-31867487D01*
X22160700Y-31867484D01*
X22350000Y-31678184D01*
X22350000Y-32497717D01*
X22292984Y-32509058D01*
X22122783Y-32622783D01*
X22009058Y-32792984D01*
X21969123Y-32993750D01*
X21969123Y-33431250D01*
X22009058Y-33632016D01*
X22122783Y-33802217D01*
X22292984Y-33915942D01*
X22493750Y-33955877D01*
X23006250Y-33955877D01*
X23207016Y-33915942D01*
X23377217Y-33802217D01*
X23490942Y-33632016D01*
X23530877Y-33431250D01*
X23530877Y-33020000D01*
X26767471Y-33020000D01*
X26856724Y-33468707D01*
X27110897Y-33849103D01*
X27491293Y-34103276D01*
X27826739Y-34170000D01*
X28053261Y-34170000D01*
X28388707Y-34103276D01*
X28769103Y-33849103D01*
X29023276Y-33468707D01*
X29112529Y-33020000D01*
X29307471Y-33020000D01*
X29396724Y-33468707D01*
X29650897Y-33849103D01*
X30031293Y-34103276D01*
X30366739Y-34170000D01*
X30593261Y-34170000D01*
X30928707Y-34103276D01*
X31309103Y-33849103D01*
X31563276Y-33468707D01*
X31652529Y-33020000D01*
X31563276Y-32571293D01*
X31309103Y-32190897D01*
X30928707Y-31936724D01*
X30593261Y-31870000D01*
X30366739Y-31870000D01*
X30031293Y-31936724D01*
X29650897Y-32190897D01*
X29396724Y-32571293D01*
X29307471Y-33020000D01*
X29112529Y-33020000D01*
X29023276Y-32571293D01*
X28769103Y-32190897D01*
X28388707Y-31936724D01*
X28053261Y-31870000D01*
X27826739Y-31870000D01*
X27491293Y-31936724D01*
X27110897Y-32190897D01*
X26856724Y-32571293D01*
X26767471Y-33020000D01*
X23530877Y-33020000D01*
X23530877Y-32993750D01*
X23490942Y-32792984D01*
X23377217Y-32622783D01*
X23207016Y-32509058D01*
X23150000Y-32497717D01*
X23150000Y-30692373D01*
X26758942Y-30692373D01*
X26767571Y-30735766D01*
X26954694Y-31164966D01*
X27291821Y-31489886D01*
X27727627Y-31661060D01*
X27915000Y-31592242D01*
X27915000Y-30505000D01*
X27965000Y-30505000D01*
X27965000Y-31592242D01*
X28152373Y-31661060D01*
X28588179Y-31489886D01*
X28925306Y-31164966D01*
X29112429Y-30735766D01*
X29121058Y-30692373D01*
X29298942Y-30692373D01*
X29307571Y-30735766D01*
X29494694Y-31164966D01*
X29831821Y-31489886D01*
X30267627Y-31661060D01*
X30455000Y-31592242D01*
X30455000Y-30505000D01*
X30505000Y-30505000D01*
X30505000Y-31592242D01*
X30692373Y-31661060D01*
X31128179Y-31489886D01*
X31465306Y-31164966D01*
X31652429Y-30735766D01*
X31661058Y-30692373D01*
X31592219Y-30505000D01*
X30505000Y-30505000D01*
X30455000Y-30505000D01*
X29367781Y-30505000D01*
X29298942Y-30692373D01*
X29121058Y-30692373D01*
X29052219Y-30505000D01*
X27965000Y-30505000D01*
X27915000Y-30505000D01*
X26827781Y-30505000D01*
X26758942Y-30692373D01*
X23150000Y-30692373D01*
X23150000Y-30267627D01*
X26758942Y-30267627D01*
X26827781Y-30455000D01*
X27915000Y-30455000D01*
X27915000Y-29367758D01*
X27965000Y-29367758D01*
X27965000Y-30455000D01*
X29052219Y-30455000D01*
X29121058Y-30267627D01*
X29298942Y-30267627D01*
X29367781Y-30455000D01*
X30455000Y-30455000D01*
X30455000Y-29367758D01*
X30505000Y-29367758D01*
X30505000Y-30455000D01*
X31592219Y-30455000D01*
X31661058Y-30267627D01*
X31652429Y-30224234D01*
X31465306Y-29795034D01*
X31128179Y-29470114D01*
X30692373Y-29298940D01*
X30505000Y-29367758D01*
X30455000Y-29367758D01*
X30267627Y-29298940D01*
X29831821Y-29470114D01*
X29494694Y-29795034D01*
X29307571Y-30224234D01*
X29298942Y-30267627D01*
X29121058Y-30267627D01*
X29112429Y-30224234D01*
X28925306Y-29795034D01*
X28588179Y-29470114D01*
X28152373Y-29298940D01*
X27965000Y-29367758D01*
X27915000Y-29367758D01*
X27727627Y-29298940D01*
X27291821Y-29470114D01*
X26954694Y-29795034D01*
X26767571Y-30224234D01*
X26758942Y-30267627D01*
X23150000Y-30267627D01*
X23150000Y-27940000D01*
X26767471Y-27940000D01*
X26856724Y-28388707D01*
X27110897Y-28769103D01*
X27491293Y-29023276D01*
X27826739Y-29090000D01*
X28053261Y-29090000D01*
X28388707Y-29023276D01*
X28769103Y-28769103D01*
X29023276Y-28388707D01*
X29112529Y-27940000D01*
X29307471Y-27940000D01*
X29396724Y-28388707D01*
X29650897Y-28769103D01*
X30031293Y-29023276D01*
X30366739Y-29090000D01*
X30593261Y-29090000D01*
X30928707Y-29023276D01*
X31309103Y-28769103D01*
X31563276Y-28388707D01*
X31652529Y-27940000D01*
X31563276Y-27491293D01*
X31309103Y-27110897D01*
X30928707Y-26856724D01*
X30593261Y-26790000D01*
X30366739Y-26790000D01*
X30031293Y-26856724D01*
X29650897Y-27110897D01*
X29396724Y-27491293D01*
X29307471Y-27940000D01*
X29112529Y-27940000D01*
X29023276Y-27491293D01*
X28769103Y-27110897D01*
X28388707Y-26856724D01*
X28053261Y-26790000D01*
X27826739Y-26790000D01*
X27491293Y-26856724D01*
X27110897Y-27110897D01*
X26856724Y-27491293D01*
X26767471Y-27940000D01*
X23150000Y-27940000D01*
X23150000Y-25427686D01*
X23177686Y-25400000D01*
X26767471Y-25400000D01*
X26856724Y-25848707D01*
X27110897Y-26229103D01*
X27491293Y-26483276D01*
X27826739Y-26550000D01*
X28053261Y-26550000D01*
X28388707Y-26483276D01*
X28769103Y-26229103D01*
X29023276Y-25848707D01*
X29112529Y-25400000D01*
X29307471Y-25400000D01*
X29396724Y-25848707D01*
X29650897Y-26229103D01*
X30031293Y-26483276D01*
X30366739Y-26550000D01*
X30593261Y-26550000D01*
X30928707Y-26483276D01*
X31309103Y-26229103D01*
X31563276Y-25848707D01*
X31652529Y-25400000D01*
X31563276Y-24951293D01*
X31309103Y-24570897D01*
X30928707Y-24316724D01*
X30593261Y-24250000D01*
X30366739Y-24250000D01*
X30031293Y-24316724D01*
X29650897Y-24570897D01*
X29396724Y-24951293D01*
X29307471Y-25400000D01*
X29112529Y-25400000D01*
X29023276Y-24951293D01*
X28769103Y-24570897D01*
X28388707Y-24316724D01*
X28053261Y-24250000D01*
X27826739Y-24250000D01*
X27491293Y-24316724D01*
X27110897Y-24570897D01*
X26856724Y-24951293D01*
X26767471Y-25400000D01*
X23177686Y-25400000D01*
X25717686Y-22860000D01*
X26767471Y-22860000D01*
X26856724Y-23308707D01*
X27110897Y-23689103D01*
X27491293Y-23943276D01*
X27826739Y-24010000D01*
X28053261Y-24010000D01*
X28388707Y-23943276D01*
X28769103Y-23689103D01*
X29023276Y-23308707D01*
X29112529Y-22860000D01*
X29307471Y-22860000D01*
X29396724Y-23308707D01*
X29650897Y-23689103D01*
X30031293Y-23943276D01*
X30366739Y-24010000D01*
X30593261Y-24010000D01*
X30928707Y-23943276D01*
X31309103Y-23689103D01*
X31563276Y-23308707D01*
X31652529Y-22860000D01*
X31563276Y-22411293D01*
X31309103Y-22030897D01*
X30928707Y-21776724D01*
X30593261Y-21710000D01*
X30366739Y-21710000D01*
X30031293Y-21776724D01*
X29650897Y-22030897D01*
X29396724Y-22411293D01*
X29307471Y-22860000D01*
X29112529Y-22860000D01*
X29023276Y-22411293D01*
X28769103Y-22030897D01*
X28388707Y-21776724D01*
X28053261Y-21710000D01*
X27826739Y-21710000D01*
X27491293Y-21776724D01*
X27110897Y-22030897D01*
X26856724Y-22411293D01*
X26767471Y-22860000D01*
X25717686Y-22860000D01*
X26154986Y-22422701D01*
X26188385Y-22400385D01*
X26276792Y-22268073D01*
X26300001Y-22151395D01*
X26300001Y-22151394D01*
X26307837Y-22112001D01*
X26300001Y-22072607D01*
X26300001Y-21489393D01*
X26307837Y-21450000D01*
X26289707Y-21358858D01*
X26276792Y-21293929D01*
X26188385Y-21161617D01*
X26154988Y-21139302D01*
X25900000Y-20884315D01*
X25900000Y-20670707D01*
X25801043Y-20431805D01*
X25618195Y-20248957D01*
X25379293Y-20150000D01*
X25120707Y-20150000D01*
X24881805Y-20248957D01*
X24698957Y-20431805D01*
X24600000Y-20670707D01*
X24600000Y-20929293D01*
X24609323Y-20951801D01*
X24544619Y-20925000D01*
X24150000Y-20925000D01*
X24062500Y-21012500D01*
X24062500Y-21725000D01*
X24737500Y-21725000D01*
X24825000Y-21637500D01*
X24825000Y-21294238D01*
X24881805Y-21351043D01*
X25120707Y-21450000D01*
X25334315Y-21450000D01*
X25500002Y-21615687D01*
X25500001Y-21946316D01*
X24792856Y-22653461D01*
X24719240Y-22475735D01*
X24771715Y-22423259D01*
X24825000Y-22294620D01*
X24825000Y-21862500D01*
X24737500Y-21775000D01*
X24062500Y-21775000D01*
X24062500Y-21795000D01*
X24012500Y-21795000D01*
X24012500Y-21775000D01*
X23337500Y-21775000D01*
X23250000Y-21862500D01*
X23250000Y-22294620D01*
X23303285Y-22423259D01*
X23401741Y-22521716D01*
X23530381Y-22575000D01*
X23539643Y-22575000D01*
X23500000Y-22670707D01*
X23500000Y-22929293D01*
X23598957Y-23168195D01*
X23649689Y-23218927D01*
X22095019Y-24773598D01*
X22061616Y-24795917D01*
X21973210Y-24928229D01*
X21973209Y-24928230D01*
X21942164Y-25084301D01*
X21950000Y-25123695D01*
X21950001Y-30946814D01*
X21595016Y-31301800D01*
X21595013Y-31301802D01*
X20427693Y-32469123D01*
X19993750Y-32469123D01*
X19792984Y-32509058D01*
X19622783Y-32622783D01*
X19509058Y-32792984D01*
X19469123Y-32993750D01*
X18187500Y-32993750D01*
X18187500Y-27223158D01*
X18954984Y-26455675D01*
X18988384Y-26433358D01*
X19076791Y-26301046D01*
X19100000Y-26184368D01*
X19103757Y-26165481D01*
X19251043Y-26018195D01*
X19287501Y-25930178D01*
X19287501Y-26143261D01*
X19248957Y-26181805D01*
X19150000Y-26420707D01*
X19150000Y-26679293D01*
X19248957Y-26918195D01*
X19431805Y-27101043D01*
X19670707Y-27200000D01*
X19929293Y-27200000D01*
X20168195Y-27101043D01*
X20351043Y-26918195D01*
X20450000Y-26679293D01*
X20450000Y-26420707D01*
X20351043Y-26181805D01*
X20287500Y-26118262D01*
X20287500Y-22250000D01*
X21787779Y-22250000D01*
X21872783Y-22377217D01*
X22042984Y-22490942D01*
X22243750Y-22530877D01*
X22681250Y-22530877D01*
X22882016Y-22490942D01*
X23052217Y-22377217D01*
X23165942Y-22207016D01*
X23205877Y-22006250D01*
X23205877Y-21493750D01*
X23165942Y-21292984D01*
X23107407Y-21205380D01*
X23250000Y-21205380D01*
X23250000Y-21637500D01*
X23337500Y-21725000D01*
X24012500Y-21725000D01*
X24012500Y-21012500D01*
X23925000Y-20925000D01*
X23530381Y-20925000D01*
X23401741Y-20978284D01*
X23303285Y-21076741D01*
X23250000Y-21205380D01*
X23107407Y-21205380D01*
X23052217Y-21122783D01*
X22882016Y-21009058D01*
X22790383Y-20990831D01*
X22790383Y-20969238D01*
X22841426Y-20918195D01*
X22940383Y-20679293D01*
X22940383Y-20420707D01*
X22841426Y-20181805D01*
X22658578Y-19998957D01*
X22419676Y-19900000D01*
X22161090Y-19900000D01*
X21922188Y-19998957D01*
X21739340Y-20181805D01*
X21640383Y-20420707D01*
X21640383Y-20679293D01*
X21739340Y-20918195D01*
X21790383Y-20969238D01*
X21790384Y-21246102D01*
X21787779Y-21250000D01*
X20462221Y-21250000D01*
X20490942Y-21207016D01*
X20530877Y-21006250D01*
X20530877Y-20493750D01*
X20490942Y-20292984D01*
X20377217Y-20122783D01*
X20287500Y-20062836D01*
X20287500Y-19793445D01*
X20342054Y-19782593D01*
X20441288Y-19716288D01*
X20507593Y-19617054D01*
X20530877Y-19500000D01*
X20530877Y-19369354D01*
X20622187Y-19460664D01*
X20861089Y-19559621D01*
X21119675Y-19559621D01*
X21358577Y-19460664D01*
X21509620Y-19309621D01*
X21719123Y-19309621D01*
X21719123Y-19500000D01*
X21742407Y-19617054D01*
X21808712Y-19716288D01*
X21907946Y-19782593D01*
X22025000Y-19805877D01*
X23025000Y-19805877D01*
X23084987Y-19799937D01*
X23176812Y-19761790D01*
X23207946Y-19782593D01*
X23325000Y-19805877D01*
X24475000Y-19805877D01*
X24592054Y-19782593D01*
X24691288Y-19716288D01*
X24757593Y-19617054D01*
X24780877Y-19500000D01*
X24780877Y-19150000D01*
X26204316Y-19150000D01*
X26884315Y-19830000D01*
X26856724Y-19871293D01*
X26767471Y-20320000D01*
X26856724Y-20768707D01*
X27110897Y-21149103D01*
X27491293Y-21403276D01*
X27826739Y-21470000D01*
X28053261Y-21470000D01*
X28388707Y-21403276D01*
X28769103Y-21149103D01*
X29023276Y-20768707D01*
X29112529Y-20320000D01*
X29307471Y-20320000D01*
X29396724Y-20768707D01*
X29650897Y-21149103D01*
X30031293Y-21403276D01*
X30366739Y-21470000D01*
X30593261Y-21470000D01*
X30928707Y-21403276D01*
X31309103Y-21149103D01*
X31563276Y-20768707D01*
X31652529Y-20320000D01*
X31563276Y-19871293D01*
X31309103Y-19490897D01*
X30928707Y-19236724D01*
X30593261Y-19170000D01*
X30366739Y-19170000D01*
X30031293Y-19236724D01*
X29650897Y-19490897D01*
X29396724Y-19871293D01*
X29307471Y-20320000D01*
X29112529Y-20320000D01*
X29023276Y-19871293D01*
X28769103Y-19490897D01*
X28388707Y-19236724D01*
X28053261Y-19170000D01*
X27826739Y-19170000D01*
X27491293Y-19236724D01*
X27450000Y-19264315D01*
X26680703Y-18495019D01*
X26658384Y-18461616D01*
X26526072Y-18373209D01*
X26409394Y-18350000D01*
X26370000Y-18342164D01*
X26330606Y-18350000D01*
X24780877Y-18350000D01*
X24780877Y-18000000D01*
X24757593Y-17882946D01*
X24691288Y-17783712D01*
X24592054Y-17717407D01*
X24475000Y-17694123D01*
X23325000Y-17694123D01*
X23175122Y-17739502D01*
X23142054Y-17717407D01*
X23025000Y-17694123D01*
X22025000Y-17694123D01*
X21907946Y-17717407D01*
X21808712Y-17783712D01*
X21742407Y-17882946D01*
X21719123Y-18000000D01*
X21719123Y-18509621D01*
X21509620Y-18509621D01*
X21459619Y-18459620D01*
X21551043Y-18368195D01*
X21650000Y-18129293D01*
X21650000Y-17915684D01*
X22259808Y-17305877D01*
X23025000Y-17305877D01*
X23084987Y-17299937D01*
X23176812Y-17261790D01*
X23207946Y-17282593D01*
X23325000Y-17305877D01*
X24475000Y-17305877D01*
X24592054Y-17282593D01*
X24691288Y-17216288D01*
X24757593Y-17117054D01*
X24780877Y-17000000D01*
X24780877Y-16899059D01*
X24785606Y-16900000D01*
X24824999Y-16907836D01*
X24864392Y-16900000D01*
X27187070Y-16900000D01*
X27110897Y-16950897D01*
X26856724Y-17331293D01*
X26767471Y-17780000D01*
X26856724Y-18228707D01*
X27110897Y-18609103D01*
X27491293Y-18863276D01*
X27826739Y-18930000D01*
X28053261Y-18930000D01*
X28388707Y-18863276D01*
X28769103Y-18609103D01*
X29023276Y-18228707D01*
X29112529Y-17780000D01*
X29023276Y-17331293D01*
X28769103Y-16950897D01*
X28692930Y-16900000D01*
X29034316Y-16900000D01*
X29424315Y-17290000D01*
X29396724Y-17331293D01*
X29307471Y-17780000D01*
X29396724Y-18228707D01*
X29650897Y-18609103D01*
X30031293Y-18863276D01*
X30366739Y-18930000D01*
X30593261Y-18930000D01*
X30928707Y-18863276D01*
X31309103Y-18609103D01*
X31563276Y-18228707D01*
X31652529Y-17780000D01*
X31563276Y-17331293D01*
X31309103Y-16950897D01*
X30928707Y-16696724D01*
X30593261Y-16630000D01*
X30366739Y-16630000D01*
X30031293Y-16696724D01*
X29990000Y-16724315D01*
X29510703Y-16245018D01*
X29488384Y-16211616D01*
X29356072Y-16123209D01*
X29239394Y-16100000D01*
X29200000Y-16092164D01*
X29160606Y-16100000D01*
X28722862Y-16100000D01*
X28769103Y-16069103D01*
X29023276Y-15688707D01*
X29112529Y-15240000D01*
X29307471Y-15240000D01*
X29396724Y-15688707D01*
X29650897Y-16069103D01*
X30031293Y-16323276D01*
X30366739Y-16390000D01*
X30593261Y-16390000D01*
X30928707Y-16323276D01*
X31309103Y-16069103D01*
X31563276Y-15688707D01*
X31652529Y-15240000D01*
X31563276Y-14791293D01*
X31309103Y-14410897D01*
X30928707Y-14156724D01*
X30593261Y-14090000D01*
X30366739Y-14090000D01*
X30031293Y-14156724D01*
X29650897Y-14410897D01*
X29396724Y-14791293D01*
X29307471Y-15240000D01*
X29112529Y-15240000D01*
X29023276Y-14791293D01*
X28769103Y-14410897D01*
X28388707Y-14156724D01*
X28053261Y-14090000D01*
X27826739Y-14090000D01*
X27491293Y-14156724D01*
X27110897Y-14410897D01*
X26856724Y-14791293D01*
X26767471Y-15240000D01*
X26856724Y-15688707D01*
X27110897Y-16069103D01*
X27157138Y-16100000D01*
X24990685Y-16100000D01*
X24885702Y-15995018D01*
X24863384Y-15961616D01*
X24780877Y-15906487D01*
X24780877Y-15500000D01*
X24757593Y-15382946D01*
X24691288Y-15283712D01*
X24592054Y-15217407D01*
X24475000Y-15194123D01*
X23325000Y-15194123D01*
X23175122Y-15239502D01*
X23142054Y-15217407D01*
X23025000Y-15194123D01*
X22025000Y-15194123D01*
X21907946Y-15217407D01*
X21808712Y-15283712D01*
X21742407Y-15382946D01*
X21719123Y-15500000D01*
X21719123Y-16715192D01*
X21084316Y-17350000D01*
X20870707Y-17350000D01*
X20631805Y-17448957D01*
X20448957Y-17631805D01*
X20398012Y-17754796D01*
X20342054Y-17717407D01*
X20225000Y-17694123D01*
X20225000Y-17305877D01*
X20342054Y-17282593D01*
X20441288Y-17216288D01*
X20507593Y-17117054D01*
X20530877Y-17000000D01*
X20530877Y-15500000D01*
X20507593Y-15382946D01*
X20441288Y-15283712D01*
X20342054Y-15217407D01*
X20225000Y-15194123D01*
X20150000Y-15194123D01*
X20150000Y-14669238D01*
X20201043Y-14618195D01*
X20300000Y-14379293D01*
X20300000Y-14120707D01*
X20201043Y-13881805D01*
X20150000Y-13830762D01*
X20150000Y-13780877D01*
X20256250Y-13780877D01*
X20457016Y-13740942D01*
X20627217Y-13627217D01*
X20740942Y-13457016D01*
X20780877Y-13256250D01*
X20780877Y-12818750D01*
X21969123Y-12818750D01*
X21969123Y-13256250D01*
X22009058Y-13457016D01*
X22122783Y-13627217D01*
X22292984Y-13740942D01*
X22493750Y-13780877D01*
X23006250Y-13780877D01*
X23207016Y-13740942D01*
X23377217Y-13627217D01*
X23490942Y-13457016D01*
X23498713Y-13417951D01*
X23631805Y-13551043D01*
X23870707Y-13650000D01*
X24129293Y-13650000D01*
X24368195Y-13551043D01*
X24551043Y-13368195D01*
X24650000Y-13129293D01*
X24650000Y-12870707D01*
X24579291Y-12700000D01*
X26767471Y-12700000D01*
X26856724Y-13148707D01*
X27110897Y-13529103D01*
X27491293Y-13783276D01*
X27826739Y-13850000D01*
X28053261Y-13850000D01*
X28388707Y-13783276D01*
X28769103Y-13529103D01*
X29023276Y-13148707D01*
X29112529Y-12700000D01*
X29307471Y-12700000D01*
X29396724Y-13148707D01*
X29650897Y-13529103D01*
X30031293Y-13783276D01*
X30366739Y-13850000D01*
X30593261Y-13850000D01*
X30928707Y-13783276D01*
X31309103Y-13529103D01*
X31563276Y-13148707D01*
X31652529Y-12700000D01*
X31563276Y-12251293D01*
X31309103Y-11870897D01*
X30928707Y-11616724D01*
X30593261Y-11550000D01*
X30366739Y-11550000D01*
X30031293Y-11616724D01*
X29650897Y-11870897D01*
X29396724Y-12251293D01*
X29307471Y-12700000D01*
X29112529Y-12700000D01*
X29023276Y-12251293D01*
X28769103Y-11870897D01*
X28388707Y-11616724D01*
X28053261Y-11550000D01*
X27826739Y-11550000D01*
X27491293Y-11616724D01*
X27110897Y-11870897D01*
X26856724Y-12251293D01*
X26767471Y-12700000D01*
X24579291Y-12700000D01*
X24551043Y-12631805D01*
X24368195Y-12448957D01*
X24129293Y-12350000D01*
X23870707Y-12350000D01*
X23631805Y-12448957D01*
X23480762Y-12600000D01*
X23478925Y-12600000D01*
X23377217Y-12447783D01*
X23207016Y-12334058D01*
X23006250Y-12294123D01*
X22493750Y-12294123D01*
X22292984Y-12334058D01*
X22122783Y-12447783D01*
X22009058Y-12617984D01*
X21969123Y-12818750D01*
X20780877Y-12818750D01*
X20740942Y-12617984D01*
X20627217Y-12447783D01*
X20457016Y-12334058D01*
X20256250Y-12294123D01*
X19743750Y-12294123D01*
X19542984Y-12334058D01*
X19372783Y-12447783D01*
X19259058Y-12617984D01*
X19219123Y-12818750D01*
X19219123Y-13132379D01*
X19179012Y-13192410D01*
X19140205Y-13387500D01*
X19150001Y-13436746D01*
X19150000Y-13830762D01*
X19098957Y-13881805D01*
X19000000Y-14120707D01*
X19000000Y-14379293D01*
X19098957Y-14618195D01*
X19150000Y-14669238D01*
X19150000Y-15206300D01*
X19073188Y-15238210D01*
X19042054Y-15217407D01*
X18925000Y-15194123D01*
X17775000Y-15194123D01*
X17657946Y-15217407D01*
X17558712Y-15283712D01*
X17492407Y-15382946D01*
X17472700Y-15482016D01*
X16925610Y-14934926D01*
X16925610Y-14193628D01*
X17076653Y-14042585D01*
X17175610Y-13803683D01*
X17175610Y-13545097D01*
X17076653Y-13306195D01*
X16893805Y-13123347D01*
X16654903Y-13024390D01*
X16396317Y-13024390D01*
X16200010Y-13105703D01*
X16200010Y-12327676D01*
X16952686Y-11575000D01*
X19175000Y-11575000D01*
X19175000Y-11969619D01*
X19228284Y-12098259D01*
X19326741Y-12196715D01*
X19455380Y-12250000D01*
X19887500Y-12250000D01*
X19975000Y-12162500D01*
X19975000Y-11487500D01*
X20025000Y-11487500D01*
X20025000Y-12162500D01*
X20112500Y-12250000D01*
X20544620Y-12250000D01*
X20673259Y-12196715D01*
X20771716Y-12098259D01*
X20825000Y-11969619D01*
X20825000Y-11575000D01*
X21925000Y-11575000D01*
X21925000Y-11969619D01*
X21978284Y-12098259D01*
X22076741Y-12196715D01*
X22205380Y-12250000D01*
X22637500Y-12250000D01*
X22725000Y-12162500D01*
X22725000Y-11487500D01*
X22775000Y-11487500D01*
X22775000Y-12162500D01*
X22862500Y-12250000D01*
X23294620Y-12250000D01*
X23423259Y-12196715D01*
X23521716Y-12098259D01*
X23575000Y-11969619D01*
X23575000Y-11575000D01*
X23487500Y-11487500D01*
X22775000Y-11487500D01*
X22725000Y-11487500D01*
X22012500Y-11487500D01*
X21925000Y-11575000D01*
X20825000Y-11575000D01*
X20737500Y-11487500D01*
X20025000Y-11487500D01*
X19975000Y-11487500D01*
X19262500Y-11487500D01*
X19175000Y-11575000D01*
X16952686Y-11575000D01*
X17572306Y-10955381D01*
X19175000Y-10955381D01*
X19175000Y-11350000D01*
X19262500Y-11437500D01*
X19975000Y-11437500D01*
X19975000Y-10762500D01*
X20025000Y-10762500D01*
X20025000Y-11437500D01*
X20737500Y-11437500D01*
X20825000Y-11350000D01*
X20825000Y-10955381D01*
X21925000Y-10955381D01*
X21925000Y-11350000D01*
X22012500Y-11437500D01*
X22725000Y-11437500D01*
X22725000Y-10762500D01*
X22775000Y-10762500D01*
X22775000Y-11437500D01*
X23487500Y-11437500D01*
X23575000Y-11350000D01*
X23575000Y-10955381D01*
X23521716Y-10826741D01*
X23423259Y-10728285D01*
X23294620Y-10675000D01*
X22862500Y-10675000D01*
X22775000Y-10762500D01*
X22725000Y-10762500D01*
X22637500Y-10675000D01*
X22205380Y-10675000D01*
X22076741Y-10728285D01*
X21978284Y-10826741D01*
X21925000Y-10955381D01*
X20825000Y-10955381D01*
X20771716Y-10826741D01*
X20673259Y-10728285D01*
X20544620Y-10675000D01*
X20112500Y-10675000D01*
X20025000Y-10762500D01*
X19975000Y-10762500D01*
X19887500Y-10675000D01*
X19455380Y-10675000D01*
X19326741Y-10728285D01*
X19228284Y-10826741D01*
X19175000Y-10955381D01*
X17572306Y-10955381D01*
X17977688Y-10550000D01*
X21780606Y-10550000D01*
X21820000Y-10557836D01*
X21859394Y-10550000D01*
X21976072Y-10526791D01*
X22108384Y-10438384D01*
X22130703Y-10404981D01*
X22375684Y-10160000D01*
X26767471Y-10160000D01*
X26856724Y-10608707D01*
X27110897Y-10989103D01*
X27491293Y-11243276D01*
X27826739Y-11310000D01*
X28053261Y-11310000D01*
X28388707Y-11243276D01*
X28769103Y-10989103D01*
X29023276Y-10608707D01*
X29112529Y-10160000D01*
X29307471Y-10160000D01*
X29396724Y-10608707D01*
X29650897Y-10989103D01*
X30031293Y-11243276D01*
X30366739Y-11310000D01*
X30593261Y-11310000D01*
X30928707Y-11243276D01*
X31309103Y-10989103D01*
X31563276Y-10608707D01*
X31652529Y-10160000D01*
X31563276Y-9711293D01*
X31309103Y-9330897D01*
X30928707Y-9076724D01*
X30593261Y-9010000D01*
X30366739Y-9010000D01*
X30031293Y-9076724D01*
X29650897Y-9330897D01*
X29396724Y-9711293D01*
X29307471Y-10160000D01*
X29112529Y-10160000D01*
X29023276Y-9711293D01*
X28769103Y-9330897D01*
X28388707Y-9076724D01*
X28053261Y-9010000D01*
X27826739Y-9010000D01*
X27491293Y-9076724D01*
X27110897Y-9330897D01*
X26856724Y-9711293D01*
X26767471Y-10160000D01*
X22375684Y-10160000D01*
X24915684Y-7620000D01*
X26767471Y-7620000D01*
X26856724Y-8068707D01*
X27110897Y-8449103D01*
X27491293Y-8703276D01*
X27826739Y-8770000D01*
X28053261Y-8770000D01*
X28388707Y-8703276D01*
X28769103Y-8449103D01*
X29023276Y-8068707D01*
X29112529Y-7620000D01*
X29307471Y-7620000D01*
X29396724Y-8068707D01*
X29650897Y-8449103D01*
X30031293Y-8703276D01*
X30366739Y-8770000D01*
X30593261Y-8770000D01*
X30928707Y-8703276D01*
X31309103Y-8449103D01*
X31563276Y-8068707D01*
X31652529Y-7620000D01*
X31563276Y-7171293D01*
X31309103Y-6790897D01*
X30928707Y-6536724D01*
X30593261Y-6470000D01*
X30366739Y-6470000D01*
X30031293Y-6536724D01*
X29650897Y-6790897D01*
X29396724Y-7171293D01*
X29307471Y-7620000D01*
X29112529Y-7620000D01*
X29023276Y-7171293D01*
X28769103Y-6790897D01*
X28388707Y-6536724D01*
X28053261Y-6470000D01*
X27826739Y-6470000D01*
X27491293Y-6536724D01*
X27110897Y-6790897D01*
X26856724Y-7171293D01*
X26767471Y-7620000D01*
X24915684Y-7620000D01*
X26784123Y-5751562D01*
X26784123Y-5930000D01*
X26807407Y-6047054D01*
X26873712Y-6146288D01*
X26972946Y-6212593D01*
X27090000Y-6235877D01*
X28790000Y-6235877D01*
X28907054Y-6212593D01*
X29006288Y-6146288D01*
X29072593Y-6047054D01*
X29095877Y-5930000D01*
X29095877Y-5080000D01*
X29307471Y-5080000D01*
X29396724Y-5528707D01*
X29650897Y-5909103D01*
X30031293Y-6163276D01*
X30366739Y-6230000D01*
X30593261Y-6230000D01*
X30928707Y-6163276D01*
X31309103Y-5909103D01*
X31563276Y-5528707D01*
X31652529Y-5080000D01*
X31563276Y-4631293D01*
X31309103Y-4250897D01*
X30928707Y-3996724D01*
X30593261Y-3930000D01*
X30366739Y-3930000D01*
X30031293Y-3996724D01*
X29650897Y-4250897D01*
X29396724Y-4631293D01*
X29307471Y-5080000D01*
X29095877Y-5080000D01*
X29095877Y-4230000D01*
X29072593Y-4112946D01*
X29006288Y-4013712D01*
X28907054Y-3947407D01*
X28790000Y-3924123D01*
X27090000Y-3924123D01*
X26972946Y-3947407D01*
X26873712Y-4013712D01*
X26807407Y-4112946D01*
X26784123Y-4230000D01*
X26784123Y-4693224D01*
X26733928Y-4703209D01*
X26601616Y-4791616D01*
X26579299Y-4825016D01*
X21654316Y-9750000D01*
X17851394Y-9750000D01*
X17812001Y-9742164D01*
X17772608Y-9750000D01*
X17655930Y-9773209D01*
X17523618Y-9861616D01*
X17501303Y-9895013D01*
X16013567Y-11382750D01*
X15951043Y-11231805D01*
X15768195Y-11048957D01*
X15529293Y-10950000D01*
X15270707Y-10950000D01*
X15100000Y-11020710D01*
X15100000Y-10707106D01*
X16257107Y-9550000D01*
X18530762Y-9550000D01*
X18581805Y-9601043D01*
X18820707Y-9700000D01*
X19079293Y-9700000D01*
X19318195Y-9601043D01*
X19501043Y-9418195D01*
X19600000Y-9179293D01*
X19600000Y-8920707D01*
X19501043Y-8681805D01*
X19318195Y-8498957D01*
X19079293Y-8400000D01*
X18820707Y-8400000D01*
X18581805Y-8498957D01*
X18530762Y-8550000D01*
X16099243Y-8550000D01*
X16050000Y-8540205D01*
X16000757Y-8550000D01*
X15854910Y-8579011D01*
X15689520Y-8689520D01*
X15661625Y-8731268D01*
X14281270Y-10111624D01*
X14239520Y-10139520D01*
X14129011Y-10304911D01*
X14100000Y-10450757D01*
X14090205Y-10500000D01*
X14100000Y-10549241D01*
X14100001Y-30942892D01*
X12865687Y-32177207D01*
X12679293Y-32100000D01*
X12420707Y-32100000D01*
X12181805Y-32198957D01*
X11998957Y-32381805D01*
X11900000Y-32620707D01*
X6173106Y-32620707D01*
X6163276Y-32571293D01*
X5909103Y-32190897D01*
X5528707Y-31936724D01*
X5193261Y-31870000D01*
X4966739Y-31870000D01*
X4631293Y-31936724D01*
X4250897Y-32190897D01*
X3996724Y-32571293D01*
X3907471Y-33020000D01*
X3712529Y-33020000D01*
X3623276Y-32571293D01*
X3369103Y-32190897D01*
X2988707Y-31936724D01*
X2653261Y-31870000D01*
X2426739Y-31870000D01*
X2091293Y-31936724D01*
X1710897Y-32190897D01*
X1456724Y-32571293D01*
X1367471Y-33020000D01*
X375000Y-33020000D01*
X375000Y-30692373D01*
X1358942Y-30692373D01*
X1367571Y-30735766D01*
X1554694Y-31164966D01*
X1891821Y-31489886D01*
X2327627Y-31661060D01*
X2515000Y-31592242D01*
X2515000Y-30505000D01*
X2565000Y-30505000D01*
X2565000Y-31592242D01*
X2752373Y-31661060D01*
X3188179Y-31489886D01*
X3525306Y-31164966D01*
X3712429Y-30735766D01*
X3721058Y-30692373D01*
X3898942Y-30692373D01*
X3907571Y-30735766D01*
X4094694Y-31164966D01*
X4431821Y-31489886D01*
X4867627Y-31661060D01*
X5055000Y-31592242D01*
X5055000Y-30505000D01*
X5105000Y-30505000D01*
X5105000Y-31592242D01*
X5292373Y-31661060D01*
X5728179Y-31489886D01*
X6065306Y-31164966D01*
X6252429Y-30735766D01*
X6261058Y-30692373D01*
X6192219Y-30505000D01*
X5105000Y-30505000D01*
X5055000Y-30505000D01*
X3967781Y-30505000D01*
X3898942Y-30692373D01*
X3721058Y-30692373D01*
X3652219Y-30505000D01*
X2565000Y-30505000D01*
X2515000Y-30505000D01*
X1427781Y-30505000D01*
X1358942Y-30692373D01*
X375000Y-30692373D01*
X375000Y-30267627D01*
X1358942Y-30267627D01*
X1427781Y-30455000D01*
X2515000Y-30455000D01*
X2515000Y-29367758D01*
X2565000Y-29367758D01*
X2565000Y-30455000D01*
X3652219Y-30455000D01*
X3721058Y-30267627D01*
X3898942Y-30267627D01*
X3967781Y-30455000D01*
X5055000Y-30455000D01*
X5055000Y-29367758D01*
X5105000Y-29367758D01*
X5105000Y-30455000D01*
X6192219Y-30455000D01*
X6261058Y-30267627D01*
X6252429Y-30224234D01*
X6065306Y-29795034D01*
X5728179Y-29470114D01*
X5292373Y-29298940D01*
X5105000Y-29367758D01*
X5055000Y-29367758D01*
X4867627Y-29298940D01*
X4431821Y-29470114D01*
X4094694Y-29795034D01*
X3907571Y-30224234D01*
X3898942Y-30267627D01*
X3721058Y-30267627D01*
X3712429Y-30224234D01*
X3525306Y-29795034D01*
X3188179Y-29470114D01*
X2752373Y-29298940D01*
X2565000Y-29367758D01*
X2515000Y-29367758D01*
X2327627Y-29298940D01*
X1891821Y-29470114D01*
X1554694Y-29795034D01*
X1367571Y-30224234D01*
X1358942Y-30267627D01*
X375000Y-30267627D01*
X375000Y-27940000D01*
X1367471Y-27940000D01*
X1456724Y-28388707D01*
X1710897Y-28769103D01*
X2091293Y-29023276D01*
X2426739Y-29090000D01*
X2653261Y-29090000D01*
X2988707Y-29023276D01*
X3369103Y-28769103D01*
X3623276Y-28388707D01*
X3712529Y-27940000D01*
X3623276Y-27491293D01*
X3369103Y-27110897D01*
X2988707Y-26856724D01*
X2653261Y-26790000D01*
X2426739Y-26790000D01*
X2091293Y-26856724D01*
X1710897Y-27110897D01*
X1456724Y-27491293D01*
X1367471Y-27940000D01*
X375000Y-27940000D01*
X375000Y-25400000D01*
X1367471Y-25400000D01*
X1456724Y-25848707D01*
X1710897Y-26229103D01*
X2091293Y-26483276D01*
X2426739Y-26550000D01*
X2653261Y-26550000D01*
X2988707Y-26483276D01*
X3030000Y-26455685D01*
X3479299Y-26904984D01*
X3501616Y-26938384D01*
X3625245Y-27020989D01*
X3633928Y-27026791D01*
X3790000Y-27057836D01*
X3829394Y-27050000D01*
X4342036Y-27050000D01*
X4250897Y-27110897D01*
X3996724Y-27491293D01*
X3907471Y-27940000D01*
X3996724Y-28388707D01*
X4250897Y-28769103D01*
X4631293Y-29023276D01*
X4966739Y-29090000D01*
X5193261Y-29090000D01*
X5528707Y-29023276D01*
X5909103Y-28769103D01*
X6163276Y-28388707D01*
X6252529Y-27940000D01*
X6163276Y-27491293D01*
X5909103Y-27110897D01*
X5817964Y-27050000D01*
X6659316Y-27050000D01*
X6864299Y-27254984D01*
X6886616Y-27288384D01*
X6989141Y-27356888D01*
X7009058Y-27457016D01*
X7122783Y-27627217D01*
X7292984Y-27740942D01*
X7493750Y-27780877D01*
X7931250Y-27780877D01*
X8132016Y-27740942D01*
X8302217Y-27627217D01*
X8415942Y-27457016D01*
X8455877Y-27256250D01*
X8455877Y-26743750D01*
X8415942Y-26542984D01*
X8302217Y-26372783D01*
X8132016Y-26259058D01*
X8086479Y-26250000D01*
X8132016Y-26240942D01*
X8302217Y-26127217D01*
X8415942Y-25957016D01*
X8455877Y-25756250D01*
X8455877Y-25243750D01*
X8544123Y-25243750D01*
X8544123Y-25756250D01*
X8584058Y-25957016D01*
X8697783Y-26127217D01*
X8867984Y-26240942D01*
X8913521Y-26250000D01*
X8867984Y-26259058D01*
X8697783Y-26372783D01*
X8584058Y-26542984D01*
X8544123Y-26743750D01*
X8544123Y-27256250D01*
X8584058Y-27457016D01*
X8697783Y-27627217D01*
X8867984Y-27740942D01*
X8887501Y-27744824D01*
X8887501Y-27896598D01*
X8881805Y-27898957D01*
X8698957Y-28081805D01*
X8600000Y-28320707D01*
X8600000Y-28579293D01*
X8698957Y-28818195D01*
X8881805Y-29001043D01*
X9120707Y-29100000D01*
X9379293Y-29100000D01*
X9618195Y-29001043D01*
X9801043Y-28818195D01*
X9900000Y-28579293D01*
X9900000Y-28320707D01*
X9801043Y-28081805D01*
X9687500Y-27968262D01*
X9687500Y-27744824D01*
X9707016Y-27740942D01*
X9877217Y-27627217D01*
X9923810Y-27557486D01*
X9948957Y-27618195D01*
X10131805Y-27801043D01*
X10370707Y-27900000D01*
X10629293Y-27900000D01*
X10868195Y-27801043D01*
X11051043Y-27618195D01*
X11150000Y-27379293D01*
X11150000Y-27120707D01*
X11051043Y-26881805D01*
X10903506Y-26734268D01*
X10907836Y-26712500D01*
X10876791Y-26556428D01*
X10853630Y-26521765D01*
X10788384Y-26424116D01*
X10754985Y-26401800D01*
X10030877Y-25677693D01*
X10030877Y-25243750D01*
X9990942Y-25042984D01*
X9877217Y-24872783D01*
X9707016Y-24759058D01*
X9506250Y-24719123D01*
X9068750Y-24719123D01*
X8867984Y-24759058D01*
X8697783Y-24872783D01*
X8584058Y-25042984D01*
X8544123Y-25243750D01*
X8455877Y-25243750D01*
X8415942Y-25042984D01*
X8302217Y-24872783D01*
X8132016Y-24759058D01*
X7931250Y-24719123D01*
X7504809Y-24719123D01*
X6135685Y-23350000D01*
X6163276Y-23308707D01*
X6252529Y-22860000D01*
X6163276Y-22411293D01*
X5909103Y-22030897D01*
X5528707Y-21776724D01*
X5193261Y-21710000D01*
X4966739Y-21710000D01*
X4631293Y-21776724D01*
X4250897Y-22030897D01*
X3996724Y-22411293D01*
X3907471Y-22860000D01*
X3996724Y-23308707D01*
X4250897Y-23689103D01*
X4631293Y-23943276D01*
X4966739Y-24010000D01*
X5193261Y-24010000D01*
X5528707Y-23943276D01*
X5570000Y-23915685D01*
X6969123Y-25314809D01*
X6969123Y-25756250D01*
X7009058Y-25957016D01*
X7122783Y-26127217D01*
X7292984Y-26240942D01*
X7338521Y-26250000D01*
X7292984Y-26259058D01*
X7122783Y-26372783D01*
X7121814Y-26374233D01*
X7113384Y-26361616D01*
X6981072Y-26273209D01*
X6864394Y-26250000D01*
X6825000Y-26242164D01*
X6785606Y-26250000D01*
X5877828Y-26250000D01*
X5909103Y-26229103D01*
X6163276Y-25848707D01*
X6252529Y-25400000D01*
X6163276Y-24951293D01*
X5909103Y-24570897D01*
X5528707Y-24316724D01*
X5193261Y-24250000D01*
X4966739Y-24250000D01*
X4631293Y-24316724D01*
X4250897Y-24570897D01*
X3996724Y-24951293D01*
X3907471Y-25400000D01*
X3996724Y-25848707D01*
X4250897Y-26229103D01*
X4282172Y-26250000D01*
X3955685Y-26250000D01*
X3595685Y-25890000D01*
X3623276Y-25848707D01*
X3712529Y-25400000D01*
X3623276Y-24951293D01*
X3369103Y-24570897D01*
X2988707Y-24316724D01*
X2653261Y-24250000D01*
X2426739Y-24250000D01*
X2091293Y-24316724D01*
X1710897Y-24570897D01*
X1456724Y-24951293D01*
X1367471Y-25400000D01*
X375000Y-25400000D01*
X375000Y-22860000D01*
X1367471Y-22860000D01*
X1456724Y-23308707D01*
X1710897Y-23689103D01*
X2091293Y-23943276D01*
X2426739Y-24010000D01*
X2653261Y-24010000D01*
X2988707Y-23943276D01*
X3369103Y-23689103D01*
X3623276Y-23308707D01*
X3712529Y-22860000D01*
X3623276Y-22411293D01*
X3369103Y-22030897D01*
X2988707Y-21776724D01*
X2653261Y-21710000D01*
X2426739Y-21710000D01*
X2091293Y-21776724D01*
X1710897Y-22030897D01*
X1456724Y-22411293D01*
X1367471Y-22860000D01*
X375000Y-22860000D01*
X375000Y-20320000D01*
X1367471Y-20320000D01*
X1456724Y-20768707D01*
X1710897Y-21149103D01*
X2091293Y-21403276D01*
X2426739Y-21470000D01*
X2653261Y-21470000D01*
X2988707Y-21403276D01*
X3369103Y-21149103D01*
X3623276Y-20768707D01*
X3712529Y-20320000D01*
X3907471Y-20320000D01*
X3996724Y-20768707D01*
X4250897Y-21149103D01*
X4631293Y-21403276D01*
X4966739Y-21470000D01*
X5193261Y-21470000D01*
X5528707Y-21403276D01*
X5909103Y-21149103D01*
X6163276Y-20768707D01*
X6252529Y-20320000D01*
X6163276Y-19871293D01*
X5909103Y-19490897D01*
X5528707Y-19236724D01*
X5193261Y-19170000D01*
X4966739Y-19170000D01*
X4631293Y-19236724D01*
X4250897Y-19490897D01*
X3996724Y-19871293D01*
X3907471Y-20320000D01*
X3712529Y-20320000D01*
X3623276Y-19871293D01*
X3369103Y-19490897D01*
X2988707Y-19236724D01*
X2653261Y-19170000D01*
X2426739Y-19170000D01*
X2091293Y-19236724D01*
X1710897Y-19490897D01*
X1456724Y-19871293D01*
X1367471Y-20320000D01*
X375000Y-20320000D01*
X375000Y-17780000D01*
X1367471Y-17780000D01*
X1456724Y-18228707D01*
X1710897Y-18609103D01*
X2091293Y-18863276D01*
X2426739Y-18930000D01*
X2653261Y-18930000D01*
X2988707Y-18863276D01*
X3369103Y-18609103D01*
X3623276Y-18228707D01*
X3712529Y-17780000D01*
X3907471Y-17780000D01*
X3996724Y-18228707D01*
X4250897Y-18609103D01*
X4631293Y-18863276D01*
X4966739Y-18930000D01*
X5193261Y-18930000D01*
X5528707Y-18863276D01*
X5909103Y-18609103D01*
X6163276Y-18228707D01*
X6252529Y-17780000D01*
X6163276Y-17331293D01*
X5909103Y-16950897D01*
X5528707Y-16696724D01*
X5193261Y-16630000D01*
X4966739Y-16630000D01*
X4631293Y-16696724D01*
X4250897Y-16950897D01*
X3996724Y-17331293D01*
X3907471Y-17780000D01*
X3712529Y-17780000D01*
X3623276Y-17331293D01*
X3369103Y-16950897D01*
X2988707Y-16696724D01*
X2653261Y-16630000D01*
X2426739Y-16630000D01*
X2091293Y-16696724D01*
X1710897Y-16950897D01*
X1456724Y-17331293D01*
X1367471Y-17780000D01*
X375000Y-17780000D01*
X375000Y-15240000D01*
X1367471Y-15240000D01*
X1456724Y-15688707D01*
X1710897Y-16069103D01*
X2091293Y-16323276D01*
X2426739Y-16390000D01*
X2653261Y-16390000D01*
X2988707Y-16323276D01*
X3369103Y-16069103D01*
X3623276Y-15688707D01*
X3712529Y-15240000D01*
X3623276Y-14791293D01*
X3369103Y-14410897D01*
X2988707Y-14156724D01*
X2653261Y-14090000D01*
X2426739Y-14090000D01*
X2091293Y-14156724D01*
X1710897Y-14410897D01*
X1456724Y-14791293D01*
X1367471Y-15240000D01*
X375000Y-15240000D01*
X375000Y-10160000D01*
X1367471Y-10160000D01*
X1456724Y-10608707D01*
X1710897Y-10989103D01*
X2091293Y-11243276D01*
X2426739Y-11310000D01*
X2653261Y-11310000D01*
X2988707Y-11243276D01*
X3369103Y-10989103D01*
X3623276Y-10608707D01*
X3712529Y-10160000D01*
X3623276Y-9711293D01*
X3595685Y-9670000D01*
X3965686Y-9300000D01*
X4297138Y-9300000D01*
X4250897Y-9330897D01*
X3996724Y-9711293D01*
X3907471Y-10160000D01*
X3996724Y-10608707D01*
X4250897Y-10989103D01*
X4631293Y-11243276D01*
X4966739Y-11310000D01*
X5193261Y-11310000D01*
X5528707Y-11243276D01*
X5570000Y-11215685D01*
X6250000Y-11895686D01*
X6250001Y-12687290D01*
X6163276Y-12251293D01*
X5909103Y-11870897D01*
X5528707Y-11616724D01*
X5193261Y-11550000D01*
X4966739Y-11550000D01*
X4631293Y-11616724D01*
X4250897Y-11870897D01*
X3996724Y-12251293D01*
X3907471Y-12700000D01*
X3996724Y-13148707D01*
X4250897Y-13529103D01*
X4282172Y-13550000D01*
X3955685Y-13550000D01*
X3595685Y-13190000D01*
X3623276Y-13148707D01*
X3712529Y-12700000D01*
X3623276Y-12251293D01*
X3369103Y-11870897D01*
X2988707Y-11616724D01*
X2653261Y-11550000D01*
X2426739Y-11550000D01*
X2091293Y-11616724D01*
X1710897Y-11870897D01*
X1456724Y-12251293D01*
X1367471Y-12700000D01*
X1456724Y-13148707D01*
X1710897Y-13529103D01*
X2091293Y-13783276D01*
X2426739Y-13850000D01*
X2653261Y-13850000D01*
X2988707Y-13783276D01*
X3030000Y-13755685D01*
X3479299Y-14204984D01*
X3501616Y-14238384D01*
X3609843Y-14310698D01*
X3633928Y-14326791D01*
X3790000Y-14357836D01*
X3829394Y-14350000D01*
X4342036Y-14350000D01*
X4250897Y-14410897D01*
X3996724Y-14791293D01*
X3907471Y-15240000D01*
X3996724Y-15688707D01*
X4250897Y-16069103D01*
X4631293Y-16323276D01*
X4966739Y-16390000D01*
X5193261Y-16390000D01*
X5528707Y-16323276D01*
X5909103Y-16069103D01*
X6163276Y-15688707D01*
X6252529Y-15240000D01*
X6201929Y-14985613D01*
X7375000Y-16158686D01*
X7375001Y-17944123D01*
X7275000Y-17944123D01*
X7157946Y-17967407D01*
X7058712Y-18033712D01*
X6992407Y-18132946D01*
X6969123Y-18250000D01*
X6969123Y-19750000D01*
X6992407Y-19867054D01*
X7058712Y-19966288D01*
X7157946Y-20032593D01*
X7275000Y-20055877D01*
X8425000Y-20055877D01*
X8574878Y-20010498D01*
X8607946Y-20032593D01*
X8725000Y-20055877D01*
X8825001Y-20055877D01*
X8825001Y-20585602D01*
X8817164Y-20625000D01*
X8821637Y-20647485D01*
X8700000Y-20941142D01*
X8700000Y-21358858D01*
X8859853Y-21744777D01*
X9155223Y-22040147D01*
X9541142Y-22200000D01*
X9958858Y-22200000D01*
X10344777Y-22040147D01*
X10640147Y-21744777D01*
X10720826Y-21550000D01*
X10757662Y-21550000D01*
X10759058Y-21557016D01*
X10872783Y-21727217D01*
X11042984Y-21840942D01*
X11243750Y-21880877D01*
X11756250Y-21880877D01*
X11957016Y-21840942D01*
X12127217Y-21727217D01*
X12240942Y-21557016D01*
X12280877Y-21356250D01*
X12280877Y-20918750D01*
X12240942Y-20717984D01*
X12127217Y-20547783D01*
X11957016Y-20434058D01*
X11756250Y-20394123D01*
X11243750Y-20394123D01*
X11042984Y-20434058D01*
X10872783Y-20547783D01*
X10759058Y-20717984D01*
X10752690Y-20750000D01*
X10720826Y-20750000D01*
X10640147Y-20555223D01*
X10344777Y-20259853D01*
X9958858Y-20100000D01*
X9625000Y-20100000D01*
X9625000Y-20055877D01*
X9725000Y-20055877D01*
X9842054Y-20032593D01*
X9941288Y-19966288D01*
X10007593Y-19867054D01*
X10030877Y-19750000D01*
X10030877Y-19675000D01*
X10675000Y-19675000D01*
X10675000Y-20069619D01*
X10728284Y-20198259D01*
X10826741Y-20296715D01*
X10955380Y-20350000D01*
X11387500Y-20350000D01*
X11475000Y-20262500D01*
X11475000Y-19587500D01*
X11525000Y-19587500D01*
X11525000Y-20262500D01*
X11612500Y-20350000D01*
X12044620Y-20350000D01*
X12173259Y-20296715D01*
X12271716Y-20198259D01*
X12325000Y-20069619D01*
X12325000Y-19675000D01*
X12237500Y-19587500D01*
X11525000Y-19587500D01*
X11475000Y-19587500D01*
X10762500Y-19587500D01*
X10675000Y-19675000D01*
X10030877Y-19675000D01*
X10030877Y-19055381D01*
X10675000Y-19055381D01*
X10675000Y-19450000D01*
X10762500Y-19537500D01*
X11475000Y-19537500D01*
X11475000Y-18862500D01*
X11525000Y-18862500D01*
X11525000Y-19537500D01*
X12237500Y-19537500D01*
X12325000Y-19450000D01*
X12325000Y-19055381D01*
X12271716Y-18926741D01*
X12173259Y-18828285D01*
X12044620Y-18775000D01*
X11612500Y-18775000D01*
X11525000Y-18862500D01*
X11475000Y-18862500D01*
X11387500Y-18775000D01*
X10955380Y-18775000D01*
X10826741Y-18828285D01*
X10728284Y-18926741D01*
X10675000Y-19055381D01*
X10030877Y-19055381D01*
X10030877Y-18250000D01*
X10007593Y-18132946D01*
X9941288Y-18033712D01*
X9842054Y-17967407D01*
X9758273Y-17950741D01*
X9779290Y-17900000D01*
X10675000Y-17900000D01*
X10675000Y-18294619D01*
X10728284Y-18423259D01*
X10826741Y-18521715D01*
X10955380Y-18575000D01*
X11387500Y-18575000D01*
X11475000Y-18487500D01*
X11475000Y-17812500D01*
X11525000Y-17812500D01*
X11525000Y-18487500D01*
X11612500Y-18575000D01*
X12044620Y-18575000D01*
X12173259Y-18521715D01*
X12271716Y-18423259D01*
X12325000Y-18294619D01*
X12325000Y-17900000D01*
X12237500Y-17812500D01*
X11525000Y-17812500D01*
X11475000Y-17812500D01*
X10762500Y-17812500D01*
X10675000Y-17900000D01*
X9779290Y-17900000D01*
X9850000Y-17729293D01*
X9850000Y-17470707D01*
X9779290Y-17300000D01*
X9958858Y-17300000D01*
X10006222Y-17280381D01*
X10675000Y-17280381D01*
X10675000Y-17675000D01*
X10762500Y-17762500D01*
X11475000Y-17762500D01*
X11475000Y-17087500D01*
X11525000Y-17087500D01*
X11525000Y-17762500D01*
X12237500Y-17762500D01*
X12325000Y-17675000D01*
X12325000Y-17280381D01*
X12271716Y-17151741D01*
X12173259Y-17053285D01*
X12044620Y-17000000D01*
X11612500Y-17000000D01*
X11525000Y-17087500D01*
X11475000Y-17087500D01*
X11387500Y-17000000D01*
X10955380Y-17000000D01*
X10826741Y-17053285D01*
X10728284Y-17151741D01*
X10675000Y-17280381D01*
X10006222Y-17280381D01*
X10344777Y-17140147D01*
X10640147Y-16844777D01*
X10736359Y-16612500D01*
X10755176Y-16612500D01*
X10759058Y-16632016D01*
X10872783Y-16802217D01*
X11042984Y-16915942D01*
X11243750Y-16955877D01*
X11756250Y-16955877D01*
X11957016Y-16915942D01*
X12127217Y-16802217D01*
X12240942Y-16632016D01*
X12280877Y-16431250D01*
X12280877Y-15993750D01*
X12240942Y-15792984D01*
X12127217Y-15622783D01*
X11957016Y-15509058D01*
X11756250Y-15469123D01*
X11243750Y-15469123D01*
X11042984Y-15509058D01*
X10872783Y-15622783D01*
X10759058Y-15792984D01*
X10755176Y-15812500D01*
X10705293Y-15812500D01*
X10640147Y-15655223D01*
X10344777Y-15359853D01*
X9958858Y-15200000D01*
X9625000Y-15200000D01*
X9625000Y-15055877D01*
X9725000Y-15055877D01*
X9842054Y-15032593D01*
X9941288Y-14966288D01*
X10007593Y-14867054D01*
X10030877Y-14750000D01*
X10030877Y-13250000D01*
X10020931Y-13200001D01*
X10757663Y-13200001D01*
X10759058Y-13207016D01*
X10872783Y-13377217D01*
X11042984Y-13490942D01*
X11243750Y-13530877D01*
X11756250Y-13530877D01*
X11957016Y-13490942D01*
X12127217Y-13377217D01*
X12240942Y-13207016D01*
X12250000Y-13161479D01*
X12259058Y-13207016D01*
X12372783Y-13377217D01*
X12542984Y-13490942D01*
X12743750Y-13530877D01*
X13256250Y-13530877D01*
X13457016Y-13490942D01*
X13627217Y-13377217D01*
X13740942Y-13207016D01*
X13780877Y-13006250D01*
X13780877Y-12568750D01*
X13740942Y-12367984D01*
X13627217Y-12197783D01*
X13457016Y-12084058D01*
X13256250Y-12044123D01*
X12822308Y-12044123D01*
X12778185Y-12000000D01*
X12887500Y-12000000D01*
X12975000Y-11912500D01*
X12975000Y-11237500D01*
X13025000Y-11237500D01*
X13025000Y-11912500D01*
X13112500Y-12000000D01*
X13544620Y-12000000D01*
X13673259Y-11946715D01*
X13771716Y-11848259D01*
X13825000Y-11719619D01*
X13825000Y-11325000D01*
X13737500Y-11237500D01*
X13025000Y-11237500D01*
X12975000Y-11237500D01*
X12262500Y-11237500D01*
X12250000Y-11250000D01*
X12237500Y-11237500D01*
X11525000Y-11237500D01*
X11525000Y-11257500D01*
X11475000Y-11257500D01*
X11475000Y-11237500D01*
X10762500Y-11237500D01*
X10675000Y-11325000D01*
X10675000Y-11600000D01*
X10637944Y-11600000D01*
X10649999Y-11539395D01*
X10657835Y-11500002D01*
X10649999Y-11460609D01*
X10649999Y-10705381D01*
X10675000Y-10705381D01*
X10675000Y-11100000D01*
X10762500Y-11187500D01*
X11475000Y-11187500D01*
X11475000Y-10512500D01*
X11525000Y-10512500D01*
X11525000Y-11187500D01*
X12237500Y-11187500D01*
X12250000Y-11175000D01*
X12262500Y-11187500D01*
X12975000Y-11187500D01*
X12975000Y-10512500D01*
X13025000Y-10512500D01*
X13025000Y-11187500D01*
X13737500Y-11187500D01*
X13825000Y-11100000D01*
X13825000Y-10705381D01*
X13771716Y-10576741D01*
X13673259Y-10478285D01*
X13544620Y-10425000D01*
X13112500Y-10425000D01*
X13025000Y-10512500D01*
X12975000Y-10512500D01*
X12887500Y-10425000D01*
X12455380Y-10425000D01*
X12326741Y-10478285D01*
X12250000Y-10555025D01*
X12173259Y-10478285D01*
X12044620Y-10425000D01*
X11612500Y-10425000D01*
X11525000Y-10512500D01*
X11475000Y-10512500D01*
X11387500Y-10425000D01*
X10955380Y-10425000D01*
X10826741Y-10478285D01*
X10728284Y-10576741D01*
X10675000Y-10705381D01*
X10649999Y-10705381D01*
X10649999Y-8564391D01*
X10657835Y-8524998D01*
X10649999Y-8485605D01*
X10626790Y-8368927D01*
X10538383Y-8236615D01*
X10504987Y-8214301D01*
X10030877Y-7740192D01*
X10030877Y-6750000D01*
X10007593Y-6632946D01*
X9941288Y-6533712D01*
X9842054Y-6467407D01*
X9725000Y-6444123D01*
X8725000Y-6444123D01*
X8665013Y-6450063D01*
X8573188Y-6488210D01*
X8542054Y-6467407D01*
X8425000Y-6444123D01*
X7275000Y-6444123D01*
X7157946Y-6467407D01*
X7058712Y-6533712D01*
X6992407Y-6632946D01*
X6969123Y-6750000D01*
X6969123Y-7100000D01*
X6115639Y-7100000D01*
X5909103Y-6790897D01*
X5528707Y-6536724D01*
X5193261Y-6470000D01*
X4966739Y-6470000D01*
X4631293Y-6536724D01*
X4250897Y-6790897D01*
X3996724Y-7171293D01*
X3907471Y-7620000D01*
X3996724Y-8068707D01*
X4250897Y-8449103D01*
X4327070Y-8500000D01*
X3839392Y-8500000D01*
X3799999Y-8492164D01*
X3760607Y-8500000D01*
X3760606Y-8500000D01*
X3643928Y-8523209D01*
X3511616Y-8611616D01*
X3489301Y-8645013D01*
X3030000Y-9104315D01*
X2988707Y-9076724D01*
X2653261Y-9010000D01*
X2426739Y-9010000D01*
X2091293Y-9076724D01*
X1710897Y-9330897D01*
X1456724Y-9711293D01*
X1367471Y-10160000D01*
X375000Y-10160000D01*
X375000Y-7620000D01*
X1367471Y-7620000D01*
X1456724Y-8068707D01*
X1710897Y-8449103D01*
X2091293Y-8703276D01*
X2426739Y-8770000D01*
X2653261Y-8770000D01*
X2988707Y-8703276D01*
X3369103Y-8449103D01*
X3623276Y-8068707D01*
X3712529Y-7620000D01*
X3623276Y-7171293D01*
X3369103Y-6790897D01*
X2988707Y-6536724D01*
X2653261Y-6470000D01*
X2426739Y-6470000D01*
X2091293Y-6536724D01*
X1710897Y-6790897D01*
X1456724Y-7171293D01*
X1367471Y-7620000D01*
X375000Y-7620000D01*
X375000Y-4230000D01*
X1384123Y-4230000D01*
X1384123Y-5930000D01*
X1407407Y-6047054D01*
X1473712Y-6146288D01*
X1572946Y-6212593D01*
X1690000Y-6235877D01*
X3390000Y-6235877D01*
X3507054Y-6212593D01*
X3606288Y-6146288D01*
X3672593Y-6047054D01*
X3695877Y-5930000D01*
X3695877Y-5080000D01*
X3907471Y-5080000D01*
X3996724Y-5528707D01*
X4250897Y-5909103D01*
X4631293Y-6163276D01*
X4966739Y-6230000D01*
X5193261Y-6230000D01*
X5389981Y-6190870D01*
X13510000Y-6190870D01*
X13510000Y-6509130D01*
X13631793Y-6803164D01*
X13856836Y-7028207D01*
X14150870Y-7150000D01*
X14469130Y-7150000D01*
X14763164Y-7028207D01*
X14988207Y-6803164D01*
X15110000Y-6509130D01*
X15110000Y-6190870D01*
X17910000Y-6190870D01*
X17910000Y-6509130D01*
X18031793Y-6803164D01*
X18256836Y-7028207D01*
X18550870Y-7150000D01*
X18869130Y-7150000D01*
X19163164Y-7028207D01*
X19388207Y-6803164D01*
X19510000Y-6509130D01*
X19510000Y-6190870D01*
X19388207Y-5896836D01*
X19163164Y-5671793D01*
X18869130Y-5550000D01*
X18550870Y-5550000D01*
X18256836Y-5671793D01*
X18031793Y-5896836D01*
X17910000Y-6190870D01*
X15110000Y-6190870D01*
X14988207Y-5896836D01*
X14763164Y-5671793D01*
X14469130Y-5550000D01*
X14150870Y-5550000D01*
X13856836Y-5671793D01*
X13631793Y-5896836D01*
X13510000Y-6190870D01*
X5389981Y-6190870D01*
X5528707Y-6163276D01*
X5909103Y-5909103D01*
X6163276Y-5528707D01*
X6252529Y-5080000D01*
X6163276Y-4631293D01*
X5909103Y-4250897D01*
X5528707Y-3996724D01*
X5193261Y-3930000D01*
X4966739Y-3930000D01*
X4631293Y-3996724D01*
X4250897Y-4250897D01*
X3996724Y-4631293D01*
X3907471Y-5080000D01*
X3695877Y-5080000D01*
X3695877Y-4230000D01*
X3672593Y-4112946D01*
X3606288Y-4013712D01*
X3507054Y-3947407D01*
X3390000Y-3924123D01*
X1690000Y-3924123D01*
X1572946Y-3947407D01*
X1473712Y-4013712D01*
X1407407Y-4112946D01*
X1384123Y-4230000D01*
X375000Y-4230000D01*
X375000Y-375000D01*
X32625001Y-375000D01*
X32625000Y-39625000D01*
G04 #@! TD*
M02*
